<svg width="152" height="70" viewBox="0 0 152 70" fill="none" xmlns="http://www.w3.org/2000/svg">
<path d="M3 64.3079C1.61929 64.3079 0.5 65.4272 0.5 66.8079C0.5 68.1886 1.61929 69.3079 3 69.3079V64.3079ZM149.493 2.81891C149.393 1.44183 148.196 0.406555 146.819 0.506567L124.378 2.13635C123.001 2.23636 121.966 3.43379 122.066 4.81087C122.166 6.18796 123.363 7.22323 124.74 7.12322L144.688 5.67452L146.136 25.622C146.236 26.9991 147.434 28.0343 148.811 27.9343C150.188 27.8343 151.223 26.6369 151.123 25.2598L149.493 2.81891ZM3 69.3079C37.923 69.3079 63.9464 65.3402 86.5255 55.1839C109.115 45.023 128.021 28.7742 148.891 4.63508L145.109 1.36492C124.479 25.2258 106.135 40.8809 84.4745 50.624C62.8036 60.3716 37.577 64.3079 3 64.3079V69.3079Z" fill="white"/>
</svg>
