<?xml version="1.0" encoding="utf-8"?>
<!-- Generator: Adobe Illustrator 24.2.3, SVG Export Plug-In . SVG Version: 6.00 Build 0)  -->
<svg version="1.1" id="Layer_1" xmlns="http://www.w3.org/2000/svg" xmlns:xlink="http://www.w3.org/1999/xlink" x="0px" y="0px"
	 viewBox="0 0 170.8 597.5" style="enable-background:new 0 0 170.8 597.5;" xml:space="preserve">
<style type="text/css">
	.st0{fill:url(#SVGID_1_);}
	.st1{fill:url(#SVGID_2_);}
	.st2{fill:#E1A59B;}
	.st3{fill:#0029FF;}
</style>
<linearGradient id="SVGID_1_" gradientUnits="userSpaceOnUse" x1="21.5528" y1="413.9799" x2="103.9788" y2="392.2479" gradientTransform="matrix(1 0 0 1 0 -254.8029)">
	<stop  offset="0" style="stop-color:#E1A59B"/>
	<stop  offset="0.9271" style="stop-color:#E1A59B;stop-opacity:0.65"/>
</linearGradient>
<path class="st0" d="M31.8,0.6C66.2-5.6,81,38.3,90,69.4c15.5,53.7,30.8,222.9,28.9,218.3L71.5,302c0,0-36.4-83.9-45-121.6
	C18,142.6-24.6,10.7,31.8,0.6z"/>
<linearGradient id="SVGID_2_" gradientUnits="userSpaceOnUse" x1="84.6296" y1="642.7358" x2="147.8466" y2="636.7288" gradientTransform="matrix(1 0 0 1 0 -254.8029)">
	<stop  offset="0" style="stop-color:#E1A59B"/>
	<stop  offset="1" style="stop-color:#E1A59B;stop-opacity:0.61"/>
</linearGradient>
<path class="st1" d="M71.4,301.7l47.4-14.7c0,0,23.1,34.3,28.8,79.6s-2.2,109.9-2.2,109.9l-29,6.1c0,0-17.5-35.9-35.1-101.3
	C72.9,350.6,71.4,301.7,71.4,301.7z"/>
<path class="st2" d="M116.7,482.7l29-6.1c0,0,24.9,30.7,25.1,62.5c0.1,31.7-7.7,54.6-21.4,54.4c-13.7-0.1,1.9-72.9-21.2-70.4
	c-23.2,2.5-26.3,37.1-29.2,32.6c-2.9-4.5-3.3-30,2.6-46.5S116.7,482.7,116.7,482.7L116.7,482.7z"/>
<rect x="113" y="475.1" transform="matrix(0.9881 -0.1538 0.1538 0.9881 -72.219 25.8472)" class="st3" width="35.9" height="9.2"/>
</svg>
