<?xml version="1.0" encoding="utf-8"?>
<!-- Generator: Adobe Illustrator 26.3.1, SVG Export Plug-In . SVG Version: 6.00 Build 0)  -->
<svg version="1.1" id="Layer_1" xmlns="http://www.w3.org/2000/svg" xmlns:xlink="http://www.w3.org/1999/xlink" x="0px" y="0px"
	 viewBox="0 0 508 1641" style="enable-background:new 0 0 508 1641;" xml:space="preserve">
<style type="text/css">
	.st0{fill:url(#SVGID_1_);}
	.st1{fill:url(#SVGID_00000133491711082077332650000007330376591829503674_);}
	.st2{fill:url(#SVGID_00000038405831909705328020000017568556535846521518_);}
	.st3{fill:url(#SVGID_00000128473732927920111600000018331255566968426428_);}
	.st4{fill:url(#SVGID_00000148633191866579293500000002950571627525246086_);}
	.st5{fill:#F1E1E2;}
	.st6{fill:url(#SVGID_00000031923099790332239440000009250418657147006640_);}
	.st7{fill:url(#SVGID_00000134250867363384230570000001471714817594782387_);}
	.st8{fill:url(#SVGID_00000150792888885233649980000014664893442113776270_);}
	.st9{fill:#E1A59B;}
	.st10{fill:url(#SVGID_00000136410841077508105710000011087155841539214999_);}
	.st11{fill:#FFF1F2;}
	.st12{fill:#F8F2F2;}
	.st13{fill:url(#SVGID_00000129194117606379138540000014597632920542064782_);}
	.st14{fill:url(#SVGID_00000063599826927543884180000009670199996285129385_);}
	.st15{fill:#FF9898;}
	.st16{fill:#FFFFFF;}
	.st17{fill:#E6FF4F;}
	.st18{fill:#231815;}
</style>
<linearGradient id="SVGID_1_" gradientUnits="userSpaceOnUse" x1="439" y1="1165.908" x2="299" y2="1165.908" gradientTransform="matrix(1 0 0 -1 0 1642)">
	<stop  offset="0" style="stop-color:#E1A59B;stop-opacity:0.49"/>
	<stop  offset="1" style="stop-color:#E1A59B"/>
</linearGradient>
<path class="st0" d="M406.2,588.6c-0.9,58.2,12.8,80.1,18.5,99.4c6.5,22,18.3,52.9,18.3,52.9H299.3V211.3h43.6
	c0,0,29.9,64.2,88.1,69.3c85.6,7.5,27.3,93.5,24,164.9C454.7,450.8,406.6,561,406.2,588.6z"/>
<linearGradient id="SVGID_00000018227103298906464740000005930171291111003541_" gradientUnits="userSpaceOnUse" x1="83.5402" y1="1215.6383" x2="154.5402" y2="1200.6383" gradientTransform="matrix(1 0 0 -1 0 1642)">
	<stop  offset="0" style="stop-color:#E1A59B;stop-opacity:0.79"/>
	<stop  offset="0.4844" style="stop-color:#E1A59B"/>
	<stop  offset="1" style="stop-color:#E1A59B"/>
</linearGradient>
<path style="fill:url(#SVGID_00000018227103298906464740000005930171291111003541_);" d="M147.4,284.7
	c-34.3-6.7-49.9,36.9-59.4,67.8C71.7,406,53.4,574.9,55.3,570.3l47.1,15.2c0,0,37.9-83.3,47.1-120.9
	C158.8,427,203.7,295.8,147.4,284.7z"/>
<linearGradient id="SVGID_00000080198649064961473160000006495248262178800018_" gradientUnits="userSpaceOnUse" x1="41.067" y1="977.3308" x2="88.2812" y2="967.0688" gradientTransform="matrix(1 0 0 -1 0 1642)">
	<stop  offset="0" style="stop-color:#E1A59B;stop-opacity:0.79"/>
	<stop  offset="0.8542" style="stop-color:#E1A59B"/>
	<stop  offset="1" style="stop-color:#E1A59B"/>
</linearGradient>
<path style="fill:url(#SVGID_00000080198649064961473160000006495248262178800018_);" d="M102.5,585L55.2,570
	c0,0-23.3,33.6-29.7,78.8s0.3,109.9,0.3,109.9l28.9,6.6c0,0,18.1-35.6,36.9-100.7C100.5,634.1,102.5,585,102.5,585z"/>
<linearGradient id="SVGID_00000135692531286784176110000004568413182500557976_" gradientUnits="userSpaceOnUse" x1="17.426" y1="828.8452" x2="58.4456" y2="815.0891" gradientTransform="matrix(1 0 0 -1 0 1642)">
	<stop  offset="0" style="stop-color:#E1A59B;stop-opacity:0.79"/>
	<stop  offset="0.3854" style="stop-color:#E1A59B"/>
	<stop  offset="1" style="stop-color:#E1A59B"/>
</linearGradient>
<path style="fill:url(#SVGID_00000135692531286784176110000004568413182500557976_);" d="M55.1,764.6L26.2,758
	c0,0-25.5,30.3-26.2,62c-0.7,31.7,6.7,54.7,20.4,54.8c13.7,0.1-0.6-72.9,22.5-70.1c23.1,2.9,25.7,37.5,28.6,33.1
	c2.9-4.5,3.8-30-1.7-46.5C64.2,774.7,55.1,764.6,55.1,764.6L55.1,764.6z"/>
<linearGradient id="SVGID_00000120524902519058013140000007641713343999513485_" gradientUnits="userSpaceOnUse" x1="148.3765" y1="1169.7327" x2="117.3765" y2="1171.2327" gradientTransform="matrix(1 0 0 -1 0 1642)">
	<stop  offset="0" style="stop-color:#E1A59B"/>
	<stop  offset="1" style="stop-color:#E1A59B;stop-opacity:0.32"/>
</linearGradient>
<path style="fill:url(#SVGID_00000120524902519058013140000007641713343999513485_);" d="M192.3,588.6c0.9,58.2-12.8,80.1-18.5,99.4
	c-6.5,22-18.3,52.9-18.3,52.9h143.7V211.3h-43.6c0,0-29.9,64.2-88.1,69.3c-85.6,7.5-31.2,144.5-24,164.9
	C155.8,480.2,192,561,192.3,588.6z"/>
<path class="st5" d="M342.9,151.6h-87.3v59.7h87.3V151.6z"/>
<linearGradient id="SVGID_00000120536867056800853590000006209033161665275297_" gradientUnits="userSpaceOnUse" x1="127.7167" y1="729.2676" x2="273.1056" y2="708.3176" gradientTransform="matrix(1 0 0 -1 0 1642)">
	<stop  offset="0" style="stop-color:#E1A59B"/>
	<stop  offset="0.1867" style="stop-color:#E1A59B;stop-opacity:0.79"/>
	<stop  offset="1" style="stop-color:#E1A59B"/>
</linearGradient>
<path style="fill:url(#SVGID_00000120536867056800853590000006209033161665275297_);" d="M209.6,716.1c0,0-77.8,69.2-85.1,153.3
	c-7.3,84.1,36,268.2,36,268.2l80.7,15.5c0,0,10.2-42.4,22.3-156.3c15.9-149,70.5-278.5,70.5-278.5L209.6,716.1L209.6,716.1z"/>
<linearGradient id="SVGID_00000014621669291821035530000007451058720587561117_" gradientUnits="userSpaceOnUse" x1="371.0759" y1="706.9417" x2="495.6069" y2="688.5518" gradientTransform="matrix(1 0 0 -1 0 1642)">
	<stop  offset="0" style="stop-color:#E1A59B"/>
	<stop  offset="0.5244" style="stop-color:#E1A59B;stop-opacity:0.79"/>
	<stop  offset="1" style="stop-color:#E1A59B"/>
</linearGradient>
<path style="fill:url(#SVGID_00000014621669291821035530000007451058720587561117_);" d="M383.9,716.1c0,0,77.8,69.2,85.1,153.3
	s-36,268.2-36,268.2l-80.7,15.5c0,0-10.2-42.4-22.3-156.3c-15.9-149-70.5-278.5-70.5-278.5L383.9,716.1L383.9,716.1z"/>
<g>
	
		<linearGradient id="SVGID_00000064320240446110851090000012451435452372897187_" gradientUnits="userSpaceOnUse" x1="302.6445" y1="941.641" x2="302.6445" y2="709.363" gradientTransform="matrix(1 0 0 -1 0 1642)">
		<stop  offset="0" style="stop-color:#F8F2F2"/>
		<stop  offset="1" style="stop-color:#F1E1E2"/>
	</linearGradient>
	<path style="fill:url(#SVGID_00000064320240446110851090000012451435452372897187_);" d="M170,700.4l131.5-5.8l127,5.8l68.8,173.5
		c0,0-90.3,58.8-198.1,58.8c-107.8,0-191.3-63.1-191.3-63.1L170,700.4z"/>
</g>
<path class="st5" d="M299.1,0c-71.1,0-100.1,42-107.8,107.8c-2.3,27.7,0,51.6,0,51.6l107.8,9.5V0z"/>
<path class="st5" d="M298.7,0c71.1,0,107.8,40.7,107.8,107.8c0,43.7,0,69.5,0,69.5L298.7,169V0z"/>
<path class="st9" d="M382,112c-4.4-5.6-16.2,2.3-21.5,7c-2.2,6.2-6.5,20.2-6.5,27c0,8.5,2,9,8.5,11.5S387.5,119,382,112z"/>
<path class="st9" d="M216,112c4.4-5.6,16.2,2.3,21.5,7c2.2,6.2,6.5,20.2,6.5,27c0,8.5-2,9-8.5,11.5S210.5,119,216,112z"/>
<linearGradient id="SVGID_00000128447559500374432470000000100243889192674971_" gradientUnits="userSpaceOnUse" x1="298.6215" y1="1616.5435" x2="298.6215" y2="1430.694" gradientTransform="matrix(1 0 0 -1 0 1642)">
	<stop  offset="0.3906" style="stop-color:#ECBEB7"/>
	<stop  offset="1" style="stop-color:#E1A59B"/>
</linearGradient>
<path style="fill:url(#SVGID_00000128447559500374432470000000100243889192674971_);" d="M299.3,25.5c-39.8,0-73.2,39.7-71.2,93.1
	c2.1,53.3,37.8,92.8,71.2,92.8s70-39.7,70-92.9C369.2,65.2,342.2,25.5,299.3,25.5z"/>
<path class="st11" d="M209,84h6v77.5l-6-0.5V84z"/>
<path class="st11" d="M381,97h12v79l-12-0.5V97z"/>
<path class="st12" d="M224.2,151.6c0.9-24.5,0-66.5,28.2-81.2s42-4.2,59.1-23.5c17.1-19.4,25.1-42.3,25.1-42.3s-67-18.5-110.4,19.2
	C182.7,61.6,224.2,151.6,224.2,151.6L224.2,151.6z"/>
<path class="st12" d="M394.2,146.1c-18.5-34.2-76.3-67.9-72.4-101c3.9-33.1,14.7-40.5,14.7-40.5S383.1,13.2,399,59
	C416,108,394.2,146.1,394.2,146.1L394.2,146.1z"/>
<linearGradient id="SVGID_00000130627674881447593640000018261673724962867603_" gradientUnits="userSpaceOnUse" x1="138.1042" y1="310.3095" x2="230.5703" y2="318.0195" gradientTransform="matrix(1 0 0 -1 0 1642)">
	<stop  offset="0" style="stop-color:#E1A59B"/>
	<stop  offset="0.5244" style="stop-color:#E1A59B;stop-opacity:0.79"/>
	<stop  offset="1" style="stop-color:#E1A59B"/>
</linearGradient>
<path style="fill:url(#SVGID_00000130627674881447593640000018261673724962867603_);" d="M160.5,1137.7c0,0-10.8,119.3-9.1,169.8
	c1.7,50.6,28.7,209.1,28.7,209.1h45.2c0,0,19.6-189.9,19.9-240.6c0.2-50.7-4-122.8-4-122.8L160.5,1137.7z"/>
<linearGradient id="SVGID_00000183251064939562828470000005950808722843332753_" gradientUnits="userSpaceOnUse" x1="360.1074" y1="317.8622" x2="450.7444" y2="311.2021" gradientTransform="matrix(1 0 0 -1 0 1642)">
	<stop  offset="0" style="stop-color:#E1A59B"/>
	<stop  offset="0.6146" style="stop-color:#E1A59B;stop-opacity:0.79"/>
	<stop  offset="1" style="stop-color:#E1A59B"/>
</linearGradient>
<path style="fill:url(#SVGID_00000183251064939562828470000005950808722843332753_);" d="M433.1,1137.7c0,0,10.8,119.3,9.1,169.8
	c-1.7,50.6-28.7,209.1-28.7,209.1h-45.2c0,0-19.6-189.9-19.9-240.6c-0.3-52.3,4-122.8,4-122.8L433.1,1137.7z"/>
<path class="st5" d="M225.3,1516.6l3.5,65.1c0,0-18.6,38.9-68,52.4c-49.4,13.5-74.9,0-74.9,0s7.5-44.1,52.4-55.8
	c44.9-11.6,41.7-61.8,41.7-61.8L225.3,1516.6L225.3,1516.6z"/>
<path class="st5" d="M368.6,1516.6l-3.5,65.1c0,0,18.6,38.9,68,52.4c49.4,13.5,74.9,0,74.9,0s-7.5-44.1-52.4-55.8
	c-44.9-11.6-41.7-61.8-41.7-61.8L368.6,1516.6L368.6,1516.6z"/>
<rect x="228" y="146" class="st15" width="5" height="54"/>
<rect x="367" y="146" class="st15" width="5" height="33"/>
<path class="st16" d="M223.2,45.6c8-22.8,30.6-28.5,43-30.6c-34.2,6.2-45.6,45.8-47.1,64.8C218.6,76.4,216.6,64.4,223.2,45.6z"/>
<path class="st16" d="M377.5,46.3c-4.6-13-17.4-16.3-24.5-17.5c19.5,3.5,26,26.1,26.8,36.9C380.2,63.9,381.3,57,377.5,46.3z"/>
<rect x="36.8" y="743.3" transform="matrix(0.1524 -0.9883 0.9883 0.1524 -717.2235 686.1967)" class="st17" width="9.2" height="35.9"/>
<circle class="st18" cx="299" cy="716" r="8"/>
</svg>
