<?xml version="1.0" encoding="utf-8"?>
<!-- Generator: Adobe Illustrator 26.3.1, SVG Export Plug-In . SVG Version: 6.00 Build 0)  -->
<svg version="1.1" id="Layer_1" xmlns="http://www.w3.org/2000/svg" xmlns:xlink="http://www.w3.org/1999/xlink" x="0px" y="0px"
	 viewBox="0 0 103.5 480.2" style="enable-background:new 0 0 103.5 480.2;" xml:space="preserve">
<style type="text/css">
	.st0{fill:url(#SVGID_1_);}
	.st1{fill:url(#SVGID_00000170977804296965621260000009423022736866391468_);}
	.st2{fill:url(#SVGID_00000046314614866868893490000012089342485998625461_);}
	.st3{fill:#231815;}
	.st4{fill:#0029FF;}
</style>
<g>
	
		<linearGradient id="SVGID_1_" gradientUnits="userSpaceOnUse" x1="39.321" y1="348.5924" x2="93.886" y2="351.5224" gradientTransform="matrix(1 0 0 -1 0 475.7856)">
		<stop  offset="0" style="stop-color:#E1A59B;stop-opacity:0.81"/>
		<stop  offset="0.5104" style="stop-color:#E1A59B"/>
		<stop  offset="1" style="stop-color:#E1A59B;stop-opacity:0.98"/>
	</linearGradient>
	<path class="st0" d="M52,0.3C20.8,3.9,26.6,42.4,33.5,72.5c6.9,30.1,12.2,180.7,12.2,180.7l48.6-5.4c0,0,13.1-155.5,5.5-191
		C93.3,25.6,82.4-3.2,52,0.3z"/>
	
		<linearGradient id="SVGID_00000170263418489234365990000013934027934477242529_" gradientUnits="userSpaceOnUse" x1="39.7546" y1="156.0559" x2="71.4496" y2="150.4209" gradientTransform="matrix(1 0 0 -1 0 475.7856)">
		<stop  offset="0" style="stop-color:#E1A59B;stop-opacity:0.81"/>
		<stop  offset="0.5104" style="stop-color:#E1A59B"/>
		<stop  offset="1" style="stop-color:#E1A59B;stop-opacity:0.98"/>
	</linearGradient>
	<path style="fill:url(#SVGID_00000170263418489234365990000013934027934477242529_);" d="M45.7,253.2c0,0-8,43.2-13.2,71.2
		C27.3,352.5,20.4,398,20.4,398l33-3.8c0,0,15.3-23.8,29.1-60.4c10.2-27.2,11.8-86.1,11.8-86.1L45.7,253.2z"/>
	
		<linearGradient id="SVGID_00000080897471202546787280000006209100188455259786_" gradientUnits="userSpaceOnUse" x1="16.2754" y1="43.9858" x2="38.5524" y2="36.9128" gradientTransform="matrix(1 0 0 -1 0 475.7856)">
		<stop  offset="0" style="stop-color:#E1A59B;stop-opacity:0.81"/>
		<stop  offset="0.5104" style="stop-color:#E1A59B"/>
		<stop  offset="1" style="stop-color:#E1A59B;stop-opacity:0.98"/>
	</linearGradient>
	<path style="fill:url(#SVGID_00000080897471202546787280000006209100188455259786_);" d="M20.3,398c0,0-15.8,22.8-18.6,39.2
		c-2.2,13.2-6.1,45.2,16.5,42.8c22.6-2.4,35-85.9,35-85.9L20.3,398L20.3,398z"/>
	<path class="st3" d="M52,0.3c32.6-3.8,41.4,30.8,44.3,41.5c10.6,32,7.1,89.6,4.5,108c-13.3-12.5-39.8-17.6-60.2-4.7
		C39.5,144.8,24.4,53,28.3,24.7C29.6,11.7,36.4,2.1,52,0.3z"/>
	
		<rect x="33.6" y="379.9" transform="matrix(0.2462 -0.9692 0.9692 0.2462 -357.6062 335.6294)" class="st4" width="6.8" height="35.6"/>
</g>
</svg>
