<svg width="260" height="1207" viewBox="0 0 260 1207" fill="none" xmlns="http://www.w3.org/2000/svg">
<path d="M210.459 161.922C210.459 161.922 245.647 218.135 245.647 269.838C245.647 321.542 187.327 414.053 186.314 451.25C185.301 488.447 213.465 516.611 215.98 547.78C218.496 578.949 215.98 591.773 215.98 591.773H45.7261C45.7261 591.773 52.8813 491.143 66.1625 441.334C79.4437 391.526 32.5592 365.306 43.9128 317.556C59.2033 253.192 93.6887 272.517 125.462 219.932C137.012 200.802 137.698 180.791 137.698 180.791L210.459 161.955V161.922Z" fill="url(#paint0_linear_648_346)"/>
<path d="M137.681 180.774L133.532 161.922L192.587 120.037L210.458 161.922L137.681 180.774Z" fill="#F1E1E2"/>
<path d="M83.6582 70.7514C81.0383 91.6141 79.1972 116.658 88.1167 141.293C97.0362 165.927 107.95 176.331 151.649 152.954C238.377 106.56 211.602 62.2076 179.894 32.0186C148.186 1.82958 91.6792 6.87742 83.6582 70.7514Z" fill="url(#paint1_linear_648_346)"/>
<rect x="161.347" y="113.326" width="3.67989" height="24.2873" fill="#FF9898"/>
<path d="M220.961 132.943C220.961 132.943 242.304 77.9986 227.216 39.3597C225.374 34.6425 216.388 0 155.373 0C94.3581 0 70.085 63.6471 70.085 63.6471L164.276 12.8644L148.071 132.943H220.961Z" fill="#F1E1E2"/>
<path d="M68.5309 424.672H191.443C191.443 424.672 249.485 301.678 245.663 269.839C241.84 238 231.63 205.214 231.63 205.214H132.438C132.438 205.214 114.125 246.626 76.1109 265.967C38.0969 285.309 35.8621 348.839 50.2019 366.303C62.6663 388.014 68.5309 424.672 68.5309 424.672Z" fill="url(#paint2_linear_648_346)"/>
<path d="M216.01 547.863C216.01 547.863 170.057 602 172.573 618.973C175.089 635.947 173.243 693.923 164.535 736.037C155.828 778.152 150.307 869.176 150.307 869.176H62.7253C62.7253 869.176 42.4889 759.79 42.1458 711.386C41.8028 662.983 44.3185 595.074 56.2602 563.643C68.2018 532.213 216.01 547.863 216.01 547.863Z" fill="url(#paint3_linear_648_346)"/>
<path d="M62.725 869.176C62.5617 902.338 90.9928 905.442 101.252 999.537C111.903 1097.15 119.009 1123.48 119.009 1123.48H170.794C170.794 1123.48 182.818 1020.59 177.999 974.461C173.179 928.328 150.307 869.176 150.307 869.176H62.725Z" fill="url(#paint4_linear_648_346)"/>
<path d="M170.794 1123.48C170.794 1123.48 188.911 1202.4 167.69 1205.58C146.47 1208.77 0.0495025 1205.58 0.0495025 1205.58C0.0495025 1205.58 -2.59695 1194.7 30.8103 1182.5C64.2175 1170.3 109.583 1154.39 113.569 1141.12C117.555 1127.86 118.992 1123.48 118.992 1123.48H170.778H170.794Z" fill="url(#paint5_linear_648_346)"/>
<g filter="url(#filter0_d_648_346)">
<path d="M53.8938 508.178L128.228 522.198H209.103L257.049 664.305C257.049 664.305 193.338 694.788 133.516 694.788C73.6932 694.788 14.5894 651.89 14.5894 651.89L53.8938 508.178Z" fill="url(#paint6_linear_648_346)"/>
</g>
<path d="M231.614 205.214C197.831 187.489 141.373 192.374 132.421 205.214C132.421 205.214 117.131 241.039 73.4645 267.013C53.8449 278.694 47.8496 300.339 47.8496 300.339C152.221 300.339 169.962 345.818 229.359 334.465C229.359 334.465 246.888 293.919 245.565 266C243.964 232.299 231.597 205.214 231.597 205.214H231.614Z" fill="#231815"/>
<path d="M102.101 11.3928C90.325 18.3423 70.62 38.256 68.956 61.3583C66.4057 96.7662 81.4933 113.326 81.4933 113.326C81.4933 113.326 69.3069 58.1274 113.508 43.0399C152.437 26.7855 155.505 30.2583 166.499 23.1684C177.493 16.0786 152.515 0.353082 152.515 0.353082C152.515 0.353082 124.548 -1.85485 102.101 11.3928Z" fill="#F8F2F2"/>
<ellipse cx="50.4606" cy="521.712" rx="1.83995" ry="5.51984" transform="rotate(14.8208 50.4606 521.712)" fill="#231815"/>
<path d="M152.515 132.829C152.515 132.829 152.216 104.052 167.234 61.0711C169.292 55.1833 174.226 47.8235 181.218 36.4158C188.21 25.0082 193.362 4.40078 169.292 0C148.234 0.310385 121.676 -2.43127 106.516 36.4159C125.592 146.241 152.515 132.829 152.515 132.829Z" fill="#F8F2F2"/>
<path d="M82.9734 39.6714C90.7238 24.0129 101.058 21.1048 106.54 20.2287C91.3987 22.8792 78.927 50.193 74.5838 63.5186C75.0062 61.1743 76.5701 52.6085 82.9734 39.6714Z" fill="white"/>
<path d="M116.692 51.5862C114.049 37.2279 124.629 27.1008 130.764 22.0639C113.999 36.093 119.914 60.2601 124.967 70.59C123.653 69.0593 118.876 63.4491 116.692 51.5862Z" fill="white"/>
<defs>
<filter id="filter0_d_648_346" x="12.5894" y="507.178" width="246.46" height="190.61" filterUnits="userSpaceOnUse" color-interpolation-filters="sRGB">
<feFlood flood-opacity="0" result="BackgroundImageFix"/>
<feColorMatrix in="SourceAlpha" type="matrix" values="0 0 0 0 0 0 0 0 0 0 0 0 0 0 0 0 0 0 127 0" result="hardAlpha"/>
<feOffset dy="1"/>
<feGaussianBlur stdDeviation="1"/>
<feComposite in2="hardAlpha" operator="out"/>
<feColorMatrix type="matrix" values="0 0 0 0 0 0 0 0 0 0 0 0 0 0 0 0 0 0 0.25 0"/>
<feBlend mode="normal" in2="BackgroundImageFix" result="effect1_dropShadow_648_346"/>
<feBlend mode="normal" in="SourceGraphic" in2="effect1_dropShadow_648_346" result="shape"/>
</filter>
<linearGradient id="paint0_linear_648_346" x1="59.7816" y1="483.154" x2="201.458" y2="483.154" gradientUnits="userSpaceOnUse">
<stop stop-color="#DBA198" stop-opacity="0.75"/>
<stop offset="0.604167" stop-color="#DBA198" stop-opacity="0.964115"/>
<stop offset="1" stop-color="#DBA198" stop-opacity="0.47"/>
</linearGradient>
<linearGradient id="paint1_linear_648_346" x1="194.116" y1="111" x2="89.1163" y2="68" gradientUnits="userSpaceOnUse">
<stop stop-color="#E1A59B"/>
<stop offset="1" stop-color="#E1A59B" stop-opacity="0.58"/>
</linearGradient>
<linearGradient id="paint2_linear_648_346" x1="143.949" y1="205.214" x2="143.949" y2="424.672" gradientUnits="userSpaceOnUse">
<stop stop-color="#F8F2F2"/>
<stop offset="1" stop-color="#F1E1E2"/>
</linearGradient>
<linearGradient id="paint3_linear_648_346" x1="55.3655" y1="869.176" x2="174.962" y2="869.176" gradientUnits="userSpaceOnUse">
<stop stop-color="#E1A59B" stop-opacity="0.83"/>
<stop offset="0.484375" stop-color="#E1A59B"/>
<stop offset="1" stop-color="#E1A59B" stop-opacity="0.49"/>
</linearGradient>
<linearGradient id="paint4_linear_648_346" x1="179.01" y1="1054.64" x2="98.788" y2="1072.31" gradientUnits="userSpaceOnUse">
<stop stop-color="#E1A59B" stop-opacity="0.74"/>
<stop offset="0.338542" stop-color="#E1A59B"/>
<stop offset="1" stop-color="#E1A59B" stop-opacity="0.78"/>
</linearGradient>
<linearGradient id="paint5_linear_648_346" x1="88.9996" y1="1123.48" x2="88.9996" y2="1207" gradientUnits="userSpaceOnUse">
<stop stop-color="#F8F2F2"/>
<stop offset="1" stop-color="#F1E1E2"/>
</linearGradient>
<linearGradient id="paint6_linear_648_346" x1="135.819" y1="508.178" x2="135.819" y2="694.788" gradientUnits="userSpaceOnUse">
<stop stop-color="#F8F2F2"/>
<stop offset="1" stop-color="#F1E1E2"/>
</linearGradient>
</defs>
</svg>
