<svg width="374" height="1207" viewBox="0 0 374 1207" fill="none" xmlns="http://www.w3.org/2000/svg">
<path d="M298.929 433.178C298.293 475.994 308.343 492.134 312.523 506.35C317.288 522.523 325.983 545.252 325.983 545.252H220.241V155.511H252.345C252.345 155.511 274.366 202.726 317.171 206.506C380.159 212.058 337.27 275.345 334.828 327.878C334.645 331.775 299.213 412.874 298.929 433.178Z" fill="url(#paint0_linear_609_462)"/>
<path d="M108.498 209.561C83.2491 204.594 71.7787 236.722 64.8061 259.485C52.7337 298.822 39.2734 423.105 40.7281 419.726L75.4071 430.882C75.4071 430.882 103.264 369.602 110.053 341.939C116.858 314.276 149.898 217.706 108.498 209.561Z" fill="url(#paint1_linear_609_462)"/>
<path d="M75.4352 430.497L40.6495 419.514C40.6495 419.514 23.5271 444.251 18.7617 477.517C13.9963 510.783 18.9958 558.399 18.9958 558.399L40.2647 563.266C40.2647 563.266 53.5744 537.041 67.436 489.157C73.9404 466.679 75.4352 430.497 75.4352 430.497Z" fill="url(#paint2_linear_609_462)"/>
<path d="M40.5443 562.684L19.2754 557.817C19.2754 557.817 0.514703 580.128 0.0297995 603.476C-0.455104 626.807 4.99588 643.716 15.0618 643.8C25.1277 643.883 14.6103 590.13 31.6154 592.237C48.6037 594.344 50.4932 619.867 52.6502 616.588C54.8072 613.31 55.476 594.528 51.3627 582.353C47.2494 570.16 40.561 562.717 40.561 562.717L40.5443 562.684Z" fill="url(#paint3_linear_609_462)"/>
<path d="M141.553 433.178C142.188 475.994 132.139 492.134 127.959 506.35C123.193 522.523 114.499 545.252 114.499 545.252H220.241V155.511H188.137C188.137 155.511 166.116 202.726 123.31 206.506C60.3231 212.058 100.353 312.859 105.653 327.878C114.632 353.384 141.269 412.874 141.553 433.178Z" fill="url(#paint4_linear_609_462)"/>
<path d="M220.241 417.992V270.629C279.934 270.629 292.107 198.745 292.107 198.745L317.188 206.505C317.188 206.505 337.203 265.377 337.169 297.723C337.169 310.016 337.805 321.239 332.404 334.518C316.055 377.464 304.079 413.051 301.621 417.975H220.257" fill="url(#paint5_linear_609_462)"/>
<path d="M220.241 417.992V270.629C160.547 270.629 148.375 198.745 148.375 198.745L123.293 206.505C123.293 206.505 103.279 265.377 103.312 297.723C103.312 310.016 102.677 321.239 108.078 334.518C125.317 376.849 137.774 412.389 138.861 417.975H220.224" fill="url(#paint6_linear_609_462)"/>
<path d="M252.378 111.575H188.137V155.511H252.378V111.575Z" fill="#F1E1E2"/>
<path d="M154.244 527.039C154.244 527.039 97.0085 577.966 91.6411 639.882C86.2737 701.798 118.144 837.286 118.144 837.286L177.519 848.659C177.519 848.659 184.993 817.45 193.939 733.659C205.644 623.976 245.807 528.711 245.807 528.711L154.227 527.022L154.244 527.039Z" fill="url(#paint7_linear_609_462)"/>
<path d="M282.559 527.039C282.559 527.039 339.795 577.966 345.162 639.882C350.529 701.798 318.659 837.286 318.659 837.286L259.284 848.659C259.284 848.659 251.81 817.45 242.864 733.659C231.159 623.976 190.996 528.711 190.996 528.711L282.576 527.022L282.559 527.039Z" fill="url(#paint8_linear_609_462)"/>
<g filter="url(#filter0_d_609_462)">
<path d="M125.116 515.432L221.89 511.156L315.365 515.432L366.029 643.11C366.029 643.11 299.547 686.377 220.241 686.377C140.934 686.377 79.4348 639.932 79.4348 639.932L125.116 515.432Z" fill="url(#paint9_linear_609_462)"/>
</g>
<path d="M220.107 0.0363159C167.771 0.0363159 146.402 30.9607 140.767 79.3961C139.095 99.758 140.767 117.395 140.767 117.395L220.107 124.403V0.0363159Z" fill="#F1E1E2"/>
<path d="M219.806 0.0363159C272.142 0.0363159 299.146 30.0241 299.146 79.3961C299.146 111.592 299.146 130.574 299.146 130.574L219.806 124.403V0.0363159Z" fill="#F1E1E2"/>
<path d="M281.134 82.4087C277.896 78.2874 269.236 84.1259 265.311 87.5604C263.717 92.0987 260.528 102.427 260.528 107.431C260.528 113.687 261.999 114.055 266.783 115.895C271.567 117.734 285.182 87.5604 281.134 82.4087Z" fill="#E1A59B"/>
<path d="M158.972 82.4087C162.21 78.2874 170.87 84.1259 174.795 87.5604C176.389 92.0987 179.579 102.427 179.579 107.431C179.579 113.687 178.107 114.055 173.323 115.895C168.539 117.734 154.924 87.5604 158.972 82.4087Z" fill="#E1A59B"/>
<path d="M220.241 18.7348C190.946 18.7348 166.333 47.9699 167.871 87.2234C169.409 126.477 195.678 155.511 220.241 155.511C244.804 155.511 271.741 126.276 271.741 87.123C271.741 47.9699 251.843 18.7348 220.241 18.7348Z" fill="url(#paint10_linear_609_462)"/>
<path d="M153.814 61.8564H158.23V118.893L153.814 118.525V61.8564Z" fill="#FFF1F2"/>
<path d="M280.398 71.4238H289.23V129.564L280.398 129.196V71.4238Z" fill="#FFF1F2"/>
<path d="M165.012 111.575C165.697 93.5621 165.012 62.6545 185.729 51.7833C206.446 40.912 216.629 48.7226 229.203 34.4562C241.777 20.1899 247.648 3.34809 247.648 3.34809C247.648 3.34809 198.37 -10.2997 166.4 17.5139C134.429 45.3274 164.995 111.575 164.995 111.575H165.012Z" fill="#F8F2F2"/>
<path d="M290.117 107.494C276.49 82.3062 233.969 57.5199 236.861 33.1684C239.754 8.81691 247.648 3.3481 247.648 3.3481C247.648 3.3481 281.943 9.7274 293.646 43.4576C306.157 79.5193 290.134 107.494 290.134 107.494H290.117Z" fill="#F8F2F2"/>
<path d="M118.144 837.286C118.144 837.286 110.218 925.059 111.439 962.255C112.659 999.451 132.574 1116.11 132.574 1116.11H165.815C165.815 1116.11 180.245 976.337 180.429 939.041C180.613 901.744 177.519 848.659 177.519 848.659L118.144 837.286Z" fill="url(#paint11_linear_609_462)"/>
<path d="M318.726 837.286C318.726 837.286 326.652 925.059 325.431 962.255C324.211 999.451 304.296 1116.11 304.296 1116.11H271.055C271.055 1116.11 256.625 976.337 256.441 939.041C256.241 900.523 259.351 848.659 259.351 848.659L318.726 837.286Z" fill="url(#paint12_linear_609_462)"/>
<path d="M165.814 1116.11L168.423 1164.01C168.423 1164.01 154.762 1192.67 118.394 1202.59C82.0265 1212.51 63.2825 1202.59 63.2825 1202.59C63.2825 1202.59 68.8003 1170.11 101.857 1161.55C134.914 1152.99 132.573 1116.09 132.573 1116.09H165.814V1116.11Z" fill="#F1E1E2"/>
<path d="M271.289 1116.11L268.681 1164.01C268.681 1164.01 282.342 1192.67 318.71 1202.59C355.077 1212.51 373.821 1202.59 373.821 1202.59C373.821 1202.59 368.304 1170.11 335.247 1161.55C302.19 1152.99 304.53 1116.09 304.53 1116.09H271.289V1116.11Z" fill="#F1E1E2"/>
<rect x="167.797" y="107.485" width="3.67977" height="39.7415" fill="#FF9898"/>
<rect x="270.095" y="107.485" width="3.67977" height="24.2865" fill="#FF9898"/>
<path d="M164.278 33.5592C170.166 16.7978 186.795 12.5722 195.939 11.0029C170.791 15.5701 162.35 44.6765 161.272 58.6589C160.865 56.2418 159.413 47.4074 164.278 33.5592Z" fill="white"/>
<path d="M277.838 34.0838C274.482 24.5301 265.004 22.1216 259.792 21.2271C274.126 23.8303 278.937 40.4205 279.551 48.3902C279.783 47.0125 280.611 41.9771 277.838 34.0838Z" fill="white"/>
<rect x="17.9573" y="554.873" width="26.4031" height="6.76397" transform="rotate(8.76329 17.9573 554.873)" fill="#E6FF4F"/>
<circle cx="220.049" cy="526.979" r="5.88721" fill="#231815"/>
<defs>
<filter id="filter0_d_609_462" x="74.4348" y="510.156" width="296.595" height="185.221" filterUnits="userSpaceOnUse" color-interpolation-filters="sRGB">
<feFlood flood-opacity="0" result="BackgroundImageFix"/>
<feColorMatrix in="SourceAlpha" type="matrix" values="0 0 0 0 0 0 0 0 0 0 0 0 0 0 0 0 0 0 127 0" result="hardAlpha"/>
<feOffset dy="4"/>
<feGaussianBlur stdDeviation="2.5"/>
<feComposite in2="hardAlpha" operator="out"/>
<feColorMatrix type="matrix" values="0 0 0 0 0 0 0 0 0 0 0 0 0 0 0 0 0 0 0.25 0"/>
<feBlend mode="normal" in2="BackgroundImageFix" result="effect1_dropShadow_609_462"/>
<feBlend mode="normal" in="SourceGraphic" in2="effect1_dropShadow_609_462" result="shape"/>
</filter>
<linearGradient id="paint0_linear_609_462" x1="323.084" y1="545.378" x2="220.05" y2="545.378" gradientUnits="userSpaceOnUse">
<stop stop-color="#E1A59B" stop-opacity="0.49"/>
<stop offset="1" stop-color="#E1A59B"/>
</linearGradient>
<linearGradient id="paint1_linear_609_462" x1="40.4774" y1="413.202" x2="92.7301" y2="424.242" gradientUnits="userSpaceOnUse">
<stop stop-color="#E1A59B" stop-opacity="0.79"/>
<stop offset="0.484375" stop-color="#E1A59B"/>
<stop offset="1" stop-color="#E1A59B"/>
</linearGradient>
<linearGradient id="paint2_linear_609_462" x1="16.6079" y1="551.809" x2="51.3553" y2="559.361" gradientUnits="userSpaceOnUse">
<stop stop-color="#E1A59B" stop-opacity="0.79"/>
<stop offset="0.854167" stop-color="#E1A59B"/>
<stop offset="1" stop-color="#E1A59B"/>
</linearGradient>
<linearGradient id="paint3_linear_609_462" x1="-0.0875569" y1="636.947" x2="30.101" y2="647.071" gradientUnits="userSpaceOnUse">
<stop stop-color="#E1A59B" stop-opacity="0.79"/>
<stop offset="0.385417" stop-color="#E1A59B"/>
<stop offset="1" stop-color="#E1A59B"/>
</linearGradient>
<linearGradient id="paint4_linear_609_462" x1="114.441" y1="239.221" x2="91.6263" y2="238.117" gradientUnits="userSpaceOnUse">
<stop stop-color="#E1A59B"/>
<stop offset="1" stop-color="#E1A59B" stop-opacity="0.32"/>
</linearGradient>
<linearGradient id="paint5_linear_609_462" x1="278.717" y1="198.745" x2="278.717" y2="417.992" gradientUnits="userSpaceOnUse">
<stop stop-color="#F8F2F2"/>
<stop offset="1" stop-color="#F1E1E2"/>
</linearGradient>
<linearGradient id="paint6_linear_609_462" x1="161.765" y1="198.745" x2="161.765" y2="417.992" gradientUnits="userSpaceOnUse">
<stop stop-color="#F8F2F2"/>
<stop offset="1" stop-color="#F1E1E2"/>
</linearGradient>
<linearGradient id="paint7_linear_609_462" x1="73.2275" y1="815.841" x2="180.227" y2="831.257" gradientUnits="userSpaceOnUse">
<stop stop-color="#E1A59B"/>
<stop offset="0.186694" stop-color="#E1A59B" stop-opacity="0.79"/>
<stop offset="1" stop-color="#E1A59B"/>
</linearGradient>
<linearGradient id="paint8_linear_609_462" x1="256.848" y1="798.178" x2="348.496" y2="811.712" gradientUnits="userSpaceOnUse">
<stop stop-color="#E1A59B"/>
<stop offset="0.52436" stop-color="#E1A59B" stop-opacity="0.79"/>
<stop offset="1" stop-color="#E1A59B"/>
</linearGradient>
<linearGradient id="paint9_linear_609_462" x1="222.732" y1="515.432" x2="222.732" y2="686.377" gradientUnits="userSpaceOnUse">
<stop stop-color="#F8F2F2"/>
<stop offset="1" stop-color="#F1E1E2"/>
</linearGradient>
<linearGradient id="paint10_linear_609_462" x1="219.772" y1="18.7348" x2="219.772" y2="155.511" gradientUnits="userSpaceOnUse">
<stop offset="0.390625" stop-color="#ECBEB7"/>
<stop offset="1" stop-color="#E1A59B"/>
</linearGradient>
<linearGradient id="paint11_linear_609_462" x1="111.129" y1="1093.89" x2="179.18" y2="1088.21" gradientUnits="userSpaceOnUse">
<stop stop-color="#E1A59B"/>
<stop offset="0.52436" stop-color="#E1A59B" stop-opacity="0.79"/>
<stop offset="1" stop-color="#E1A59B"/>
</linearGradient>
<linearGradient id="paint12_linear_609_462" x1="256.25" y1="1093.89" x2="322.955" y2="1098.79" gradientUnits="userSpaceOnUse">
<stop stop-color="#E1A59B"/>
<stop offset="0.614583" stop-color="#E1A59B" stop-opacity="0.79"/>
<stop offset="1" stop-color="#E1A59B"/>
</linearGradient>
</defs>
</svg>
