<svg width="69" height="200" viewBox="0 0 69 200" fill="none" xmlns="http://www.w3.org/2000/svg">
<rect width="0.609756" height="6.58537" transform="matrix(-1 0 0 1 40 16.4634)" fill="#FF9898"/>
<rect width="0.609756" height="4.02439" transform="matrix(-1 0 0 1 23.0488 16.4634)" fill="#FF9898"/>
<path d="M50.7362 35.3398C54.9224 34.5177 56.8209 39.8425 57.9783 43.6123C59.9795 50.1323 61.6463 68.4146 61.5854 68.9024L55.8537 70.7317C55.8537 70.7317 51.607 61.8582 50.4793 57.2744C49.3516 52.6906 43.8754 36.6866 50.7362 35.3398Z" fill="url(#paint0_linear_651_1039)"/>
<path d="M55.8537 70.7316L61.5854 68.9023C61.5854 68.9023 64.8474 74.2195 65.637 79.7309C66.4267 85.2422 65.5965 93.1334 65.5965 93.1334L62.07 93.9393C62.07 93.9393 59.866 89.5935 57.5674 81.659C56.4884 77.9352 55.8537 70.7316 55.8537 70.7316Z" fill="url(#paint1_linear_651_1039)"/>
<path d="M62.1212 93.9558L65.6476 93.1499C65.6476 93.1499 68.7548 96.8467 68.836 100.714C68.9171 104.581 68.0139 107.383 66.3453 107.393C64.6768 107.404 66.4183 98.5017 63.6032 98.8479C60.788 99.1967 60.4743 103.426 60.1173 102.883C59.7603 102.339 59.6495 99.2292 60.3309 97.2091C61.0124 95.1889 62.1212 93.9531 62.1212 93.9531V93.9558Z" fill="#E1A59B"/>
<path d="M18.1952 71.7695C18.3007 78.8629 16.6349 81.5375 15.9426 83.8956C15.1529 86.5756 13.7115 90.3427 13.7115 90.3427H31.2381V25.7612H25.916C25.916 25.7612 22.2652 33.5848 15.1691 34.2122C4.73053 35.1343 11.8374 45.6189 12.2431 54.3241C12.2728 54.9677 18.1466 68.4081 18.1925 71.7722L18.1952 71.7695Z" fill="url(#paint2_linear_651_1039)"/>
<path d="M44.2809 71.7695C44.1754 78.8629 45.8413 81.5375 46.5336 83.8956C47.3232 86.5756 48.7646 90.3427 48.7646 90.3427H31.238V25.7612H36.5601C36.5601 25.7612 40.2109 33.5848 47.307 34.2122C57.7456 35.1343 51.112 51.8361 50.2331 54.3241C48.7457 58.5509 44.3296 68.4081 44.2836 71.7722L44.2809 71.7695Z" fill="url(#paint3_linear_651_1039)"/>
<path d="M31.238 69.2546V37.8252C41.1304 37.8252 43.1478 32.9277 43.1478 32.9277L47.3043 34.2123C47.3043 34.2123 50.6198 43.9667 50.6171 49.3266C50.6171 51.3657 50.7225 53.2235 49.8247 55.4248C46.969 62.4398 44.9029 68.3271 44.7244 69.2519H31.238" fill="url(#paint4_linear_651_1039)"/>
<path d="M10.4878 68.7807L4.63416 67.1953C4.63416 67.1953 3.29827 72.0159 3.00522 74.7563C2.41298 80.2947 3.00522 85.4616 3.00522 85.4616L6.55868 86.1404C6.55868 86.1404 7.62486 82.7692 9.63415 74.7563C10.578 70.9973 10.4878 68.7807 10.4878 68.7807Z" fill="url(#paint5_linear_651_1039)"/>
<path d="M42.177 87.3247C42.177 87.3247 51.661 95.7621 52.5534 106.025C53.4432 116.285 48.1617 138.736 48.1617 138.736L38.3207 140.621C38.3207 140.621 37.0821 135.45 35.5975 121.567C33.6585 103.394 27.0005 87.606 27.0005 87.606L42.1797 87.3247H42.177Z" fill="url(#paint6_linear_651_1039)"/>
<path d="M20.9103 87.3247C20.9103 87.3247 11.4263 95.7621 10.5339 106.025C9.64414 116.285 14.9257 138.736 14.9257 138.736L24.7666 140.621C24.7666 140.621 26.0052 135.45 27.4898 121.567C29.4288 103.394 36.0868 87.606 36.0868 87.606L20.9076 87.3247H20.9103Z" fill="url(#paint7_linear_651_1039)"/>
<path d="M47.004 85.3994H15.4718L7.07495 106.555C7.07495 106.555 18.095 113.727 31.2379 113.727C44.3808 113.727 54.576 106.031 54.576 106.031L47.0067 85.3994H47.004Z" fill="url(#paint8_linear_651_1039)"/>
<path d="M3.08087 85.1772C3.08087 85.1772 0.0277275 87.8978 0.000684502 90.5913C-0.0290628 93.2848 0.912026 95.1913 2.57788 95.121C3.30115 95.0904 3.35966 93.9206 3.42495 92.6153C3.51004 90.9142 3.60662 88.9832 5.20105 89.0444C7.13985 89.1188 7.9188 90.5285 8.32975 91.2722C8.34188 91.2941 8.35369 91.3155 8.3652 91.3363C8.36911 91.3266 8.37367 91.3145 8.37873 91.2996C8.40088 91.2343 8.42368 91.141 8.44288 91.0195C8.46443 90.8831 8.47966 90.7227 8.48652 90.5449M3.08087 85.1772L7.26398 86.148C7.63328 86.5215 8.09018 87.0653 8.44351 87.749C9.0135 88.852 9.0812 90.4731 8.90425 91.2704C8.89385 91.2537 8.88093 91.2323 8.86531 91.2053C8.84016 91.1618 8.8107 91.1084 8.7771 91.0476C8.70095 90.9096 8.60348 90.7331 8.48652 90.5449M3.08087 85.1772L6.55862 85.566L3.08087 85.1772ZM8.48652 90.5449C8.49185 90.4068 8.49213 90.2582 8.4864 90.1022C8.45989 89.3809 8.30783 88.5756 7.99931 87.9786C7.67501 87.351 7.25188 86.8465 6.90574 86.4968C6.73353 86.3229 6.58272 86.1897 6.47654 86.1011C6.45536 86.0834 6.43599 86.0675 6.41861 86.0535L3.25453 85.6998C3.17881 85.7728 3.07938 85.8712 2.96324 85.9916C2.68676 86.2782 2.31835 86.6869 1.95015 87.1752C1.19864 88.1719 0.512506 89.4164 0.500659 90.5963L0.500654 90.5968C0.486316 91.895 0.708226 92.9504 1.09216 93.6527C1.46667 94.3378 1.96288 94.6465 2.55679 94.6214C2.55815 94.6214 2.55949 94.6213 2.56083 94.6213C2.57911 94.6208 2.59622 94.6204 2.63534 94.5608C2.69352 94.4722 2.75399 94.3078 2.80206 94.0387C2.87255 93.6441 2.89665 93.1631 2.92373 92.6223C2.93398 92.4178 2.94465 92.2047 2.95843 91.9845C3.00578 91.2275 3.09093 90.3868 3.37955 89.7357C3.52785 89.4012 3.74203 89.0874 4.059 88.8633C4.38231 88.6347 4.77308 88.5276 5.22023 88.5448C6.83845 88.6069 7.76186 89.4937 8.30372 90.2672C8.36906 90.3605 8.43006 90.4541 8.48652 90.5449ZM8.66467 91.2231C8.77849 91.222 8.85862 91.2642 8.89934 91.2921C8.85691 91.475 8.80122 91.6122 8.73558 91.6865C8.63911 91.7957 8.5412 91.6507 8.39043 91.3815C8.38381 91.3697 8.37708 91.3576 8.37025 91.3453C8.41137 91.303 8.50999 91.2246 8.66467 91.2231Z" fill="#E1A59B" stroke="url(#paint9_linear_651_1039)"/>
<path d="M13.6962 35.3734C9.48294 34.7028 7.60489 40.0946 6.58537 43.9023C4.16904 52.9267 4.45122 66.7681 4.63413 67.1949L10.4878 68.7803C10.4878 68.7803 13.7828 61.9053 14.7455 57.2837C15.7055 52.662 20.603 36.4714 13.6962 35.3734Z" fill="url(#paint10_linear_651_1039)"/>
<path d="M12.6865 51.763C12.6865 51.763 11.7022 51.3167 8.5165 51.8982C5.64724 52.4228 4.90625 55.1731 4.90625 55.1731C4.90625 55.1731 5.49308 45.6999 7.81338 39.7775C8.7058 37.4978 10.0255 34.1309 13.6925 34.6582C17.1324 35.1531 17.9221 41.995 17.7219 45.9325C17.5218 49.8699 15.5693 53.0259 15.5693 53.0259L12.6865 51.763Z" fill="#231815"/>
<path d="M31.2378 69.2546L31.2195 37.805C21.3272 37.805 19.3281 32.9277 19.3281 32.9277L15.1716 34.2123C15.1716 34.2123 11.8561 43.9667 11.8588 49.3266C11.8588 51.3657 11.7533 53.2235 12.6512 55.4248C15.5069 62.4398 17.573 68.3271 17.7515 69.2519H31.2378" fill="url(#paint11_linear_651_1039)"/>
<path d="M19.3256 32.9248L51.3202 46.0866C52.0016 48.8937 51.2363 51.6494 50.2303 54.3212C50.2303 54.3212 30.0914 45.7919 22.6843 45.7919C15.2772 45.7919 12.2457 54.3212 12.2457 54.3212C11.1802 53.6803 5.98524 36.1483 13.0002 34.6069C16.9323 33.7442 19.3256 32.9248 19.3256 32.9248Z" fill="url(#paint12_linear_651_1039)"/>
<path d="M31.2379 3.09619C36.0948 3.09619 40.1729 7.9423 39.9187 14.4462C33.7195 18.5973 40.4268 25.761 31.2379 25.761C22.3781 25.761 27.8659 18.2924 22.7031 14.4299C22.7031 7.94501 25.9997 3.0989 31.2379 3.0989V3.09619Z" fill="#E1A59B"/>
<path d="M40.392 18.4814C40.2785 15.4985 40.392 10.3739 36.9576 8.57279C33.5231 6.77173 31.8356 8.06709 29.7506 5.70082C27.6656 3.33456 26.6704 0.632959 26.6704 0.632959C26.6704 0.632959 34.8617 -1.71438 40.1595 2.89376C45.4572 7.50189 40.392 18.4787 40.392 18.4787V18.4814Z" fill="#F8F2F2"/>
<path d="M19.6556 17.8051C21.9137 13.6297 28.9611 9.52456 28.4824 5.48704C28.0037 1.44951 26.6705 0.632812 26.6705 0.632812C26.6705 0.632812 20.7616 3.18838 19.2499 7.27999C17.7382 11.3716 19.6556 17.8051 19.6556 17.8051Z" fill="#F8F2F2"/>
<path d="M48.159 138.736C48.159 138.736 49.4733 153.28 49.2705 159.443C49.0677 165.606 45.7657 184.937 45.7657 184.937H40.2571C40.2571 184.937 37.8664 161.777 37.834 155.598C37.8015 149.216 38.3154 140.621 38.3154 140.621L48.1563 138.736H48.159Z" fill="url(#paint13_linear_651_1039)"/>
<path d="M14.915 138.736C14.915 138.736 13.6007 153.28 13.8035 159.443C14.0063 165.606 17.3083 184.937 17.3083 184.937H22.8169C22.8169 184.937 25.2075 161.777 25.24 155.598C25.2724 149.418 24.7586 140.621 24.7586 140.621L14.9177 138.736H14.915Z" fill="url(#paint14_linear_651_1039)"/>
<path d="M40.2596 184.937L39.8269 192.876C39.8269 192.876 42.0904 197.625 48.1183 199.269C54.1462 200.914 57.2507 199.269 57.2507 199.269C57.2507 199.269 56.3367 193.888 50.8578 192.468C45.3788 191.048 45.7656 184.937 45.7656 184.937H40.2569H40.2596Z" fill="url(#paint15_linear_651_1039)"/>
<path d="M22.779 184.937L23.2117 192.876C23.2117 192.876 20.9482 197.625 14.9203 199.269C8.89239 200.914 5.78784 199.269 5.78784 199.269C5.78784 199.269 6.7019 193.888 12.1808 192.468C17.6597 191.048 17.273 184.937 17.273 184.937H22.7817H22.779Z" fill="url(#paint16_linear_651_1039)"/>
<path d="M25.9105 25.7583H36.5574V23.0053H25.9105V25.7583Z" fill="#F1E1E2"/>
<path d="M31.2625 0C39.9352 0 43.4778 5.12465 44.4108 13.1483C45.0084 18.2811 44.4108 19.4439 44.4108 19.4439L31.2625 20.6068V0Z" fill="#F1E1E2"/>
<path d="M31.3109 0C22.6382 0 18.1626 4.97051 18.1626 13.1483C18.1626 18.4839 18.1626 21.629 18.1626 21.629L31.3109 20.6068V0Z" fill="#F1E1E2"/>
<mask id="mask0_651_1039" style="mask-type:alpha" maskUnits="userSpaceOnUse" x="18" y="0" width="14" height="22">
<path d="M31.3109 0C22.6382 0 18.1626 4.97051 18.1626 13.1483C18.1626 18.4839 18.1626 21.629 18.1626 21.629L31.3109 20.6068V0Z" fill="#F1E1E2"/>
</mask>
<g mask="url(#mask0_651_1039)">
<path d="M26.0366 0.304688H28.0488L25.122 21.3413H23.5366L26.0366 0.304688Z" fill="#FFF1F2"/>
</g>
<mask id="mask1_651_1039" style="mask-type:alpha" maskUnits="userSpaceOnUse" x="31" y="0" width="14" height="21">
<path d="M31.2625 0C39.9352 0 43.4778 5.12465 44.4108 13.1483C45.0084 18.2811 44.4108 19.4439 44.4108 19.4439L31.2625 20.6068V0Z" fill="#F1E1E2"/>
</mask>
<g mask="url(#mask1_651_1039)">
<rect x="38.0488" width="0.97561" height="20.3659" fill="#FFF1F2"/>
</g>
<rect x="7.83987" y="86.2085" width="5.90632" height="1.12082" transform="rotate(-175.566 7.83987 86.2085)" fill="#0029FF"/>
<rect x="61.5854" y="93.1748" width="4.37513" height="1.12082" transform="rotate(-9.67876 61.5854 93.1748)" fill="#E6FF4F"/>
<defs>
<linearGradient id="paint0_linear_651_1039" x1="54.6341" y1="65.3659" x2="61.9513" y2="64.5131" gradientUnits="userSpaceOnUse">
<stop stop-color="#F0C8C2"/>
<stop offset="1" stop-color="#F3B1A5"/>
</linearGradient>
<linearGradient id="paint1_linear_651_1039" x1="61.0362" y1="90.1524" x2="66.2357" y2="89.5422" gradientUnits="userSpaceOnUse">
<stop stop-color="#F0C8C2"/>
<stop offset="1" stop-color="#F3B1A5"/>
</linearGradient>
<linearGradient id="paint2_linear_651_1039" x1="13.8178" y1="39.6323" x2="10.0612" y2="39.4516" gradientUnits="userSpaceOnUse">
<stop stop-color="#E1A59B"/>
<stop offset="1" stop-color="#E1A59B" stop-opacity="0.32"/>
</linearGradient>
<linearGradient id="paint3_linear_651_1039" x1="48.4011" y1="90.3635" x2="31.2062" y2="90.3635" gradientUnits="userSpaceOnUse">
<stop stop-color="#EFC8C1"/>
<stop offset="1" stop-color="#E1A59B"/>
</linearGradient>
<linearGradient id="paint4_linear_651_1039" x1="40.9295" y1="32.9277" x2="40.9295" y2="69.2546" gradientUnits="userSpaceOnUse">
<stop stop-color="#F8F2F2"/>
<stop offset="1" stop-color="#F1E1E2"/>
</linearGradient>
<linearGradient id="paint5_linear_651_1039" x1="2.72173" y1="84.6293" x2="10.1301" y2="85.526" gradientUnits="userSpaceOnUse">
<stop stop-color="#E1A59B"/>
<stop offset="0.614583" stop-color="#E1A59B" stop-opacity="0.79"/>
<stop offset="1" stop-color="#E1A59B" stop-opacity="0.72"/>
</linearGradient>
<linearGradient id="paint6_linear_651_1039" x1="37.9154" y1="132.265" x2="59.6635" y2="126.935" gradientUnits="userSpaceOnUse">
<stop stop-color="#E1A59B"/>
<stop offset="0.52436" stop-color="#E1A59B" stop-opacity="0.79"/>
<stop offset="1" stop-color="#E1A59B"/>
</linearGradient>
<linearGradient id="paint7_linear_651_1039" x1="7.48069" y1="135.199" x2="25.2165" y2="137.754" gradientUnits="userSpaceOnUse">
<stop stop-color="#E1A59B"/>
<stop offset="0.186694" stop-color="#E1A59B" stop-opacity="0.79"/>
<stop offset="1" stop-color="#E1A59B"/>
</linearGradient>
<linearGradient id="paint8_linear_651_1039" x1="30.8255" y1="85.3994" x2="30.8255" y2="113.727" gradientUnits="userSpaceOnUse">
<stop stop-color="#F8F2F2"/>
<stop offset="1" stop-color="#F1E1E2"/>
</linearGradient>
<linearGradient id="paint9_linear_651_1039" x1="-0.023526" y1="94.3296" x2="8.11611" y2="96.5074" gradientUnits="userSpaceOnUse">
<stop stop-color="#E1A59B"/>
<stop offset="0.614583" stop-color="#E1A59B" stop-opacity="0.79"/>
<stop offset="1" stop-color="#E1A59B" stop-opacity="0.72"/>
</linearGradient>
<linearGradient id="paint10_linear_651_1039" x1="4.48464" y1="66.1111" x2="16.7527" y2="67.5009" gradientUnits="userSpaceOnUse">
<stop stop-color="#E1A59B"/>
<stop offset="0.614583" stop-color="#E1A59B" stop-opacity="0.79"/>
<stop offset="1" stop-color="#E1A59B" stop-opacity="0.72"/>
</linearGradient>
<linearGradient id="paint11_linear_651_1039" x1="21.5464" y1="32.9277" x2="21.5464" y2="69.2546" gradientUnits="userSpaceOnUse">
<stop stop-color="#F8F2F2"/>
<stop offset="1" stop-color="#F1E1E2"/>
</linearGradient>
<linearGradient id="paint12_linear_651_1039" x1="46.8152" y1="54.2645" x2="10.5518" y2="54.2645" gradientUnits="userSpaceOnUse">
<stop stop-color="#231815" stop-opacity="0.81"/>
<stop offset="1" stop-color="#231815"/>
</linearGradient>
<linearGradient id="paint13_linear_651_1039" x1="37.8025" y1="181.252" x2="48.8603" y2="182.063" gradientUnits="userSpaceOnUse">
<stop stop-color="#E1A59B"/>
<stop offset="0.614583" stop-color="#E1A59B" stop-opacity="0.79"/>
<stop offset="1" stop-color="#E1A59B" stop-opacity="0.72"/>
</linearGradient>
<linearGradient id="paint14_linear_651_1039" x1="13.7513" y1="181.252" x2="25.0332" y2="180.311" gradientUnits="userSpaceOnUse">
<stop stop-color="#E1A59B" stop-opacity="0.4"/>
<stop offset="0.469634" stop-color="#E1A59B" stop-opacity="0.79"/>
<stop offset="1" stop-color="#E1A59B"/>
</linearGradient>
<linearGradient id="paint15_linear_651_1039" x1="48.5388" y1="184.937" x2="48.5388" y2="200" gradientUnits="userSpaceOnUse">
<stop stop-color="#F8F2F2"/>
<stop offset="1" stop-color="#F1E1E2"/>
</linearGradient>
<linearGradient id="paint16_linear_651_1039" x1="14.4998" y1="184.937" x2="14.4998" y2="200" gradientUnits="userSpaceOnUse">
<stop stop-color="#F8F2F2"/>
<stop offset="1" stop-color="#F1E1E2"/>
</linearGradient>
</defs>
</svg>
