<svg width="107" height="50" viewBox="0 0 107 50" fill="none" xmlns="http://www.w3.org/2000/svg">
<path d="M3 44.5C1.61929 44.5 0.5 45.6193 0.5 47C0.5 48.3807 1.61929 49.5 3 49.5V44.5ZM104.493 2.8152C104.391 1.43827 103.192 0.40478 101.815 0.506839L79.3768 2.17C77.9998 2.27206 76.9663 3.47102 77.0684 4.84795C77.1705 6.22489 78.3694 7.25838 79.7463 7.15632L99.6916 5.67796L101.17 25.6232C101.272 27.0002 102.471 28.0337 103.848 27.9316C105.225 27.8295 106.258 26.6306 106.156 25.2537L104.493 2.8152ZM3 49.5C27.0643 49.5 45.0809 46.759 60.7469 39.6911C76.4227 32.6188 89.5082 21.3209 103.894 4.63226L100.106 1.36774C85.9606 17.7784 73.4367 28.4806 58.6906 35.1334C43.9348 41.7907 26.717 44.5 3 44.5V49.5Z" fill="white"/>
</svg>
