<svg width="69" height="39" viewBox="0 0 69 39" fill="none" xmlns="http://www.w3.org/2000/svg">
<path d="M67.0294 35.2975C67.8344 35.493 68.3286 36.3041 68.1331 37.1091C67.9376 37.9142 67.1265 38.4083 66.3215 38.2128L67.0294 35.2975ZM0.508398 3.51843C0.420555 2.69467 1.01713 1.95567 1.84089 1.86783L15.2648 0.436321C16.0885 0.348476 16.8275 0.945051 16.9154 1.76881C17.0032 2.59256 16.4066 3.33156 15.5829 3.41941L3.65054 4.69186L4.92299 16.6242C5.01084 17.448 4.41426 18.187 3.59051 18.2748C2.76675 18.3626 2.02775 17.7661 1.93991 16.9423L0.508398 3.51843ZM66.3215 38.2128C57.9585 36.1819 45.5229 30.883 33.3022 24.5747C21.0685 18.2596 8.89209 10.851 1.05773 4.52652L2.94215 2.19222C10.552 8.33542 22.528 15.6369 34.6783 21.9089C46.8417 28.1877 59.0218 33.3529 67.0294 35.2975L66.3215 38.2128Z" fill="white"/>
</svg>
