<svg width="16" height="28" viewBox="0 0 16 28" fill="none" xmlns="http://www.w3.org/2000/svg">
<path d="M7 27C7 27.5523 7.44772 28 8 28C8.55228 28 9 27.5523 9 27L7 27ZM8.70711 0.292893C8.31658 -0.0976311 7.68342 -0.0976311 7.29289 0.292893L0.928933 6.65685C0.538409 7.04738 0.538409 7.68054 0.928933 8.07107C1.31946 8.46159 1.95262 8.46159 2.34315 8.07107L8 2.41421L13.6569 8.07107C14.0474 8.46159 14.6805 8.46159 15.0711 8.07107C15.4616 7.68054 15.4616 7.04738 15.0711 6.65685L8.70711 0.292893ZM9 27L9 1L7 1L7 27L9 27Z" fill="#FF3E00"/>
</svg>
