<svg width="32" height="36" viewBox="0 0 32 36" fill="none" xmlns="http://www.w3.org/2000/svg">
<path d="M26.6224 0.20557C26.1836 -0.129863 25.556 -0.0461072 25.2206 0.392645C24.8851 0.831396 24.9689 1.459 25.4077 1.79443L26.6224 0.20557ZM0.292893 27.2424C-0.0976311 27.6329 -0.0976311 28.266 0.292893 28.6566L6.65685 35.0205C7.04738 35.4111 7.68054 35.4111 8.07107 35.0205C8.46159 34.63 8.46159 33.9968 8.07107 33.6063L2.41421 27.9495L8.07107 22.2926C8.46159 21.9021 8.46159 21.2689 8.07107 20.8784C7.68054 20.4879 7.04738 20.4879 6.65685 20.8784L0.292893 27.2424ZM25.4077 1.79443C29.7004 5.07634 30.7988 11.2171 27.2939 16.6585C23.7889 22.1002 15.5514 26.9495 1 26.9495L1 28.9495C15.9486 28.9495 24.9715 23.9576 28.9753 17.7415C32.9794 11.5249 31.8353 4.19093 26.6224 0.20557L25.4077 1.79443Z" fill="#FF0000"/>
</svg>
