<svg width="331" height="156" viewBox="0 0 331 156" fill="none" xmlns="http://www.w3.org/2000/svg">
<path d="M241.472 117.11C241.472 117.11 247.244 114.091 266.641 116.515C284.098 118.695 289.489 135.034 289.489 135.034C289.489 135.034 282.759 78.162 266.798 43.2549C260.653 29.8178 251.563 9.97636 229.655 14.4015C209.094 18.5573 206.644 60.0249 209.176 83.6877C211.707 107.35 224.521 125.699 224.521 125.699L241.472 117.11Z" fill="#231815"/>
<g filter="url(#filter0_d_701_2)">
<path d="M194.591 4L1.56631 83.4267C-2.54701 100.369 2.06794 116.994 8.15431 133.133C8.15431 133.133 129.664 81.6538 174.359 81.6538C219.054 81.6538 237.33 133.133 237.33 133.133C243.75 129.253 245.69 20.0727 219.673 11.7604C195.394 4 194.591 4 194.591 4Z" fill="url(#paint0_linear_701_2)" shape-rendering="crispEdges"/>
</g>
<defs>
<filter id="filter0_d_701_2" x="0" y="0" width="249.428" height="137.133" filterUnits="userSpaceOnUse" color-interpolation-filters="sRGB">
<feFlood flood-opacity="0" result="BackgroundImageFix"/>
<feColorMatrix in="SourceAlpha" type="matrix" values="0 0 0 0 0 0 0 0 0 0 0 0 0 0 0 0 0 0 127 0" result="hardAlpha"/>
<feOffset dx="4"/>
<feGaussianBlur stdDeviation="2"/>
<feComposite in2="hardAlpha" operator="out"/>
<feColorMatrix type="matrix" values="0 0 0 0 1 0 0 0 0 1 0 0 0 0 1 0 0 0 0.04 0"/>
<feBlend mode="normal" in2="BackgroundImageFix" result="effect1_dropShadow_701_2"/>
<feBlend mode="normal" in="SourceGraphic" in2="effect1_dropShadow_701_2" result="shape"/>
</filter>
<linearGradient id="paint0_linear_701_2" x1="214.161" y1="132.79" x2="6.62196" y2="132.79" gradientUnits="userSpaceOnUse">
<stop stop-color="#231815"/>
<stop offset="1" stop-color="#231815" stop-opacity="0.81"/>
</linearGradient>
</defs>
</svg>
