<?xml version="1.0" encoding="utf-8"?>
<!-- Generator: Adobe Illustrator 24.2.3, SVG Export Plug-In . SVG Version: 6.00 Build 0)  -->
<svg version="1.1" id="Layer_1" xmlns="http://www.w3.org/2000/svg" xmlns:xlink="http://www.w3.org/1999/xlink" x="0px" y="0px"
	 viewBox="0 0 1920 1080" style="enable-background:new 0 0 1920 1080;" xml:space="preserve">
<style type="text/css">
	.st0{clip-path:url(#SVGID_2_);}
	.st1{fill:url(#SVGID_3_);filter:url(#Adobe_OpacityMaskFilter);}
	.st2{mask:url(#mask0_577_157_1_);}
	.st3{fill:#E7E7E7;filter:url(#Adobe_OpacityMaskFilter_1_);}
	.st4{mask:url(#mask1_577_157_1_);}
	.st5{fill:none;stroke:#000000;stroke-miterlimit:10;stroke-opacity:0.18;}
	.st6{fill:#FFFFFF;}
	.st7{fill:#231815;}
	.st8{fill:#FFA248;}
	.st9{fill:#F7F6FB;}
	.st10{fill:none;stroke:#231815;stroke-width:2;}
</style>
<g>
	<defs>
		<rect id="SVGID_1_" y="0" width="1920" height="1080"/>
	</defs>
	<clipPath id="SVGID_2_">
		<use xlink:href="#SVGID_1_"  style="overflow:visible;"/>
	</clipPath>
	<g class="st0">
		<defs>
			<filter id="Adobe_OpacityMaskFilter" filterUnits="userSpaceOnUse" x="-1501.3" y="-1385.2" width="6736.9" height="4761.4">
				<feColorMatrix  type="matrix" values="1 0 0 0 0  0 1 0 0 0  0 0 1 0 0  0 0 0 1 0"/>
			</filter>
		</defs>
		<mask maskUnits="userSpaceOnUse" x="-1501.3" y="-1385.2" width="6736.9" height="4761.4" id="mask0_577_157_1_">
			
				<radialGradient id="SVGID_3_" cx="661.9029" cy="959.3449" r="1" gradientTransform="matrix(7.439607e-14 1214.98 1214.98 -7.439607e-14 -1164364.875 -803658.75)" gradientUnits="userSpaceOnUse">
				<stop  offset="0" style="stop-color:#D9D9D9"/>
				<stop  offset="1" style="stop-color:#D9D9D9;stop-opacity:0"/>
			</radialGradient>
			<circle class="st1" cx="1220" cy="540" r="647"/>
		</mask>
		<g class="st2">
			<defs>
				<filter id="Adobe_OpacityMaskFilter_1_" filterUnits="userSpaceOnUse" x="-1501.3" y="-1385.2" width="6736.9" height="4761.4">
					<feColorMatrix  type="matrix" values="1 0 0 0 0  0 1 0 0 0  0 0 1 0 0  0 0 0 1 0"/>
				</filter>
			</defs>
			<mask maskUnits="userSpaceOnUse" x="-1501.3" y="-1385.2" width="6736.9" height="4761.4" id="mask1_577_157_1_">
				<rect x="-1501.3" y="-579.9" class="st3" width="6736.9" height="2050.9"/>
			</mask>
			<g class="st4">
				<path class="st5" d="M654-1385.2v4761.4"/>
				<path class="st5" d="M773.2-1385.2v4761.4"/>
				<path class="st5" d="M892.4-1385.2v4761.4"/>
				<path class="st5" d="M1011.6-1385.2v4761.4"/>
				<path class="st5" d="M1130.8-1385.2v4761.4"/>
				<path class="st5" d="M1250-1385.2v4761.4"/>
				<path class="st5" d="M1369.2-1385.2v4761.4"/>
				<path class="st5" d="M1488.4-1385.2v4761.4"/>
				<path class="st5" d="M1607.6-1385.2v4761.4"/>
				<path class="st5" d="M1726.9-1385.2v4761.4"/>
				<path class="st5" d="M1846-1385.2v4761.4"/>
				<path class="st5" d="M-1501.3,957.2h6736.9"/>
				<path class="st5" d="M-1501.3,829.3h6736.9"/>
				<path class="st5" d="M-1501.3,701.3l6736.9,0"/>
				<path class="st5" d="M-1501.3,573.3h6736.9"/>
				<path class="st5" d="M-1501.3,445.3l6736.9,0"/>
				<path class="st5" d="M-1501.3,317.3h6736.9"/>
				<path class="st5" d="M-1501.3,189.4h6736.9"/>
				<path class="st5" d="M-1501.3,61.4l6736.9,0"/>
			</g>
		</g>
		<path class="st6" d="M1329.8,187.1c-3.4-9.6-12.8-12-18-12.9c14.3,2.6,19.1,19.2,19.8,27.2C1331.8,200,1332.6,195,1329.8,187.1z"
			/>
		<path class="st6" d="M122,180h580c11,0,20,9,20,20v782c0,11-9,20-20,20H122c-11,0-20-9-20-20V200C102,189,111,180,122,180z"/>
		<path class="st7" d="M146.9,239.6l2.8-2.6c1.9,1.6,4.6,3.9,5.8,5.5l-3,3C151.4,243.8,148.8,241.3,146.9,239.6z M149.9,269.9
			l-0.9-4l0.9-1.4l7.1-5.4c0.3,1.2,0.9,2.8,1.4,3.7C151.7,268,150.5,269,149.9,269.9z M145.2,247.5h7.1v4.1h-7.1V247.5z
			 M149.9,269.9c-0.3-1-1.4-2.8-2.1-3.6c0.8-0.5,1.8-1.8,1.8-3.4v-15.3h4.1v18.2C153.8,265.7,149.9,268.4,149.9,269.9z M162.1,257.3
			h11.1v2.8h-11.1V257.3z M157.5,238.9h20.2v3.1h-20.2V238.9z M158.5,243.4h18.1v2.9h-18.1V243.4z M156.4,247.8h22.4v3.1h-22.4
			V247.8z M162.1,262.1h11.1v2.9h-11.1V262.1z M158.9,252.3h14.3v3.1h-10.3v14.8h-4V252.3z M172.3,252.3h4.1v13.8
			c0,1.9-0.4,2.9-1.7,3.5c-1.3,0.6-3.1,0.6-5.6,0.6c-0.1-1.1-0.6-2.7-1.2-3.7c1.5,0.1,3.2,0.1,3.7,0c0.5,0,0.6-0.1,0.6-0.6V252.3z
			 M165.4,236.4h4.3v12.4h-4.3V236.4z M202.8,249.2h4.4v21.1h-4.4V249.2z M193.3,253.7h23.1v3.9h-23.1V253.7z M207.9,255.4
			c2,3.9,5.8,7.9,9.5,10.1c-1,0.8-2.3,2.4-3.1,3.5c-3.8-2.7-7.5-7.6-9.7-12.3L207.9,255.4z M202.2,255.1l3.4,1.2
			c-2.3,5.1-6.3,9.9-10.6,12.6c-0.7-1-2.1-2.6-3-3.4C196.1,263.3,200.1,259.2,202.2,255.1z M199.8,241.8v4.8h10.6v-4.8H199.8z
			 M195.7,238h19v12.4h-19V238z M190.9,236.5l4,1.3c-2.4,6.1-6.3,12.6-10.3,16.6c-0.4-1-1.5-3.4-2.3-4.4
			C185.8,246.8,189,241.7,190.9,236.5z M187.5,246.5l4.1-4.1l0,0v27.7h-4.1V246.5z M234.1,240.5h18.8v3.9h-18.8V240.5z M232.9,254.4
			h21.3v3.9h-21.3V254.4z M232.6,247.6h22v3.9h-22V247.6z M241.5,236.6h4.1v13h-4.1V236.6z M246.2,250.8h4.1v14.9
			c0,2.2-0.4,3.2-1.8,3.9c-1.3,0.6-3.2,0.7-5.9,0.7c-0.1-1.2-0.7-2.9-1.2-4.1c1.6,0.1,3.5,0.1,4,0.1c0.6,0,0.7-0.1,0.7-0.6V250.8z
			 M234.9,260.3l3.4-1.9c1.5,1.8,3.3,4.4,4,6.1l-3.7,2.2C238,265,236.4,262.3,234.9,260.3z M220.3,254.7c3-0.6,7.3-1.8,11.5-3
			l0.5,3.9c-3.8,1.2-7.8,2.3-11.1,3.2L220.3,254.7z M220.9,243.3H232v4h-11.1V243.3z M225,236.5h4v29c0,2-0.4,3.1-1.5,3.8
			c-1.1,0.6-2.7,0.8-5,0.8c-0.1-1.1-0.6-2.8-1.1-4c1.3,0.1,2.6,0.1,3,0.1s0.6-0.1,0.6-0.6V236.5z M264.3,237.2l3.9-0.9
			c0.6,1.5,1.4,3.5,1.7,4.8l-4,1.1C265.6,240.9,264.9,238.8,264.3,237.2z M258.8,241.9h15.9v4h-15.9V241.9z M264.9,249.5h6v3.9h-6
			V249.5z M269.5,249.5h4.1c0,0,0,1.2,0,1.7c-0.2,11.6-0.4,15.8-1.3,17.1c-0.7,1-1.4,1.4-2.4,1.6c-0.9,0.2-2.3,0.2-3.9,0.1
			c-0.1-1.2-0.5-2.8-1.1-3.9c1.2,0.1,2.2,0.1,2.7,0.1c0.5,0,0.8-0.1,1-0.6c0.5-0.8,0.7-4.5,0.9-15.4V249.5z M278.3,243h14.1v4h-14.1
			V243z M278.6,236.4l4.4,0.7c-1.2,7.4-3.5,14.4-7.1,18.8c-0.6-0.9-2.3-2.7-3.2-3.5C275.9,248.8,277.7,242.7,278.6,236.4z
			 M285.6,245.4l4.2,0.4c-1.7,12.1-5.5,19.9-14.4,24.5c-0.4-1-1.6-2.9-2.4-3.8C281.1,262.9,284.4,256,285.6,245.4z M280.4,246.2
			c1.6,9.3,5.1,16.8,12.3,20.1c-1,0.9-2.3,2.6-3,3.7c-7.8-4.1-11.2-12.4-13.1-23.2L280.4,246.2z M262.3,244h4.1v8.9
			c0,5.9-0.8,12.1-5.3,17.1c-0.8-0.9-2.2-2.1-3.2-2.8c3.9-4.5,4.4-9.7,4.4-14.3V244z M296.4,243.5h13.4v4h-13.4V243.5z M301.4,236.4
			h4.2v33.8h-4.2V236.4z M301.3,246.5l2.3,0.9c-1,5.9-3.2,13-5.7,16.7c-0.4-1.2-1.4-3.2-2.1-4.4
			C298.3,256.7,300.4,251.1,301.3,246.5z M305.2,248.4c1.2,1.3,5.2,7.1,6,8.4l-3,3.5c-1.2-2.8-3.7-7.6-5.3-10L305.2,248.4z
			 M310.7,269.6c-0.2-0.9-1-3.1-1.5-4.2c0.9-0.3,1.6-1.3,2.5-3.1c1-1.7,3.8-8.2,5.3-14.4l4.6,1.7c-1.9,6.3-4.8,12.8-7.6,17.5v0.1
			C314,267.1,310.7,268.7,310.7,269.6z M310.6,269.6l-0.2-3.6l2.3-1.5l14.3-1.5c0.1,1.2,0.4,3,0.6,3.9
			C314.1,268.6,312,268.9,310.6,269.6z M321,257.8l3.6-1.5c2,3.7,4.2,8.6,5.1,11.7l-4,1.9C325,266.7,322.9,261.6,321,257.8z
			 M314,237.5l4.5,0.9c-1.4,5.9-3.7,11.7-6.4,15.2c-0.9-0.7-2.8-1.9-3.9-2.5C310.9,248,312.9,242.8,314,237.5z M324.3,237.1
			c1.4,5.6,3.1,9.5,5.9,12.8c-1.2,0.9-2.6,2.4-3.3,3.7c-3.3-4.2-5.2-8.9-6.7-15.6L324.3,237.1z M339.9,272l-1.2-2.9
			c3-1,4.7-2.7,4.7-4.8l-0.3-3.6l2,3.2c-0.6,0.5-1.3,0.8-2.1,0.8c-1.8,0-3.5-1.2-3.5-3.2c0-2,1.6-3.2,3.6-3.2c2.5,0,3.9,1.9,3.9,5
			C347.1,267.3,344.4,270.6,339.9,272z M388.4,239.1h13.1v4.1h-13.1V239.1z M400.1,239.1h0.8l0.7-0.2l2.8,0.8
			c-1.5,16.1-7,25.4-16.5,30.5c-0.6-1.2-1.9-2.9-2.8-3.8c8.5-3.9,13.7-13.1,15-26.4V239.1z M392.7,242.8
			c1.6,10.7,5.1,19.7,12.8,23.7c-1,0.8-2.4,2.5-3,3.7c-8.3-5-11.8-14.4-13.8-26.8L392.7,242.8z M372.8,239.1h11.8v4.1h-11.8V239.1z
			 M383.1,239.1h0.7l0.8-0.2l2.8,0.8c-1.3,14.5-5.5,24.6-12.7,30.5c-0.7-1.1-2.1-2.7-3.1-3.5c6.4-4.6,10.5-14.8,11.6-26.7V239.1z
			 M372.5,248.5l3.2-2.6c4.6,5,10.1,11.7,12.4,16.3l-3.6,3.1C382.4,260.7,377.1,253.6,372.5,248.5z M414,254.2h22v2.9h-17.6v13.2
			H414V254.2z M434.9,254.2h4.4v12.1c0,2-0.5,2.9-2.1,3.4c-1.5,0.5-3.6,0.5-6.6,0.5c-0.2-1-0.8-2.4-1.3-3.3c1.7,0.1,4.1,0.1,4.6,0.1
			c0.6,0,0.8-0.2,0.8-0.7V254.2z M417.2,258.4h18.1v2.7h-18.1V258.4z M427.1,238.4h15.4v2.8h-15.4V238.4z M427.2,248.2h15.2v2.7
			h-15.2V248.2z M426.4,243.9h17.1v2.8h-17.1V243.9z M417.2,262.4h18.1v2.8h-18.1V262.4z M432.8,245.4h4.1v8.1h-4.1V245.4z
			 M413.4,237.8h12.2v6.6h-12.2v-2.5h8.6v-1.6h-8.6V237.8z M429.1,241.8l3.1-0.5c0.5,0.9,1,2.2,1.1,3l-3.2,0.6
			C430,244.1,429.6,242.8,429.1,241.8z M437.3,241.3l3.5,0.6c-0.6,1.2-1.1,2.2-1.5,2.9l-3-0.5C436.5,243.4,437,242.2,437.3,241.3z
			 M411.7,237.8h3.6v3.9c0,3.4-0.6,8.2-3.1,11.4c-0.5-0.7-2.1-2.1-2.8-2.5c2.2-2.7,2.4-6.3,2.4-9V237.8z M431.9,236.9l4-0.6
			c0.5,0.9,1,2.1,1.2,2.9l-4.2,0.8C432.8,239.2,432.4,237.9,431.9,236.9z M417.5,248.2v2.3h4.8v-2.3H417.5z M414,245.7h11.9v7.3H414
			V245.7z M454.5,249h19.6v4h-19.6V249z M454.5,256.7h19.6v4h-19.6V256.7z M454.5,264.4h19.6v4h-19.6V264.4z M451.5,241.1h26.2v29
			h-4.6v-24.9h-17.2v24.9h-4.4V241.1z M461.8,236.4l5.2,0.5c-0.9,2.4-1.9,4.8-2.7,6.4l-4-0.7C460.9,240.8,461.5,238.3,461.8,236.4z
			 M502.7,243.5h15.6v4.1h-15.6V243.5z M511.1,245c1.2,5.7,3.6,10.5,8,12.8c-0.9,0.8-2.3,2.5-2.8,3.6c-4.9-3-7.3-8.6-8.7-15.7
			L511.1,245z M492.9,246.6l1.9-2.4c1.8,0.8,4.1,2.1,5.3,3.1l-1.9,2.7C497.1,249,494.7,247.5,492.9,246.6z M511.8,238.6l3.1-1.7
			c1.3,1.4,2.7,3.3,3.4,4.7l-3.3,1.9C514.4,242.1,513,240,511.8,238.6z M489.4,250.9l2.3-2.2c1.8,1.1,4.2,2.7,5.3,3.9l-2.5,2.4
			C493.6,253.9,491.3,252.1,489.4,250.9z M492.9,236.1l4.1,1c-1.9,5.1-5.1,10.7-9.2,14.1c-0.7-0.8-2.1-2.1-2.9-2.7
			C488.6,245.5,491.6,240.3,492.9,236.1z M499.6,239.4h0.8l0.8-0.1l2.7,1c-2.1,11-7.6,17.6-14.9,20.8c-0.6-1-2.1-2.7-3-3.3
			c7.1-2.7,12-8.3,13.6-17.6V239.4z M494,239.4h7.1v3.4h-9.4L494,239.4z M507.5,236.9h4.1v7.4c0,6.1-1.4,13-10.2,17.5
			c-0.7-0.9-2-2.2-3-3c8.1-4.1,9.1-9.9,9.1-14.6V236.9z M495.9,263l4-0.4c0.5,2.2,0.9,5,0.9,6.8l-4.2,0.6
			C496.6,268.2,496.3,265.3,495.9,263z M503.2,262.9l4-0.7c0.9,2.1,1.8,5,2.1,6.7l-4.3,0.9C504.9,268.1,504.1,265.2,503.2,262.9z
			 M510.6,262.9l3.8-1.6c1.7,2.2,3.7,5.2,4.6,7.2l-4.1,1.9C514.2,268.4,512.2,265.2,510.6,262.9z M489.6,261.6l4.1,1.1
			c-1.2,2.6-2.9,5.7-4.4,7.7l-4.1-1.7C486.6,267,488.4,264.1,489.6,261.6z M523.8,239.1h32.3v4.4h-32.3V239.1z M536.9,243h4.6v27.2
			h-4.6V243z M539.4,251.7l3-3.4c3.9,1.9,9.6,5.1,12.3,7.3l-3.2,4C548.9,257.3,543.4,253.9,539.4,251.7z M564.7,265.4h26v4.1h-26
			V265.4z M561.5,251.4h32.7v4.1h-32.7V251.4z M563,258.7h29.7v4H563V258.7z M563.3,244.4h29.2v4h-29.2V244.4z M575.7,240.2h4.6
			v27.1h-4.6V240.2z M567.1,246.3h4.5v14h-4.5V246.3z M584.2,246.3h4.6v14.1h-4.6V246.3z M589.2,236.5l2.1,3.7
			c-7.4,1.4-17.8,2.1-26.5,2.1c-0.1-1.1-0.6-2.8-1-3.7C572.6,238.5,582.7,237.8,589.2,236.5z"/>
		<path class="st7" d="M167.5,322.1h1.8v5.4c0,3.9-0.4,9.7-3,13.6c-0.3-0.3-1.1-0.8-1.6-0.9c2.4-3.7,2.7-9,2.7-12.7V322.1z
			 M168.6,322.1h16v5.8h-16v-1.5h14.2v-2.8h-14.2V322.1z M170.7,329.6h13.2v1.4h-11.4v11h-1.8V329.6z M183.2,329.6h1.8v10.3
			c0,1-0.2,1.5-1,1.7c-0.7,0.2-1.9,0.2-3.8,0.2c-0.1-0.5-0.4-1.1-0.6-1.5c1.4,0,2.7,0,3,0c0.4,0,0.5-0.1,0.5-0.5V329.6z
			 M171.6,333.1h12.3v1.2h-12.3V333.1z M171.6,336.5h12.3v1.3h-12.3V336.5z M174.3,320.2l1.6-0.7c0.8,0.9,1.6,2.1,1.9,2.9l-1.7,0.8
			C175.9,322.4,175.1,321.1,174.3,320.2z M192.6,320.7h4.5v1.7h-4.5V320.7z M192.3,326.4h4.6v1.7h-4.6V326.4z M192.3,332.1h4.7v1.7
			h-4.7V332.1z M191.6,320.7h1.6v8.6c0,3.7-0.2,9-1.7,12.6c-0.3-0.3-1.1-0.7-1.4-0.8c1.4-3.4,1.5-8.2,1.5-11.7V320.7z M196.4,320.7
			h1.7v19c0,0.9-0.2,1.4-0.8,1.7c-0.6,0.3-1.5,0.3-3,0.3c-0.1-0.4-0.3-1.2-0.5-1.7c1.1,0,2,0,2.3,0c0.3,0,0.4-0.1,0.4-0.4V320.7z
			 M199.4,321.2h12.1v14.5h-1.7v-12.8h-8.7v13h-1.7V321.2z M200.3,327h10.3v1.6h-10.3V327z M200.3,332.8h10.3v1.7h-10.3V332.8z
			 M204.6,321.7h1.8v20.3h-1.8V321.7z M217.6,320.7h4.7v1.7h-4.7V320.7z M217.5,326.3h4.5v1.7h-4.5V326.3z M217.4,332.1h4.5v1.7
			h-4.5V332.1z M216.8,320.7h1.6v8.6c0,3.7-0.2,9-1.8,12.6c-0.3-0.3-1-0.7-1.4-0.8c1.5-3.4,1.6-8.2,1.6-11.8V320.7z M221.2,320.7
			h1.6v19.1c0,0.9-0.2,1.4-0.8,1.7c-0.6,0.3-1.5,0.3-3,0.3c-0.1-0.4-0.3-1.2-0.5-1.7c1,0,1.9,0,2.2,0c0.3,0,0.4-0.1,0.4-0.5V320.7z
			 M225.9,323h10.3v1.7h-10.3V323z M235.5,323h1.6c0,0,0,0.7,0,0.9c0,12.1,0,15.9-0.7,17c-0.5,0.7-1,0.9-1.7,1c-0.8,0.1-2.1,0-3.3,0
			c0-0.5-0.2-1.2-0.5-1.7c1.4,0.1,2.7,0.1,3.2,0.1c0.4,0,0.6-0.1,0.8-0.4c0.5-0.7,0.6-4.8,0.6-16.5V323z M226.4,319.8l1.8,0.4
			c-0.9,3.2-2.4,6.2-4.2,8.2c-0.3-0.3-1.1-0.9-1.5-1.2C224.2,325.5,225.6,322.7,226.4,319.8z M232.8,327.7h1.4v10.6h-1.4V327.7z
			 M230.7,326.3l1.3,0.4c-1.4,3.4-3.3,6.9-5.2,9.3c-0.2-0.2-0.8-0.6-1.1-0.8C227.6,333,229.5,329.6,230.7,326.3z M225.8,327.2
			l1.1-0.6c2.1,2.7,4.6,6.4,5.7,8.6l-1.1,0.6C230.3,333.6,227.8,329.9,225.8,327.2z M224.2,328h1.4v9l-1.4,0.8V328z M224.2,336.9
			h8.9v1.4h-8.9V336.9z M242.7,325h18v1.8h-18V325z M241.2,331H262v1.8h-20.8V331z M252.6,331.6c1.6,4.2,5.1,7.2,10,8.4
			c-0.4,0.4-1,1.2-1.3,1.7c-5-1.5-8.5-4.9-10.4-9.7L252.6,331.6z M256.7,319.9l1.9,0.7c-1,1.8-2.3,4-3.4,5.4l-1.5-0.6
			C254.7,323.9,256,321.6,256.7,319.9z M245,320.8l1.5-0.8c1,1.2,2.1,2.9,2.5,4l-1.6,0.9C247,323.8,245.9,322.1,245,320.8z
			 M250.6,325.6h2.1v4.1c0,4-1.1,8.8-10.7,12.2c-0.2-0.4-0.8-1.2-1.3-1.6c9.1-3.1,9.9-7.3,9.9-10.7V325.6z M283.3,328.3h1.9v8
			c0,1.1-0.2,1.7-1.1,2c-0.9,0.3-2.4,0.3-4.6,0.3c-0.1-0.6-0.3-1.3-0.6-1.9c1.8,0.1,3.4,0.1,3.9,0c0.5,0,0.6-0.1,0.6-0.5V328.3z
			 M273.4,329.4h1.9v12.5h-1.9V329.4z M267.1,328.3h17v1.7h-17V328.3z M266.1,322.6h21.4v1.7h-21.4V322.6z M271.7,319.8h1.8v7.2
			h-1.8V319.8z M280,319.8h1.9v7.2H280V319.8z"/>
		<path class="st7" d="M165.1,611.7h21.8v1.6h-21.8V611.7z M168,593.1h16.1v1.6H168V593.1z M165.6,598.1h20.9v1.6h-20.9V598.1z
			 M167.9,605.4h16.3v7.1h-1.8v-5.6h-3.2v5.6h-1.7v-5.6h-3.2v5.6h-1.7v-5.6h-3.1v5.6h-1.7V605.4z M175.3,593.6h1.8v8.8
			c0,1-0.2,1.5-1.1,1.8c-0.8,0.2-2.1,0.2-4.1,0.2c-0.1-0.5-0.4-1.1-0.6-1.6c1.6,0,3,0,3.5,0c0.4,0,0.5-0.1,0.5-0.5V593.6z
			 M192.4,592.7h4.9v1.7h-4.9V592.7z M192.4,598.4h4.7v1.7h-4.7V598.4z M198.7,596.1h13.4v1.8h-13.4V596.1z M192.4,604.1h4.7v1.7
			h-4.7V604.1z M191.6,592.7h1.6v8.6c0,3.7-0.2,9-1.9,12.6c-0.3-0.3-1-0.7-1.4-0.8c1.6-3.4,1.7-8.2,1.7-11.8V592.7z M196.4,592.7
			h1.7v19c0,0.9-0.2,1.5-0.8,1.8c-0.6,0.3-1.5,0.3-3.1,0.3c0-0.5-0.3-1.2-0.5-1.7c1.1,0,2,0,2.3,0c0.3,0,0.4-0.1,0.4-0.5V592.7z
			 M207.7,605.8l1.6-0.6c1.1,2.6,2.4,5.9,2.9,8.1l-1.7,0.6C210,611.7,208.7,608.3,207.7,605.8z M202.1,592l1.8,0
			c-0.5,8.8-1.2,16.5-4.1,21.6c-0.3-0.3-1.2-0.9-1.6-1.2C201.1,607.9,201.8,600.4,202.1,592z M202.7,612.9c-0.1-0.4-0.4-1.2-0.6-1.7
			c0.5-0.1,0.8-1,1.3-2.2c0.5-1.1,2.1-5.6,2.8-9.6l1.8,0.4c-1,4.3-2.6,8.8-4.2,12v0C203.9,611.9,202.7,612.6,202.7,612.9z
			 M202.7,612.9l-0.1-1.4l0.9-0.6l6.9-0.8c0,0.5,0.2,1.1,0.3,1.5C204.1,612.5,203.2,612.7,202.7,612.9z M217.5,597h18v1.8h-18V597z
			 M216,603h20.8v1.8H216V603z M227.4,603.6c1.6,4.2,5.1,7.2,10,8.4c-0.4,0.4-1,1.2-1.3,1.7c-5-1.5-8.5-4.9-10.4-9.7L227.4,603.6z
			 M231.5,591.9l1.9,0.7c-1,1.8-2.3,4-3.4,5.4l-1.5-0.6C229.5,595.9,230.8,593.6,231.5,591.9z M219.8,592.8l1.5-0.8
			c1,1.2,2.1,2.9,2.5,4l-1.6,0.9C221.8,595.8,220.7,594.1,219.8,592.8z M225.4,597.6h2.1v4.1c0,4-1.1,8.8-10.7,12.2
			c-0.2-0.4-0.8-1.2-1.3-1.6c9.1-3.1,9.9-7.3,9.9-10.7V597.6z M258.1,600.3h1.9v8c0,1.1-0.2,1.7-1.1,2c-0.9,0.3-2.4,0.3-4.6,0.3
			c-0.1-0.6-0.3-1.3-0.6-1.9c1.8,0.1,3.4,0.1,3.9,0c0.5,0,0.6-0.1,0.6-0.5V600.3z M248.2,601.4h1.9v12.5h-1.9V601.4z M241.9,600.3
			h17v1.7h-17V600.3z M240.9,594.6h21.4v1.7h-21.4V594.6z M246.5,591.8h1.8v7.2h-1.8V591.8z M254.8,591.8h1.9v7.2h-1.9V591.8z"/>
		<path class="st8" d="M257,863h311c11,0,20,9,20,20v45c0,11-9,20-20,20H257c-11,0-20-9-20-20v-45C237,872,246,863,257,863z"/>
		<path class="st6" d="M318.6,912.1h13.1v3.7h-13.1V912.1z M318.6,906h13v3.3h-13V906z M318.6,899.7h13v3.6h-13V899.7z M322.7,901.5
			h3.7v21.2h-3.7V901.5z M329.7,899.7h4.1v20.1c0,1.8-0.3,2.8-1.4,3.5c-1.1,0.6-2.6,0.6-4.6,0.6c-0.1-1-0.5-2.6-0.9-3.7
			c1,0,2.1,0,2.4,0c0.4,0,0.5-0.1,0.5-0.5V899.7z M315.7,899.7h4v9c0,4.8-0.6,11.4-4.1,15.6c-0.7-0.6-2.4-1.8-3.4-2.2
			c3.2-3.8,3.5-9.2,3.5-13.4V899.7z M319,890.4l3.7,1c-1.8,4.9-4.7,9.6-8.2,12.5c-0.4-0.8-1.7-2.6-2.3-3.3
			C315.1,898.1,317.6,894.4,319,890.4z M319.8,893.4h8.3v3.5h-10L319.8,893.4z M327,893.4h0.9l0.6-0.1l2.8,1.8c-1.3,2.2-3.3,5-5,6.8
			c-0.8-0.6-2-1.4-2.9-1.9c1.3-1.6,2.9-4.2,3.6-5.8V893.4z M301.6,892h12.7v3.9h-12.7V892z M305.7,903.3h7.8v16.6h-7.8v-3.8h4.2v-9
			h-4.2V903.3z M305.8,894l3.9,0.9c-1.3,6.8-3.6,13.9-7.3,18.3c-0.2-1.2-1-3.9-1.5-5.1C303.4,904.7,304.9,899.5,305.8,894z
			 M303.9,903.3h3.6v19.3h-3.6V903.3z M359.5,890.6h4.4c-0.1,12.8-0.3,26.1-10,33.6c-0.7-1.1-2.1-2.4-3.2-3.2
			C359.7,914.3,359.4,902.3,359.5,890.6z M363.5,900.8c0.4,3.7,1.5,14.7,9.5,20.2c-1.2,0.8-2.4,2.1-3.1,3.2
			c-8.4-6.2-9.6-18.8-10.2-23.1L363.5,900.8z M342,893.6l2.8-2.7c1.8,1.6,4.6,3.9,5.9,5.3l-3,3.1C346.5,897.8,343.8,895.3,342,893.6
			z M344.6,923.6l-0.9-3.9l1-1.4l7.3-5.1c0.3,1.2,0.9,2.8,1.3,3.7C346.4,921.8,345.3,922.8,344.6,923.6z M339.2,901.5h8.5v4.1h-8.5
			V901.5z M344.6,923.6c-0.4-0.9-1.5-2.3-2.2-3c0.9-0.7,2.2-2.1,2.2-4v-15h4.2v17.4C348.7,918.9,344.6,922.1,344.6,923.6z
			 M391,893.2h16.3v4.2H391V893.2z M404.9,893.2h4.2c0,0,0,1.6,0,2.1c-0.4,18.2-0.7,24.5-2,26.4c-0.9,1.4-1.8,1.9-3.2,2.1
			c-1.3,0.2-3.3,0.2-5.2,0.1c-0.1-1.2-0.6-3-1.3-4.1c1.9,0.1,3.6,0.2,4.5,0.2c0.6,0,1-0.2,1.4-0.7c1.1-1.3,1.4-7.8,1.7-25.1V893.2z
			 M395.6,895.3l4.4,0.1c-0.4,13.4-1.9,22.9-8.7,28.8c-0.6-0.8-2.4-2.6-3.3-3.4C394.3,916,395.5,907.2,395.6,895.3z M381.9,908.6
			l4.5-5.3v20.9h-4.5V908.6z M389.7,903.6l2.8,2.3c-1.6,1.3-3,2.7-4.1,3.5l-1.9-1.8C387.5,906.7,389,904.8,389.7,903.6z
			 M377.4,896.5H388v3.9h-10.6V896.5z M385.6,906c1.3,0.9,5.4,5,6.3,6l-2.4,3.4c-1.3-2-4.4-5.8-5.9-7.5L385.6,906z M386.6,896.5h0.8
			l0.8-0.2l2.4,1.7c-2.6,6.7-7.5,13.3-12.1,16.9c-0.3-1.2-1.4-3.5-2-4.3c4.2-2.8,8.4-8.4,10.2-13.3V896.5z M380.7,892.1l3.4-1.9
			c1.2,1.5,2.6,3.4,3.2,4.7l-3.5,2.2C383.3,895.8,381.9,893.7,380.7,892.1z M432.3,919h12v3.8h-12V919z M429.5,909.1h16.8v15.1h-4.1
			v-11.3h-8.8v11.3h-3.9V909.1z M439.4,897.2l3.5-1.7c2.5,3.2,4.9,7.3,6,10.2l-3.7,2C444.2,904.8,441.8,900.4,439.4,897.2z
			 M429,907.1c-0.3-0.9-0.9-2.9-1.4-4c0.8-0.2,1.4-1,2.3-2.3c0.9-1.2,3.4-5.9,4.9-10.4l4.5,1.2c-2.1,4.9-4.9,9.8-7.5,13.2v0.1
			C431.8,904.9,429,906.3,429,907.1z M429,907.1l-0.1-3.4l2.3-1.4l14.5-1c0.2,1.2,0.6,2.9,0.9,3.8
			C432.3,906.3,430.4,906.5,429,907.1z M415.1,910.1c1.5-5,3-13.1,3.6-19.4l4.1,0.3c-0.8,6.7-2.4,15.1-4,20.6L415.1,910.1z
			 M414.7,897.6h9.9v4h-9.9V897.6z M423.6,897.6h0.7l0.7-0.1l2.5,0.3c-0.7,14.1-3.8,22-10.5,26.4c-0.6-1-1.7-2.6-2.5-3.4
			c5.7-3.2,8.6-11.1,9.1-22.4V897.6z M415.1,910.1l2.3-3c3.8,3,8.7,7.1,10.7,10.1l-2.6,3.5C423.5,917.7,418.8,913.2,415.1,910.1z
			 M460.2,898.7h20.9v3.9h-20.9V898.7z M460.2,905.7h20.2v3.7h-20.2V905.7z M459.7,912.6h20.9v3.8h-20.9V912.6z M457.6,898.7h4.4
			v9.4c0,5.1-0.8,12.2-5.4,16.4c-0.7-0.9-2.4-2.6-3.3-3.1c3.9-3.7,4.3-9,4.3-13.3V898.7z M478.9,898.7h4.4v20.7c0,2.2-0.5,3.3-1.9,4
			c-1.5,0.7-3.5,0.8-6.4,0.8c-0.2-1.2-0.9-3.1-1.5-4.2c1.8,0.1,3.9,0.1,4.5,0.1c0.6,0,0.8-0.2,0.8-0.7V898.7z M468.1,900.3h4.4v23.1
			h-4.4V900.3z M463,892.5h12.9v3.5H463V892.5z M462.2,890.3l4.8,0.9c-2.4,4.7-5.9,9.3-11,13c-0.7-1-2.2-2.6-3.2-3.2
			C457.4,897.9,460.5,893.9,462.2,890.3z M474.6,892.5h1l0.7-0.2l2.9,2.1c-1.6,2.4-4.4,5.5-6.6,7.4c-0.7-0.6-2.1-1.5-2.9-2.1
			c1.9-1.8,4-4.6,4.9-6.4V892.5z M498,900.8h25v3.4h-25V900.8z M498.3,911.2h19.8v3.4h-19.8V911.2z M502.9,898.4h4.1v8.2h6.6v-8.2
			h4.2v11.4h-14.9V898.4z M516.9,911.2h0.8l0.8-0.1l2.7,1.4c-4,7.6-12.8,10.4-23,11.5c-0.3-1-1.1-2.7-1.7-3.6
			c9.2-0.7,17.4-3.1,20.4-8.6V911.2z M504.4,913.8c3.5,4,10.8,6.1,19.6,6.7c-0.9,0.9-2,2.7-2.5,3.7c-9.3-0.9-16.4-3.7-20.8-9
			L504.4,913.8z M495,893.5h28.4v4H495V893.5z M493,893.5h4.3v9.6c0,6.1-0.5,15.1-3.5,21c-0.9-0.6-2.8-1.5-4-1.9
			c2.9-5.5,3.1-13.6,3.1-19.1V893.5z M505.6,891.1l4.4-1c0.8,1.6,1.5,3.6,1.8,4.9l-4.6,1.1C507,894.9,506.3,892.7,505.6,891.1z"/>
		<g>
			<path class="st6" d="M1486,294l45-45h57.5L1486,294z"/>
			<path class="st6" d="M1490,156h237c5.5,0,10,4.5,10,10v73c0,5.5-4.5,10-10,10h-237c-5.5,0-10-4.5-10-10v-73
				C1480,160.5,1484.5,156,1490,156z"/>
		</g>
		<path class="st7" d="M1507.5,210v-18.2h3.2v7.7l-0.4-0.5c0.3-0.8,0.8-1.4,1.5-1.8c0.7-0.4,1.5-0.6,2.4-0.6c1,0,1.8,0.2,2.6,0.6
			c0.8,0.4,1.3,1,1.8,1.8c0.4,0.7,0.6,1.6,0.6,2.6v8.4h-3.1v-7.7c0-0.6-0.1-1.1-0.3-1.5c-0.2-0.4-0.5-0.7-0.9-1
			c-0.4-0.2-0.8-0.4-1.4-0.4c-0.5,0-1,0.1-1.4,0.4c-0.4,0.2-0.7,0.5-0.9,1c-0.2,0.4-0.3,0.9-0.3,1.5v7.7H1507.5z M1522.9,210v-13.1
			h3.1V210H1522.9z M1522.9,195.5v-3.4h3.1v3.4H1522.9z"/>
		<path class="st7" d="M1540.6,214.3l-0.8-1.9c2-0.6,3.1-1.8,3.1-3.2l-0.2-2.4l1.3,2.2c-0.4,0.4-0.9,0.5-1.4,0.5
			c-1.2,0-2.3-0.8-2.3-2.2c0-1.3,1.1-2.2,2.4-2.2c1.7,0,2.6,1.3,2.6,3.3C1545.4,211.2,1543.6,213.4,1540.6,214.3z M1564.9,202.3
			h14.6v3h-14.6V202.3z M1570.3,198.8l1.9-1.8c1.5,1.1,3.7,2.7,4.7,3.7l-2,2.1C1574,201.7,1571.9,200,1570.3,198.8z M1574.4,191.6
			c2.2,2.7,6.6,5.6,10.2,7.1c-0.8,0.6-1.8,1.8-2.3,2.6c-3.6-1.9-7.8-5.3-10.4-8.5L1574.4,191.6z M1572.7,190.3l2.9,1.4
			c-2.9,4.3-7.2,7.7-11.6,10c-0.5-0.8-1.4-1.9-2.2-2.7C1566,197.2,1570.3,194.1,1572.7,190.3z M1579.2,202.3h0.5l0.5-0.1l2.3,1.1
			c-2.1,3-5.1,6.9-7.7,10.1l-3-1.4c2.6-3,5.8-7.1,7.4-9.3V202.3z M1599.9,201c1.5,4.6,4.8,7.9,10,9.3c-0.7,0.6-1.5,1.8-2,2.7
			c-5.6-1.8-8.8-5.6-10.8-11.3L1599.9,201z M1588.8,192.2h19.1v3h-19.1V192.2z M1587.9,199.5h20.9v3h-20.9V199.5z M1596.7,193.2h3
			v4.4c0,5-1.2,11.9-10.8,15.4c-0.4-0.7-1.3-1.9-1.9-2.5c8.6-3,9.6-8.9,9.6-12.9V193.2z M1612.9,192.9l2.2-1.5
			c1.3,1.2,2.9,2.9,3.6,4.1l-2.4,1.7C1615.8,195.9,1614.3,194.2,1612.9,192.9z M1618.2,199.5v9.2h-2.8v-6.6h-2.8v-2.7H1618.2z
			 M1616.8,207.2c0.8,0,1.5,0.7,2.9,1.4c1.6,0.9,3.9,1.1,6.5,1.1c2.5,0,6.4-0.2,8.8-0.6c-0.4,0.8-0.9,2.3-0.9,3.2
			c-1.7,0.1-5.6,0.2-8.1,0.2c-3,0-5.1-0.3-6.9-1.2c-1.1-0.6-1.9-1.3-2.5-1.3c-0.7,0-1.7,1.6-2.6,3l-2-2.9
			C1613.7,208.3,1615.5,207.2,1616.8,207.2z M1619.6,194.8h14.8v2.7h-14.8V194.8z M1628.6,190.8h2.9v14.6c0,1.7-0.4,2.4-1.5,2.9
			c-1.1,0.5-2.7,0.5-4.9,0.5c-0.1-0.8-0.6-2.1-1-2.9c1.6,0.1,3.3,0.1,3.8,0.1c0.5,0,0.7-0.1,0.7-0.6V190.8z M1620.3,199.8l2.3-1.3
			c1.2,1.4,2.7,3.4,3.4,4.7l-2.4,1.5C1622.9,203.4,1621.5,201.3,1620.3,199.8z M1649.3,196.4v1.2h6.3v-1.2H1649.3z M1649.3,193.3
			v1.2h6.3v-1.2H1649.3z M1646.5,191.3h11.9v8.4h-11.9V191.3z M1645.3,200.7h13.9v2.4h-13.9V200.7z M1644.7,204.4h15v2.4h-15V204.4z
			 M1653.5,202.8h2.9v7.5c0,1.3-0.2,2-1.2,2.4c-0.9,0.4-2.1,0.4-3.8,0.4c-0.1-0.8-0.5-1.8-0.9-2.6c1,0,2.1,0,2.4,0
			c0.4,0,0.5-0.1,0.5-0.4V202.8z M1646.3,208.1l2-1.3c1,0.9,2.3,2.3,2.9,3.2l-2.2,1.5C1648.5,210.5,1647.3,209.1,1646.3,208.1z
			 M1643,195.9l2.5,1.1c-1.8,3-4.6,6.1-7.1,8.1c-0.2-0.6-0.9-2.3-1.3-3C1639.2,200.6,1641.6,198.3,1643,195.9z M1642.3,190.6
			l2.7,1.1c-1.6,2.2-4.1,4.6-6.3,6c-0.3-0.6-1-1.8-1.4-2.4C1639.2,194.2,1641.3,192.3,1642.3,190.6z M1640.6,201.3l2.7-2.7l0.1,0.1
			v14.5h-2.8V201.3z M1662.9,195.4h9v2.6h-9V195.4z M1671.1,195.4h0.5l0.5-0.1l1.8,0.2c-0.6,10.2-3.4,15.1-9.4,17.7
			c-0.4-0.7-1.1-1.8-1.7-2.4c5.1-1.8,7.8-6.6,8.3-15V195.4z M1663.8,203.7l1.7-2.1c2.6,2.2,6.5,5.3,8.3,7.2l-1.9,2.4
			C1670.2,209.3,1666.4,206.1,1663.8,203.7z M1676.2,208h6.7v2.7h-6.7V208z M1674.6,193.1h9.8v19h-2.9v-16.3h-4.2v16.7h-2.7V193.1z
			 M1663.8,203.7c1.1-3.3,2.3-8.7,2.6-13l2.8,0.2c-0.6,4.6-1.8,10.2-3,13.9L1663.8,203.7z M1695.6,192.7h14.9v2.8h-14.9V192.7z
			 M1706.1,193.7h2.9v16.1c0,1.7-0.4,2.4-1.4,2.9c-1,0.4-2.7,0.5-4.9,0.5c-0.1-0.8-0.6-2.1-1-2.9c1.6,0.1,3.2,0.1,3.7,0
			c0.5,0,0.6-0.1,0.6-0.6V193.7z M1695.9,198h2.7v10.3h-2.7V198z M1697.1,198h6.8v8.7h-6.8v-2.5h4.2v-3.8h-4.2V198z M1693.2,190.6
			l2.7,0.9c-1.5,4.1-4,8.4-6.5,11c-0.2-0.7-1-2.3-1.5-3C1689.9,197.4,1691.9,194,1693.2,190.6z M1691,197.3l2.9-2.9v0v18.6h-2.9
			V197.3z"/>
		<path class="st9" d="M184,364h456c11,0,20,9,20,20v152c0,11-9,20-20,20H184c-11,0-20-9-20-20V384C164,373,173,364,184,364z"/>
		<path class="st6" d="M201,389h101c5.5,0,10,4.5,10,10v101c0,5.5-4.5,10-10,10H201c-5.5,0-10-4.5-10-10V399
			C191,393.5,195.5,389,201,389z"/>
		<path class="st6" d="M361,389h102c5.5,0,10,4.5,10,10v101c0,5.5-4.5,10-10,10H361c-5.5,0-10-4.5-10-10V399
			C351,393.5,355.5,389,361,389z"/>
		<path class="st6" d="M522,389h101c5.5,0,10,4.5,10,10v101c0,5.5-4.5,10-10,10H522c-5.5,0-10-4.5-10-10V399
			C512,393.5,516.5,389,522,389z"/>
		<path class="st7" d="M221.8,531.7h6.6v1.2h-6.6V531.7z M215.1,539.3h14.4v1.2h-14.4V539.3z M221.1,526.8h1.3V540h-1.3V526.8z
			 M238.7,530.1v1.3h5.3v-1.3H238.7z M238.7,528v1.3h5.3V528H238.7z M237.6,527.1h7.6v5.2h-7.6V527.1z M236.9,533.5h9.2v1h-9.2
			V533.5z M240.8,534h1.1v6.5l-1.1-0.5V534z M238.7,536.9c0.8,2.7,2.6,3.1,4.8,3.1c0.4,0,2.6,0,3.1,0c-0.2,0.3-0.3,0.8-0.4,1.1h-2.8
			c-2.7,0-4.5-0.6-5.5-3.8L238.7,536.9z M241.6,536.4h3.7v1h-3.7V536.4z M237.9,535.2l1.1,0.1c-0.3,2.6-1.2,4.6-2.6,5.9
			c-0.2-0.2-0.7-0.5-0.9-0.7C237,539.4,237.7,537.6,237.9,535.2z M231.5,535.1c1.2-0.3,3.1-0.9,4.9-1.5l0.2,1.1
			c-1.7,0.5-3.4,1.1-4.8,1.6L231.5,535.1z M231.7,529.8h4.9v1.1h-4.9V529.8z M233.7,526.6h1.1v13.2c0,0.7-0.1,1-0.5,1.2
			c-0.4,0.2-1,0.2-2,0.2c0-0.3-0.2-0.8-0.4-1.1c0.7,0,1.3,0,1.5,0c0.2,0,0.3-0.1,0.3-0.3V526.6z M248,542.9l4.8-15.6h1l-4.8,15.6
			H248z M255.8,527.7h14.2v1.2h-14.2V527.7z M262,528.7h1.3v12.6H262V528.7z M262.7,532.5l0.8-0.9c1.9,0.9,4.4,2.4,5.7,3.3l-0.8,1.1
			C267.1,535,264.6,533.5,262.7,532.5z M273.2,527.6l0.7-0.8c1,0.5,2.3,1.3,2.9,1.8l-0.8,0.9C275.4,529,274.1,528.2,273.2,527.6z
			 M272.3,531.9l0.7-0.9c1,0.4,2.4,1.1,3.1,1.6l-0.7,1C274.7,533.1,273.3,532.4,272.3,531.9z M272.8,540.3c0.9-1.3,2.2-3.5,3.1-5.3
			l0.9,0.8c-0.9,1.7-2,3.8-3,5.4L272.8,540.3z M279.8,531.5h4.3v1.1h-4.3V531.5z M277.3,527.6h9.5v3.2h-1.2v-2.1h-7.2v2.1h-1.1
			V527.6z M279.1,531.5h1.2v3.4c0,2.1-0.5,4.8-3.2,6.4c-0.1-0.3-0.5-0.8-0.8-0.9c2.5-1.5,2.8-3.7,2.8-5.5V531.5z M283.4,531.5h1.2
			v7.8c0,0.5,0.1,0.6,0.4,0.6c0.1,0,0.7,0,0.9,0c0.3,0,0.4-0.4,0.4-2.8c0.3,0.2,0.8,0.4,1.1,0.5c-0.1,2.6-0.4,3.4-1.4,3.4
			c-0.2,0-1,0-1.2,0c-1,0-1.3-0.4-1.3-1.7V531.5z"/>
		<path class="st7" d="M376.1,529.1h14.3v1.1h-14.3V529.1z M377.8,534.2h4.5v0.9h-4.5V534.2z M377.8,536.8h4.5v0.9h-4.5V536.8z
			 M384.9,531.8h1.1v6.6h-1.1V531.8z M381.8,531.6h1.2v8.3c0,0.6-0.1,0.9-0.6,1.1c-0.4,0.2-1.1,0.2-2.2,0.2
			c-0.1-0.3-0.2-0.8-0.4-1.1c0.8,0,1.5,0,1.8,0c0.2,0,0.3-0.1,0.3-0.3V531.6z M388.2,531.3h1.2v8.5c0,0.7-0.2,1-0.7,1.2
			c-0.5,0.2-1.3,0.2-2.5,0.2c-0.1-0.3-0.3-0.8-0.4-1.2c1,0,1.8,0,2.1,0c0.3,0,0.3-0.1,0.3-0.3V531.3z M378.6,527l1.1-0.4
			c0.6,0.7,1.3,1.6,1.6,2.3l-1.2,0.4C379.9,528.6,379.2,527.6,378.6,527z M386.8,526.5l1.3,0.4c-0.6,1-1.3,2.1-1.9,2.8l-1.1-0.4
			C385.7,528.6,386.4,527.4,386.8,526.5z M377.1,531.6h5.1v1h-3.9v8.5h-1.1V531.6z M397.5,529.5h9.4v1.2h-9.4V529.5z M399.7,526.9
			h1.2v5.6c0,2.1-0.3,4.7-2.4,6.3c-0.2-0.2-0.6-0.7-0.9-0.8c1.9-1.5,2.1-3.6,2.1-5.5V526.9z M397.4,533.5h9.8v1.1h-9.8V533.5z
			 M396.2,532.4v6.2h-1.2v-5.1h-2.2v-1.1H396.2z M395.6,538c0.5,0,0.9,0.5,1.8,1c1,0.6,2.4,0.8,4.2,0.8c1.9,0,4.3-0.1,5.8-0.3
			c-0.1,0.3-0.3,0.9-0.4,1.2c-1.1,0.1-4,0.2-5.5,0.2c-2,0-3.3-0.2-4.4-0.9c-0.7-0.4-1.2-1-1.5-1c-0.5,0-1.3,0.9-2.1,2l-0.8-1.1
			C393.8,538.8,394.8,538,395.6,538z M393.3,527.6l0.9-0.7c0.9,0.8,2,1.9,2.5,2.6l-0.9,0.8C395.3,529.5,394.2,528.4,393.3,527.6z
			 M403.6,526.9h1.2v11.8h-1.2V526.9z M409,542.9l4.8-15.6h1l-4.8,15.6H409z M418.9,531h12.3v1.2h-12.3V531z M421.5,539.3h7.8v1.1
			h-7.8V539.3z M429.1,526.7l1,1c-3,0.7-7.6,1.2-11.4,1.4c0-0.3-0.2-0.8-0.3-1C422.1,527.8,426.6,527.3,429.1,526.7z M420.9,534.4
			h9.1v6.8h-1.2v-5.7h-6.7v5.7h-1.2V534.4z M418.3,528h1.2v4.1c0,2.7-0.3,6.6-2.1,9.2c-0.2-0.2-0.7-0.7-1-0.8
			c1.7-2.4,1.9-5.9,1.9-8.3V528z M439.7,527.3h6.7v6h-6.8v-1h5.6v-4h-5.5V527.3z M439.6,529.8h6.1v0.9h-6.1V529.8z M446.7,533.2
			l0.9,0.7c-1,0.7-2.2,1.5-3.2,2.1l-0.7-0.6C444.7,534.9,446,533.9,446.7,533.2z M436.9,532.3v6.3h-1.2v-5.2h-2.2v-1.1H436.9z
			 M434,527.8l0.9-0.6c0.9,0.8,1.9,1.8,2.4,2.6l-1,0.7C435.9,529.8,434.9,528.6,434,527.8z M436.4,538.2c0.5,0,0.9,0.4,1.8,0.9
			c1,0.6,2.4,0.7,4.1,0.7c1.9,0,4.3-0.1,5.8-0.3c-0.1,0.3-0.3,0.8-0.3,1.2c-1.2,0.1-4,0.2-5.5,0.2c-1.9,0-3.3-0.2-4.4-0.8
			c-0.7-0.4-1.2-0.9-1.5-0.9c-0.6,0-1.4,0.8-2.3,1.8l-0.8-1C434.5,539,435.6,538.2,436.4,538.2z M441.7,534.4l0.8-0.6
			c1.7,1.2,3.8,2.9,4.8,4.1l-0.9,0.7C445.5,537.5,443.4,535.6,441.7,534.4z M438.9,538.7c-0.1-0.3-0.4-0.8-0.5-1
			c0.3-0.1,0.7-0.4,0.7-1.1v-9.3h1.2v10.2C440.2,537.5,438.9,538.2,438.9,538.7z M438.9,538.7l-0.1-1l0.6-0.4l3.6-0.9
			c0,0.3,0,0.8,0.1,1C439.7,538.3,439.2,538.5,438.9,538.7z"/>
		<path class="st7" d="M539.3,531h12.3v1.2h-12.3V531z M541.8,539.3h7.8v1.1h-7.8V539.3z M549.4,526.7l1,1c-3,0.7-7.6,1.2-11.4,1.4
			c0-0.3-0.2-0.8-0.3-1C542.5,527.8,546.9,527.3,549.4,526.7z M541.2,534.4h9.1v6.8h-1.2v-5.7h-6.7v5.7h-1.2V534.4z M538.7,528h1.2
			v4.1c0,2.7-0.3,6.6-2.1,9.2c-0.2-0.2-0.7-0.7-1-0.8c1.7-2.4,1.9-5.9,1.9-8.3V528z M562.1,526.9l0.8,0.9c-1.2,0.5-2.7,1-4,1.3
			c-0.1-0.2-0.2-0.6-0.4-0.8C559.8,527.9,561.2,527.4,562.1,526.9z M562.9,528.3h4.5v1.1h-3.3v11.9h-1.2V528.3z M566.7,528.3h1.2
			v8.8c0,0.6-0.1,1-0.6,1.2c-0.4,0.2-1.1,0.2-2.2,0.2c0-0.3-0.2-0.8-0.4-1.1c0.8,0,1.5,0,1.7,0c0.2,0,0.3-0.1,0.3-0.3V528.3z
			 M558.5,538.9l-0.1-1l0.5-0.4l3.3-1.2c0,0.3,0.1,0.8,0.1,1C559.2,538.4,558.8,538.6,558.5,538.9z M556.9,526.6l1.1,0.3
			c-0.9,2.8-2.3,5.6-3.8,7.5c-0.1-0.3-0.4-0.9-0.6-1.2C554.9,531.5,556.1,529,556.9,526.6z M555.6,530.6l1.1-1.1l0,0v11.8h-1.2
			V530.6z M558.5,538.9c-0.1-0.3-0.4-0.7-0.6-0.9c0.2-0.2,0.6-0.6,0.6-1.3v-8.4h1.1v9.3C559.6,537.6,558.5,538.4,558.5,538.9z
			 M570,542.9l4.8-15.6h1l-4.8,15.6H570z M577.8,529.1h14.3v1.1h-14.3V529.1z M579.4,534.2h4.5v0.9h-4.5V534.2z M579.4,536.8h4.5
			v0.9h-4.5V536.8z M586.6,531.8h1.1v6.6h-1.1V531.8z M583.5,531.6h1.2v8.3c0,0.6-0.1,0.9-0.6,1.1c-0.4,0.2-1.1,0.2-2.2,0.2
			c-0.1-0.3-0.2-0.8-0.4-1.1c0.8,0,1.5,0,1.8,0c0.2,0,0.3-0.1,0.3-0.3V531.6z M589.8,531.3h1.2v8.5c0,0.7-0.2,1-0.7,1.2
			c-0.5,0.2-1.3,0.2-2.5,0.2c-0.1-0.3-0.3-0.8-0.4-1.2c1,0,1.8,0,2.1,0c0.3,0,0.3-0.1,0.3-0.3V531.3z M580.3,527l1.1-0.4
			c0.6,0.7,1.3,1.6,1.6,2.3l-1.2,0.4C581.5,528.6,580.9,527.6,580.3,527z M588.5,526.5l1.3,0.4c-0.6,1-1.3,2.1-1.9,2.8l-1.1-0.4
			C587.4,528.6,588.1,527.4,588.5,526.5z M578.8,531.6h5.1v1h-3.9v8.5h-1.1V531.6z M597.2,526.6l1.1,0.3c-0.8,2.7-2.2,5.6-3.7,7.4
			c-0.1-0.3-0.4-0.9-0.6-1.2C595.3,531.5,596.5,529.1,597.2,526.6z M596.1,530.5l1.1-1.1l0,0v11.8h-1.1V530.5z M599.3,531.4h2.5v1
			h-2.5V531.4z M598.7,538.7l-0.1-1.1l0.4-0.5l2.7-1.3c0,0.3,0,0.8,0,1C599.3,538.2,598.9,538.4,598.7,538.7z M601.7,527.6h7.3v1
			h-7.3V527.6z M605,528.1l1.3,0.2c-0.3,0.8-0.7,1.8-1,2.4l-1-0.2C604.5,529.9,604.8,528.8,605,528.1z M604.8,532.1h1v3.3
			c0,2-0.3,4.4-4,5.8c-0.1-0.2-0.4-0.6-0.7-0.8c3.2-1.2,3.6-3.5,3.6-5.1V532.1z M605.4,538.8l0.7-0.8c1,0.7,2.4,1.7,3,2.4l-0.7,0.9
			C607.8,540.6,606.5,539.6,605.4,538.8z M602.4,530.3h5.9v7.4h-1.1v-6.4h-3.7v6.4h-1.1V530.3z M598.7,538.7
			c-0.1-0.3-0.3-0.8-0.5-1.1c0.2-0.1,0.5-0.4,0.5-1v-8.3h1v9.3C599.7,537.7,598.7,538.3,598.7,538.7z"/>
		<path class="st9" d="M184,636h456c11,0,20,9,20,20v152c0,11-9,20-20,20H184c-11,0-20-9-20-20V656C164,645,173,636,184,636z"/>
		<path class="st6" d="M201,661h101c5.5,0,10,4.5,10,10v101c0,5.5-4.5,10-10,10H201c-5.5,0-10-4.5-10-10V671
			C191,665.5,195.5,661,201,661z"/>
		<path class="st6" d="M361,661h102c5.5,0,10,4.5,10,10v101c0,5.5-4.5,10-10,10H361c-5.5,0-10-4.5-10-10V671
			C351,665.5,355.5,661,361,661z"/>
		<path class="st6" d="M522,661h101c5.5,0,10,4.5,10,10v101c0,5.5-4.5,10-10,10H522c-5.5,0-10-4.5-10-10V671
			C512,665.5,516.5,661,522,661z"/>
		<path class="st7" d="M217.8,801h3.9v1.1h-3.9V801z M224,798.6h1.3v14.7H224V798.6z M216.9,805.6l0.7-0.8c1,0.6,2.3,1.6,3,2.3
			l-0.8,0.9C219.2,807.3,217.9,806.3,216.9,805.6z M218,798.6l1.2,0.2c-0.7,3-1.8,5.8-3.2,7.6c-0.2-0.2-0.7-0.6-1-0.8
			C216.4,804,217.4,801.4,218,798.6z M221.4,801h0.2l0.2,0l0.8,0.3c-0.9,6.3-3.4,10.1-6.8,11.9c-0.2-0.3-0.7-0.8-1-1
			c3.4-1.7,5.8-5.1,6.5-10.9V801z M224.8,804.1l0.9-0.7c1.4,1.1,3.1,2.6,4,3.6l-1,0.8C227.9,806.8,226.2,805.2,224.8,804.1z
			 M235.1,804.7h10.6v1h-10.6V804.7z M234.6,807.4h11.7v1h-11.7V807.4z M237.5,803.2h1.1v4.8h-1.1V803.2z M241.8,803.2h1.1v4.7h-1.1
			V803.2z M233.3,799.3h1.2v4.7c0,2.7-0.2,6.7-1.9,9.3c-0.2-0.2-0.8-0.5-1.1-0.6c1.6-2.5,1.7-6.1,1.7-8.7V799.3z M234,799.3h11.3
			v3.7H234V802h10.1v-1.6H234V799.3z M240.5,807.8c0.9,2.3,3,3.9,5.9,4.5c-0.3,0.2-0.6,0.7-0.7,1c-3-0.8-5.1-2.5-6.2-5.2
			L240.5,807.8z M244.5,808.5l0.9,0.6c-0.9,0.7-2,1.4-2.9,1.8l-0.8-0.6C242.6,809.9,243.8,809.1,244.5,808.5z M236.1,813.3l0-0.9
			l0.5-0.4l4.4-1c0,0.3-0.1,0.8,0,1C236.9,813,236.4,813.1,236.1,813.3z M236.1,813.3c-0.1-0.3-0.3-0.8-0.5-1
			c0.3-0.2,0.8-0.5,0.8-1.2v-3.2l1.1,0v4.1C237.5,812,236.1,812.8,236.1,813.3z M248,814.9l4.8-15.6h1l-4.8,15.6H248z M262.1,805.1
			l0.9-0.6c1.6,1.4,3.7,3.4,4.7,4.7l-1,0.8C265.8,808.6,263.8,806.5,262.1,805.1z M262.3,798.6h1.2v3.1c0,2.6-0.5,5.9-4.6,8.4
			c-0.2-0.3-0.6-0.7-0.8-0.9c4-2.2,4.2-5.2,4.2-7.5V798.6z M256.5,801.3h12.2v1.2h-11v10.8h-1.2V801.3z M268.2,801.3h1.2v10.4
			c0,0.8-0.2,1.2-0.7,1.4c-0.6,0.2-1.6,0.2-3,0.2c0-0.3-0.2-0.9-0.4-1.2c1.1,0,2.2,0,2.5,0c0.3,0,0.4-0.1,0.4-0.4V801.3z
			 M280.5,801.7h6.5v1.1h-6.5V801.7z M281,798.6l1.2,0.2c-0.5,3.1-1.5,6-3,7.8c-0.2-0.3-0.6-0.8-0.9-1
			C279.7,804,280.5,801.4,281,798.6z M284.7,802.3l1.2,0.2c-0.9,5.4-2.7,8.8-6.6,10.9c-0.1-0.3-0.5-0.8-0.8-1
			C282.3,810.5,284,807.2,284.7,802.3z M281,802.7c1,4.3,3,8,6.2,9.6c-0.3,0.2-0.7,0.7-0.8,1c-3.3-1.8-5.3-5.7-6.3-10.3L281,802.7z
			 M276.9,798.8h1.2v14.5h-1.2V798.8z M273.2,810.4l-0.1-1.1l0.5-0.5l3.8-1.2c0,0.3,0.2,0.8,0.3,1
			C274.1,809.9,273.5,810.1,273.2,810.4z M273.2,810.4c-0.1-0.3-0.3-0.8-0.5-1.1c0.2-0.1,0.6-0.5,0.6-1.1v-7.9h1.2v8.9
			C274.4,809.3,273.2,810,273.2,810.4z"/>
		<path class="st7" d="M382.5,805.1l0.9-0.6c1.6,1.4,3.7,3.4,4.7,4.7l-1,0.8C386.2,808.6,384.1,806.5,382.5,805.1z M382.7,798.6h1.2
			v3.1c0,2.6-0.5,5.9-4.6,8.4c-0.2-0.3-0.6-0.7-0.8-0.9c4-2.2,4.2-5.2,4.2-7.5V798.6z M376.8,801.3h12.2v1.2h-11v10.8h-1.2V801.3z
			 M388.5,801.3h1.2v10.4c0,0.8-0.2,1.2-0.7,1.4c-0.6,0.2-1.6,0.2-3,0.2c0-0.3-0.2-0.9-0.4-1.2c1.1,0,2.2,0,2.5,0
			c0.3,0,0.4-0.1,0.4-0.4V801.3z M392.8,801.2h6.4v1.1h-6.4V801.2z M395,804.4h2.8v1.1H395V804.4z M402.6,804h1.1v8h-1.1V804z
			 M394.5,801.8h1.1c0,5.1-0.2,9.1-2.2,11.5c-0.2-0.3-0.6-0.6-0.9-0.8C394.4,810.3,394.5,806.6,394.5,801.8z M397.4,804.4h1.1
			c0,0,0,0.4,0,0.5c-0.1,5.3-0.2,7.1-0.6,7.6c-0.2,0.4-0.5,0.5-0.9,0.5c-0.4,0-1,0-1.6,0c0-0.3-0.1-0.8-0.3-1.1c0.6,0,1.2,0,1.4,0
			c0.2,0,0.4,0,0.5-0.2c0.3-0.4,0.4-2.1,0.5-7.2V804.4z M400.6,800.6h6.8v1.1h-6.8V800.6z M399.9,803.5h6.5v1.1h-6.5V803.5z
			 M403.1,807.3h3.6v1h-3.6V807.3z M400.9,798.6l1.2,0.2c-0.5,2-1.4,4-2.5,5.2c-0.2-0.2-0.7-0.6-1-0.8
			C399.6,802.1,400.4,800.4,400.9,798.6z M406.1,803.5h0.2l0.2,0l0.8,0.3c-0.4,1-0.8,2.1-1.2,2.8l-0.9-0.4c0.3-0.7,0.7-1.6,1-2.5
			V803.5z M400.1,806h1.1c-0.1,2.9-0.4,5.6-2,7.2c-0.2-0.2-0.5-0.6-0.8-0.8C399.8,811.1,400.1,808.6,400.1,806z M401,808.3
			c0.7,3.1,2.2,3.6,4.2,3.6c0.3,0,2,0,2.4,0c-0.2,0.3-0.3,0.8-0.4,1.1h-2.1c-2.4,0-4-0.7-4.9-4.4L401,808.3z M394.8,799l1.1-0.4
			c0.4,0.7,1,1.6,1.2,2.2l-1.1,0.4C395.7,800.7,395.2,799.7,394.8,799z M409,814.9l4.8-15.6h1l-4.8,15.6H409z M419.5,801h3.9v1.1
			h-3.9V801z M425.7,798.6h1.3v14.7h-1.3V798.6z M418.5,805.6l0.7-0.8c1,0.6,2.3,1.6,3,2.3l-0.8,0.9
			C420.9,807.3,419.5,806.3,418.5,805.6z M419.6,798.6l1.2,0.2c-0.7,3-1.8,5.8-3.2,7.6c-0.2-0.2-0.7-0.6-1-0.8
			C418,804,419.1,801.4,419.6,798.6z M423,801h0.2l0.2,0l0.8,0.3c-0.9,6.3-3.4,10.1-6.8,11.9c-0.2-0.3-0.7-0.8-1-1
			c3.4-1.7,5.8-5.1,6.5-10.9V801z M426.5,804.1l0.9-0.7c1.4,1.1,3.1,2.6,4,3.6l-1,0.8C429.6,806.8,427.9,805.2,426.5,804.1z
			 M433.4,801.2h6.4v1.1h-6.4V801.2z M435.7,804.4h2.8v1.1h-2.8V804.4z M443.3,804h1.1v8h-1.1V804z M435.1,801.8h1.1
			c0,5.1-0.2,9.1-2.2,11.5c-0.2-0.3-0.6-0.6-0.9-0.8C435,810.3,435.1,806.6,435.1,801.8z M438.1,804.4h1.1c0,0,0,0.4,0,0.5
			c-0.1,5.3-0.2,7.1-0.6,7.6c-0.2,0.4-0.5,0.5-0.9,0.5c-0.4,0-1,0-1.6,0c0-0.3-0.1-0.8-0.3-1.1c0.6,0,1.2,0,1.4,0
			c0.2,0,0.4,0,0.5-0.2c0.3-0.4,0.4-2.1,0.5-7.2V804.4z M441.3,800.6h6.8v1.1h-6.8V800.6z M440.5,803.5h6.5v1.1h-6.5V803.5z
			 M443.8,807.3h3.6v1h-3.6V807.3z M441.5,798.6l1.2,0.2c-0.5,2-1.4,4-2.5,5.2c-0.2-0.2-0.7-0.6-1-0.8
			C440.3,802.1,441.1,800.4,441.5,798.6z M446.8,803.5h0.2l0.2,0l0.8,0.3c-0.4,1-0.8,2.1-1.2,2.8l-0.9-0.4c0.3-0.7,0.7-1.6,1-2.5
			V803.5z M440.8,806h1.1c-0.1,2.9-0.4,5.6-2,7.2c-0.2-0.2-0.5-0.6-0.8-0.8C440.5,811.1,440.7,808.6,440.8,806z M441.6,808.3
			c0.7,3.1,2.2,3.6,4.2,3.6c0.3,0,2,0,2.4,0c-0.2,0.3-0.3,0.8-0.4,1.1h-2.1c-2.4,0-4-0.7-4.9-4.4L441.6,808.3z M435.4,799l1.1-0.4
			c0.4,0.7,1,1.6,1.2,2.2l-1.1,0.4C436.4,800.7,435.9,799.7,435.4,799z"/>
		<path class="st7" d="M537.1,801.1h14.3v1.1h-14.3V801.1z M538.8,806.2h4.5v0.9h-4.5V806.2z M538.8,808.8h4.5v0.9h-4.5V808.8z
			 M545.9,803.8h1.1v6.6h-1.1V803.8z M542.8,803.6h1.2v8.3c0,0.6-0.1,0.9-0.6,1.1c-0.4,0.2-1.1,0.2-2.2,0.2
			c-0.1-0.3-0.2-0.8-0.4-1.1c0.8,0,1.5,0,1.8,0c0.2,0,0.3-0.1,0.3-0.3V803.6z M549.2,803.3h1.2v8.5c0,0.7-0.2,1-0.7,1.2
			c-0.5,0.2-1.3,0.2-2.5,0.2c-0.1-0.3-0.3-0.8-0.4-1.2c1,0,1.8,0,2.1,0c0.3,0,0.3-0.1,0.3-0.3V803.3z M539.6,799l1.1-0.4
			c0.6,0.7,1.3,1.6,1.6,2.3l-1.2,0.4C540.9,800.6,540.2,799.6,539.6,799z M547.8,798.5l1.3,0.4c-0.6,1-1.3,2.1-1.9,2.8l-1.1-0.4
			C546.7,800.6,547.4,799.4,547.8,798.5z M538.1,803.6h5.1v1h-3.9v8.5h-1.1V803.6z M558.6,806h1.1c0,0,0,0.3,0,0.5
			c-0.3,4.1-0.5,5.6-1,6.1c-0.3,0.3-0.6,0.4-1.1,0.5c-0.4,0-1.2,0-1.9,0c0-0.3-0.1-0.7-0.3-1c0.8,0.1,1.5,0.1,1.8,0.1
			c0.3,0,0.4,0,0.6-0.2c0.4-0.4,0.6-1.8,0.8-5.7V806z M553.5,809.6c1.1-0.2,2.6-0.6,4.2-1.1l0.1,0.9c-1.4,0.4-2.9,0.8-4.1,1.1
			L553.5,809.6z M554.2,799.3h4.2v1h-4.2V799.3z M557.9,799.2h1.1c-0.2,2.2-0.4,5.2-0.6,6.9l-1.1,0.1
			C557.6,804.4,557.8,801.4,557.9,799.2z M554.7,801.5l1,0.1c-0.1,1.7-0.3,4.1-0.5,5.5h-1C554.4,805.6,554.6,803.2,554.7,801.5z
			 M554.6,806h4.2v1h-4.2V806z M568.1,799.5v1.1h-6.6v10.9h6.9v1.1h-8v-13.2H568.1z M562,802.5l0.9-0.5c2,2.4,4.2,5.7,5.1,7.8
			l-1,0.7C566.2,808.3,564,804.9,562,802.5z M566.4,801.5l1.1,0.3c-1.1,3.4-2.8,6.7-4.7,8.9c-0.2-0.2-0.7-0.6-0.9-0.8
			C563.8,807.9,565.4,804.8,566.4,801.5z M570,814.9l4.8-15.6h1l-4.8,15.6H570z M579.9,803h12.3v1.2h-12.3V803z M582.5,811.3h7.8
			v1.1h-7.8V811.3z M590.1,798.7l1,1c-3,0.7-7.6,1.2-11.4,1.4c0-0.3-0.2-0.8-0.3-1C583.1,799.8,587.6,799.3,590.1,798.7z
			 M581.9,806.4h9.1v6.8h-1.2v-5.7h-6.7v5.7h-1.2V806.4z M579.3,800h1.2v4.1c0,2.7-0.3,6.6-2.1,9.2c-0.2-0.2-0.7-0.7-1-0.8
			c1.7-2.4,1.9-5.9,1.9-8.3V800z M603.2,798.6h1.2v14.6h-1.2V798.6z M598.9,801.1h9.8v8.4h-1.2v-7.3h-7.5v7.5h-1.1V801.1z
			 M599.7,804.4h8.4v1.1h-8.4V804.4z M599.7,807.7h8.4v1.1h-8.4V807.7z M598,798.6l1.1,0.4c-1.1,2.7-2.7,5.4-4.4,7.2
			c-0.1-0.3-0.5-0.9-0.7-1.2C595.6,803.5,597.1,801.1,598,798.6z M596.3,802.8l1.1-1.1l0,0v11.6h-1.2V802.8z"/>
		<path class="st10" d="M144,320v22"/>
		<path class="st10" d="M144,597v22"/>
	</g>
</g>
</svg>
