<svg width="1920" height="1080" viewBox="0 0 1920 1080" fill="none" xmlns="http://www.w3.org/2000/svg">
<g clip-path="url(#clip0_665_416)">
<rect width="1920" height="1080" fill="#F7F6FB"/>
<rect x="784" y="824" width="351" height="85" rx="20" fill="#FFA248"/>
<path d="M886.808 853.524V857.592H917.372V853.524H886.808ZM885.62 866.412V870.552H918.416V866.412H885.62ZM906.5 855.9V885.276H911V855.9H906.5ZM893.792 855.9V865.368C893.792 871.2 892.964 877.68 885.512 882.18C886.628 882.9 888.248 884.412 889.04 885.42C897.32 880.2 898.22 872.316 898.22 865.368V855.9H893.792ZM940.664 879.984V883.764H952.616V879.984H940.664ZM937.928 870.12V885.204H941.852V873.9H950.672V885.204H954.776V870.12H937.928ZM947.792 858.24C950.168 861.408 952.58 865.8 953.516 868.716L957.224 866.736C956.144 863.856 953.732 859.68 951.248 856.512L947.792 858.24ZM937.352 868.104C937.352 867.276 940.196 865.872 940.196 865.872V865.8C942.788 862.416 945.632 857.484 947.684 852.624L943.148 851.436C941.672 855.936 939.116 860.58 938.252 861.804C937.388 863.1 936.74 863.856 935.948 864.072C936.416 865.188 937.1 867.24 937.352 868.104ZM937.352 868.104C938.756 867.528 940.736 867.348 954.92 866.088C954.596 865.188 954.236 863.496 954.02 862.308L939.548 863.28L937.244 864.684L937.352 868.104ZM923.456 871.092L927.092 872.46C928.64 866.988 930.332 858.636 931.088 851.904L927.02 851.652C926.48 858.024 924.932 866.124 923.456 871.092ZM923.096 858.6V862.56H932.996V858.6H923.096ZM931.988 858.6V859.356C931.448 870.732 928.568 878.616 922.844 881.784C923.672 882.576 924.788 884.16 925.364 885.204C932.132 880.812 935.192 872.892 935.912 858.816L933.428 858.528L932.708 858.6H931.988ZM923.456 871.092C927.236 874.188 931.88 878.652 933.932 881.712L936.488 878.184C934.436 875.196 929.54 871.02 925.76 868.068L923.456 871.092ZM987.5 857.124C986.348 859.932 984.296 863.604 982.604 865.944L986.204 867.528C987.968 865.332 990.128 861.948 991.928 858.816L987.5 857.124ZM964.172 860.436C965.612 862.488 966.98 865.224 967.412 867.06L971.372 865.368C970.832 863.496 969.356 860.868 967.844 858.888L964.172 860.436ZM973.676 858.996C974.756 861.048 975.656 863.712 975.908 865.404L980.084 863.928C979.832 862.164 978.752 859.608 977.636 857.664L973.676 858.996ZM975.188 865.224V885.132H979.76V865.224H975.188ZM961.508 868.284V872.496H993.692V868.284H961.508ZM988.832 851.544C982.172 852.768 971.552 853.632 962.156 853.956C962.552 854.964 963.128 856.836 963.236 858.024C972.74 857.772 983.864 856.944 992.288 855.504L988.832 851.544ZM974.288 869.796C971.372 874.008 965.792 878.148 960.356 880.272C961.4 881.244 962.84 883.008 963.596 884.16C969.14 881.496 974.684 876.708 978.104 871.38L974.288 869.796ZM980.624 869.76L976.916 871.38C980.408 876.6 985.952 881.46 991.496 884.052C992.252 882.864 993.692 881.1 994.736 880.164C989.3 878.04 983.576 873.936 980.624 869.76ZM999.128 873.828V877.284H1031.67V873.828H999.128ZM1006.44 859.716V862.524H1028.25V859.716H1006.44ZM1006.44 864V866.808H1028.29V864H1006.44ZM1014.72 857.088V869.724H1018.82V857.088H1014.72ZM1013.13 871.956V885.168H1017.45V871.956H1013.13ZM1012.81 875.016C1009.6 877.788 1003.38 880.308 997.904 881.46C998.84 882.36 1000.06 883.944 1000.68 885.024C1006.15 883.44 1012.34 880.272 1016.05 876.6L1012.81 875.016ZM1017.92 874.908L1014.64 876.528C1018.32 880.128 1024.36 883.296 1029.8 884.844C1030.41 883.8 1031.6 882.216 1032.5 881.352C1027.1 880.164 1021.02 877.644 1017.92 874.908ZM1006.72 851.364C1005.07 854.496 1002.15 858.204 998.156 861.048C999.092 861.66 1000.5 862.992 1001.18 863.928C1005.54 860.436 1008.7 856.332 1011.12 852.228L1006.72 851.364ZM1014.1 852.336C1014.82 853.812 1015.58 855.792 1015.83 857.016L1019.97 855.792C1019.65 854.568 1018.78 852.66 1017.99 851.256L1014.1 852.336ZM1004.56 868.356V871.632H1030.74V868.356H1004.56ZM1007.41 854.892H1005.36L1003.12 857.124V872.604H1007.41V858.24H1029.87V854.892H1007.41Z" fill="white"/>
<path d="M885.404 162.288H896.852V166.104H885.404V162.288ZM895.7 162.288H896.384L897.104 162.144L899.732 163.044C898.148 175.32 893.864 184.428 887.384 189.684C886.736 188.676 885.44 187.164 884.504 186.444C890.228 182.304 894.404 173.232 895.7 163.188V162.288ZM885.296 170.064L888.32 167.688C892.172 172.8 897.212 179.64 899.3 184.032L895.952 186.948C893.936 182.448 889.148 175.32 885.296 170.064ZM903.98 163.512H915.248V167.4H903.98V163.512ZM902.72 158.508L906.788 159.012C906.032 165.24 904.556 171 902 174.672C901.28 173.988 899.516 172.728 898.58 172.188C900.956 169.056 902.144 163.908 902.72 158.508ZM914.42 163.512H915.068L915.716 163.368L918.632 164.124C917.876 167.436 916.76 171.072 915.68 173.448L912.332 172.332C913.088 170.244 913.988 166.86 914.42 164.124V163.512ZM909.632 172.044C910.82 179.676 913.484 185.94 919.352 188.604C918.416 189.432 917.156 191.124 916.544 192.24C910.136 188.784 907.544 181.8 906.104 172.512L909.632 172.044ZM905.996 169.092H910.064V171.864C910.064 177.624 909.128 186.408 899.696 192.276C899.048 191.34 897.608 189.936 896.636 189.252C905.204 184.14 905.996 176.652 905.996 171.792V169.092ZM931.52 170.748V185.724H927.308V174.744H923.312V170.748H931.52ZM923.708 162.756L926.336 160.2C928.532 161.496 931.376 163.476 932.744 164.988L929.936 167.868C928.712 166.356 925.94 164.232 923.708 162.756ZM930.08 184.104C931.196 184.104 932.06 185.04 933.968 186.12C936.308 187.56 939.476 187.776 943.364 187.776C947.072 187.776 952.976 187.452 956.684 186.912C956.18 188.064 955.532 190.152 955.46 191.34C952.76 191.52 947.036 191.736 943.22 191.736C938.792 191.736 935.876 191.268 933.428 189.864C931.952 189 930.764 187.92 929.972 187.92C928.856 187.92 927.128 190.152 925.58 192.312L922.808 188.388C925.256 185.904 928.1 184.104 930.08 184.104ZM943.76 160.632H953.696V164.268H947.648V186.66H943.76V160.632ZM951.5 160.632H955.46V178.992C955.46 180.756 955.172 181.764 954.02 182.412C952.94 183.024 951.428 183.06 949.304 183.06C949.16 182.016 948.62 180.396 948.116 179.46C949.304 179.496 950.564 179.496 950.96 179.46C951.356 179.46 951.5 179.316 951.5 178.92V160.632ZM941.204 158.472L944.156 161.712C941.528 163.116 938.324 164.304 935.624 165.132C935.408 164.268 934.832 162.9 934.328 162.036C936.812 161.136 939.512 159.732 941.204 158.472ZM934.184 183.528L933.824 179.892L935.552 178.524L943.076 176.688C943.04 177.876 943.148 179.604 943.292 180.54C936.344 182.448 935.012 182.988 934.184 183.528ZM934.184 183.528C933.896 182.664 932.924 181.116 932.276 180.432C933.104 179.928 934.328 178.704 934.328 176.94V162.036H938.36V179.388C938.36 179.388 934.184 182.124 934.184 183.528ZM971.84 164.592H993.116V168.768H971.84V164.592ZM976.34 159.408H980.624V171.144C980.624 176.112 979.832 182.772 975.224 186.588C974.612 185.76 972.92 184.104 972.02 183.528C975.98 180.216 976.34 175.248 976.34 171.072V159.408ZM971.516 173.808H993.872V177.912H971.516V173.808ZM969.572 171.504V185.868H965.324V175.5H961.112V171.504H969.572ZM967.34 183.78C968.6 183.78 969.536 184.788 971.588 185.94C974.036 187.308 977.348 187.524 981.38 187.524C985.196 187.524 991.064 187.2 994.7 186.66C994.232 187.848 993.512 189.972 993.44 191.16C990.884 191.34 984.908 191.556 981.236 191.556C976.664 191.556 973.604 191.124 970.94 189.684C969.284 188.784 968.096 187.704 967.268 187.704C966.188 187.704 964.604 190.044 963.272 192.168L960.392 188.064C962.84 185.472 965.504 183.78 967.34 183.78ZM961.76 161.532L964.82 159.084C966.764 160.812 969.356 163.26 970.58 164.88L967.268 167.652C966.188 165.96 963.704 163.332 961.76 161.532ZM984.692 159.444H989.012V186.012H984.692V159.444ZM1013.46 160.488H1031.06V164.592H1013.46V160.488ZM1022.6 171.684H1027.03V187.236C1027.03 189.54 1026.56 190.764 1024.98 191.448C1023.43 192.096 1021.16 192.132 1017.92 192.132C1017.78 190.872 1017.2 189 1016.62 187.74C1018.68 187.848 1021.05 187.848 1021.7 187.848C1022.38 187.812 1022.6 187.668 1022.6 187.128V171.684ZM1011.91 170.46H1032V174.564H1011.91V170.46ZM1003.84 174.708L1007.62 170.928L1008.16 171.144V192.276H1003.84V174.708ZM1007.91 166.284L1012.02 167.832C1009.17 172.62 1004.74 177.66 1000.89 180.828C1000.28 179.928 998.804 177.984 997.94 177.12C1001.61 174.528 1005.54 170.352 1007.91 166.284ZM1006.54 158.436L1010.68 160.128C1008.06 163.548 1004.17 167.292 1000.75 169.668C1000.17 168.696 999.056 167.004 998.336 166.14C1001.32 164.196 1004.78 160.956 1006.54 158.436ZM1052.16 169.236H1067.13V173.592H1052.16V169.236ZM1036.75 186.12H1069.65V190.476H1036.75V186.12ZM1049.71 158.868H1054.35V188.532H1049.71V158.868ZM1087.4 163.584H1107.45V167.544H1087.4V163.584ZM1088.01 171.864H1103.42V175.788H1088.01V171.864ZM1095 158.436H1099.39V174.24H1095V158.436ZM1093.09 175.068C1095.54 181.584 1100.68 186.444 1108.39 188.46C1107.42 189.324 1106.23 191.052 1105.62 192.132C1097.41 189.576 1092.3 184.068 1089.2 176.148L1093.09 175.068ZM1102.59 171.864H1103.42L1104.14 171.72L1106.84 172.764C1104.28 183.204 1097.73 189.144 1088.95 192.168C1088.48 191.052 1087.44 189.288 1086.57 188.388C1094.53 186.192 1100.65 180.684 1102.59 172.548V171.864ZM1077.79 159.696H1085.17V163.584H1077.79V159.696ZM1077.5 167.904H1084.3V171.828H1077.5V167.904ZM1077.5 176.292H1084.3V180.288H1077.5V176.292ZM1075.77 159.696H1079.59V172.764C1079.59 178.488 1079.23 186.84 1077.1 192.204C1076.38 191.628 1074.66 190.656 1073.68 190.332C1075.63 185.328 1075.77 178.092 1075.77 172.8V159.696ZM1082.72 159.696H1086.5V187.56C1086.5 189.36 1086.25 190.512 1085.2 191.196C1084.16 191.88 1082.79 191.988 1080.7 191.988C1080.63 190.872 1080.16 189.072 1079.7 188.028C1080.74 188.1 1081.86 188.064 1082.22 188.064C1082.61 188.028 1082.72 187.92 1082.72 187.488V159.696ZM1119.48 171.252H1140.39V174.276H1119.48V171.252ZM1120.99 166.86H1142.41V178.956H1120.56V176.04H1138.34V169.74H1120.99V166.86ZM1129.16 164.448H1133.55V188.1C1133.55 190.26 1133.05 191.16 1131.61 191.736C1130.1 192.276 1128.04 192.312 1125.02 192.312C1124.8 191.268 1124.26 189.756 1123.69 188.784C1125.49 188.892 1127.72 188.892 1128.3 188.856C1128.94 188.82 1129.16 188.64 1129.16 188.064V164.448ZM1119.62 180.972L1121.89 178.596C1123.51 179.496 1125.88 180.9 1127.11 181.8L1124.7 184.428C1123.62 183.492 1121.31 181.98 1119.62 180.972ZM1140.9 178.884L1144.1 181.44C1141.83 182.88 1139.24 184.356 1137.22 185.256L1134.81 183.132C1136.72 182.052 1139.38 180.216 1140.9 178.884ZM1133.3 178.992C1135.5 183.096 1139.92 186.12 1145.76 187.308C1144.89 188.136 1143.78 189.72 1143.24 190.728C1137.15 189.036 1132.8 185.184 1130.35 179.748L1133.3 178.992ZM1118.04 186.552C1120.95 185.58 1125.52 183.816 1129.81 182.124L1130.53 185.076C1126.78 186.84 1122.79 188.676 1119.62 190.08L1118.04 186.552ZM1116.78 161.244H1145.22V164.988H1116.78V161.244ZM1114.72 161.244H1118.83V171.72C1118.83 177.588 1118.29 186.48 1115.05 192.096C1114.29 191.376 1112.49 190.188 1111.52 189.756C1114.51 184.608 1114.72 177.048 1114.72 171.72V161.244ZM1127.36 159.12L1131.68 158.04C1132.54 159.408 1133.48 161.28 1133.95 162.468L1129.52 163.8C1129.12 162.54 1128.15 160.56 1127.36 159.12ZM1140.32 170.928H1145.61V174.6H1140.32V170.928ZM1160.05 173.556V175.068H1174.81V173.556H1160.05ZM1160.05 169.452V170.928H1174.81V169.452H1160.05ZM1155.69 166.608H1179.34V177.912H1155.69V166.608ZM1157.42 158.436L1161.31 159.624C1159.36 163.728 1156.05 167.724 1152.7 170.244C1152.13 169.416 1150.76 167.724 1149.93 166.968C1152.96 164.988 1155.87 161.82 1157.42 158.436ZM1158.36 161.532H1181.79V165.024H1156.59L1158.36 161.532ZM1160.48 176.832L1164.15 178.164C1161.74 181.404 1157.85 184.464 1154.5 186.336C1153.82 185.616 1152.38 184.248 1151.48 183.6C1154.94 182.052 1158.46 179.496 1160.48 176.832ZM1159.76 179.424H1176V182.556H1156.77L1159.76 179.424ZM1174.88 179.424H1175.71L1176.39 179.244L1179.06 180.9C1173.91 188.352 1162.57 191.232 1151.01 192.24C1150.8 191.16 1150.08 189.432 1149.46 188.46C1160.3 187.848 1170.96 185.436 1174.88 179.928V179.424ZM1160.12 181.332C1164.33 185.832 1173.08 187.812 1183.66 188.172C1182.8 189.072 1181.83 190.8 1181.32 191.88C1170.63 191.16 1162.03 188.532 1157.06 182.448L1160.12 181.332Z" fill="#231815"/>
<path d="M886.88 244.568C888.824 246.332 891.38 248.816 892.496 250.4L895.448 247.412C894.224 245.864 891.596 243.56 889.652 241.94L886.88 244.568ZM889.868 274.88C890.516 274.016 891.704 273.008 898.256 267.896C897.788 267.032 897.14 265.34 896.852 264.188L889.796 269.552L888.932 270.92L889.868 274.88ZM885.224 252.524V256.664H892.316V252.524H885.224ZM889.868 274.88C889.868 273.368 893.756 270.74 893.756 270.74V252.524H889.616V267.824C889.616 269.48 888.572 270.704 887.78 271.244C888.5 272.072 889.544 273.872 889.868 274.88ZM902.144 262.316V265.088H913.232V262.316H902.144ZM897.536 243.884V246.98H917.696V243.884H897.536ZM898.508 248.42V251.336H916.616V248.42H898.508ZM896.42 252.848V255.944H918.848V252.848H896.42ZM902.072 267.104V269.984H913.196V267.104H902.072ZM898.868 257.348V275.276H902.864V260.48H913.16V257.348H898.868ZM912.26 257.348V271.028C912.26 271.46 912.08 271.604 911.612 271.604C911.144 271.64 909.416 271.64 907.94 271.568C908.444 272.576 908.948 274.16 909.092 275.24C911.612 275.24 913.412 275.204 914.672 274.592C916.004 274.016 916.364 272.972 916.364 271.1V257.348H912.26ZM905.384 241.436V253.856H909.668V241.436H905.384ZM924.608 243.776V247.988H955.244V243.776H924.608ZM940.7 255.908V260.156H953.408V255.908H940.7ZM923.384 269.66V273.872H956.288V269.66H923.384ZM938.576 245.468V271.712H943.184V245.468H938.576ZM927.812 253.568V271.928H932.312V253.568H927.812ZM978.176 263.072V266.744H991.244V263.072H978.176ZM978.212 256.988V260.3H991.208V256.988H978.212ZM978.212 250.724V254.36H991.244V250.724H978.212ZM982.28 252.452V273.62H986.024V252.452H982.28ZM989.264 250.724V270.812C989.264 271.172 989.156 271.316 988.796 271.316C988.472 271.316 987.392 271.316 986.42 271.28C986.852 272.324 987.248 273.908 987.356 274.952C989.372 274.952 990.92 274.916 992 274.304C993.08 273.692 993.368 272.684 993.368 270.848V250.724H989.264ZM975.296 250.724V259.688C975.296 263.828 975.008 269.264 971.768 273.044C972.74 273.476 974.468 274.628 975.188 275.276C978.68 271.136 979.256 264.512 979.256 259.724V250.724H975.296ZM978.572 241.364C977.204 245.396 974.684 249.14 971.732 251.516C972.416 252.308 973.64 254.036 974.072 254.864C977.564 251.912 980.516 247.268 982.28 242.336L978.572 241.364ZM979.436 244.388L977.672 247.88H987.716V244.388H979.436ZM986.6 244.388V245.144C985.916 246.764 984.368 249.392 983.036 250.976C983.9 251.48 985.16 252.308 985.916 252.884C987.572 251.12 989.66 248.276 990.92 246.08L988.148 244.244L987.536 244.388H986.6ZM961.22 243.02V246.944H973.928V243.02H961.22ZM965.252 254.252V258.032H969.5V267.068H965.252V270.848H973.1V254.252H965.252ZM965.36 245.036C964.496 250.508 962.984 255.728 960.428 259.112C961.004 260.372 961.796 263.108 961.976 264.26C965.684 259.796 967.952 252.776 969.284 245.936L965.36 245.036ZM963.452 254.252V273.548H967.016V254.252H963.452ZM1004.24 262.604V266.24H1030.99V262.604H1004.24ZM1002.84 255.404V259.04H1030.02V255.404H1002.84ZM1019 257.528V270.704C1019 271.172 1018.86 271.28 1018.28 271.316C1017.74 271.352 1015.76 271.352 1014.03 271.28C1014.64 272.36 1015.33 274.052 1015.54 275.204C1018.14 275.24 1020.04 275.168 1021.45 274.52C1022.89 273.908 1023.28 272.864 1023.28 270.812V257.528H1019ZM1016.59 264.008C1012.88 267.14 1005.61 269.552 998.804 270.596C999.668 271.46 1000.82 273.08 1001.4 274.124C1008.24 272.72 1015.47 269.624 1019.72 265.52L1016.59 264.008ZM999.884 244.856V251.372H1004.13V248.456H1026.52V251.336H1030.99V244.856H999.884ZM1003.7 259.58C1003.27 261.74 1002.58 264.44 1002.01 266.24H1006.15C1006.72 264.584 1007.52 262.136 1008.06 260.012L1003.7 259.58ZM1010.61 249.104C1007.55 250.976 1003.45 252.488 1000.21 253.316L1002.3 256.664C1006 255.512 1010.32 253.352 1013.64 251.084L1010.61 249.104ZM1017.24 251.912C1020.87 253.1 1025.8 255.152 1028.22 256.592L1030.16 253.424C1027.64 252.02 1022.64 250.148 1019.11 249.14L1017.24 251.912ZM1011.87 242.48C1012.59 243.848 1013.46 245.684 1013.82 246.8L1018.32 245.216C1017.88 244.1 1016.91 242.336 1016.12 241.112L1011.87 242.48ZM1041.86 258.284H1051.26V259.616H1041.86V258.284ZM1041.86 255.08H1051.26V256.376H1041.86V255.08ZM1038.44 253.1V261.596H1054.82V253.1H1038.44ZM1056.15 241.4C1056.26 257.816 1058.42 275.168 1065.22 275.168C1068.1 275.168 1069.29 273.836 1069.94 268.688C1068.97 268.256 1067.64 267.356 1066.81 266.384C1066.66 269.768 1066.3 271.1 1065.69 271.1C1062.81 271.1 1060.08 256.232 1060.36 241.4H1056.15ZM1060.9 244.244C1062.49 245.468 1064.32 247.34 1065.08 248.6L1068.18 246.224C1067.31 244.928 1065.4 243.2 1063.78 242.012L1060.9 244.244ZM1046.76 270.848C1048.16 272.072 1049.89 273.872 1050.72 274.952L1054.14 273.188C1053.24 272.036 1051.4 270.38 1050.03 269.228L1046.76 270.848ZM1042.15 269.228C1040.85 270.596 1038.69 272.036 1036.6 272.972C1037.47 273.512 1038.94 274.7 1039.63 275.384C1041.68 274.196 1044.16 272.288 1045.78 270.452L1042.15 269.228ZM1036.42 248.528V251.876H1069.36V248.528H1036.42ZM1038.51 243.956V247.196H1054.82V243.956H1038.51ZM1036.96 266.6V269.336H1055.94V266.6H1036.96ZM1037.86 262.82V265.304H1055.43V262.82H1037.86ZM1044.6 241.436V251.048H1048.7V241.436H1044.6ZM1044.85 253.712V260.624H1048.2V253.712H1044.85ZM1041.72 260.84V267.608H1045.21V260.84H1041.72ZM1047.94 260.84V267.608H1051.44V260.84H1047.94ZM1064.58 253.928C1063.03 262.28 1059.82 268.436 1053.67 271.784C1054.68 272.576 1055.9 273.98 1056.48 275.024C1063.28 270.74 1066.7 264.152 1068.57 254.828L1064.58 253.928ZM1079.34 259.94V275.204H1083.58V263.36H1098.49V275.204H1102.95V259.94H1079.34ZM1081.89 265.34V268.472H1100V265.34H1081.89ZM1078.76 244.136V247.484H1090.17V244.136H1078.76ZM1074.48 249.86V253.244H1091.04V249.86H1074.48ZM1081.89 270.596V274.016H1100V270.596H1081.89ZM1081.42 245.144V249.068C1081.42 251.696 1080.81 255.62 1074.04 258.212C1075.02 258.896 1076.24 260.228 1076.82 261.092C1084.12 257.744 1085.49 252.776 1085.49 249.104V245.144H1081.42ZM1078.11 241.22C1077.43 243.884 1076.02 246.548 1074.19 248.276C1075.12 248.708 1076.78 249.68 1077.57 250.292C1079.41 248.312 1081.06 245.216 1081.96 241.976L1078.11 241.22ZM1084.81 253.064L1081.89 254.828C1083.51 255.872 1086.68 258.212 1088.08 259.4L1091.18 256.664C1090.14 255.98 1086.1 253.676 1084.81 253.064ZM1096.26 247.88H1101.76V253.964H1096.26V247.88ZM1092.26 244.064V257.816H1106.01V244.064H1092.26ZM1114 254.432V275.204H1118V257.996H1125.45V254.432H1114ZM1123.4 254.432V270.776C1123.4 271.244 1123.26 271.352 1122.82 271.352C1122.36 271.388 1120.92 271.388 1119.66 271.316C1120.2 272.36 1120.81 274.016 1121.02 275.168C1123.22 275.168 1124.84 275.096 1126.1 274.448C1127.32 273.8 1127.68 272.72 1127.68 270.884V254.432H1123.4ZM1115.84 259.868V263.072H1125.81V259.868H1115.84ZM1115.84 265.16V268.364H1125.81V265.16H1115.84ZM1130.49 241.58V252.452C1130.49 256.376 1131.5 257.636 1135.71 257.636C1136.58 257.636 1139.78 257.636 1140.68 257.636C1143.96 257.636 1145.14 256.34 1145.58 251.696C1144.42 251.444 1142.66 250.796 1141.83 250.112C1141.65 253.28 1141.44 253.82 1140.25 253.82C1139.53 253.82 1136.9 253.82 1136.29 253.82C1134.96 253.82 1134.74 253.64 1134.74 252.38V241.58H1130.49ZM1141.29 243.704C1138.92 245.072 1135.21 246.692 1131.86 247.736C1132.33 248.564 1132.9 249.86 1133.08 250.724C1136.65 249.752 1140.82 248.384 1144.03 246.836L1141.29 243.704ZM1130.49 258.392V269.768C1130.49 273.764 1131.57 274.988 1135.82 274.988C1136.68 274.988 1140 274.988 1140.9 274.988C1144.35 274.988 1145.47 273.548 1145.94 268.472C1144.78 268.22 1143.06 267.536 1142.16 266.888C1141.98 270.56 1141.72 271.208 1140.5 271.208C1139.71 271.208 1137.04 271.208 1136.43 271.208C1135.03 271.208 1134.78 271.064 1134.78 269.768V258.392H1130.49ZM1141.58 259.904C1139.13 261.488 1135.28 263.252 1131.79 264.368C1132.22 265.196 1132.83 266.564 1133.05 267.392C1136.76 266.348 1141.11 264.836 1144.39 263.072L1141.58 259.904ZM1121.74 245C1123.36 247.556 1125.02 250.976 1125.6 253.172L1129.48 251.588C1128.87 249.32 1127.07 246.08 1125.38 243.632L1121.74 245ZM1113.93 252.74C1113.93 251.912 1116.42 250.58 1116.42 250.58V250.508C1118.32 248.6 1120.59 245.432 1122.07 242.552L1117.46 241.328C1116.49 243.992 1114.8 246.548 1114.22 247.268C1113.64 248.024 1113.03 248.528 1112.46 248.672C1112.96 249.824 1113.68 251.84 1113.93 252.74ZM1113.93 252.74C1114.9 252.308 1116.42 252.056 1126.42 251.228C1126.46 250.4 1126.64 248.924 1126.86 247.88L1115.7 248.636L1113.79 249.824L1113.93 252.74ZM1151.08 266.384C1151.08 265.664 1153.75 264.404 1153.75 264.404V264.332C1157.28 260.876 1160.91 256.124 1163.65 251.372L1160.19 249.212C1157.74 254.072 1153.96 259.04 1152.7 260.336C1151.55 261.632 1150.72 262.424 1149.79 262.64C1150.26 263.684 1150.87 265.592 1151.08 266.384ZM1151.08 266.384C1152.09 265.808 1153.6 265.376 1162.82 263.612C1162.75 262.712 1162.78 261.02 1162.93 259.904L1152.67 261.632L1150.8 262.964L1151.08 266.384ZM1150.83 257.6C1150.83 256.844 1153.17 255.476 1153.17 255.476V255.368C1155.8 252.2 1158.57 247.628 1160.37 243.38L1156.23 241.472C1154.94 245.684 1152.42 250.256 1151.62 251.372C1150.83 252.596 1150.18 253.316 1149.43 253.532C1149.9 254.684 1150.62 256.736 1150.83 257.6ZM1150.83 257.6C1151.52 257.24 1152.67 256.988 1158.14 256.412C1158.14 255.584 1158.36 254.072 1158.54 253.064L1152.45 253.532L1150.72 254.684L1150.83 257.6ZM1149.72 269.552L1150.51 273.836C1154.04 272.9 1158.61 271.784 1162.89 270.632L1162.46 266.888C1157.82 267.932 1152.92 268.976 1149.72 269.552ZM1168.33 247.844H1176.79V256.808H1168.33V247.844ZM1164.04 243.74V260.912H1181.25V243.74H1164.04ZM1174.41 265.052C1176.32 268.22 1178.3 272.432 1178.98 275.06L1183.3 273.404C1182.58 270.74 1180.42 266.708 1178.44 263.648L1174.41 265.052ZM1166.31 263.792C1165.34 267.212 1163.54 270.596 1161.2 272.72C1162.32 273.296 1164.22 274.52 1165.05 275.204C1167.43 272.756 1169.62 268.796 1170.85 264.8L1166.31 263.792ZM1204.98 241.436C1203.9 246.764 1201.88 251.912 1199 255.08C1199.9 255.62 1201.59 256.844 1202.28 257.492C1205.19 253.892 1207.57 248.168 1208.86 242.192L1204.98 241.436ZM1217.07 247.052V247.988C1216.5 263.288 1215.81 268.868 1214.8 270.128C1214.37 270.632 1214.05 270.812 1213.51 270.812C1212.82 270.812 1211.6 270.776 1210.27 270.632C1210.92 271.82 1211.35 273.656 1211.46 274.88C1213.04 274.952 1214.55 274.952 1215.56 274.736C1216.75 274.52 1217.54 274.088 1218.37 272.864C1219.74 271.064 1220.38 265.16 1221.07 248.996C1221.1 248.456 1221.14 247.052 1221.14 247.052H1217.07ZM1206.06 247.052L1204.08 251.048H1218.91V247.052H1206.06ZM1208.58 248.348C1207.21 254.396 1204.04 261.164 1199.86 264.44C1200.98 265.052 1202.35 266.06 1203.18 266.888C1207.1 263.216 1210.27 256.088 1211.71 249.896L1208.58 248.348ZM1213.58 248.744C1211.92 257.996 1208.22 267.392 1201.92 271.892C1203.1 272.468 1204.62 273.548 1205.44 274.412C1211.38 269.444 1215.2 259.652 1216.93 250.292L1213.58 248.744ZM1187.34 261.056L1188.38 265.196C1192.2 264.08 1197.13 262.604 1201.66 261.2L1201.09 257.384C1196.12 258.788 1190.86 260.264 1187.34 261.056ZM1193.82 241.436V275.24H1197.78V241.436H1193.82ZM1189.06 243.488C1188.74 247.772 1188.13 252.272 1186.98 255.152C1187.84 255.584 1189.39 256.592 1190.04 257.096C1191.33 253.892 1192.2 248.852 1192.66 244.1L1189.06 243.488ZM1190.04 248.384L1189.24 252.524H1200.76V248.384H1190.04ZM1231.15 276.968C1235.61 275.636 1238.28 272.324 1238.28 268.256C1238.28 265.232 1236.91 263.288 1234.39 263.288C1232.44 263.288 1230.82 264.512 1230.82 266.528C1230.82 268.616 1232.48 269.768 1234.28 269.768C1235.07 269.768 1235.83 269.516 1236.4 268.976L1234.42 265.736L1234.68 269.3C1234.68 271.352 1233.02 273.116 1230 274.088L1231.15 276.968ZM1280.47 248.492V252.56H1296.06V248.492H1280.47ZM1288.86 250.004L1285.29 250.652C1286.7 257.744 1289.07 263.396 1293.97 266.384C1294.54 265.268 1295.88 263.612 1296.81 262.784C1292.42 260.516 1290.01 255.656 1288.86 250.004ZM1270.75 251.624C1272.55 252.524 1274.85 253.964 1275.97 254.972L1277.91 252.308C1276.72 251.336 1274.42 250.004 1272.62 249.212L1270.75 251.624ZM1289.58 243.56C1290.8 245.036 1292.2 247.124 1292.78 248.456L1296.09 246.548C1295.44 245.216 1293.97 243.272 1292.71 241.868L1289.58 243.56ZM1267.22 255.944C1269.06 257.132 1271.36 258.86 1272.4 260.084L1274.89 257.636C1273.74 256.448 1271.4 254.828 1269.56 253.748L1267.22 255.944ZM1270.71 241.076C1269.38 245.324 1266.43 250.508 1262.72 253.532C1263.58 254.18 1264.95 255.44 1265.64 256.268C1269.67 252.812 1272.87 247.196 1274.82 242.12L1270.71 241.076ZM1277.41 244.424V245.252C1275.79 254.504 1270.82 260.084 1263.76 262.82C1264.7 263.504 1266.18 265.196 1266.75 266.168C1274.06 262.964 1279.53 256.34 1281.66 245.324L1278.99 244.316L1278.2 244.424H1277.41ZM1271.83 244.424L1269.49 247.844H1278.88V244.424H1271.83ZM1285.29 241.94V249.284C1285.29 254 1284.21 259.724 1276.15 263.864C1277.16 264.62 1278.49 265.916 1279.17 266.852C1287.99 262.28 1289.36 255.404 1289.36 249.32V241.94H1285.29ZM1273.74 268.004C1274.13 270.272 1274.38 273.224 1274.42 274.988L1278.67 274.34C1278.63 272.612 1278.2 269.768 1277.73 267.572L1273.74 268.004ZM1281.04 267.932C1281.87 270.164 1282.7 273.08 1282.92 274.844L1287.2 273.98C1286.88 272.216 1285.98 269.372 1285.08 267.248L1281.04 267.932ZM1288.42 267.896C1290.04 270.2 1291.95 273.368 1292.71 275.348L1296.81 273.476C1295.91 271.496 1293.9 268.472 1292.24 266.276L1288.42 267.896ZM1267.4 266.6C1266.25 269.12 1264.45 272 1263.01 273.692L1267.11 275.348C1268.59 273.332 1270.35 270.272 1271.5 267.68L1267.4 266.6ZM1306.96 251.336V255.476H1334.61V251.336H1306.96ZM1313.16 269.588V273.584H1329.25V269.588H1313.16ZM1328.85 241.544C1323.06 243.02 1313.37 244.028 1304.77 244.46C1305.2 245.432 1305.74 247.16 1305.85 248.276C1314.67 247.88 1324.89 246.908 1332.38 245.072L1328.85 241.544ZM1311.18 259.436V275.24H1315.53V263.432H1327.63V275.132H1332.2V259.436H1311.18ZM1304.77 244.46V254.396C1304.77 259.796 1304.44 267.284 1300.52 272.36C1301.53 272.9 1303.4 274.448 1304.16 275.312C1308.51 269.696 1309.23 260.48 1309.23 254.432V244.46H1304.77ZM1353.22 241.436V253.928H1357.62V241.436H1353.22ZM1347.21 256.052H1363.77V260.66H1347.21V256.052ZM1343.11 252.02V264.656H1368.16V252.02H1343.11ZM1355.24 244.604V248.636H1370.54V244.604H1355.24ZM1349.08 267.392C1349.52 269.876 1349.8 273.08 1349.8 275.024L1354.2 274.484C1354.12 272.576 1353.73 269.444 1353.19 266.996L1349.08 267.392ZM1356.5 267.428C1357.51 269.804 1358.59 272.936 1358.95 274.808L1363.2 273.764C1362.73 271.82 1361.54 268.832 1360.42 266.564L1356.5 267.428ZM1363.81 267.212C1365.54 269.624 1367.48 272.936 1368.24 274.988L1372.41 273.368C1371.51 271.28 1369.42 268.112 1367.7 265.808L1363.81 267.212ZM1343.14 266.096C1342.14 268.724 1340.37 271.604 1338.64 273.152L1342.64 275.132C1344.51 273.152 1346.28 270.056 1347.28 267.14L1343.14 266.096ZM1379.76 246.44V250.724H1407.26V246.44H1379.76ZM1377.16 254.864V259.22H1409.64V254.864H1377.16ZM1391.31 241.472V272.144H1395.88V241.472H1391.31ZM1402.18 261.272V275.24H1406.68V261.272H1402.18ZM1380.15 261.344V273.584H1405.32V269.372H1384.76V261.344H1380.15ZM1448.16 241.544V241.364H1436.96V275.312H1448.16V275.132C1444.23 271.784 1441.03 265.736 1441.03 258.32C1441.03 250.94 1444.23 244.892 1448.16 241.544ZM1453.81 243.524V247.592H1484.37V243.524H1453.81ZM1452.62 256.412V260.552H1485.42V256.412H1452.62ZM1473.5 245.9V275.276H1478V245.9H1473.5ZM1460.79 245.9V255.368C1460.79 261.2 1459.96 267.68 1452.51 272.18C1453.63 272.9 1455.25 274.412 1456.04 275.42C1464.32 270.2 1465.22 262.316 1465.22 255.368V245.9H1460.79ZM1507.66 269.984V273.764H1519.62V269.984H1507.66ZM1504.93 260.12V275.204H1508.85V263.9H1517.67V275.204H1521.78V260.12H1504.93ZM1514.79 248.24C1517.17 251.408 1519.58 255.8 1520.52 258.716L1524.22 256.736C1523.14 253.856 1520.73 249.68 1518.25 246.512L1514.79 248.24ZM1504.35 258.104C1504.35 257.276 1507.2 255.872 1507.2 255.872V255.8C1509.79 252.416 1512.63 247.484 1514.68 242.624L1510.15 241.436C1508.67 245.936 1506.12 250.58 1505.25 251.804C1504.39 253.1 1503.74 253.856 1502.95 254.072C1503.42 255.188 1504.1 257.24 1504.35 258.104ZM1504.35 258.104C1505.76 257.528 1507.74 257.348 1521.92 256.088C1521.6 255.188 1521.24 253.496 1521.02 252.308L1506.55 253.28L1504.24 254.684L1504.35 258.104ZM1490.46 261.092L1494.09 262.46C1495.64 256.988 1497.33 248.636 1498.09 241.904L1494.02 241.652C1493.48 248.024 1491.93 256.124 1490.46 261.092ZM1490.1 248.6V252.56H1500V248.6H1490.1ZM1498.99 248.6V249.356C1498.45 260.732 1495.57 268.616 1489.84 271.784C1490.67 272.576 1491.79 274.16 1492.36 275.204C1499.13 270.812 1502.19 262.892 1502.91 248.816L1500.43 248.528L1499.71 248.6H1498.99ZM1490.46 261.092C1494.24 264.188 1498.88 268.652 1500.93 271.712L1503.49 268.184C1501.44 265.196 1496.54 261.02 1492.76 258.068L1490.46 261.092ZM1554.5 247.124C1553.35 249.932 1551.3 253.604 1549.6 255.944L1553.2 257.528C1554.97 255.332 1557.13 251.948 1558.93 248.816L1554.5 247.124ZM1531.17 250.436C1532.61 252.488 1533.98 255.224 1534.41 257.06L1538.37 255.368C1537.83 253.496 1536.36 250.868 1534.84 248.888L1531.17 250.436ZM1540.68 248.996C1541.76 251.048 1542.66 253.712 1542.91 255.404L1547.08 253.928C1546.83 252.164 1545.75 249.608 1544.64 247.664L1540.68 248.996ZM1542.19 255.224V275.132H1546.76V255.224H1542.19ZM1528.51 258.284V262.496H1560.69V258.284H1528.51ZM1555.83 241.544C1549.17 242.768 1538.55 243.632 1529.16 243.956C1529.55 244.964 1530.13 246.836 1530.24 248.024C1539.74 247.772 1550.86 246.944 1559.29 245.504L1555.83 241.544ZM1541.29 259.796C1538.37 264.008 1532.79 268.148 1527.36 270.272C1528.4 271.244 1529.84 273.008 1530.6 274.16C1536.14 271.496 1541.68 266.708 1545.1 261.38L1541.29 259.796ZM1547.62 259.76L1543.92 261.38C1547.41 266.6 1552.95 271.46 1558.5 274.052C1559.25 272.864 1560.69 271.1 1561.74 270.164C1556.3 268.04 1550.58 263.936 1547.62 259.76ZM1566.13 263.828V267.284H1598.67V263.828H1566.13ZM1573.44 249.716V252.524H1595.25V249.716H1573.44ZM1573.44 254V256.808H1595.29V254H1573.44ZM1581.72 247.088V259.724H1585.82V247.088H1581.72ZM1580.13 261.956V275.168H1584.45V261.956H1580.13ZM1579.81 265.016C1576.6 267.788 1570.38 270.308 1564.9 271.46C1565.84 272.36 1567.06 273.944 1567.68 275.024C1573.15 273.44 1579.34 270.272 1583.05 266.6L1579.81 265.016ZM1584.92 264.908L1581.64 266.528C1585.32 270.128 1591.36 273.296 1596.8 274.844C1597.41 273.8 1598.6 272.216 1599.5 271.352C1594.1 270.164 1588.02 267.644 1584.92 264.908ZM1573.72 241.364C1572.07 244.496 1569.15 248.204 1565.16 251.048C1566.09 251.66 1567.5 252.992 1568.18 253.928C1572.54 250.436 1575.7 246.332 1578.12 242.228L1573.72 241.364ZM1581.1 242.336C1581.82 243.812 1582.58 245.792 1582.83 247.016L1586.97 245.792C1586.65 244.568 1585.78 242.66 1584.99 241.256L1581.1 242.336ZM1571.56 258.356V261.632H1597.74V258.356H1571.56ZM1574.41 244.892H1572.36L1570.12 247.124V262.604H1574.41V248.24H1596.87V244.892H1574.41ZM1614.4 275.312V241.364H1603.21V241.544C1607.13 244.892 1610.34 250.94 1610.34 258.32C1610.34 265.736 1607.13 271.784 1603.21 275.132V275.312H1614.4ZM1646.95 263.108C1643.74 263.108 1641.12 265.7 1641.12 268.904C1641.12 272.144 1643.74 274.736 1646.95 274.736C1650.19 274.736 1652.78 272.144 1652.78 268.904C1652.78 265.7 1650.19 263.108 1646.95 263.108ZM1646.95 272.144C1645.18 272.144 1643.71 270.704 1643.71 268.904C1643.71 267.14 1645.18 265.7 1646.95 265.7C1648.75 265.7 1650.19 267.14 1650.19 268.904C1650.19 270.704 1648.75 272.144 1646.95 272.144Z" fill="#231815"/>
<path d="M1796.65 1082.58C1798.23 1083.34 1800.12 1082.66 1800.88 1081.08C1801.63 1079.5 1800.96 1077.61 1799.37 1076.86L1796.65 1082.58ZM1584.03 587.414C1588.24 639.935 1593.58 740.894 1621.64 839.977C1649.69 938.992 1700.64 1036.93 1796.65 1082.58L1799.37 1076.86C1705.86 1032.39 1655.62 936.668 1627.75 838.248C1599.89 739.896 1594.59 639.639 1590.36 586.907L1584.03 587.414Z" fill="black"/>
<path d="M1587.2 587.161C1581.96 502.663 1682.68 371.632 1788.86 300.799C1898.5 227.661 1946.38 548.158 1934.38 598.062C1921.34 652.263 1762.08 701.542 1682.81 715.813C1621.08 726.925 1596.82 742.243 1587.2 587.161H1587.2Z" stroke="black" stroke-width="6.34372" stroke-miterlimit="10"/>
<path d="M1587.76 587.437C1587.62 544.145 1601.58 514.088 1623.69 494.967C1661.01 462.696 1700.57 445.193 1749.76 434.65C1834.5 416.476 1887.05 446.451 1952.06 509.955C1983.39 540.564 2013.29 612.37 1987.53 654.504C1941.29 730.112 1624.31 779.465 1601.95 693.002C1591.72 653.421 1587.87 623.583 1587.76 587.446V587.437Z" stroke="black" stroke-width="6.34372" stroke-miterlimit="10"/>
<path d="M1608.24 743.501C1607.26 722.223 1616.51 704.682 1632.8 690.953C1650.53 676.011 1665.39 667.572 1690.72 663.246C1742.36 654.43 1800.61 671.346 1811.13 713.021C1826.68 774.634 1802.23 863.549 1788.85 890.741C1777.65 913.489 1725.48 1022.59 1682.78 974.119C1661.35 949.791 1611.94 824.61 1608.24 743.501Z" stroke="black" stroke-width="6.34372" stroke-miterlimit="10"/>
<path d="M1613.37 726.48C1644.32 674.895 1738.74 644.93 1808.28 670.056C1863.52 690.012 1903.86 837.04 1886.68 851.394C1830.92 897.973 1680.14 907.992 1658.54 888.404C1613.52 847.583 1599.21 750.063 1613.37 726.48Z" stroke="black" stroke-width="6.34372" stroke-miterlimit="10"/>
</g>
<defs>
<clipPath id="clip0_665_416">
<rect width="1920" height="1080" fill="white"/>
</clipPath>
</defs>
</svg>
