<svg width="1920" height="1080" viewBox="0 0 1920 1080" fill="none" xmlns="http://www.w3.org/2000/svg">
<g clip-path="url(#clip0_577_157)">
<rect width="1920" height="1080" fill="#F7F6FB"/>
<mask id="mask0_577_157" style="mask-type:alpha" maskUnits="userSpaceOnUse" x="573" y="-107" width="1294" height="1294">
<circle cx="1220" cy="540" r="647" fill="url(#paint0_radial_577_157)"/>
</mask>
<g mask="url(#mask0_577_157)">
<mask id="mask1_577_157" style="mask-type:alpha" maskUnits="userSpaceOnUse" x="-1502" y="-580" width="6738" height="2051">
<rect x="-1501.35" y="-579.903" width="6736.89" height="2050.89" fill="#E7E7E7"/>
</mask>
<g mask="url(#mask1_577_157)">
<path d="M654.016 -1385.17L654.016 3376.26" stroke="black" stroke-opacity="0.18" stroke-miterlimit="10"/>
<path d="M773.165 -1385.17L773.165 3376.26" stroke="black" stroke-opacity="0.18" stroke-miterlimit="10"/>
<path d="M892.398 -1385.17L892.398 3376.26" stroke="black" stroke-opacity="0.18" stroke-miterlimit="10"/>
<path d="M1011.63 -1385.17L1011.63 3376.26" stroke="black" stroke-opacity="0.18" stroke-miterlimit="10"/>
<path d="M1130.78 -1385.17L1130.78 3376.26" stroke="black" stroke-opacity="0.18" stroke-miterlimit="10"/>
<path d="M1250.01 -1385.17L1250.01 3376.26" stroke="black" stroke-opacity="0.18" stroke-miterlimit="10"/>
<path d="M1369.24 -1385.17L1369.24 3376.26" stroke="black" stroke-opacity="0.18" stroke-miterlimit="10"/>
<path d="M1488.39 -1385.17L1488.39 3376.26" stroke="black" stroke-opacity="0.18" stroke-miterlimit="10"/>
<path d="M1607.62 -1385.17L1607.62 3376.26" stroke="black" stroke-opacity="0.18" stroke-miterlimit="10"/>
<path d="M1726.86 -1385.17L1726.86 3376.26" stroke="black" stroke-opacity="0.18" stroke-miterlimit="10"/>
<path d="M1846.01 -1385.17L1846.01 3376.26" stroke="black" stroke-opacity="0.18" stroke-miterlimit="10"/>
<path d="M-1501.35 957.234L5235.54 957.234" stroke="black" stroke-opacity="0.18" stroke-miterlimit="10"/>
<path d="M-1501.35 829.256L5235.54 829.256" stroke="black" stroke-opacity="0.18" stroke-miterlimit="10"/>
<path d="M-1501.35 701.278L5235.54 701.277" stroke="black" stroke-opacity="0.18" stroke-miterlimit="10"/>
<path d="M-1501.35 573.299L5235.54 573.299" stroke="black" stroke-opacity="0.18" stroke-miterlimit="10"/>
<path d="M-1501.35 445.321L5235.54 445.32" stroke="black" stroke-opacity="0.18" stroke-miterlimit="10"/>
<path d="M-1501.35 317.342L5235.54 317.342" stroke="black" stroke-opacity="0.18" stroke-miterlimit="10"/>
<path d="M-1501.35 189.363L5235.54 189.363" stroke="black" stroke-opacity="0.18" stroke-miterlimit="10"/>
<path d="M-1501.35 61.3848L5235.54 61.3845" stroke="black" stroke-opacity="0.18" stroke-miterlimit="10"/>
</g>
</g>
<path d="M1350.93 586.178C1350.29 628.994 1360.34 645.134 1364.52 659.35C1369.29 675.523 1377.98 698.252 1377.98 698.252H1272.24V308.511H1304.34C1304.34 308.511 1326.37 355.726 1369.17 359.506C1432.16 365.058 1389.27 428.345 1386.83 480.878C1386.64 484.775 1351.21 565.874 1350.93 586.178Z" fill="url(#paint1_linear_577_157)"/>
<path d="M1379.18 362.155C1404.33 356.689 1416.43 388.579 1423.86 411.189C1436.69 450.282 1452.6 574.267 1451.08 570.917L1416.63 582.755C1416.63 582.755 1387.58 522.037 1380.24 494.525C1372.91 466.999 1337.97 371.105 1379.18 362.155Z" fill="url(#paint2_linear_577_157)"/>
<path d="M1416.55 582.529L1451.01 570.446C1451.01 570.446 1468.92 595.03 1474.34 628.187C1479.77 661.345 1475.69 709.052 1475.69 709.052L1454.52 714.342C1454.52 714.342 1440.71 688.387 1425.91 640.795C1418.96 618.459 1416.55 582.529 1416.55 582.529Z" fill="url(#paint3_linear_577_157)"/>
<path d="M1454.82 714.433L1475.99 709.143C1475.99 709.143 1495.17 731.076 1496.13 754.396C1497.08 777.716 1491.96 794.726 1481.9 795.004C1471.84 795.281 1481.29 741.342 1464.35 743.775C1447.39 746.214 1446.03 771.772 1443.8 768.531C1441.57 765.291 1440.54 746.536 1444.42 734.265C1448.3 721.995 1454.83 714.404 1454.83 714.404L1454.82 714.433Z" fill="#E1A59B"/>
<rect x="1478.8" y="712.628" width="26.4031" height="6.76397" transform="rotate(169.025 1478.8 712.628)" fill="#0029FF"/>
<path d="M1160.5 362.561C1135.25 357.594 1123.78 389.722 1116.81 412.485C1104.73 451.822 1091.27 576.105 1092.73 572.726L1127.41 583.882C1127.41 583.882 1155.26 522.602 1162.05 494.939C1168.86 467.276 1201.9 370.706 1160.5 362.561Z" fill="url(#paint4_linear_577_157)"/>
<path d="M1127.44 583.497L1092.65 572.514C1092.65 572.514 1075.53 597.251 1070.76 630.517C1066 663.783 1071 711.399 1071 711.399L1092.26 716.266C1092.26 716.266 1105.57 690.041 1119.44 642.157C1125.94 619.679 1127.44 583.497 1127.44 583.497Z" fill="url(#paint5_linear_577_157)"/>
<path d="M1092.54 715.684L1071.28 710.817C1071.28 710.817 1052.51 733.128 1052.03 756.476C1051.55 779.807 1057 796.716 1067.06 796.8C1077.13 796.883 1066.61 743.13 1083.62 745.237C1100.6 747.344 1102.49 772.867 1104.65 769.588C1106.81 766.31 1107.48 747.528 1103.36 735.353C1099.25 723.16 1092.56 715.717 1092.56 715.717L1092.54 715.684Z" fill="url(#paint6_linear_577_157)"/>
<path d="M1193.55 586.178C1194.19 628.994 1184.14 645.134 1179.96 659.35C1175.19 675.523 1166.5 698.252 1166.5 698.252H1272.24V308.511H1240.14C1240.14 308.511 1218.12 355.726 1175.31 359.506C1112.32 365.058 1152.35 465.859 1157.65 480.878C1166.63 506.384 1193.27 565.874 1193.55 586.178Z" fill="url(#paint7_linear_577_157)"/>
<path d="M1272.24 570.992V423.629C1331.93 423.629 1344.11 351.745 1344.11 351.745L1369.19 359.505C1369.19 359.505 1389.2 418.377 1389.17 450.723C1389.17 463.016 1389.8 474.238 1384.4 487.518C1368.05 530.464 1356.08 566.051 1353.62 570.975H1272.26" fill="url(#paint8_linear_577_157)"/>
<path d="M1272.24 570.992V423.629C1212.55 423.629 1200.37 351.745 1200.37 351.745L1175.29 359.505C1175.29 359.505 1155.28 418.377 1155.31 450.723C1155.31 463.016 1154.68 474.238 1160.08 487.518C1177.32 529.849 1189.77 565.389 1190.86 570.975H1272.22" fill="url(#paint9_linear_577_157)"/>
<path d="M1304.38 264.575H1240.14V308.511H1304.38V264.575Z" fill="#F1E1E2"/>
<path d="M1206.24 680.039C1206.24 680.039 1149.01 730.966 1143.64 792.882C1138.27 854.797 1170.14 990.286 1170.14 990.286L1229.52 1001.66C1229.52 1001.66 1236.99 970.45 1245.94 886.658C1257.64 776.976 1297.81 681.711 1297.81 681.711L1206.23 680.022L1206.24 680.039Z" fill="url(#paint10_linear_577_157)"/>
<path d="M1334.56 680.039C1334.56 680.039 1391.79 730.966 1397.16 792.882C1402.53 854.797 1370.66 990.286 1370.66 990.286L1311.28 1001.66C1311.28 1001.66 1303.81 970.45 1294.86 886.658C1283.16 776.976 1243 681.711 1243 681.711L1334.58 680.022L1334.56 680.039Z" fill="url(#paint11_linear_577_157)"/>
<g filter="url(#filter0_d_577_157)">
<path d="M1177.12 668.432L1273.89 664.156L1367.37 668.432L1418.03 796.11C1418.03 796.11 1351.55 839.377 1272.24 839.377C1192.93 839.377 1131.43 792.932 1131.43 792.932L1177.12 668.432Z" fill="url(#paint12_linear_577_157)"/>
</g>
<path d="M1272.11 153.036C1219.77 153.036 1198.4 183.961 1192.77 232.396C1191.1 252.758 1192.77 270.395 1192.77 270.395L1272.11 277.403V153.036Z" fill="#F1E1E2"/>
<path d="M1271.81 153.036C1324.14 153.036 1351.15 183.024 1351.15 232.396C1351.15 264.592 1351.15 283.574 1351.15 283.574L1271.81 277.403V153.036Z" fill="#F1E1E2"/>
<path d="M1333.13 235.409C1329.9 231.287 1321.24 237.126 1317.31 240.56C1315.72 245.099 1312.53 255.427 1312.53 260.431C1312.53 266.687 1314 267.055 1318.78 268.895C1323.57 270.734 1337.18 240.56 1333.13 235.409Z" fill="#E1A59B"/>
<path d="M1210.97 235.409C1214.21 231.287 1222.87 237.126 1226.79 240.56C1228.39 245.099 1231.58 255.427 1231.58 260.431C1231.58 266.687 1230.11 267.055 1225.32 268.895C1220.54 270.734 1206.92 240.56 1210.97 235.409Z" fill="#E1A59B"/>
<path d="M1272.24 171.735C1242.95 171.735 1218.33 200.97 1219.87 240.223C1221.41 279.477 1247.68 308.511 1272.24 308.511C1296.8 308.511 1323.74 279.276 1323.74 240.123C1323.74 200.97 1303.84 171.735 1272.24 171.735Z" fill="url(#paint13_linear_577_157)"/>
<path d="M1205.81 214.856H1210.23V271.893L1205.81 271.525V214.856Z" fill="#FFF1F2"/>
<path d="M1332.4 224.424H1341.23V282.564L1332.4 282.196V224.424Z" fill="#FFF1F2"/>
<path d="M1217.01 264.575C1217.7 246.562 1217.01 215.654 1237.73 204.783C1258.45 193.912 1268.63 201.723 1281.2 187.456C1293.78 173.19 1299.65 156.348 1299.65 156.348C1299.65 156.348 1250.37 142.7 1218.4 170.514C1186.43 198.327 1217 264.575 1217 264.575H1217.01Z" fill="#F8F2F2"/>
<path d="M1342.12 260.494C1328.49 235.306 1285.97 210.52 1288.86 186.168C1291.75 161.817 1299.65 156.348 1299.65 156.348C1299.65 156.348 1333.94 162.727 1345.65 196.458C1358.16 232.519 1342.13 260.494 1342.13 260.494H1342.12Z" fill="#F8F2F2"/>
<path d="M1170.14 990.286C1170.14 990.286 1162.22 1078.06 1163.44 1115.25C1164.66 1152.45 1184.57 1269.11 1184.57 1269.11H1217.81C1217.81 1269.11 1232.24 1129.34 1232.43 1092.04C1232.61 1054.74 1229.52 1001.66 1229.52 1001.66L1170.14 990.286Z" fill="url(#paint14_linear_577_157)"/>
<path d="M1370.73 990.286C1370.73 990.286 1378.65 1078.06 1377.43 1115.25C1376.21 1152.45 1356.3 1269.11 1356.3 1269.11H1323.06C1323.06 1269.11 1308.62 1129.34 1308.44 1092.04C1308.24 1053.52 1311.35 1001.66 1311.35 1001.66L1370.73 990.286Z" fill="url(#paint15_linear_577_157)"/>
<rect x="1219.8" y="260.485" width="3.67977" height="39.7415" fill="#FF9898"/>
<rect x="1322.09" y="260.485" width="3.67977" height="24.2865" fill="#FF9898"/>
<path d="M1216.28 186.559C1222.17 169.798 1238.79 165.572 1247.94 164.003C1222.79 168.57 1214.35 197.677 1213.27 211.659C1212.87 209.242 1211.41 200.407 1216.28 186.559Z" fill="white"/>
<path d="M1329.84 187.084C1326.48 177.53 1317 175.122 1311.79 174.227C1326.13 176.83 1330.94 193.421 1331.55 201.39C1331.78 200.013 1332.61 194.977 1329.84 187.084Z" fill="white"/>
<rect x="1069.96" y="707.873" width="26.4031" height="6.76397" transform="rotate(8.76329 1069.96 707.873)" fill="#E6FF4F"/>
<circle cx="1272.05" cy="679.979" r="5.88721" fill="#231815"/>
<rect x="102" y="180" width="620" height="822" rx="20" fill="white"/>
<path d="M146.88 239.568L149.652 236.94C151.596 238.56 154.224 240.864 155.448 242.412L152.496 245.4C151.38 243.816 148.824 241.332 146.88 239.568ZM149.868 269.88L148.932 265.92L149.796 264.552L156.852 259.188C157.14 260.34 157.788 262.032 158.256 262.896C151.704 268.008 150.516 269.016 149.868 269.88ZM145.224 247.524H152.316V251.664H145.224V247.524ZM149.868 269.88C149.544 268.872 148.5 267.072 147.78 266.244C148.572 265.704 149.616 264.48 149.616 262.824V247.524H153.756V265.74C153.756 265.74 149.868 268.368 149.868 269.88ZM162.144 257.316H173.232V260.088H162.144V257.316ZM157.536 238.884H177.696V241.98H157.536V238.884ZM158.508 243.42H176.616V246.336H158.508V243.42ZM156.42 247.848H178.848V250.944H156.42V247.848ZM162.072 262.104H173.196V264.984H162.072V262.104ZM158.868 252.348H173.16V255.48H162.864V270.276H158.868V252.348ZM172.26 252.348H176.364V266.1C176.364 267.972 176.004 269.016 174.672 269.592C173.412 270.204 171.612 270.24 169.092 270.24C168.948 269.16 168.444 267.576 167.94 266.568C169.416 266.64 171.144 266.64 171.612 266.604C172.08 266.604 172.26 266.46 172.26 266.028V252.348ZM165.384 236.436H169.668V248.856H165.384V236.436ZM202.752 249.18H207.108V270.24H202.752V249.18ZM193.284 253.68H216.432V257.604H193.284V253.68ZM207.936 255.408C209.916 259.332 213.732 263.328 217.476 265.488C216.504 266.316 215.136 267.864 214.416 268.944C210.636 266.244 206.928 261.384 204.696 256.596L207.936 255.408ZM202.176 255.084L205.56 256.272C203.22 261.348 199.224 266.136 194.976 268.836C194.292 267.792 192.924 266.244 191.988 265.416C196.092 263.292 200.088 259.188 202.176 255.084ZM199.764 241.8V246.624H210.348V241.8H199.764ZM195.66 238.02H214.668V250.44H195.66V238.02ZM190.944 236.508L194.976 237.804C192.564 243.924 188.712 250.368 184.716 254.436C184.356 253.428 183.168 251.052 182.448 250.008C185.796 246.768 189.036 241.656 190.944 236.508ZM187.488 246.48L191.556 242.376L191.592 242.412V270.132H187.488V246.48ZM234.108 240.54H252.936V244.428H234.108V240.54ZM232.884 254.364H254.232V258.288H232.884V254.364ZM232.56 247.596H254.52V251.52H232.56V247.596ZM241.488 236.58H245.592V249.612H241.488V236.58ZM246.168 250.836H250.272V265.704C250.272 267.864 249.876 268.944 248.472 269.556C247.14 270.204 245.232 270.24 242.604 270.24C242.46 269.052 241.92 267.324 241.416 266.172C243.036 266.28 244.908 266.28 245.448 266.244C246.024 266.244 246.168 266.1 246.168 265.632V250.836ZM234.864 260.34L238.284 258.432C239.796 260.268 241.596 262.824 242.316 264.552L238.644 266.712C238.032 264.984 236.376 262.284 234.864 260.34ZM220.32 254.688C223.272 254.04 227.628 252.888 231.804 251.736L232.344 255.624C228.564 256.776 224.496 257.928 221.292 258.864L220.32 254.688ZM220.896 243.276H232.02V247.236H220.896V243.276ZM224.964 236.472H228.96V265.452C228.96 267.432 228.6 268.548 227.484 269.232C226.404 269.88 224.82 270.06 222.516 270.024C222.408 268.944 221.904 267.18 221.4 265.992C222.696 266.064 223.956 266.064 224.388 266.064C224.82 266.064 224.964 265.92 224.964 265.416V236.472ZM264.276 237.228L268.128 236.292C268.776 237.804 269.496 239.82 269.856 241.08L265.824 242.196C265.572 240.864 264.852 238.776 264.276 237.228ZM258.768 241.908H274.716V245.904H258.768V241.908ZM264.852 249.468H270.864V253.392H264.852V249.468ZM269.496 249.468H273.564C273.564 249.468 273.564 250.656 273.528 251.16C273.348 262.716 273.168 267 272.232 268.296C271.512 269.34 270.828 269.7 269.784 269.88C268.884 270.06 267.444 270.096 265.896 270.024C265.824 268.872 265.392 267.18 264.816 266.1C265.968 266.208 266.976 266.244 267.552 266.244C268.02 266.244 268.308 266.1 268.596 265.668C269.136 264.84 269.316 261.132 269.496 250.296V249.468ZM278.28 242.988H292.356V246.984H278.28V242.988ZM278.64 236.4L283.068 237.084C281.844 244.464 279.54 251.52 276.012 255.912C275.364 255.012 273.744 253.248 272.808 252.456C275.868 248.784 277.74 242.736 278.64 236.4ZM285.588 245.4L289.836 245.832C288.144 257.964 284.328 265.74 275.4 270.348C275.004 269.376 273.78 267.432 272.988 266.532C281.052 262.86 284.364 255.984 285.588 245.4ZM280.44 246.192C282.024 255.444 285.516 263.04 292.788 266.316C291.78 267.18 290.448 268.908 289.8 270.06C282.024 265.956 278.604 257.676 276.66 246.84L280.44 246.192ZM262.332 244.032H266.4V252.96C266.4 258.828 265.644 265.02 261.108 270.06C260.352 269.16 258.948 267.972 257.904 267.252C261.792 262.752 262.332 257.532 262.332 252.924V244.032ZM296.352 243.528H309.744V247.524H296.352V243.528ZM301.356 236.436H305.568V270.24H301.356V236.436ZM301.32 246.48L303.624 247.416C302.616 253.356 300.456 260.412 297.972 264.12C297.54 262.896 296.604 260.916 295.884 259.764C298.296 256.74 300.384 251.052 301.32 246.48ZM305.172 248.388C306.324 249.72 310.356 255.444 311.184 256.812L308.232 260.268C307.08 257.496 304.488 252.672 302.976 250.224L305.172 248.388ZM310.68 269.556C310.464 268.692 309.672 266.496 309.168 265.308C310.104 264.984 310.788 264.012 311.688 262.248C312.696 260.556 315.504 254.004 316.98 247.884L321.552 249.54C319.68 255.804 316.728 262.32 313.956 267.036V267.108C313.956 267.108 310.68 268.728 310.68 269.556ZM310.644 269.556L310.428 265.992L312.768 264.516L327.06 262.968C327.168 264.192 327.456 265.92 327.672 266.856C314.064 268.584 312.048 268.908 310.644 269.556ZM321.012 257.784L324.648 256.236C326.628 259.98 328.896 264.876 329.724 267.972L325.764 269.844C325.044 266.676 322.92 261.636 321.012 257.784ZM314.028 237.516L318.492 238.38C317.124 244.284 314.784 250.044 312.048 253.608C311.184 252.924 309.204 251.664 308.124 251.124C310.896 247.992 312.948 242.772 314.028 237.516ZM324.252 237.084C325.62 242.664 327.348 246.624 330.156 249.864C328.968 250.8 327.528 252.312 326.88 253.572C323.532 249.324 321.696 244.68 320.184 238.02L324.252 237.084ZM339.948 271.968L338.796 269.088C341.82 268.116 343.476 266.352 343.476 264.3L343.224 260.736L345.204 263.976C344.628 264.516 343.872 264.768 343.08 264.768C341.28 264.768 339.624 263.616 339.624 261.528C339.624 259.512 341.244 258.288 343.188 258.288C345.708 258.288 347.076 260.232 347.076 263.256C347.076 267.324 344.412 270.636 339.948 271.968ZM388.44 239.1H401.508V243.204H388.44V239.1ZM400.104 239.1H400.86L401.58 238.92L404.388 239.676C402.84 255.732 397.368 265.056 387.936 270.168C387.324 269.016 386.064 267.252 385.092 266.388C393.552 262.5 398.808 253.32 400.104 240V239.1ZM392.652 242.844C394.236 253.536 397.8 262.5 405.468 266.568C404.46 267.396 403.092 269.088 402.444 270.276C394.128 265.308 390.636 255.84 388.656 243.456L392.652 242.844ZM372.78 239.1H384.588V243.204H372.78V239.1ZM383.148 239.1H383.868L384.624 238.92L387.396 239.712C386.064 254.256 381.888 264.336 374.652 270.24C373.968 269.16 372.564 267.504 371.52 266.748C377.964 262.14 382.032 251.988 383.148 240.072V239.1ZM372.528 248.46L375.732 245.904C380.304 250.908 385.848 257.604 388.152 262.248L384.516 265.308C382.428 260.664 377.1 253.644 372.528 248.46ZM414 254.184H435.996V257.1H418.392V270.276H414V254.184ZM434.88 254.184H439.308V266.28C439.308 268.26 438.804 269.16 437.256 269.7C435.78 270.204 433.62 270.168 430.704 270.168C430.488 269.16 429.912 267.792 429.408 266.856C431.136 266.964 433.476 266.928 434.052 266.928C434.664 266.892 434.88 266.748 434.88 266.244V254.184ZM417.168 258.396H435.312V261.096H417.168V258.396ZM427.104 238.416H442.476V241.188H427.104V238.416ZM427.176 248.172H442.368V250.908H427.176V248.172ZM426.42 243.888H443.52V246.696H426.42V243.888ZM417.168 262.428H435.312V265.272H417.168V262.428ZM432.792 245.364H436.86V253.428H432.792V245.364ZM413.388 237.768H425.628V244.356H413.388V241.836H421.992V240.252H413.388V237.768ZM429.084 241.8L432.144 241.296C432.648 242.196 433.116 243.456 433.26 244.284L430.092 244.932C429.984 244.068 429.588 242.772 429.084 241.8ZM437.256 241.332L440.748 241.908C440.136 243.06 439.632 244.068 439.2 244.824L436.176 244.284C436.536 243.384 437.04 242.196 437.256 241.332ZM411.732 237.768H415.332V241.692C415.332 245.112 414.756 249.9 412.2 253.14C411.66 252.42 410.112 251.052 409.356 250.62C411.516 247.884 411.732 244.284 411.732 241.62V237.768ZM431.928 236.94L435.888 236.292C436.428 237.156 436.86 238.38 437.04 239.208L432.864 240.036C432.756 239.172 432.396 237.876 431.928 236.94ZM417.492 248.208V250.476H422.244V248.208H417.492ZM414.036 245.688H425.916V252.996H414.036V245.688ZM454.5 248.964H474.084V252.96H454.5V248.964ZM454.5 256.668H474.084V260.664H454.5V256.668ZM454.5 264.408H474.084V268.404H454.5V264.408ZM451.548 241.116H477.72V270.132H473.112V245.256H455.94V270.204H451.548V241.116ZM461.772 236.4L466.992 236.94C466.128 239.352 465.084 241.728 464.292 243.312L460.332 242.592C460.908 240.792 461.52 238.272 461.772 236.4ZM502.668 243.492H518.256V247.56H502.668V243.492ZM511.056 245.004C512.208 250.656 514.62 255.516 519.012 257.784C518.076 258.612 516.744 260.268 516.168 261.384C511.272 258.396 508.896 252.744 507.492 245.652L511.056 245.004ZM492.948 246.624L494.82 244.212C496.62 245.004 498.924 246.336 500.112 247.308L498.168 249.972C497.052 248.964 494.748 247.524 492.948 246.624ZM511.776 238.56L514.908 236.868C516.168 238.272 517.644 240.216 518.292 241.548L514.98 243.456C514.404 242.124 513 240.036 511.776 238.56ZM489.42 250.944L491.76 248.748C493.596 249.828 495.936 251.448 497.088 252.636L494.604 255.084C493.56 253.86 491.256 252.132 489.42 250.944ZM492.912 236.076L497.016 237.12C495.072 242.196 491.868 247.812 487.836 251.268C487.152 250.44 485.784 249.18 484.92 248.532C488.628 245.508 491.58 240.324 492.912 236.076ZM499.608 239.424H500.4L501.192 239.316L503.856 240.324C501.732 251.34 496.26 257.964 488.952 261.168C488.376 260.196 486.9 258.504 485.964 257.82C493.02 255.084 497.988 249.504 499.608 240.252V239.424ZM494.028 239.424H501.084V242.844H491.688L494.028 239.424ZM507.492 236.94H511.56V244.32C511.56 250.404 510.192 257.28 501.372 261.852C500.688 260.916 499.356 259.62 498.348 258.864C506.412 254.724 507.492 249 507.492 244.284V236.94ZM495.936 263.004L499.932 262.572C500.4 264.768 500.832 267.612 500.868 269.34L496.62 269.988C496.584 268.224 496.332 265.272 495.936 263.004ZM503.244 262.932L507.276 262.248C508.176 264.372 509.076 267.216 509.4 268.98L505.116 269.844C504.9 268.08 504.072 265.164 503.244 262.932ZM510.624 262.896L514.44 261.276C516.096 263.472 518.112 266.496 519.012 268.476L514.908 270.348C514.152 268.368 512.244 265.2 510.624 262.896ZM489.6 261.6L493.704 262.68C492.552 265.272 490.788 268.332 489.312 270.348L485.208 268.692C486.648 267 488.448 264.12 489.6 261.6ZM523.836 239.064H556.164V243.42H523.836V239.064ZM536.904 242.988H541.548V270.168H536.904V242.988ZM539.352 251.7L542.304 248.28C546.228 250.224 551.88 253.356 554.652 255.588L551.448 259.548C548.892 257.28 543.42 253.896 539.352 251.7ZM564.696 265.38H590.688V269.448H564.696V265.38ZM561.456 251.376H594.108V255.48H561.456V251.376ZM563.04 258.684H592.74V262.716H563.04V258.684ZM563.292 244.428H592.488V248.424H563.292V244.428ZM575.676 240.216H580.248V267.288H575.676V240.216ZM567.144 246.336H571.608V260.376H567.144V246.336ZM584.208 246.336H588.78V260.484H584.208V246.336ZM589.176 236.544L591.264 240.288C583.884 241.728 573.48 242.34 564.732 242.412C564.66 241.332 564.156 239.64 563.76 238.704C572.58 238.488 582.696 237.804 589.176 236.544Z" fill="#231815"/>
<path d="M167.48 322.144H169.304V327.52C169.304 331.456 168.896 337.24 166.352 341.152C166.016 340.84 165.224 340.384 164.768 340.216C167.216 336.472 167.48 331.216 167.48 327.52V322.144ZM168.56 322.144H184.52V327.976H168.56V326.44H182.768V323.656H168.56V322.144ZM170.696 329.584H183.944V330.976H172.52V341.992H170.696V329.584ZM183.2 329.584H185.024V339.856C185.024 340.84 184.808 341.32 184.04 341.584C183.32 341.824 182.096 341.824 180.272 341.824C180.176 341.368 179.912 340.72 179.696 340.288C181.064 340.336 182.36 340.336 182.72 340.312C183.08 340.288 183.2 340.168 183.2 339.856V329.584ZM171.584 333.064H183.92V334.312H171.584V333.064ZM171.584 336.544H183.92V337.864H171.584V336.544ZM174.344 320.224L175.952 319.552C176.744 320.416 177.512 321.64 177.872 322.456L176.144 323.224C175.856 322.384 175.064 321.112 174.344 320.224ZM192.56 320.728H197.048V322.384H192.56V320.728ZM192.344 326.368H196.952V328.024H192.344V326.368ZM192.32 332.128H197V333.808H192.32V332.128ZM191.648 320.728H193.256V329.344C193.256 333.064 193.064 338.368 191.552 341.92C191.24 341.656 190.496 341.248 190.112 341.104C191.528 337.72 191.648 332.872 191.648 329.368V320.728ZM196.424 320.728H198.08V339.688C198.08 340.6 197.888 341.128 197.288 341.416C196.688 341.704 195.8 341.752 194.264 341.728C194.192 341.296 193.976 340.528 193.736 340.072C194.792 340.12 195.728 340.096 196.016 340.096C196.328 340.072 196.424 339.976 196.424 339.664V320.728ZM199.376 321.16H211.448V335.656H209.72V322.84H201.056V335.8H199.376V321.16ZM200.312 326.968H210.608V328.6H200.312V326.968ZM200.312 332.848H210.608V334.528H200.312V332.848ZM204.608 321.688H206.36V341.944H204.608V321.688ZM217.568 320.728H222.248V322.384H217.568V320.728ZM217.472 326.344H221.96V328H217.472V326.344ZM217.448 332.128H221.984V333.808H217.448V332.128ZM216.776 320.728H218.336V329.344C218.336 333.064 218.144 338.368 216.56 341.92C216.248 341.632 215.552 341.248 215.144 341.104C216.656 337.72 216.776 332.896 216.776 329.344V320.728ZM221.168 320.728H222.776V339.856C222.776 340.768 222.584 341.296 222.008 341.584C221.408 341.872 220.544 341.92 219.032 341.896C218.96 341.488 218.744 340.72 218.528 340.24C219.56 340.288 220.472 340.288 220.736 340.264C221.048 340.24 221.168 340.144 221.168 339.808V320.728ZM225.872 322.984H236.216V324.64H225.872V322.984ZM235.496 322.984H237.128C237.128 322.984 237.128 323.68 237.128 323.92C237.128 336.04 237.128 339.832 236.432 340.888C235.976 341.584 235.472 341.776 234.728 341.872C233.936 341.944 232.592 341.92 231.392 341.872C231.368 341.392 231.176 340.672 230.864 340.216C232.28 340.312 233.552 340.312 234.056 340.312C234.464 340.336 234.68 340.24 234.896 339.928C235.424 339.184 235.496 335.104 235.496 323.392V322.984ZM226.376 319.84L228.128 320.224C227.216 323.44 225.68 326.416 223.904 328.384C223.592 328.048 222.848 327.472 222.44 327.208C224.24 325.456 225.584 322.72 226.376 319.84ZM232.76 327.736H234.176V338.296H232.76V327.736ZM230.744 326.32L232.016 326.704C230.648 330.088 228.68 333.616 226.808 335.968C226.568 335.776 225.992 335.368 225.68 335.2C227.624 332.968 229.52 329.56 230.744 326.32ZM225.8 327.184L226.856 326.608C228.968 329.344 231.44 332.968 232.568 335.224L231.44 335.872C230.264 333.568 227.84 329.872 225.8 327.184ZM224.24 328H225.632V336.976L224.24 337.744V328ZM224.24 336.856H233.168V338.296H224.24V336.856ZM242.696 324.976H260.744V326.752H242.696V324.976ZM241.232 331.048H262.04V332.824H241.232V331.048ZM252.608 331.624C254.24 335.776 257.744 338.848 262.64 340.048C262.208 340.456 261.632 341.224 261.368 341.776C256.328 340.288 252.848 336.88 250.976 332.08L252.608 331.624ZM256.664 319.936L258.608 320.608C257.576 322.456 256.28 324.616 255.224 325.984L253.712 325.384C254.72 323.944 255.992 321.592 256.664 319.936ZM244.976 320.848L246.464 320.08C247.496 321.304 248.528 322.984 248.984 324.112L247.376 325C246.968 323.848 245.936 322.096 244.976 320.848ZM250.64 325.624H252.704V329.704C252.704 333.664 251.648 338.536 242.048 341.92C241.808 341.488 241.232 340.72 240.752 340.336C249.896 337.24 250.64 332.992 250.64 329.68V325.624ZM283.304 328.336H285.176V336.352C285.176 337.456 284.936 338.056 284.048 338.344C283.184 338.656 281.696 338.656 279.416 338.656C279.344 338.08 279.08 337.312 278.84 336.76C280.616 336.832 282.248 336.832 282.704 336.784C283.184 336.784 283.304 336.664 283.304 336.328V328.336ZM273.44 329.416H275.312V341.872H273.44V329.416ZM267.128 328.336H284.096V330.064H267.128V328.336ZM266.12 322.576H287.48V324.304H266.12V322.576ZM271.736 319.84H273.56V327.04H271.736V319.84ZM280.016 319.84H281.888V327.04H280.016V319.84Z" fill="#231815"/>
<path d="M165.08 611.664H186.92V613.248H165.08V611.664ZM168.008 593.064H184.112V594.672H168.008V593.064ZM165.56 598.056H186.488V599.688H165.56V598.056ZM167.864 605.352H184.184V612.456H182.384V606.84H179.216V612.456H177.536V606.84H174.368V612.456H172.688V606.84H169.568V612.456H167.864V605.352ZM175.256 593.616H177.104V602.424C177.104 603.456 176.864 603.912 176.024 604.2C175.208 604.44 173.912 604.44 171.896 604.44C171.8 603.96 171.512 603.312 171.248 602.832C172.88 602.88 174.296 602.88 174.728 602.856C175.136 602.832 175.256 602.712 175.256 602.376V593.616ZM192.392 592.728H197.264V594.384H192.392V592.728ZM192.44 598.368H197.12V600.024H192.44V598.368ZM198.704 596.088H212.096V597.84H198.704V596.088ZM192.416 604.128H197.144V605.808H192.416V604.128ZM191.648 592.728H193.256V601.368C193.256 605.112 193.016 610.416 191.384 613.968C191.072 613.704 190.352 613.296 189.944 613.152C191.528 609.744 191.648 604.92 191.648 601.392V592.728ZM196.352 592.728H198.008V611.736C198.008 612.672 197.792 613.224 197.216 613.512C196.616 613.8 195.704 613.848 194.144 613.848C194.096 613.392 193.856 612.6 193.616 612.144C194.672 612.192 195.632 612.168 195.944 612.168C196.232 612.144 196.352 612.048 196.352 611.712V592.728ZM207.68 605.76L209.264 605.208C210.392 607.8 211.664 611.136 212.192 613.32L210.512 613.944C209.984 611.736 208.736 608.328 207.68 605.76ZM202.136 592.032L203.96 592.08C203.504 600.912 202.712 608.592 199.904 613.704C199.592 613.392 198.728 612.792 198.296 612.528C201.056 607.92 201.8 600.36 202.136 592.032ZM202.688 612.936C202.592 612.576 202.304 611.712 202.088 611.256C202.544 611.112 202.904 610.296 203.408 609.096C203.912 607.968 205.52 603.48 206.24 599.448L208.088 599.88C207.104 604.152 205.496 608.688 203.912 611.88V611.928C203.912 611.928 202.688 612.576 202.688 612.936ZM202.688 612.936L202.616 611.568L203.552 610.968L210.488 610.176C210.536 610.656 210.656 611.304 210.752 611.664C204.056 612.528 203.216 612.672 202.688 612.936ZM217.496 596.976H235.544V598.752H217.496V596.976ZM216.032 603.048H236.84V604.824H216.032V603.048ZM227.408 603.624C229.04 607.776 232.544 610.848 237.44 612.048C237.008 612.456 236.432 613.224 236.168 613.776C231.128 612.288 227.648 608.88 225.776 604.08L227.408 603.624ZM231.464 591.936L233.408 592.608C232.376 594.456 231.08 596.616 230.024 597.984L228.512 597.384C229.52 595.944 230.792 593.592 231.464 591.936ZM219.776 592.848L221.264 592.08C222.296 593.304 223.328 594.984 223.784 596.112L222.176 597C221.768 595.848 220.736 594.096 219.776 592.848ZM225.44 597.624H227.504V601.704C227.504 605.664 226.448 610.536 216.848 613.92C216.608 613.488 216.032 612.72 215.552 612.336C224.696 609.24 225.44 604.992 225.44 601.68V597.624ZM258.104 600.336H259.976V608.352C259.976 609.456 259.736 610.056 258.848 610.344C257.984 610.656 256.496 610.656 254.216 610.656C254.144 610.08 253.88 609.312 253.64 608.76C255.416 608.832 257.048 608.832 257.504 608.784C257.984 608.784 258.104 608.664 258.104 608.328V600.336ZM248.24 601.416H250.112V613.872H248.24V601.416ZM241.928 600.336H258.896V602.064H241.928V600.336ZM240.92 594.576H262.28V596.304H240.92V594.576ZM246.536 591.84H248.36V599.04H246.536V591.84ZM254.816 591.84H256.688V599.04H254.816V591.84Z" fill="#231815"/>
<rect x="237" y="863" width="351" height="85" rx="20" fill="#FFA248"/>
<path d="M318.576 912.072H331.644V915.744H318.576V912.072ZM318.612 905.988H331.608V909.3H318.612V905.988ZM318.612 899.724H331.644V903.36H318.612V899.724ZM322.68 901.452H326.424V922.62H322.68V901.452ZM329.664 899.724H333.768V919.848C333.768 921.684 333.48 922.692 332.4 923.304C331.32 923.916 329.772 923.952 327.756 923.952C327.648 922.908 327.252 921.324 326.82 920.28C327.792 920.316 328.872 920.316 329.196 920.316C329.556 920.316 329.664 920.172 329.664 919.812V899.724ZM315.696 899.724H319.656V908.724C319.656 913.512 319.08 920.136 315.588 924.276C314.868 923.628 313.14 922.476 312.168 922.044C315.408 918.264 315.696 912.828 315.696 908.688V899.724ZM318.972 890.364L322.68 891.336C320.916 896.268 317.964 900.912 314.472 903.864C314.04 903.036 312.816 901.308 312.132 900.516C315.084 898.14 317.604 894.396 318.972 890.364ZM319.836 893.388H328.116V896.88H318.072L319.836 893.388ZM327 893.388H327.936L328.548 893.244L331.32 895.08C330.06 897.276 327.972 900.12 326.316 901.884C325.56 901.308 324.3 900.48 323.436 899.976C324.768 898.392 326.316 895.764 327 894.144V893.388ZM301.62 892.02H314.328V895.944H301.62V892.02ZM305.652 903.252H313.5V919.848H305.652V916.068H309.9V907.032H305.652V903.252ZM305.76 894.036L309.684 894.936C308.352 901.776 306.084 908.796 302.376 913.26C302.196 912.108 301.404 909.372 300.828 908.112C303.384 904.728 304.896 899.508 305.76 894.036ZM303.852 903.252H307.416V922.548H303.852V903.252ZM359.472 890.58H363.864C363.72 903.36 363.54 916.644 353.892 924.168C353.172 923.088 351.84 921.72 350.652 920.964C359.724 914.304 359.364 902.28 359.472 890.58ZM363.54 900.768C363.9 904.44 365.052 915.42 373.08 921C371.856 921.828 370.668 923.124 369.948 924.24C361.56 918.012 360.3 905.412 359.724 901.092L363.54 900.768ZM342.012 893.568L344.856 890.868C346.656 892.452 349.428 894.72 350.76 896.124L347.772 899.22C346.548 897.78 343.848 895.296 342.012 893.568ZM344.604 923.592L343.668 919.668L344.64 918.3L351.984 913.152C352.236 914.304 352.848 915.996 353.244 916.824C346.44 921.792 345.252 922.8 344.604 923.592ZM339.204 901.524H347.736V905.664H339.204V901.524ZM344.604 923.592C344.244 922.728 343.128 921.252 342.408 920.604C343.308 919.92 344.568 918.48 344.568 916.572V901.524H348.744V918.876C348.744 918.876 344.604 922.08 344.604 923.592ZM391.044 893.208H407.388V897.384H391.044V893.208ZM404.868 893.208H409.116C409.116 893.208 409.08 894.792 409.08 895.332C408.72 913.548 408.396 919.812 407.1 921.72C406.164 923.124 405.264 923.592 403.896 923.844C402.6 924.06 400.62 924.024 398.676 923.952C398.604 922.8 398.1 921 397.38 919.848C399.288 919.992 400.98 920.028 401.844 920.028C402.456 920.028 402.852 919.848 403.212 919.308C404.292 918.012 404.616 911.46 404.868 894.252V893.208ZM395.616 895.332L400.044 895.404C399.684 908.796 398.136 918.3 391.332 924.168C390.756 923.34 388.956 921.54 387.984 920.748C394.32 915.96 395.472 907.176 395.616 895.332ZM381.936 908.616L386.4 903.36V924.24H381.936V908.616ZM389.712 903.648L392.52 905.988C390.936 907.284 389.532 908.652 388.38 909.516L386.472 907.752C387.48 906.672 388.956 904.836 389.712 903.648ZM377.4 896.52H387.984V900.372H377.4V896.52ZM385.572 905.952C386.868 906.888 390.972 910.92 391.908 911.928L389.46 915.348C388.164 913.332 385.104 909.588 383.556 907.896L385.572 905.952ZM386.58 896.52H387.408L388.164 896.34L390.54 898.068C387.984 904.728 383.016 911.352 378.408 914.988C378.084 913.8 377.04 911.532 376.392 910.704C380.568 907.86 384.78 902.28 386.58 897.384V896.52ZM380.748 892.128L384.132 890.256C385.32 891.732 386.688 893.676 387.372 894.936L383.88 897.168C383.268 895.836 381.864 893.676 380.748 892.128ZM432.264 918.984H444.216V922.764H432.264V918.984ZM429.528 909.12H446.376V924.204H442.272V912.9H433.452V924.204H429.528V909.12ZM439.392 897.24L442.848 895.512C445.332 898.68 447.744 902.856 448.824 905.736L445.116 907.716C444.18 904.8 441.768 900.408 439.392 897.24ZM428.952 907.104C428.7 906.24 428.016 904.188 427.548 903.072C428.34 902.856 428.988 902.1 429.852 900.804C430.716 899.58 433.272 894.936 434.748 890.436L439.284 891.624C437.232 896.484 434.388 901.416 431.796 904.8V904.872C431.796 904.872 428.952 906.276 428.952 907.104ZM428.952 907.104L428.844 903.684L431.148 902.28L445.62 901.308C445.836 902.496 446.196 904.188 446.52 905.088C432.336 906.348 430.356 906.528 428.952 907.104ZM415.056 910.092C416.532 905.124 418.08 897.024 418.62 890.652L422.688 890.904C421.932 897.636 420.24 905.988 418.692 911.46L415.056 910.092ZM414.696 897.6H424.596V901.56H414.696V897.6ZM423.588 897.6H424.308L425.028 897.528L427.512 897.816C426.792 911.892 423.732 919.812 416.964 924.204C416.388 923.16 415.272 921.576 414.444 920.784C420.168 917.616 423.048 909.732 423.588 898.356V897.6ZM415.056 910.092L417.36 907.068C421.14 910.02 426.036 914.196 428.088 917.184L425.532 920.712C423.48 917.652 418.836 913.188 415.056 910.092ZM460.236 898.716H481.152V902.568H460.236V898.716ZM460.236 905.7H480.468V909.408H460.236V905.7ZM459.696 912.612H480.612V916.428H459.696V912.612ZM457.644 898.716H462.072V908.148C462.072 913.296 461.28 920.352 456.708 924.564C456.024 923.7 454.26 922.008 453.36 921.432C457.284 917.76 457.644 912.396 457.644 908.112V898.716ZM478.92 898.716H483.348V919.416C483.348 921.576 482.88 922.764 481.476 923.448C480 924.132 477.948 924.204 475.104 924.204C474.924 923.016 474.204 921.108 473.628 919.992C475.392 920.1 477.516 920.064 478.092 920.064C478.704 920.064 478.92 919.884 478.92 919.344V898.716ZM468.12 900.264H472.512V923.412H468.12V900.264ZM463.044 892.524H475.896V896.052H463.044V892.524ZM462.216 890.256L466.968 891.156C464.52 895.872 461.064 900.444 455.952 904.188C455.268 903.144 453.792 901.596 452.784 900.948C457.428 897.888 460.524 893.856 462.216 890.256ZM474.564 892.524H475.536L476.22 892.308L479.136 894.36C477.552 896.808 474.78 899.868 472.548 901.776C471.828 901.128 470.496 900.228 469.632 899.724C471.504 897.96 473.628 895.116 474.564 893.316V892.524ZM498 900.768H523.02V904.152H498V900.768ZM498.288 911.244H518.052V914.628H498.288V911.244ZM502.896 898.392H506.964V906.564H513.552V898.392H517.8V909.804H502.896V898.392ZM516.936 911.244H517.764L518.52 911.1L521.22 912.468C517.26 920.028 508.404 922.872 498.252 923.988C497.928 922.98 497.172 921.324 496.524 920.388C505.74 919.704 513.948 917.328 516.936 911.784V911.244ZM504.372 913.764C507.864 917.76 515.136 919.848 523.956 920.46C523.056 921.36 521.976 923.124 521.472 924.204C512.22 923.268 505.092 920.532 500.664 915.168L504.372 913.764ZM495.012 893.532H523.38V897.528H495.012V893.532ZM492.996 893.532H497.28V903.144C497.28 909.228 496.812 918.264 493.824 924.168C492.924 923.52 490.98 922.62 489.864 922.296C492.744 916.788 492.996 908.688 492.996 903.18V893.532ZM505.632 891.12L510.024 890.148C510.78 891.732 511.572 893.748 511.788 895.08L507.144 896.196C506.964 894.864 506.316 892.704 505.632 891.12Z" fill="white"/>
<g filter="url(#filter1_d_577_157)">
<path d="M1486 294L1531 249H1588.5L1486 294Z" fill="white"/>
<rect x="1480" y="156" width="257" height="93" rx="10" fill="white"/>
</g>
<path d="M1507.46 210V191.832H1510.61V199.512L1510.18 199.056C1510.48 198.272 1510.98 197.68 1511.66 197.28C1512.37 196.864 1513.18 196.656 1514.11 196.656C1515.07 196.656 1515.92 196.864 1516.66 197.28C1517.41 197.696 1517.99 198.28 1518.41 199.032C1518.82 199.768 1519.03 200.624 1519.03 201.6V210H1515.89V202.344C1515.89 201.768 1515.78 201.272 1515.55 200.856C1515.33 200.44 1515.02 200.12 1514.62 199.896C1514.23 199.656 1513.78 199.536 1513.25 199.536C1512.74 199.536 1512.28 199.656 1511.88 199.896C1511.48 200.12 1511.17 200.44 1510.94 200.856C1510.72 201.272 1510.61 201.768 1510.61 202.344V210H1507.46ZM1522.89 210V196.944H1526.03V210H1522.89ZM1522.89 195.48V192.12H1526.03V195.48H1522.89Z" fill="#231815"/>
<path d="M1540.63 214.312L1539.86 212.392C1541.88 211.744 1542.98 210.568 1542.98 209.2L1542.82 206.824L1544.14 208.984C1543.75 209.344 1543.25 209.512 1542.72 209.512C1541.52 209.512 1540.42 208.744 1540.42 207.352C1540.42 206.008 1541.5 205.192 1542.79 205.192C1544.47 205.192 1545.38 206.488 1545.38 208.504C1545.38 211.216 1543.61 213.424 1540.63 214.312ZM1564.9 202.264H1579.46V205.216H1564.9V202.264ZM1570.34 198.832L1572.22 197.032C1573.7 198.088 1575.89 199.696 1576.94 200.752L1574.9 202.816C1573.97 201.736 1571.88 200.008 1570.34 198.832ZM1574.38 191.632C1576.63 194.296 1580.95 197.2 1584.6 198.76C1583.83 199.384 1582.85 200.608 1582.32 201.4C1578.74 199.528 1574.54 196.144 1571.9 192.88L1574.38 191.632ZM1572.72 190.336L1575.58 191.704C1572.72 195.976 1568.42 199.384 1564.01 201.688C1563.53 200.848 1562.64 199.744 1561.78 199C1566.02 197.176 1570.32 194.104 1572.72 190.336ZM1579.15 202.264H1579.66L1580.16 202.12L1582.44 203.2C1580.33 206.2 1577.3 210.112 1574.76 213.304L1571.74 211.912C1574.35 208.864 1577.57 204.784 1579.15 202.576V202.264ZM1599.86 201.016C1601.4 205.576 1604.66 208.936 1609.9 210.304C1609.22 210.928 1608.36 212.152 1607.93 212.968C1602.31 211.168 1599.12 207.352 1597.18 201.688L1599.86 201.016ZM1588.82 192.232H1607.9V195.184H1588.82V192.232ZM1587.91 199.456H1608.86V202.432H1587.91V199.456ZM1596.67 193.24H1599.72V197.656C1599.72 202.624 1598.57 209.512 1588.97 213.04C1588.61 212.32 1587.7 211.144 1587.1 210.568C1595.74 207.52 1596.67 201.64 1596.67 197.632V193.24ZM1612.94 192.856L1615.18 191.368C1616.5 192.568 1618.1 194.248 1618.82 195.424L1616.4 197.128C1615.78 195.928 1614.26 194.152 1612.94 192.856ZM1618.25 199.504V208.744H1615.42V202.192H1612.61V199.504H1618.25ZM1616.76 207.208C1617.6 207.208 1618.22 207.904 1619.64 208.648C1621.27 209.56 1623.53 209.728 1626.17 209.728C1628.66 209.728 1632.6 209.488 1635.02 209.128C1634.66 209.944 1634.16 211.456 1634.14 212.32C1632.43 212.44 1628.54 212.56 1626.07 212.56C1623.02 212.56 1620.96 212.296 1619.18 211.336C1618.06 210.736 1617.24 209.992 1616.69 209.992C1615.99 209.992 1614.96 211.576 1614.1 213.016L1612.06 210.088C1613.71 208.336 1615.54 207.208 1616.76 207.208ZM1619.62 194.752H1634.45V197.464H1619.62V194.752ZM1628.57 190.768H1631.5V205.384C1631.5 207.04 1631.14 207.808 1630.03 208.24C1628.98 208.696 1627.34 208.768 1625.09 208.768C1624.97 207.928 1624.51 206.656 1624.1 205.84C1625.66 205.912 1627.39 205.912 1627.9 205.912C1628.4 205.888 1628.57 205.768 1628.57 205.336V190.768ZM1620.29 199.768L1622.59 198.472C1623.77 199.888 1625.33 201.856 1626.02 203.128L1623.58 204.64C1622.93 203.368 1621.46 201.28 1620.29 199.768ZM1649.28 196.432V197.656H1655.54V196.432H1649.28ZM1649.28 193.336V194.536H1655.54V193.336H1649.28ZM1646.5 191.32H1658.45V199.672H1646.5V191.32ZM1645.3 200.728H1659.24V203.08H1645.3V200.728ZM1644.67 204.448H1659.72V206.896H1644.67V204.448ZM1653.53 202.792H1656.43V210.304C1656.43 211.624 1656.19 212.32 1655.26 212.728C1654.37 213.136 1653.17 213.16 1651.51 213.16C1651.39 212.368 1650.98 211.312 1650.62 210.592C1651.63 210.64 1652.76 210.64 1653.07 210.616C1653.43 210.592 1653.53 210.52 1653.53 210.232V202.792ZM1646.28 208.072L1648.27 206.728C1649.3 207.664 1650.58 209.008 1651.2 209.896L1649.04 211.432C1648.51 210.52 1647.26 209.104 1646.28 208.072ZM1642.99 195.928L1645.51 196.984C1643.76 199.936 1640.95 203.104 1638.43 205.072C1638.24 204.448 1637.52 202.816 1637.09 202.12C1639.2 200.632 1641.55 198.256 1642.99 195.928ZM1642.34 190.648L1645.08 191.752C1643.47 193.984 1641.02 196.336 1638.77 197.8C1638.46 197.152 1637.78 195.976 1637.33 195.376C1639.2 194.224 1641.34 192.256 1642.34 190.648ZM1640.62 201.28L1643.28 198.616L1643.4 198.688V213.16H1640.62V201.28ZM1662.94 195.4H1671.91V198.04H1662.94V195.4ZM1671.05 195.4H1671.53L1672.06 195.328L1673.83 195.568C1673.23 205.744 1670.38 210.64 1664.45 213.232C1664.06 212.512 1663.37 211.432 1662.79 210.856C1667.93 209.056 1670.57 204.232 1671.05 195.904V195.4ZM1663.75 203.728L1665.48 201.664C1668.1 203.848 1672.01 206.944 1673.78 208.912L1671.89 211.336C1670.18 209.272 1666.44 206.056 1663.75 203.728ZM1676.16 208H1682.88V210.712H1676.16V208ZM1674.58 193.096H1684.42V212.128H1681.56V195.808H1677.31V212.512H1674.58V193.096ZM1663.75 203.728C1664.83 200.416 1666.01 195.04 1666.39 190.696L1669.22 190.912C1668.62 195.496 1667.38 201.064 1666.25 204.808L1663.75 203.728ZM1695.62 192.688H1710.48V195.448H1695.62V192.688ZM1706.14 193.696H1709.04V209.776C1709.04 211.432 1708.68 212.2 1707.65 212.68C1706.62 213.112 1704.98 213.208 1702.75 213.184C1702.63 212.368 1702.18 211.072 1701.77 210.256C1703.35 210.328 1705.01 210.328 1705.51 210.304C1705.99 210.304 1706.14 210.184 1706.14 209.728V193.696ZM1695.91 198.04H1698.6V208.36H1695.91V198.04ZM1697.09 198.04H1703.93V206.776H1697.09V204.304H1701.26V200.536H1697.09V198.04ZM1693.15 190.576L1695.84 191.44C1694.35 195.496 1691.88 199.792 1689.29 202.48C1689.05 201.808 1688.26 200.2 1687.78 199.504C1689.91 197.368 1691.95 193.96 1693.15 190.576ZM1690.99 197.32L1693.85 194.464V194.488V213.112H1690.99V197.32Z" fill="#231815"/>
<rect x="164" y="364" width="496" height="192" rx="20" fill="#F7F6FB"/>
<rect x="191" y="389" width="121" height="121" rx="10" fill="white"/>
<rect x="351" y="389" width="122" height="121" rx="10" fill="white"/>
<rect x="512" y="389" width="121" height="121" rx="10" fill="white"/>
<path d="M221.787 531.744H228.363V532.944H221.787V531.744ZM215.083 539.328H229.451V540.528H215.083V539.328ZM221.099 526.8H222.363V539.968H221.099V526.8ZM238.715 530.128V531.408H244.059V530.128H238.715ZM238.715 528V529.28H244.059V528H238.715ZM237.611 527.088H245.211V532.336H237.611V527.088ZM236.875 533.488H246.091V534.496H236.875V533.488ZM240.811 533.984H241.931V540.528L240.811 540.064V533.984ZM238.667 536.928C239.483 539.584 241.243 539.984 243.467 539.984C243.867 539.984 246.027 539.984 246.587 539.968C246.427 540.224 246.267 540.736 246.235 541.04H243.419C240.747 541.04 238.907 540.464 237.931 537.2L238.667 536.928ZM241.579 536.368H245.291V537.36H241.579V536.368ZM237.931 535.248L239.019 535.376C238.699 538.016 237.867 540 236.427 541.28C236.235 541.088 235.771 540.736 235.531 540.56C236.955 539.424 237.675 537.616 237.931 535.248ZM231.515 535.072C232.763 534.736 234.619 534.16 236.411 533.584L236.587 534.688C234.923 535.232 233.179 535.808 231.819 536.24L231.515 535.072ZM231.691 529.792H236.571V530.912H231.691V529.792ZM233.675 526.576H234.795V539.792C234.795 540.448 234.651 540.768 234.251 540.96C233.883 541.152 233.259 541.184 232.251 541.184C232.203 540.896 232.059 540.4 231.899 540.064C232.603 540.08 233.211 540.08 233.403 540.08C233.611 540.08 233.675 540.016 233.675 539.776V526.576ZM248.043 542.864L252.843 527.296H253.883L249.099 542.864H248.043ZM255.813 527.744H270.053V528.96H255.813V527.744ZM261.973 528.704H263.237V541.264H261.973V528.704ZM262.677 532.496L263.461 531.568C265.381 532.496 267.909 533.952 269.189 534.912L268.341 536C267.109 535.008 264.613 533.488 262.677 532.496ZM273.157 527.584L273.877 526.784C274.837 527.296 276.133 528.064 276.805 528.544L276.053 529.472C275.397 528.96 274.117 528.16 273.157 527.584ZM272.341 531.92L273.013 531.056C274.005 531.488 275.381 532.176 276.085 532.608L275.397 533.584C274.709 533.136 273.349 532.416 272.341 531.92ZM272.821 540.272C273.685 539.008 274.981 536.816 275.925 534.944L276.821 535.728C275.941 537.472 274.789 539.552 273.829 541.088L272.821 540.272ZM279.813 531.488H284.069V532.608H279.813V531.488ZM277.269 527.568H286.741V530.784H285.573V528.72H278.405V530.784H277.269V527.568ZM279.109 531.488H280.277V534.88C280.277 536.992 279.797 539.632 277.077 541.296C276.933 541.04 276.533 540.544 276.293 540.384C278.789 538.848 279.109 536.672 279.109 534.848V531.488ZM283.429 531.488H284.597V539.28C284.597 539.776 284.661 539.856 284.949 539.856C285.077 539.856 285.653 539.856 285.829 539.856C286.165 539.856 286.213 539.424 286.245 537.088C286.517 537.328 287.013 537.536 287.333 537.616C287.237 540.224 286.981 540.976 285.925 540.976C285.717 540.976 284.965 540.976 284.757 540.976C283.733 540.976 283.429 540.624 283.429 539.296V531.488Z" fill="#231815"/>
<path d="M376.115 529.088H390.419V530.208H376.115V529.088ZM377.763 534.24H382.243V535.184H377.763V534.24ZM377.763 536.8H382.243V537.744H377.763V536.8ZM384.915 531.776H386.051V538.352H384.915V531.776ZM381.811 531.632H382.979V539.904C382.979 540.512 382.835 540.832 382.387 541.024C381.955 541.216 381.251 541.216 380.163 541.216C380.099 540.912 379.923 540.464 379.763 540.16C380.563 540.192 381.299 540.192 381.523 540.176C381.747 540.16 381.811 540.096 381.811 539.888V531.632ZM388.163 531.296H389.347V539.792C389.347 540.496 389.187 540.832 388.691 541.024C388.195 541.2 387.395 541.232 386.147 541.232C386.083 540.912 385.891 540.4 385.715 540.08C386.691 540.112 387.555 540.112 387.827 540.096C388.083 540.08 388.163 540.016 388.163 539.792V531.296ZM378.595 526.96L379.699 526.544C380.323 527.232 380.995 528.176 381.299 528.8L380.115 529.232C379.859 528.624 379.203 527.648 378.595 526.96ZM386.819 526.496L388.099 526.912C387.491 527.904 386.771 529.008 386.179 529.76L385.123 529.36C385.699 528.592 386.419 527.36 386.819 526.496ZM377.123 531.632H382.195V532.672H378.259V541.2H377.123V531.632ZM397.491 529.472H406.851V530.624H397.491V529.472ZM399.747 526.912H400.931V532.512C400.931 534.592 400.611 537.216 398.499 538.816C398.339 538.592 397.875 538.128 397.619 537.968C399.539 536.496 399.747 534.352 399.747 532.496V526.912ZM397.379 533.504H407.155V534.64H397.379V533.504ZM396.243 532.352V538.544H395.075V533.488H392.851V532.352H396.243ZM395.635 537.952C396.179 537.952 396.547 538.432 397.427 538.992C398.467 539.632 399.811 539.744 401.635 539.744C403.523 539.744 405.923 539.616 407.475 539.44C407.347 539.776 407.155 540.352 407.123 540.688C405.987 540.768 403.123 540.864 401.603 540.864C399.619 540.864 398.275 540.672 397.155 539.984C396.483 539.552 395.987 539.024 395.619 539.024C395.075 539.024 394.291 539.968 393.475 541.056L392.675 539.968C393.763 538.8 394.835 537.952 395.635 537.952ZM393.347 527.568L394.211 526.896C395.107 527.68 396.195 528.784 396.723 529.504L395.795 530.256C395.315 529.52 394.243 528.368 393.347 527.568ZM403.587 526.896H404.771V538.736H403.587V526.896ZM409.043 542.864L413.843 527.296H414.883L410.099 542.864H409.043ZM418.941 531.008H431.197V532.16H418.941V531.008ZM421.501 539.344H429.277V540.48H421.501V539.344ZM429.069 526.704L430.077 527.68C427.069 528.384 422.525 528.848 418.653 529.056C418.621 528.752 418.461 528.288 418.333 528.016C422.141 527.776 426.589 527.312 429.069 526.704ZM420.909 534.448H430.013V541.28H428.765V535.568H422.109V541.296H420.909V534.448ZM418.333 528.016H419.565V532.16C419.565 534.816 419.293 538.72 417.437 541.312C417.229 541.072 416.733 540.64 416.445 540.496C418.173 538.064 418.333 534.64 418.333 532.16V528.016ZM439.677 527.28H446.365V533.28H439.613V532.288H445.213V528.288H439.677V527.28ZM439.613 529.792H445.693V530.72H439.613V529.792ZM446.701 533.248L447.645 533.968C446.669 534.704 445.453 535.504 444.477 536.032L443.741 535.408C444.669 534.864 445.965 533.92 446.701 533.248ZM436.877 532.272V538.608H435.725V533.392H433.565V532.272H436.877ZM434.013 527.84L434.925 527.2C435.789 527.952 436.845 529.04 437.341 529.76L436.365 530.48C435.917 529.76 434.877 528.64 434.013 527.84ZM436.413 538.176C436.941 538.176 437.325 538.608 438.205 539.104C439.229 539.68 440.621 539.792 442.349 539.792C444.221 539.792 446.605 539.664 448.157 539.504C448.029 539.808 447.837 540.352 447.821 540.688C446.669 540.768 443.853 540.864 442.317 540.864C440.429 540.864 439.053 540.688 437.933 540.064C437.261 539.68 436.765 539.2 436.397 539.2C435.805 539.2 434.973 540.048 434.125 541.04L433.373 540.032C434.461 538.976 435.565 538.176 436.413 538.176ZM441.693 534.416L442.509 533.808C444.189 535.008 446.285 536.736 447.309 537.936L446.413 538.64C445.469 537.456 443.389 535.648 441.693 534.416ZM438.877 538.672C438.781 538.4 438.525 537.92 438.333 537.68C438.605 537.536 438.989 537.232 438.989 536.544V527.28H440.205V537.456C440.205 537.456 438.877 538.24 438.877 538.672ZM438.877 538.672L438.813 537.696L439.373 537.264L442.973 536.352C442.973 536.656 443.005 537.12 443.037 537.36C439.693 538.304 439.197 538.464 438.877 538.672Z" fill="#231815"/>
<path d="M539.275 531.008H551.531V532.16H539.275V531.008ZM541.835 539.344H549.611V540.48H541.835V539.344ZM549.403 526.704L550.411 527.68C547.403 528.384 542.859 528.848 538.987 529.056C538.955 528.752 538.795 528.288 538.667 528.016C542.475 527.776 546.923 527.312 549.403 526.704ZM541.243 534.448H550.347V541.28H549.099V535.568H542.443V541.296H541.243V534.448ZM538.667 528.016H539.899V532.16C539.899 534.816 539.627 538.72 537.771 541.312C537.563 541.072 537.067 540.64 536.779 540.496C538.507 538.064 538.667 534.64 538.667 532.16V528.016ZM562.059 526.896L562.891 527.792C561.739 528.304 560.203 528.8 558.891 529.12C558.827 528.88 558.667 528.496 558.523 528.272C559.771 527.92 561.227 527.376 562.059 526.896ZM562.907 528.336H567.403V529.424H564.075V541.28H562.907V528.336ZM566.683 528.336H567.835V537.184C567.835 537.808 567.707 538.176 567.275 538.384C566.859 538.576 566.171 538.592 565.099 538.592C565.051 538.272 564.875 537.76 564.699 537.456C565.499 537.472 566.187 537.472 566.411 537.456C566.619 537.456 566.683 537.392 566.683 537.184V528.336ZM558.491 538.88L558.363 537.84L558.843 537.392L562.187 536.224C562.203 536.544 562.267 536.992 562.315 537.232C559.227 538.416 558.763 538.64 558.491 538.88ZM556.891 526.56L557.995 526.88C557.099 529.632 555.707 532.464 554.155 534.336C554.043 534.048 553.707 533.408 553.515 533.104C554.891 531.488 556.123 529.024 556.891 526.56ZM555.579 530.576L556.683 529.472L556.731 529.504V541.28H555.579V530.576ZM558.491 538.88C558.379 538.624 558.091 538.208 557.899 538C558.139 537.824 558.523 537.424 558.523 536.688V528.272H559.611V537.568C559.611 537.568 558.491 538.448 558.491 538.88ZM570.043 542.864L574.843 527.296H575.883L571.099 542.864H570.043ZM577.781 529.088H592.085V530.208H577.781V529.088ZM579.429 534.24H583.909V535.184H579.429V534.24ZM579.429 536.8H583.909V537.744H579.429V536.8ZM586.581 531.776H587.717V538.352H586.581V531.776ZM583.477 531.632H584.645V539.904C584.645 540.512 584.501 540.832 584.053 541.024C583.621 541.216 582.917 541.216 581.829 541.216C581.765 540.912 581.589 540.464 581.429 540.16C582.229 540.192 582.965 540.192 583.189 540.176C583.413 540.16 583.477 540.096 583.477 539.888V531.632ZM589.829 531.296H591.013V539.792C591.013 540.496 590.853 540.832 590.357 541.024C589.861 541.2 589.061 541.232 587.813 541.232C587.749 540.912 587.557 540.4 587.381 540.08C588.357 540.112 589.221 540.112 589.493 540.096C589.749 540.08 589.829 540.016 589.829 539.792V531.296ZM580.261 526.96L581.365 526.544C581.989 527.232 582.661 528.176 582.965 528.8L581.781 529.232C581.525 528.624 580.869 527.648 580.261 526.96ZM588.485 526.496L589.765 526.912C589.157 527.904 588.437 529.008 587.845 529.76L586.789 529.36C587.365 528.592 588.085 527.36 588.485 526.496ZM578.789 531.632H583.861V532.672H579.925V541.2H578.789V531.632ZM597.189 526.608L598.277 526.912C597.429 529.648 596.101 532.464 594.597 534.32C594.501 534.048 594.197 533.408 593.989 533.104C595.317 531.504 596.485 529.056 597.189 526.608ZM596.069 530.544L597.141 529.456L597.157 529.488V541.296H596.069V530.544ZM599.285 531.36H601.813V532.4H599.285V531.36ZM598.709 538.688L598.581 537.632L598.997 537.136L601.653 535.84C601.637 536.16 601.653 536.624 601.685 536.848C599.301 538.192 598.933 538.448 598.709 538.688ZM601.733 527.568H609.029V528.608H601.733V527.568ZM604.965 528.112L606.245 528.304C605.909 529.152 605.557 530.112 605.253 530.736L604.261 530.528C604.533 529.856 604.837 528.816 604.965 528.112ZM604.789 532.144H605.765V535.488C605.765 537.456 605.429 539.872 601.813 541.328C601.669 541.104 601.397 540.768 601.157 540.576C604.405 539.344 604.789 537.072 604.789 535.488V532.144ZM605.413 538.832L606.085 538.08C607.109 538.768 608.437 539.776 609.093 540.432L608.389 541.296C607.765 540.592 606.469 539.552 605.413 538.832ZM602.421 530.272H608.293V537.68H607.205V531.328H603.477V537.712H602.421V530.272ZM598.709 538.688C598.645 538.384 598.405 537.888 598.229 537.616C598.437 537.504 598.709 537.216 598.709 536.592V528.336H599.749V537.68C599.749 537.68 598.709 538.256 598.709 538.688Z" fill="#231815"/>
<rect x="164" y="636" width="496" height="192" rx="20" fill="#F7F6FB"/>
<rect x="191" y="661" width="121" height="121" rx="10" fill="white"/>
<rect x="351" y="661" width="122" height="121" rx="10" fill="white"/>
<rect x="512" y="661" width="121" height="121" rx="10" fill="white"/>
<path d="M217.819 801.024H221.755V802.16H217.819V801.024ZM224.027 798.576H225.291V813.264H224.027V798.576ZM216.859 805.632L217.595 804.832C218.603 805.472 219.931 806.464 220.555 807.12L219.803 808.032C219.195 807.344 217.883 806.336 216.859 805.632ZM217.963 798.56L219.147 798.784C218.491 801.808 217.371 804.608 215.899 806.432C215.691 806.224 215.163 805.856 214.891 805.68C216.363 804.016 217.387 801.36 217.963 798.56ZM221.355 801.024H221.595L221.819 800.976L222.667 801.232C221.803 807.536 219.307 811.296 215.867 813.168C215.675 812.864 215.179 812.368 214.875 812.176C218.267 810.448 220.635 807.056 221.355 801.312V801.024ZM224.811 804.128L225.723 803.424C227.083 804.496 228.859 806.032 229.707 807.04L228.731 807.872C227.915 806.848 226.187 805.248 224.811 804.128ZM235.051 804.688H245.627V805.728H235.051V804.688ZM234.603 807.408H246.267V808.448H234.603V807.408ZM237.451 803.216H238.571V808H237.451V803.216ZM241.787 803.216H242.923V807.952H241.787V803.216ZM233.307 799.344H234.523V804.032C234.523 806.752 234.283 810.688 232.619 813.296C232.395 813.12 231.851 812.8 231.563 812.688C233.163 810.16 233.307 806.592 233.307 804.032V799.344ZM234.027 799.344H245.291V803.072H234.027V802.016H244.091V800.384H234.027V799.344ZM240.539 807.808C241.451 810.128 243.531 811.728 246.443 812.304C246.187 812.544 245.867 812.992 245.707 813.296C242.683 812.544 240.587 810.752 239.531 808.048L240.539 807.808ZM244.507 808.544L245.403 809.168C244.539 809.856 243.371 810.528 242.459 810.992L241.691 810.4C242.571 809.92 243.803 809.12 244.507 808.544ZM236.059 813.296L236.011 812.368L236.539 811.936L240.939 810.96C240.907 811.28 240.875 811.728 240.891 811.968C236.859 812.96 236.379 813.104 236.059 813.296ZM236.059 813.296C235.995 813.024 235.755 812.528 235.579 812.288C235.867 812.128 236.363 811.76 236.363 811.056V807.904L237.499 807.936V812C237.499 812 236.059 812.848 236.059 813.296ZM248.043 814.864L252.843 799.296H253.883L249.099 814.864H248.043ZM262.149 805.056L263.045 804.416C264.677 805.824 266.757 807.824 267.781 809.072L266.789 809.84C265.829 808.576 263.781 806.528 262.149 805.056ZM262.325 798.56H263.557V801.696C263.557 804.256 263.093 807.632 258.965 810.048C258.805 809.792 258.389 809.36 258.117 809.152C262.117 806.992 262.325 803.904 262.325 801.696V798.56ZM256.501 801.296H268.741V802.48H257.701V813.312H256.501V801.296ZM268.197 801.296H269.381V811.696C269.381 812.48 269.189 812.864 268.645 813.072C268.085 813.264 267.093 813.28 265.653 813.28C265.605 812.944 265.413 812.384 265.253 812.048C266.389 812.096 267.477 812.096 267.797 812.08C268.101 812.064 268.197 811.968 268.197 811.696V801.296ZM280.517 801.68H287.013V802.816H280.517V801.68ZM280.965 798.56L282.181 798.768C281.637 801.872 280.645 804.72 279.141 806.608C278.965 806.352 278.533 805.824 278.277 805.6C279.653 803.968 280.501 801.36 280.965 798.56ZM284.709 802.256L285.893 802.416C284.997 807.776 283.189 811.216 279.317 813.312C279.173 813.056 278.805 812.56 278.549 812.32C282.277 810.512 283.957 807.248 284.709 802.256ZM280.965 802.688C281.941 806.944 283.941 810.656 287.157 812.24C286.885 812.48 286.501 812.912 286.309 813.216C283.013 811.408 281.045 807.536 279.973 802.912L280.965 802.688ZM276.901 798.8H278.101V813.296H276.901V798.8ZM273.205 810.4L273.077 809.264L273.621 808.768L277.461 807.52C277.509 807.84 277.653 808.304 277.749 808.56C274.053 809.872 273.541 810.144 273.205 810.4ZM273.205 810.4C273.109 810.112 272.885 809.568 272.709 809.312C272.933 809.168 273.269 808.848 273.269 808.224V800.352H274.437V809.296C274.437 809.296 273.205 809.968 273.205 810.4Z" fill="#231815"/>
<path d="M382.483 805.056L383.379 804.416C385.011 805.824 387.091 807.824 388.115 809.072L387.123 809.84C386.163 808.576 384.115 806.528 382.483 805.056ZM382.659 798.56H383.891V801.696C383.891 804.256 383.427 807.632 379.299 810.048C379.139 809.792 378.723 809.36 378.451 809.152C382.451 806.992 382.659 803.904 382.659 801.696V798.56ZM376.835 801.296H389.075V802.48H378.035V813.312H376.835V801.296ZM388.531 801.296H389.715V811.696C389.715 812.48 389.523 812.864 388.979 813.072C388.419 813.264 387.427 813.28 385.987 813.28C385.939 812.944 385.747 812.384 385.587 812.048C386.723 812.096 387.811 812.096 388.131 812.08C388.435 812.064 388.531 811.968 388.531 811.696V801.296ZM392.755 801.184H399.171V802.304H392.755V801.184ZM395.043 804.416H397.811V805.52H395.043V804.416ZM402.627 804.032H403.731V812.016H402.627V804.032ZM394.483 801.824H395.619C395.571 806.944 395.411 810.896 393.379 813.28C393.187 813.008 392.787 812.656 392.499 812.48C394.371 810.32 394.451 806.608 394.483 801.824ZM397.411 804.416H398.515C398.515 804.416 398.515 804.8 398.499 804.96C398.403 810.288 398.291 812.064 397.891 812.608C397.651 812.96 397.379 813.088 396.963 813.136C396.579 813.184 395.971 813.168 395.331 813.136C395.299 812.816 395.187 812.352 395.043 812.048C395.635 812.096 396.195 812.096 396.435 812.096C396.659 812.112 396.787 812.064 396.915 811.888C397.187 811.504 397.299 809.76 397.411 804.656V804.416ZM400.627 800.64H407.395V801.744H400.627V800.64ZM399.859 803.456H406.371V804.528H399.859V803.456ZM403.139 807.344H406.787V808.384H403.139V807.344ZM400.883 798.56L402.067 798.784C401.539 800.832 400.627 802.768 399.523 804.016C399.315 803.808 398.835 803.44 398.563 803.264C399.635 802.128 400.435 800.384 400.883 798.56ZM406.131 803.456H406.323L406.499 803.408L407.283 803.664C406.899 804.656 406.451 805.792 406.051 806.496L405.107 806.144C405.443 805.488 405.843 804.496 406.131 803.632V803.456ZM400.147 806.048H401.219C401.091 808.976 400.771 811.68 399.235 813.232C399.075 812.992 398.723 812.624 398.467 812.464C399.795 811.104 400.067 808.624 400.147 806.048ZM400.979 808.272C401.683 811.328 403.187 811.888 405.139 811.888C405.443 811.888 407.107 811.888 407.571 811.872C407.395 812.144 407.251 812.672 407.203 812.976H405.059C402.659 812.976 401.011 812.24 400.147 808.56L400.979 808.272ZM394.771 798.992L395.859 798.64C396.307 799.36 396.835 800.272 397.075 800.864L395.939 801.28C395.699 800.672 395.203 799.696 394.771 798.992ZM409.043 814.864L413.843 799.296H414.883L410.099 814.864H409.043ZM419.485 801.024H423.421V802.16H419.485V801.024ZM425.693 798.576H426.957V813.264H425.693V798.576ZM418.525 805.632L419.261 804.832C420.269 805.472 421.597 806.464 422.221 807.12L421.469 808.032C420.861 807.344 419.549 806.336 418.525 805.632ZM419.629 798.56L420.813 798.784C420.157 801.808 419.037 804.608 417.565 806.432C417.357 806.224 416.829 805.856 416.557 805.68C418.029 804.016 419.053 801.36 419.629 798.56ZM423.021 801.024H423.261L423.485 800.976L424.333 801.232C423.469 807.536 420.973 811.296 417.533 813.168C417.341 812.864 416.845 812.368 416.541 812.176C419.933 810.448 422.301 807.056 423.021 801.312V801.024ZM426.477 804.128L427.389 803.424C428.749 804.496 430.525 806.032 431.373 807.04L430.397 807.872C429.581 806.848 427.853 805.248 426.477 804.128ZM433.421 801.184H439.837V802.304H433.421V801.184ZM435.709 804.416H438.477V805.52H435.709V804.416ZM443.293 804.032H444.397V812.016H443.293V804.032ZM435.149 801.824H436.285C436.237 806.944 436.077 810.896 434.045 813.28C433.853 813.008 433.453 812.656 433.165 812.48C435.037 810.32 435.117 806.608 435.149 801.824ZM438.077 804.416H439.181C439.181 804.416 439.181 804.8 439.165 804.96C439.069 810.288 438.957 812.064 438.557 812.608C438.317 812.96 438.045 813.088 437.629 813.136C437.245 813.184 436.637 813.168 435.997 813.136C435.965 812.816 435.853 812.352 435.709 812.048C436.301 812.096 436.861 812.096 437.101 812.096C437.325 812.112 437.453 812.064 437.581 811.888C437.853 811.504 437.965 809.76 438.077 804.656V804.416ZM441.293 800.64H448.061V801.744H441.293V800.64ZM440.525 803.456H447.037V804.528H440.525V803.456ZM443.805 807.344H447.453V808.384H443.805V807.344ZM441.549 798.56L442.733 798.784C442.205 800.832 441.293 802.768 440.189 804.016C439.981 803.808 439.501 803.44 439.229 803.264C440.301 802.128 441.101 800.384 441.549 798.56ZM446.797 803.456H446.989L447.165 803.408L447.949 803.664C447.565 804.656 447.117 805.792 446.717 806.496L445.773 806.144C446.109 805.488 446.509 804.496 446.797 803.632V803.456ZM440.813 806.048H441.885C441.757 808.976 441.437 811.68 439.901 813.232C439.741 812.992 439.389 812.624 439.133 812.464C440.461 811.104 440.733 808.624 440.813 806.048ZM441.645 808.272C442.349 811.328 443.853 811.888 445.805 811.888C446.109 811.888 447.773 811.888 448.237 811.872C448.061 812.144 447.917 812.672 447.869 812.976H445.725C443.325 812.976 441.677 812.24 440.813 808.56L441.645 808.272ZM435.437 798.992L436.525 798.64C436.973 799.36 437.501 800.272 437.741 800.864L436.605 801.28C436.365 800.672 435.869 799.696 435.437 798.992Z" fill="#231815"/>
<path d="M537.115 801.088H551.419V802.208H537.115V801.088ZM538.763 806.24H543.243V807.184H538.763V806.24ZM538.763 808.8H543.243V809.744H538.763V808.8ZM545.915 803.776H547.051V810.352H545.915V803.776ZM542.811 803.632H543.979V811.904C543.979 812.512 543.835 812.832 543.387 813.024C542.955 813.216 542.251 813.216 541.163 813.216C541.099 812.912 540.923 812.464 540.763 812.16C541.563 812.192 542.299 812.192 542.523 812.176C542.747 812.16 542.811 812.096 542.811 811.888V803.632ZM549.163 803.296H550.347V811.792C550.347 812.496 550.187 812.832 549.691 813.024C549.195 813.2 548.395 813.232 547.147 813.232C547.083 812.912 546.891 812.4 546.715 812.08C547.691 812.112 548.555 812.112 548.827 812.096C549.083 812.08 549.163 812.016 549.163 811.792V803.296ZM539.595 798.96L540.699 798.544C541.323 799.232 541.995 800.176 542.299 800.8L541.115 801.232C540.859 800.624 540.203 799.648 539.595 798.96ZM547.819 798.496L549.099 798.912C548.491 799.904 547.771 801.008 547.179 801.76L546.123 801.36C546.699 800.592 547.419 799.36 547.819 798.496ZM538.123 803.632H543.195V804.672H539.259V813.2H538.123V803.632ZM558.571 806.048H559.643C559.643 806.048 559.643 806.384 559.627 806.544C559.371 810.608 559.131 812.128 558.635 812.64C558.363 812.96 558.059 813.072 557.579 813.104C557.179 813.136 556.427 813.12 555.659 813.088C555.643 812.768 555.531 812.352 555.339 812.064C556.139 812.144 556.875 812.16 557.163 812.16C557.435 812.16 557.595 812.144 557.739 811.968C558.107 811.6 558.363 810.128 558.571 806.24V806.048ZM553.547 809.632C554.635 809.392 556.187 808.992 557.755 808.576L557.851 809.504C556.427 809.92 554.971 810.32 553.787 810.64L553.547 809.632ZM554.155 799.264H558.363V800.304H554.155V799.264ZM557.931 799.248H559.003C558.843 801.472 558.603 804.48 558.379 806.16L557.307 806.224C557.563 804.448 557.835 801.424 557.931 799.248ZM554.715 801.52L555.755 801.584C555.643 803.328 555.435 805.664 555.243 807.04H554.203C554.411 805.616 554.619 803.248 554.715 801.52ZM554.619 806.048H558.843V807.04H554.619V806.048ZM568.091 799.488V800.608H561.499V811.536H568.427V812.64H560.379V799.488H568.091ZM562.027 802.48L562.891 801.936C564.843 804.384 567.083 807.68 568.027 809.712L567.067 810.384C566.155 808.32 563.963 804.944 562.027 802.48ZM566.395 801.536L567.483 801.808C566.347 805.232 564.651 808.544 562.795 810.752C562.603 810.544 562.139 810.16 561.867 809.984C563.755 807.936 565.371 804.752 566.395 801.536ZM570.043 814.864L574.843 799.296H575.883L571.099 814.864H570.043ZM579.941 803.008H592.197V804.16H579.941V803.008ZM582.501 811.344H590.277V812.48H582.501V811.344ZM590.069 798.704L591.077 799.68C588.069 800.384 583.525 800.848 579.653 801.056C579.621 800.752 579.461 800.288 579.333 800.016C583.141 799.776 587.589 799.312 590.069 798.704ZM581.909 806.448H591.013V813.28H589.765V807.568H583.109V813.296H581.909V806.448ZM579.333 800.016H580.565V804.16C580.565 806.816 580.293 810.72 578.437 813.312C578.229 813.072 577.733 812.64 577.445 812.496C579.173 810.064 579.333 806.64 579.333 804.16V800.016ZM603.189 798.64H604.373V813.28H603.189V798.64ZM598.933 801.104H608.757V809.552H607.589V802.208H600.069V809.664H598.933V801.104ZM599.685 804.416H608.117V805.488H599.685V804.416ZM599.733 807.728H608.165V808.832H599.733V807.728ZM597.957 798.624L599.093 798.976C598.037 801.696 596.389 804.4 594.661 806.192C594.533 805.92 594.197 805.28 593.973 805.008C595.557 803.456 597.061 801.056 597.957 798.624ZM596.293 802.752L597.413 801.616L597.445 801.632V813.264H596.293V802.752Z" fill="#231815"/>
<path d="M144 320V342" stroke="#231815" stroke-width="2"/>
<path d="M144 597V619" stroke="#231815" stroke-width="2"/>
</g>
<defs>
<filter id="filter0_d_577_157" x="1126.43" y="663.156" width="296.595" height="185.221" filterUnits="userSpaceOnUse" color-interpolation-filters="sRGB">
<feFlood flood-opacity="0" result="BackgroundImageFix"/>
<feColorMatrix in="SourceAlpha" type="matrix" values="0 0 0 0 0 0 0 0 0 0 0 0 0 0 0 0 0 0 127 0" result="hardAlpha"/>
<feOffset dy="4"/>
<feGaussianBlur stdDeviation="2.5"/>
<feComposite in2="hardAlpha" operator="out"/>
<feColorMatrix type="matrix" values="0 0 0 0 0 0 0 0 0 0 0 0 0 0 0 0 0 0 0.25 0"/>
<feBlend mode="normal" in2="BackgroundImageFix" result="effect1_dropShadow_577_157"/>
<feBlend mode="normal" in="SourceGraphic" in2="effect1_dropShadow_577_157" result="shape"/>
</filter>
<filter id="filter1_d_577_157" x="1476" y="156" width="265" height="146" filterUnits="userSpaceOnUse" color-interpolation-filters="sRGB">
<feFlood flood-opacity="0" result="BackgroundImageFix"/>
<feColorMatrix in="SourceAlpha" type="matrix" values="0 0 0 0 0 0 0 0 0 0 0 0 0 0 0 0 0 0 127 0" result="hardAlpha"/>
<feOffset dy="4"/>
<feGaussianBlur stdDeviation="2"/>
<feComposite in2="hardAlpha" operator="out"/>
<feColorMatrix type="matrix" values="0 0 0 0 0.458824 0 0 0 0 0.392157 0 0 0 0 0.901961 0 0 0 0.1 0"/>
<feBlend mode="normal" in2="BackgroundImageFix" result="effect1_dropShadow_577_157"/>
<feBlend mode="normal" in="SourceGraphic" in2="effect1_dropShadow_577_157" result="shape"/>
</filter>
<radialGradient id="paint0_radial_577_157" cx="0" cy="0" r="1" gradientUnits="userSpaceOnUse" gradientTransform="translate(1220 540) rotate(90) scale(1214.98)">
<stop stop-color="#D9D9D9"/>
<stop offset="1" stop-color="#D9D9D9" stop-opacity="0"/>
</radialGradient>
<linearGradient id="paint1_linear_577_157" x1="1375.08" y1="698.378" x2="1272.05" y2="698.378" gradientUnits="userSpaceOnUse">
<stop stop-color="#E1A59B" stop-opacity="0.49"/>
<stop offset="1" stop-color="#E1A59B"/>
</linearGradient>
<linearGradient id="paint2_linear_577_157" x1="1373.09" y1="469.504" x2="1432" y2="453" gradientUnits="userSpaceOnUse">
<stop stop-color="#E1A59B"/>
<stop offset="0.927083" stop-color="#E9C3BF"/>
</linearGradient>
<linearGradient id="paint3_linear_577_157" x1="1426.12" y1="626.577" x2="1472.45" y2="620.432" gradientUnits="userSpaceOnUse">
<stop stop-color="#E1A59B"/>
<stop offset="1" stop-color="#E1A59B" stop-opacity="0.61"/>
</linearGradient>
<linearGradient id="paint4_linear_577_157" x1="1092.48" y1="566.202" x2="1144.73" y2="577.242" gradientUnits="userSpaceOnUse">
<stop stop-color="#E1A59B" stop-opacity="0.79"/>
<stop offset="0.484375" stop-color="#E1A59B"/>
<stop offset="1" stop-color="#E1A59B"/>
</linearGradient>
<linearGradient id="paint5_linear_577_157" x1="1068.61" y1="704.809" x2="1103.36" y2="712.361" gradientUnits="userSpaceOnUse">
<stop stop-color="#E1A59B" stop-opacity="0.79"/>
<stop offset="0.854167" stop-color="#E1A59B"/>
<stop offset="1" stop-color="#E1A59B"/>
</linearGradient>
<linearGradient id="paint6_linear_577_157" x1="1051.91" y1="789.947" x2="1082.1" y2="800.071" gradientUnits="userSpaceOnUse">
<stop stop-color="#E1A59B" stop-opacity="0.79"/>
<stop offset="0.385417" stop-color="#E1A59B"/>
<stop offset="1" stop-color="#E1A59B"/>
</linearGradient>
<linearGradient id="paint7_linear_577_157" x1="1166.44" y1="392.221" x2="1143.63" y2="391.117" gradientUnits="userSpaceOnUse">
<stop stop-color="#E1A59B"/>
<stop offset="1" stop-color="#E1A59B" stop-opacity="0.32"/>
</linearGradient>
<linearGradient id="paint8_linear_577_157" x1="1330.72" y1="351.745" x2="1330.72" y2="570.992" gradientUnits="userSpaceOnUse">
<stop stop-color="#F8F2F2"/>
<stop offset="1" stop-color="#F1E1E2"/>
</linearGradient>
<linearGradient id="paint9_linear_577_157" x1="1213.77" y1="351.745" x2="1213.77" y2="570.992" gradientUnits="userSpaceOnUse">
<stop stop-color="#F8F2F2"/>
<stop offset="1" stop-color="#F1E1E2"/>
</linearGradient>
<linearGradient id="paint10_linear_577_157" x1="1125.23" y1="968.841" x2="1232.23" y2="984.257" gradientUnits="userSpaceOnUse">
<stop stop-color="#E1A59B"/>
<stop offset="0.186694" stop-color="#E1A59B" stop-opacity="0.79"/>
<stop offset="1" stop-color="#E1A59B"/>
</linearGradient>
<linearGradient id="paint11_linear_577_157" x1="1308.85" y1="951.178" x2="1400.5" y2="964.712" gradientUnits="userSpaceOnUse">
<stop stop-color="#E1A59B"/>
<stop offset="0.52436" stop-color="#E1A59B" stop-opacity="0.79"/>
<stop offset="1" stop-color="#E1A59B"/>
</linearGradient>
<linearGradient id="paint12_linear_577_157" x1="1274.73" y1="668.432" x2="1274.73" y2="839.377" gradientUnits="userSpaceOnUse">
<stop stop-color="#F8F2F2"/>
<stop offset="1" stop-color="#F1E1E2"/>
</linearGradient>
<linearGradient id="paint13_linear_577_157" x1="1271.77" y1="171.735" x2="1271.77" y2="308.511" gradientUnits="userSpaceOnUse">
<stop offset="0.390625" stop-color="#ECBEB7"/>
<stop offset="1" stop-color="#E1A59B"/>
</linearGradient>
<linearGradient id="paint14_linear_577_157" x1="1163.13" y1="1246.89" x2="1231.18" y2="1241.21" gradientUnits="userSpaceOnUse">
<stop stop-color="#E1A59B"/>
<stop offset="0.52436" stop-color="#E1A59B" stop-opacity="0.79"/>
<stop offset="1" stop-color="#E1A59B"/>
</linearGradient>
<linearGradient id="paint15_linear_577_157" x1="1308.25" y1="1246.89" x2="1374.95" y2="1251.79" gradientUnits="userSpaceOnUse">
<stop stop-color="#E1A59B"/>
<stop offset="0.614583" stop-color="#E1A59B" stop-opacity="0.79"/>
<stop offset="1" stop-color="#E1A59B"/>
</linearGradient>
<clipPath id="clip0_577_157">
<rect width="1920" height="1080" fill="white"/>
</clipPath>
</defs>
</svg>
