<svg width="1920" height="1080" viewBox="0 0 1920 1080" fill="none" xmlns="http://www.w3.org/2000/svg">
<g clip-path="url(#clip0_665_142)">
<rect width="1920" height="1080" fill="#F7F6FB"/>
<mask id="mask0_665_142" style="mask-type:alpha" maskUnits="userSpaceOnUse" x="573" y="-107" width="1294" height="1294">
<circle cx="1220" cy="540" r="647" fill="url(#paint0_radial_665_142)"/>
</mask>
<g mask="url(#mask0_665_142)">
<mask id="mask1_665_142" style="mask-type:alpha" maskUnits="userSpaceOnUse" x="-1502" y="-580" width="6738" height="2051">
<rect x="-1501.35" y="-579.903" width="6736.89" height="2050.89" fill="#E7E7E7"/>
</mask>
<g mask="url(#mask1_665_142)">
<path d="M654.016 -1385.17L654.016 3376.26" stroke="black" stroke-opacity="0.18" stroke-miterlimit="10"/>
<path d="M773.165 -1385.17L773.165 3376.26" stroke="black" stroke-opacity="0.18" stroke-miterlimit="10"/>
<path d="M892.398 -1385.17L892.398 3376.26" stroke="black" stroke-opacity="0.18" stroke-miterlimit="10"/>
<path d="M1011.63 -1385.17L1011.63 3376.26" stroke="black" stroke-opacity="0.18" stroke-miterlimit="10"/>
<path d="M1130.78 -1385.17L1130.78 3376.26" stroke="black" stroke-opacity="0.18" stroke-miterlimit="10"/>
<path d="M1250.01 -1385.17L1250.01 3376.26" stroke="black" stroke-opacity="0.18" stroke-miterlimit="10"/>
<path d="M1369.24 -1385.17L1369.24 3376.26" stroke="black" stroke-opacity="0.18" stroke-miterlimit="10"/>
<path d="M1488.39 -1385.17L1488.39 3376.26" stroke="black" stroke-opacity="0.18" stroke-miterlimit="10"/>
<path d="M1607.62 -1385.17L1607.62 3376.26" stroke="black" stroke-opacity="0.18" stroke-miterlimit="10"/>
<path d="M1726.86 -1385.17L1726.86 3376.26" stroke="black" stroke-opacity="0.18" stroke-miterlimit="10"/>
<path d="M1846.01 -1385.17L1846.01 3376.26" stroke="black" stroke-opacity="0.18" stroke-miterlimit="10"/>
<path d="M-1501.35 957.234L5235.54 957.234" stroke="black" stroke-opacity="0.18" stroke-miterlimit="10"/>
<path d="M-1501.35 829.256L5235.54 829.256" stroke="black" stroke-opacity="0.18" stroke-miterlimit="10"/>
<path d="M-1501.35 701.278L5235.54 701.277" stroke="black" stroke-opacity="0.18" stroke-miterlimit="10"/>
<path d="M-1501.35 573.299L5235.54 573.299" stroke="black" stroke-opacity="0.18" stroke-miterlimit="10"/>
<path d="M-1501.35 445.321L5235.54 445.32" stroke="black" stroke-opacity="0.18" stroke-miterlimit="10"/>
<path d="M-1501.35 317.342L5235.54 317.342" stroke="black" stroke-opacity="0.18" stroke-miterlimit="10"/>
<path d="M-1501.35 189.363L5235.54 189.363" stroke="black" stroke-opacity="0.18" stroke-miterlimit="10"/>
<path d="M-1501.35 61.3848L5235.54 61.3845" stroke="black" stroke-opacity="0.18" stroke-miterlimit="10"/>
</g>
</g>
<rect x="102" y="257" width="620" height="567" rx="20" fill="white"/>
<path d="M148.68 322.508H153.144V339.356C153.144 341.588 153.756 341.948 157.752 341.948C159.624 341.948 167.508 341.948 169.632 341.948C173.34 341.948 173.916 341.012 174.42 335.72C175.536 336.44 177.552 337.196 178.812 337.412C177.984 344.252 176.4 346.232 169.812 346.232C168.048 346.232 159.408 346.232 157.788 346.232C150.804 346.232 148.68 344.864 148.68 339.356V322.508ZM151.272 327.404H171.18V331.688H151.272V327.404ZM147.24 315.452H174.06V333.344H169.56V319.736H147.24V315.452ZM200.376 335.072H213.444V338.744H200.376V335.072ZM200.412 328.988H213.408V332.3H200.412V328.988ZM200.412 322.724H213.444V326.36H200.412V322.724ZM204.48 324.452H208.224V345.62H204.48V324.452ZM211.464 322.724H215.568V342.848C215.568 344.684 215.28 345.692 214.2 346.304C213.12 346.916 211.572 346.952 209.556 346.952C209.448 345.908 209.052 344.324 208.62 343.28C209.592 343.316 210.672 343.316 210.996 343.316C211.356 343.316 211.464 343.172 211.464 342.812V322.724ZM197.496 322.724H201.456V331.724C201.456 336.512 200.88 343.136 197.388 347.276C196.668 346.628 194.94 345.476 193.968 345.044C197.208 341.264 197.496 335.828 197.496 331.688V322.724ZM200.772 313.364L204.48 314.336C202.716 319.268 199.764 323.912 196.272 326.864C195.84 326.036 194.616 324.308 193.932 323.516C196.884 321.14 199.404 317.396 200.772 313.364ZM201.636 316.388H209.916V319.88H199.872L201.636 316.388ZM208.8 316.388H209.736L210.348 316.244L213.12 318.08C211.86 320.276 209.772 323.12 208.116 324.884C207.36 324.308 206.1 323.48 205.236 322.976C206.568 321.392 208.116 318.764 208.8 317.144V316.388ZM183.42 315.02H196.128V318.944H183.42V315.02ZM187.452 326.252H195.3V342.848H187.452V339.068H191.7V330.032H187.452V326.252ZM187.56 317.036L191.484 317.936C190.152 324.776 187.884 331.796 184.176 336.26C183.996 335.108 183.204 332.372 182.628 331.112C185.184 327.728 186.696 322.508 187.56 317.036ZM185.652 326.252H189.216V345.548H185.652V326.252ZM241.272 313.58H245.664C245.52 326.36 245.34 339.644 235.692 347.168C234.972 346.088 233.64 344.72 232.452 343.964C241.524 337.304 241.164 325.28 241.272 313.58ZM245.34 323.768C245.7 327.44 246.852 338.42 254.88 344C253.656 344.828 252.468 346.124 251.748 347.24C243.36 341.012 242.1 328.412 241.524 324.092L245.34 323.768ZM223.812 316.568L226.656 313.868C228.456 315.452 231.228 317.72 232.56 319.124L229.572 322.22C228.348 320.78 225.648 318.296 223.812 316.568ZM226.404 346.592L225.468 342.668L226.44 341.3L233.784 336.152C234.036 337.304 234.648 338.996 235.044 339.824C228.24 344.792 227.052 345.8 226.404 346.592ZM221.004 324.524H229.536V328.664H221.004V324.524ZM226.404 346.592C226.044 345.728 224.928 344.252 224.208 343.604C225.108 342.92 226.368 341.48 226.368 339.572V324.524H230.544V341.876C230.544 341.876 226.404 345.08 226.404 346.592ZM272.844 316.208H289.188V320.384H272.844V316.208ZM286.668 316.208H290.916C290.916 316.208 290.88 317.792 290.88 318.332C290.52 336.548 290.196 342.812 288.9 344.72C287.964 346.124 287.064 346.592 285.696 346.844C284.4 347.06 282.42 347.024 280.476 346.952C280.404 345.8 279.9 344 279.18 342.848C281.088 342.992 282.78 343.028 283.644 343.028C284.256 343.028 284.652 342.848 285.012 342.308C286.092 341.012 286.416 334.46 286.668 317.252V316.208ZM277.416 318.332L281.844 318.404C281.484 331.796 279.936 341.3 273.132 347.168C272.556 346.34 270.756 344.54 269.784 343.748C276.12 338.96 277.272 330.176 277.416 318.332ZM263.736 331.616L268.2 326.36V347.24H263.736V331.616ZM271.512 326.648L274.32 328.988C272.736 330.284 271.332 331.652 270.18 332.516L268.272 330.752C269.28 329.672 270.756 327.836 271.512 326.648ZM259.2 319.52H269.784V323.372H259.2V319.52ZM267.372 328.952C268.668 329.888 272.772 333.92 273.708 334.928L271.26 338.348C269.964 336.332 266.904 332.588 265.356 330.896L267.372 328.952ZM268.38 319.52H269.208L269.964 319.34L272.34 321.068C269.784 327.728 264.816 334.352 260.208 337.988C259.884 336.8 258.84 334.532 258.192 333.704C262.368 330.86 266.58 325.28 268.38 320.384V319.52ZM262.548 315.128L265.932 313.256C267.12 314.732 268.488 316.676 269.172 317.936L265.68 320.168C265.068 318.836 263.664 316.676 262.548 315.128ZM314.064 341.984H326.016V345.764H314.064V341.984ZM311.328 332.12H328.176V347.204H324.072V335.9H315.252V347.204H311.328V332.12ZM321.192 320.24L324.648 318.512C327.132 321.68 329.544 325.856 330.624 328.736L326.916 330.716C325.98 327.8 323.568 323.408 321.192 320.24ZM310.752 330.104C310.5 329.24 309.816 327.188 309.348 326.072C310.14 325.856 310.788 325.1 311.652 323.804C312.516 322.58 315.072 317.936 316.548 313.436L321.084 314.624C319.032 319.484 316.188 324.416 313.596 327.8V327.872C313.596 327.872 310.752 329.276 310.752 330.104ZM310.752 330.104L310.644 326.684L312.948 325.28L327.42 324.308C327.636 325.496 327.996 327.188 328.32 328.088C314.136 329.348 312.156 329.528 310.752 330.104ZM296.856 333.092C298.332 328.124 299.88 320.024 300.42 313.652L304.488 313.904C303.732 320.636 302.04 328.988 300.492 334.46L296.856 333.092ZM296.496 320.6H306.396V324.56H296.496V320.6ZM305.388 320.6H306.108L306.828 320.528L309.312 320.816C308.592 334.892 305.532 342.812 298.764 347.204C298.188 346.16 297.072 344.576 296.244 343.784C301.968 340.616 304.848 332.732 305.388 321.356V320.6ZM296.856 333.092L299.16 330.068C302.94 333.02 307.836 337.196 309.888 340.184L307.332 343.712C305.28 340.652 300.636 336.188 296.856 333.092ZM342.036 321.716H362.952V325.568H342.036V321.716ZM342.036 328.7H362.268V332.408H342.036V328.7ZM341.496 335.612H362.412V339.428H341.496V335.612ZM339.444 321.716H343.872V331.148C343.872 336.296 343.08 343.352 338.508 347.564C337.824 346.7 336.06 345.008 335.16 344.432C339.084 340.76 339.444 335.396 339.444 331.112V321.716ZM360.72 321.716H365.148V342.416C365.148 344.576 364.68 345.764 363.276 346.448C361.8 347.132 359.748 347.204 356.904 347.204C356.724 346.016 356.004 344.108 355.428 342.992C357.192 343.1 359.316 343.064 359.892 343.064C360.504 343.064 360.72 342.884 360.72 342.344V321.716ZM349.92 323.264H354.312V346.412H349.92V323.264ZM344.844 315.524H357.696V319.052H344.844V315.524ZM344.016 313.256L348.768 314.156C346.32 318.872 342.864 323.444 337.752 327.188C337.068 326.144 335.592 324.596 334.584 323.948C339.228 320.888 342.324 316.856 344.016 313.256ZM356.364 315.524H357.336L358.02 315.308L360.936 317.36C359.352 319.808 356.58 322.868 354.348 324.776C353.628 324.128 352.296 323.228 351.432 322.724C353.304 320.96 355.428 318.116 356.364 316.316V315.524ZM379.8 323.768H404.82V327.152H379.8V323.768ZM380.088 334.244H399.852V337.628H380.088V334.244ZM384.696 321.392H388.764V329.564H395.352V321.392H399.6V332.804H384.696V321.392ZM398.736 334.244H399.564L400.32 334.1L403.02 335.468C399.06 343.028 390.204 345.872 380.052 346.988C379.728 345.98 378.972 344.324 378.324 343.388C387.54 342.704 395.748 340.328 398.736 334.784V334.244ZM386.172 336.764C389.664 340.76 396.936 342.848 405.756 343.46C404.856 344.36 403.776 346.124 403.272 347.204C394.02 346.268 386.892 343.532 382.464 338.168L386.172 336.764ZM376.812 316.532H405.18V320.528H376.812V316.532ZM374.796 316.532H379.08V326.144C379.08 332.228 378.612 341.264 375.624 347.168C374.724 346.52 372.78 345.62 371.664 345.296C374.544 339.788 374.796 331.688 374.796 326.18V316.532ZM387.432 314.12L391.824 313.148C392.58 314.732 393.372 316.748 393.588 318.08L388.944 319.196C388.764 317.864 388.116 315.704 387.432 314.12ZM415.548 348.968L414.396 346.088C417.42 345.116 419.076 343.352 419.076 341.3L418.824 337.736L420.804 340.976C420.228 341.516 419.472 341.768 418.68 341.768C416.88 341.768 415.224 340.616 415.224 338.528C415.224 336.512 416.844 335.288 418.788 335.288C421.308 335.288 422.676 337.232 422.676 340.256C422.676 344.324 420.012 347.636 415.548 348.968ZM146.88 378.568L149.652 375.94C151.596 377.56 154.224 379.864 155.448 381.412L152.496 384.4C151.38 382.816 148.824 380.332 146.88 378.568ZM149.868 408.88L148.932 404.92L149.796 403.552L156.852 398.188C157.14 399.34 157.788 401.032 158.256 401.896C151.704 407.008 150.516 408.016 149.868 408.88ZM145.224 386.524H152.316V390.664H145.224V386.524ZM149.868 408.88C149.544 407.872 148.5 406.072 147.78 405.244C148.572 404.704 149.616 403.48 149.616 401.824V386.524H153.756V404.74C153.756 404.74 149.868 407.368 149.868 408.88ZM162.144 396.316H173.232V399.088H162.144V396.316ZM157.536 377.884H177.696V380.98H157.536V377.884ZM158.508 382.42H176.616V385.336H158.508V382.42ZM156.42 386.848H178.848V389.944H156.42V386.848ZM162.072 401.104H173.196V403.984H162.072V401.104ZM158.868 391.348H173.16V394.48H162.864V409.276H158.868V391.348ZM172.26 391.348H176.364V405.1C176.364 406.972 176.004 408.016 174.672 408.592C173.412 409.204 171.612 409.24 169.092 409.24C168.948 408.16 168.444 406.576 167.94 405.568C169.416 405.64 171.144 405.64 171.612 405.604C172.08 405.604 172.26 405.46 172.26 405.028V391.348ZM165.384 375.436H169.668V387.856H165.384V375.436ZM193.176 387.784H216.324V391.492H193.176V387.784ZM197.496 379.936H214.812V383.572H197.496V379.936ZM203.04 375.616H207.324V389.188H203.04V375.616ZM196.956 376.552L201.06 377.416C200.016 381.124 198.144 384.796 196.2 387.1C195.372 386.452 193.644 385.3 192.636 384.796C194.616 382.816 196.128 379.684 196.956 376.552ZM205.812 389.98H210.06V397.828C210.06 398.836 210.132 398.944 210.744 398.944C210.96 398.944 211.932 398.944 212.22 398.944C212.832 398.944 212.976 398.512 213.084 395.2C213.876 395.92 215.676 396.568 216.828 396.856C216.432 401.68 215.352 402.94 212.688 402.94C212.004 402.94 210.636 402.94 209.988 402.94C206.532 402.94 205.812 401.644 205.812 397.864V389.98ZM199.332 389.836H203.652C203.112 395.704 201.708 400.42 195.048 403.192C194.58 402.076 193.392 400.456 192.456 399.628C198.036 397.612 198.9 394.156 199.332 389.836ZM183.348 378.892L186.66 376.48C188.676 378.1 191.16 380.476 192.312 382.168L188.748 384.904C187.74 383.14 185.364 380.656 183.348 378.892ZM191.556 389.332V403.012H187.416V393.328H183.42V389.332H191.556ZM191.16 401.392C192.276 401.392 193.176 402.328 195.012 403.408C197.28 404.812 200.376 404.992 204.12 404.992C207.72 404.992 213.3 404.704 216.792 404.2C216.324 405.352 215.64 407.476 215.604 408.628C212.94 408.808 207.54 409.024 204.012 409.024C199.728 409.024 196.884 408.556 194.472 407.188C192.996 406.288 191.844 405.244 191.052 405.244C189.72 405.244 187.74 407.368 185.796 409.6L182.952 405.856C185.688 403.336 188.856 401.392 191.16 401.392ZM220.5 393.616C223.596 392.932 228.132 391.708 232.524 390.52L233.064 394.408C229.068 395.596 224.82 396.82 221.436 397.756L220.5 393.616ZM221.004 382.204H233.1V386.164H221.004V382.204ZM225.072 375.472H229.284V404.632C229.284 406.648 228.924 407.764 227.808 408.448C226.656 409.132 225.036 409.24 222.66 409.24C222.516 408.124 222.012 406.36 221.508 405.172C222.732 405.244 224.064 405.244 224.496 405.208C224.928 405.208 225.072 405.064 225.072 404.596V375.472ZM234 376.876H249.624V380.692H234V376.876ZM248.832 376.876H249.552L250.236 376.732L252.828 378.1C249.444 385.48 242.028 390.34 234.252 392.788C233.82 391.744 232.812 390.16 232.02 389.332C239.256 387.496 246.276 383.104 248.832 377.488V376.876ZM239.04 378.784C241.92 383.86 247.788 387.676 255.096 389.224C254.232 390.088 253.044 391.744 252.468 392.824C244.944 390.772 239.148 386.272 235.728 379.936L239.04 378.784ZM234.432 393.868H251.928V397.648H234.432V393.868ZM232.632 400.132H254.232V403.984H232.632V400.132ZM241.128 391.06H245.484V409.276H241.128V391.06ZM273.672 375.436L277.632 376.408C276.3 380.224 274.032 383.896 271.584 386.236C270.9 385.516 269.352 384.148 268.452 383.536C270.72 381.592 272.628 378.532 273.672 375.436ZM273.564 385.624L277.488 386.74C276.228 389.512 274.176 392.356 272.232 394.156C271.548 393.436 269.964 392.212 269.064 391.6C270.9 390.124 272.628 387.856 273.564 385.624ZM274.284 378.352H288.648V381.988H272.844L274.284 378.352ZM278.928 382.852H283.068V392.32C283.068 394.156 282.78 395.164 281.448 395.776C280.224 396.352 278.568 396.388 276.372 396.388C276.192 395.272 275.58 393.688 275.04 392.68C276.408 392.716 277.92 392.716 278.352 392.716C278.784 392.68 278.928 392.572 278.928 392.212V382.852ZM283.86 387.208L287.316 385.588C289.044 387.676 290.844 390.448 291.672 392.32L288.036 394.264C287.28 392.356 285.48 389.368 283.86 387.208ZM287.532 378.352H288.144L288.828 378.244L291.852 378.892C291.024 381.196 289.908 383.788 289.044 385.444L285.372 384.688C286.092 383.212 287.028 380.8 287.532 378.856V378.352ZM266.652 375.256L270.468 376.552C268.164 381.124 264.42 385.732 260.856 388.612C260.388 387.748 259.056 385.948 258.264 385.12C261.54 382.78 264.744 379.036 266.652 375.256ZM263.448 382.96L267.48 378.892L267.588 378.928V396.568H263.448V382.96ZM266.472 398.08H270.828V403.408C270.828 404.524 271.188 404.668 273.312 404.668C274.284 404.668 278.316 404.668 279.576 404.668C281.34 404.668 281.628 404.2 281.844 400.744C282.744 401.428 284.616 402.076 285.768 402.292C285.264 407.368 284.004 408.592 279.9 408.592C278.82 408.592 273.96 408.592 272.916 408.592C267.768 408.592 266.472 407.404 266.472 403.516V398.08ZM272.232 396.928L275.508 395.056C277.344 396.784 279.468 399.232 280.368 400.996L276.768 403.084C276.012 401.356 273.996 398.764 272.232 396.928ZM284.256 398.692L288.072 397.18C289.692 399.808 291.384 403.192 291.96 405.532L287.856 407.188C287.388 404.92 285.84 401.356 284.256 398.692ZM262.044 397.972L265.896 399.556C265.032 402.112 263.808 405.532 262.656 407.764L258.588 405.856C259.92 403.732 261.252 400.564 262.044 397.972ZM297.288 382.42H329.148V386.812H297.288V382.42ZM303.3 398.764H322.92V403.156H303.3V398.764ZM310.86 375.436H315.468V409.24H310.86V375.436ZM307.224 384.004L311.184 385.156C308.7 392.824 304.524 399.736 299.232 403.876C298.476 402.796 297.036 401.212 296.028 400.348C300.96 397 305.136 390.484 307.224 384.004ZM318.996 384.112C321.084 390.376 325.224 396.604 330.192 399.916C329.076 400.78 327.528 402.508 326.736 403.732C321.552 399.664 317.52 392.752 315.072 385.228L318.996 384.112ZM348.696 375.436L353.376 376.264C352.008 382.78 349.596 389.008 346.716 392.896C345.816 392.212 343.62 390.988 342.468 390.484C345.456 387.064 347.616 381.304 348.696 375.436ZM349.488 381.052H363.996V385.336H347.4L349.488 381.052ZM362.628 381.052H363.24L364.104 380.8L367.272 382.636C366.336 386.488 364.788 390.412 363.492 393.148C362.592 392.644 360.828 391.78 359.82 391.384C360.828 389.044 362.16 385.048 362.628 382.024V381.052ZM334.44 381.016L337.032 377.848C339.48 379.144 342.792 381.196 344.412 382.708L341.64 386.272C340.164 384.724 336.924 382.456 334.44 381.016ZM334.008 403.048C336.024 400.348 338.868 395.92 341.172 391.744L344.592 394.624C342.576 398.476 340.236 402.472 338.04 406L334.008 403.048ZM356.868 389.296C358.308 396.82 361.476 402.688 368.136 405.136C367.164 405.964 365.832 407.8 365.256 408.988C357.984 405.784 354.888 399.124 353.124 389.872L356.868 389.296ZM352.764 386.452H357.408V388.792C357.408 394.516 356.22 403.84 345.06 409.564C344.376 408.484 342.792 406.9 341.676 406.108C351.792 401.212 352.764 393.4 352.764 388.684V386.452ZM375.948 381.268H387V405.532H375.948V401.716H383.076V385.048H375.948V381.268ZM373.428 381.268H377.352V408.196H373.428V381.268ZM375.768 390.88H384.984V394.624H375.768V390.88ZM378.54 375.4L383.256 376.084C382.428 378.532 381.528 381.088 380.808 382.78L377.352 382.024C377.856 380.152 378.36 377.38 378.54 375.4ZM391.752 381.016H402.264V384.94H391.752V381.016ZM400.788 381.016H404.784C404.784 381.016 404.784 382.42 404.748 382.96C404.28 399.16 403.848 404.884 402.372 406.792C401.364 408.196 400.356 408.592 398.88 408.808C397.512 409.024 395.316 408.988 393.228 408.88C393.156 407.692 392.58 405.856 391.788 404.704C394.128 404.884 396.288 404.92 397.188 404.92C397.908 404.92 398.304 404.776 398.772 404.272C399.924 403.048 400.392 396.856 400.788 381.844V381.016ZM391.86 375.436L396 376.408C394.596 381.736 392.256 387.208 389.808 390.664C389.016 389.944 387.252 388.72 386.244 388.144C388.656 385.12 390.708 380.224 391.86 375.436ZM390.096 391.384L393.48 389.476C395.244 391.96 397.62 395.416 398.736 397.54L395.064 399.772C394.092 397.576 391.824 394.048 390.096 391.384ZM430.812 378.424H434.808V404.38H430.812V378.424ZM438.012 376.3H442.332V408.808H438.012V376.3ZM423.396 376.552H427.68V389.116C427.68 396.028 427.32 403.372 423.792 409.168C422.784 408.376 420.84 407.224 419.544 406.756C423.036 401.572 423.396 395.344 423.396 389.08V376.552ZM411.228 378.676L413.892 375.796C416.052 377.38 419.112 379.684 420.552 381.232L417.708 384.472C416.376 382.888 413.424 380.404 411.228 378.676ZM414.36 408.988L413.28 404.92L414 403.552L420.624 397.792C421.02 398.98 421.776 400.636 422.316 401.428C416.088 406.972 414.936 408.088 414.36 408.988ZM409.716 386.524H416.268V390.664H409.716V386.524ZM414.36 409.024C413.964 408.124 412.848 406.612 412.164 406C412.956 405.316 413.928 403.984 413.928 402.04V386.524H418.068V404.344C418.068 404.344 414.36 407.476 414.36 409.024ZM448.848 399.916C448.632 399.124 448.02 397.252 447.552 396.244C448.416 396.028 449.136 395.2 450.108 393.94C451.152 392.644 454.284 387.82 456.192 383.104L459.72 385.192C457.488 389.728 454.464 394.444 451.44 397.828V397.936C451.44 397.936 448.848 399.196 448.848 399.916ZM448.812 399.916L448.524 396.532L450.252 395.236L459.036 393.58C458.928 394.696 458.892 396.316 459 397.18C451.08 398.944 449.676 399.412 448.812 399.916ZM448.56 391.132C448.344 390.304 447.66 388.324 447.156 387.244C447.876 387.028 448.452 386.236 449.1 385.048C449.748 383.896 451.764 379.288 452.7 375.076L456.696 376.84C455.328 381.052 453.024 385.732 450.792 388.936V389.08C450.792 389.08 448.56 390.376 448.56 391.132ZM448.56 391.132L448.452 388.216L450.18 387.064L456.3 386.632C456.12 387.64 455.904 389.152 455.904 389.98C450.432 390.556 449.28 390.808 448.56 391.132ZM447.588 403.3C450.216 402.472 454.248 400.96 458.28 399.484L459 402.688C455.4 404.416 451.62 406.144 448.56 407.548L447.588 403.3ZM461.34 396.856V393.544L463.392 392.392H479.52V396.28H464.76C463.212 396.28 461.664 396.496 461.34 396.856ZM459.72 379.108H480.024V383.032H459.72V379.108ZM461.34 396.856C461.16 396.1 460.512 394.228 460.044 393.184C460.872 392.932 461.412 391.816 462.168 389.98C462.888 388.252 465.084 381.412 466.02 375.22L470.232 375.796C468.828 382.564 466.452 389.62 464.22 394.588V394.66C464.22 394.66 461.34 396.1 461.34 396.856ZM473.976 399.34L477.36 397.756C478.728 400.204 480.492 403.516 481.356 405.532L477.756 407.368C477 405.352 475.308 401.896 473.976 399.34ZM468.648 385.588H472.824V404.704C472.824 406.72 472.428 407.764 471.168 408.412C469.872 409.06 468.072 409.096 465.588 409.096C465.408 407.98 464.904 406.324 464.4 405.244C465.84 405.28 467.496 405.28 468 405.28C468.468 405.244 468.648 405.1 468.648 404.668V385.588ZM462.744 397.684L466.668 398.836C465.192 401.896 463.068 405.424 460.836 407.656C460.116 406.936 458.712 405.892 457.848 405.352C459.864 403.336 461.808 400.132 462.744 397.684ZM460.296 385.588H471.168V389.512H460.296V385.588ZM499.896 391.456L503.172 389.08C506.376 391.96 510.732 396.064 512.856 398.764L509.256 401.536C507.348 398.836 503.136 394.516 499.896 391.456ZM500.004 375.436H504.432V384.076C504.432 390.052 502.92 397.432 494.712 402.328C494.1 401.392 492.624 399.808 491.616 399.052C499.392 395.056 500.004 388.756 500.004 384.04V375.436ZM487.368 381.412H514.728V385.66H491.688V409.312H487.368V381.412ZM512.82 381.412H517.104V404.308C517.104 406.648 516.6 407.836 515.124 408.556C513.612 409.24 511.308 409.276 508.104 409.276C507.96 408.088 507.276 406.108 506.7 404.992C508.824 405.1 511.236 405.1 511.92 405.1C512.604 405.064 512.82 404.848 512.82 404.236V381.412ZM533.412 382.96L537.48 384.292C535.212 387.568 531.54 390.628 528.192 392.464C527.58 391.636 526.14 389.908 525.276 389.152C528.444 387.712 531.612 385.408 533.412 382.96ZM542.196 385.444L545.148 382.996C548.172 384.796 552.204 387.568 554.184 389.548L551.016 392.356C549.216 390.376 545.292 387.424 542.196 385.444ZM529.56 396.82H550.548V409.204H546.156V400.6H533.736V409.24H529.56V396.82ZM531.828 404.452H548.136V408.232H531.828V404.452ZM524.556 378.316H555.444V386.092H551.016V382.204H528.768V386.092H524.556V378.316ZM536.832 375.976L541.368 375.004C542.196 376.408 543.024 378.28 543.348 379.576L538.56 380.62C538.308 379.396 537.552 377.452 536.832 375.976ZM539.244 386.272L542.988 387.892C539.1 394.228 532.8 398.764 525.672 401.608C525.096 400.528 523.98 399.052 523.008 398.116C529.668 395.848 535.932 391.78 539.244 386.272ZM541.368 387.64C545.616 392.5 550.8 395.344 556.92 397.576C555.912 398.476 554.76 399.916 554.22 401.176C547.848 398.332 542.736 395.056 537.912 389.26L541.368 387.64Z" fill="#231815"/>
<rect x="237" y="679" width="351" height="85" rx="20" fill="#FFA248"/>
<path d="M339.808 708.524H370.372V712.592H339.808V708.524ZM338.62 721.412H371.416V725.552H338.62V721.412ZM359.5 710.9H364V740.276H359.5V710.9ZM346.792 710.9H351.22V720.368C351.22 727.316 350.32 735.2 342.04 740.42C341.248 739.412 339.628 737.9 338.512 737.18C345.964 732.68 346.792 726.2 346.792 720.368V710.9ZM393.664 734.984H405.616V738.764H393.664V734.984ZM390.928 725.12H407.776V740.204H403.672V728.9H394.852V740.204H390.928V725.12ZM400.792 713.24L404.248 711.512C406.732 714.68 409.144 718.856 410.224 721.736L406.516 723.716C405.58 720.8 403.168 716.408 400.792 713.24ZM390.352 723.104C390.1 722.24 389.416 720.188 388.948 719.072C389.74 718.856 390.388 718.1 391.252 716.804C392.116 715.58 394.672 710.936 396.148 706.436L400.684 707.624C398.632 712.484 395.788 717.416 393.196 720.8V720.872C393.196 720.872 390.352 722.276 390.352 723.104ZM390.352 723.104L390.244 719.684L392.548 718.28L407.02 717.308C407.236 718.496 407.596 720.188 407.92 721.088C393.736 722.348 391.756 722.528 390.352 723.104ZM376.456 726.092C377.932 721.124 379.48 713.024 380.02 706.652L384.088 706.904C383.332 713.636 381.64 721.988 380.092 727.46L376.456 726.092ZM376.096 713.6H385.996V717.56H376.096V713.6ZM384.988 713.6H385.708L386.428 713.528L388.912 713.816C388.192 727.892 385.132 735.812 378.364 740.204C377.788 739.16 376.672 737.576 375.844 736.784C381.568 733.616 384.448 725.732 384.988 714.356V713.6ZM376.456 726.092L378.76 723.068C382.54 726.02 387.436 730.196 389.488 733.184L386.932 736.712C384.88 733.652 380.236 729.188 376.456 726.092ZM434.812 709.424H438.808V735.38H434.812V709.424ZM442.012 707.3H446.332V739.808H442.012V707.3ZM427.396 707.552H431.68V720.116C431.68 727.028 431.32 734.372 427.792 740.168C426.784 739.376 424.84 738.224 423.544 737.756C427.036 732.572 427.396 726.344 427.396 720.08V707.552ZM415.228 709.676L417.892 706.796C420.052 708.38 423.112 710.684 424.552 712.232L421.708 715.472C420.376 713.888 417.424 711.404 415.228 709.676ZM418.36 739.988L417.28 735.92L418 734.552L424.624 728.792C425.02 729.98 425.776 731.636 426.316 732.428C420.088 737.972 418.936 739.088 418.36 739.988ZM413.716 717.524H420.268V721.664H413.716V717.524ZM418.36 740.024C417.964 739.124 416.848 737.612 416.164 737C416.956 736.316 417.928 734.984 417.928 733.04V717.524H422.068V735.344C422.068 735.344 418.36 738.476 418.36 740.024ZM452.848 730.916C452.632 730.124 452.02 728.252 451.552 727.244C452.416 727.028 453.136 726.2 454.108 724.94C455.152 723.644 458.284 718.82 460.192 714.104L463.72 716.192C461.488 720.728 458.464 725.444 455.44 728.828V728.936C455.44 728.936 452.848 730.196 452.848 730.916ZM452.812 730.916L452.524 727.532L454.252 726.236L463.036 724.58C462.928 725.696 462.892 727.316 463 728.18C455.08 729.944 453.676 730.412 452.812 730.916ZM452.56 722.132C452.344 721.304 451.66 719.324 451.156 718.244C451.876 718.028 452.452 717.236 453.1 716.048C453.748 714.896 455.764 710.288 456.7 706.076L460.696 707.84C459.328 712.052 457.024 716.732 454.792 719.936V720.08C454.792 720.08 452.56 721.376 452.56 722.132ZM452.56 722.132L452.452 719.216L454.18 718.064L460.3 717.632C460.12 718.64 459.904 720.152 459.904 720.98C454.432 721.556 453.28 721.808 452.56 722.132ZM451.588 734.3C454.216 733.472 458.248 731.96 462.28 730.484L463 733.688C459.4 735.416 455.62 737.144 452.56 738.548L451.588 734.3ZM465.34 727.856V724.544L467.392 723.392H483.52V727.28H468.76C467.212 727.28 465.664 727.496 465.34 727.856ZM463.72 710.108H484.024V714.032H463.72V710.108ZM465.34 727.856C465.16 727.1 464.512 725.228 464.044 724.184C464.872 723.932 465.412 722.816 466.168 720.98C466.888 719.252 469.084 712.412 470.02 706.22L474.232 706.796C472.828 713.564 470.452 720.62 468.22 725.588V725.66C468.22 725.66 465.34 727.1 465.34 727.856ZM477.976 730.34L481.36 728.756C482.728 731.204 484.492 734.516 485.356 736.532L481.756 738.368C481 736.352 479.308 732.896 477.976 730.34ZM472.648 716.588H476.824V735.704C476.824 737.72 476.428 738.764 475.168 739.412C473.872 740.06 472.072 740.096 469.588 740.096C469.408 738.98 468.904 737.324 468.4 736.244C469.84 736.28 471.496 736.28 472 736.28C472.468 736.244 472.648 736.1 472.648 735.668V716.588ZM466.744 728.684L470.668 729.836C469.192 732.896 467.068 736.424 464.836 738.656C464.116 737.936 462.712 736.892 461.848 736.352C463.864 734.336 465.808 731.132 466.744 728.684ZM464.296 716.588H475.168V720.512H464.296V716.588Z" fill="white"/>
<g filter="url(#filter0_d_665_142)">
<path d="M1445 294L1490 249H1547.5L1445 294Z" fill="white"/>
<rect x="1439" y="156" width="378" height="93" rx="10" fill="white"/>
</g>
<path d="M1484.68 202.264H1499.44V204.832H1484.68V202.264ZM1484.73 191.728H1499.42V196.528H1496.78V194.176H1487.25V196.648H1484.73V191.728ZM1490.58 199.864H1493.49V212.92H1490.58V199.864ZM1494.28 203.56C1495.5 205.984 1497.86 208.432 1500.26 209.704C1499.61 210.232 1498.7 211.24 1498.24 211.96C1495.77 210.304 1493.44 207.328 1492.07 204.304L1494.28 203.56ZM1489.94 203.248L1492.12 203.968C1490.66 207.376 1488.11 210.448 1485.09 212.08C1484.68 211.432 1483.82 210.424 1483.22 209.92C1486.07 208.624 1488.64 206.008 1489.94 203.248ZM1488.71 195.208L1491.3 196.048C1490.1 198.112 1488.11 200.248 1486.34 201.52C1485.9 201.016 1484.92 200.008 1484.34 199.552C1486.05 198.52 1487.75 196.864 1488.71 195.208ZM1492.58 196.36L1494.64 195.016C1496.27 196.456 1498.29 198.544 1499.22 199.984L1497.02 201.496C1496.18 200.08 1494.23 197.896 1492.58 196.36ZM1478.61 193.048L1480.05 190.84C1481.3 191.416 1483.14 192.376 1484.08 193.048L1482.59 195.496C1481.73 194.8 1479.9 193.72 1478.61 193.048ZM1477.65 199.552L1478.99 197.392C1480.34 198.016 1482.28 199.096 1483.26 199.864L1481.87 202.264C1480.96 201.472 1479.04 200.272 1477.65 199.552ZM1478.06 210.856C1479.14 209.056 1480.7 206.08 1481.92 203.296L1483.82 205.288C1482.74 207.808 1481.42 210.52 1480.22 212.848L1478.06 210.856ZM1513.48 193.264L1516.17 193.384C1515.76 202.144 1514.68 208.912 1510.94 213.184C1510.48 212.776 1509.21 211.888 1508.56 211.528C1512.28 207.832 1513.22 201.376 1513.48 193.264ZM1511.15 192.112H1520.15V194.728H1511.15V192.112ZM1519.34 198.28H1522.58V200.752H1518.57L1519.34 198.28ZM1521.98 198.28H1522.5L1522.98 198.16L1524.74 198.856C1523.37 205.984 1519.96 210.76 1515.59 213.16C1515.21 212.512 1514.25 211.432 1513.62 211C1517.82 208.912 1520.92 204.808 1521.98 198.808V198.28ZM1515.5 199.48C1517.18 204.52 1520.68 208.84 1525.62 210.736C1525 211.288 1524.16 212.368 1523.73 213.088C1518.52 210.784 1515.09 206.128 1513.05 200.224L1515.5 199.48ZM1519.67 192.112H1522.46C1521.78 194.992 1520.9 198.544 1520.22 200.752H1517.51C1518.26 198.472 1519.14 194.872 1519.67 192.112ZM1505.32 192.712H1510.5V206.872H1505.32V204.232H1508.03V195.352H1505.32V192.712ZM1503.76 192.712H1506.21V209.008H1503.76V192.712ZM1528.31 200.08H1550.54V203.224H1528.31V200.08ZM1555.12 192.976H1574.1V212.656H1570.94V195.904H1558.14V212.68H1555.12V192.976ZM1556.56 207.76H1572.9V210.736H1556.56V207.76ZM1583.75 192.976H1600.12V195.4H1583.75V192.976ZM1584.04 196.552H1598.13V198.88H1584.04V196.552ZM1581.4 200.152H1594.86V202.624H1581.4V200.152ZM1583.51 190.6L1586.42 191.32C1585.07 195.088 1582.89 198.616 1580.61 200.848C1580.03 200.344 1578.74 199.504 1578.04 199.12C1580.42 197.176 1582.43 193.96 1583.51 190.6ZM1593.69 200.152H1596.64C1596.64 205.528 1597.17 210.256 1598.7 210.232C1599.09 210.232 1599.21 209.032 1599.23 207.064C1599.78 207.736 1600.53 208.432 1601.15 208.84C1600.94 211.792 1600.36 213.088 1598.51 213.088C1594.41 213.088 1593.78 207.136 1593.69 200.152ZM1607.63 214.312L1606.86 212.392C1608.88 211.744 1609.98 210.568 1609.98 209.2L1609.82 206.824L1611.14 208.984C1610.75 209.344 1610.25 209.512 1609.72 209.512C1608.52 209.512 1607.42 208.744 1607.42 207.352C1607.42 206.008 1608.5 205.192 1609.79 205.192C1611.47 205.192 1612.38 206.488 1612.38 208.504C1612.38 211.216 1610.61 213.424 1607.63 214.312ZM1638.54 199.552H1650.62V202.024H1638.54V199.552ZM1638.59 204.256H1650.57V206.728H1638.59V204.256ZM1638.62 209.032H1651.46V211.6H1638.62V209.032ZM1638.57 190.792L1641.21 191.464C1639.77 195.784 1637.44 200.008 1634.82 202.648C1634.42 202.12 1633.41 201.04 1632.83 200.56C1635.3 198.304 1637.39 194.608 1638.57 190.792ZM1639.19 194.776H1651.07V197.224H1639.19V213.184H1636.55V197.008L1638.64 194.776H1639.19ZM1643.51 196.144H1646.32V210.472H1643.51V196.144ZM1642.58 191.824L1645.05 190.672C1645.82 191.752 1646.66 193.168 1647.09 194.128L1644.5 195.472C1644.14 194.488 1643.27 192.952 1642.58 191.824ZM1628.99 192.736L1631.58 191.584C1632.69 193.36 1634.1 195.784 1634.7 197.296L1631.9 198.688C1631.37 197.128 1630.05 194.608 1628.99 192.736ZM1629.02 210.832C1630.05 208.816 1631.46 205.6 1632.54 202.576L1635.21 203.872C1634.25 206.728 1633.1 209.656 1632.04 212.056L1629.02 210.832ZM1661.37 192.544H1671.45V195.04H1661.37V192.544ZM1670.49 192.544H1671.09L1671.54 192.424L1673.44 193.528C1670.08 199.168 1662.69 201.856 1655.06 202.912C1654.82 202.12 1654.29 200.872 1653.81 200.224C1661.03 199.48 1667.97 197.152 1670.49 192.928V192.544ZM1661.34 194.92C1664.37 197.68 1670.49 199.384 1677.06 199.96C1676.44 200.608 1675.67 201.832 1675.29 202.624C1668.69 201.856 1662.66 199.768 1658.9 196.216L1661.34 194.92ZM1656.95 202.504H1673.56V213.136H1670.39V204.976H1659.95V213.16H1656.95V202.504ZM1658.34 206.272H1671.54V208.504H1658.34V206.272ZM1658.34 210.016H1671.54V212.488H1658.34V210.016ZM1663.79 203.488H1666.79V211.384H1663.79V203.488ZM1662.04 190.504L1665.11 191.128C1663.17 193.96 1660.58 196.408 1656.71 198.352C1656.3 197.656 1655.42 196.648 1654.79 196.192C1658.34 194.68 1660.74 192.52 1662.04 190.504ZM1686.54 195.4H1687.02L1687.53 195.304L1689.3 195.712C1688.54 204.904 1685.82 210.208 1680.74 213.16C1680.38 212.464 1679.56 211.384 1678.98 210.88C1683.4 208.672 1685.94 203.416 1686.54 195.952V195.4ZM1689.93 192.088H1699.22V194.704H1689.93V192.088ZM1688.97 200.512H1701.86V203.248H1688.97V200.512ZM1694.06 198.232H1697.03V210.064C1697.03 211.528 1696.72 212.272 1695.74 212.704C1694.73 213.112 1693.38 213.184 1691.49 213.184C1691.34 212.368 1690.91 211.192 1690.53 210.424C1691.73 210.472 1693.14 210.472 1693.53 210.472C1693.91 210.472 1694.06 210.352 1694.06 210.016V198.232ZM1698.11 192.088H1698.88L1699.55 191.944L1701.5 193.336C1700.03 195.568 1697.9 198.232 1695.66 199.84C1695.3 199.36 1694.51 198.616 1694.06 198.232C1695.69 196.816 1697.37 194.296 1698.11 192.712V192.088ZM1679.39 195.4H1687.31V198.04H1679.39V195.4ZM1679.63 203.728L1681.31 201.64C1684.22 203.752 1688.01 206.728 1689.59 208.864L1687.7 211.336C1686.16 209.104 1682.54 205.936 1679.63 203.728ZM1679.63 203.728C1680.69 200.392 1681.86 194.968 1682.25 190.672L1685.1 190.864C1684.53 195.472 1683.28 201.04 1682.18 204.784L1679.63 203.728ZM1714.38 199.096H1717.43V209.872C1717.43 211.504 1717.05 212.296 1715.85 212.728C1714.65 213.16 1712.92 213.208 1710.62 213.184C1710.45 212.344 1709.92 211.072 1709.46 210.28C1711.17 210.352 1713.14 210.352 1713.69 210.328C1714.22 210.328 1714.38 210.208 1714.38 209.8V199.096ZM1706.03 192.304H1722.81V195.136H1706.03V192.304ZM1721.94 192.304H1722.76L1723.41 192.136L1725.69 193.84C1723.24 196.48 1719.64 199.408 1716.3 201.16C1715.87 200.536 1714.96 199.576 1714.38 199.096C1717.26 197.56 1720.58 194.824 1721.94 193V192.304ZM1749.02 201.04H1751.78C1751.78 201.04 1751.73 201.808 1751.7 202.168C1751.2 208.504 1750.7 211.096 1749.83 212.008C1749.28 212.68 1748.7 212.92 1747.94 212.992C1747.26 213.088 1746.18 213.088 1745.03 213.064C1744.98 212.272 1744.7 211.192 1744.26 210.472C1745.27 210.592 1746.18 210.592 1746.64 210.592C1747.02 210.592 1747.26 210.544 1747.53 210.28C1748.1 209.68 1748.63 207.304 1749.02 201.472V201.04ZM1738.91 191.848H1748.34V194.44H1738.91V191.848ZM1740.06 195.376L1742.75 195.52C1742.54 198.136 1742.2 201.448 1741.89 203.464H1739.2C1739.54 201.352 1739.9 197.968 1740.06 195.376ZM1739.97 201.04H1749.81V203.464H1739.97V201.04ZM1731.98 192.712H1737.76V206.872H1731.98V204.232H1735.19V195.352H1731.98V192.712ZM1730.54 192.712H1733.15V209.008H1730.54V192.712ZM1738.43 205.792H1747.53V208.336H1738.43V205.792ZM1747.24 191.848H1747.55L1747.98 191.752L1750.02 191.944C1749.81 195.16 1749.35 199.408 1748.9 202.792L1746.18 202.576C1746.64 199.168 1747.1 194.56 1747.24 192.136V191.848ZM1758.35 204.832C1757.82 200.968 1762.1 200.08 1762.1 197.704C1762.1 196.408 1761.3 195.616 1759.91 195.616C1758.78 195.616 1757.82 196.12 1756.94 197.128L1754.97 195.328C1756.31 193.768 1758.09 192.76 1760.32 192.76C1763.32 192.76 1765.48 194.32 1765.48 197.392C1765.48 200.992 1761.09 201.448 1761.47 204.832H1758.35ZM1759.94 211.24C1758.69 211.24 1757.8 210.352 1757.8 209.104C1757.8 207.856 1758.71 206.992 1759.94 206.992C1761.14 206.992 1762.05 207.856 1762.05 209.104C1762.05 210.352 1761.14 211.24 1759.94 211.24Z" fill="#231815"/>
<rect x="164" y="450" width="496" height="194.528" rx="20" fill="#F7F6FB"/>
<path d="M218.455 613.552H232.439V614.72H218.455V613.552ZM222.439 623.232H230.487V624.4H222.439V623.232ZM221.719 617.824H231.287V625.232H230.023V618.992H222.903V625.312H221.719V617.824ZM224.007 610.56L225.271 610.8C224.231 615.168 222.391 619.536 218.727 622.128C218.551 621.856 218.183 621.424 217.927 621.184C221.415 618.8 223.159 614.608 224.007 610.56ZM238.247 610.576L239.303 610.848C238.567 613.552 237.415 616.384 236.071 618.24C235.975 618 235.655 617.408 235.463 617.12C236.647 615.488 237.639 613.024 238.247 610.576ZM237.255 614.592L238.231 613.632L238.263 613.648V625.232H237.255V614.592ZM242.695 622.416L243.431 621.936C244.183 622.752 245.111 623.856 245.511 624.544L244.759 625.136C244.343 624.4 243.447 623.248 242.695 622.416ZM239.703 611.584H245.159V621.536H244.135V612.496H240.679V621.584H239.703V611.584ZM248.759 610.704H249.783V623.888C249.783 624.528 249.639 624.848 249.239 625.024C248.855 625.2 248.215 625.232 247.143 625.232C247.111 624.96 246.951 624.496 246.807 624.192C247.591 624.208 248.263 624.208 248.471 624.208C248.679 624.192 248.759 624.128 248.759 623.888V610.704ZM246.423 612.096H247.383V621.68H246.423V612.096ZM241.943 613.584H242.871V619.024C242.871 621.184 242.471 623.728 239.847 625.296C239.719 625.088 239.399 624.72 239.207 624.576C241.655 623.104 241.943 620.96 241.943 619.024V613.584ZM260.151 615.744H266.727V616.944H260.151V615.744ZM253.447 623.328H267.815V624.528H253.447V623.328ZM259.463 610.8H260.727V623.968H259.463V610.8ZM276.743 613.088H285.447V614.208H276.743V613.088ZM276.999 616.608H284.071V617.712H276.999V616.608ZM280.375 610.56H281.575V617.296H280.375V610.56ZM278.663 617.408C279.799 620.736 282.215 623.248 285.751 624.256C285.463 624.496 285.143 624.976 284.951 625.28C281.319 624.096 278.887 621.424 277.591 617.728L278.663 617.408ZM283.815 616.608H284.039L284.263 616.56L285.015 616.88C283.751 621.376 280.519 624.032 276.871 625.264C276.743 624.96 276.455 624.48 276.199 624.224C279.607 623.216 282.743 620.672 283.815 616.832V616.608ZM272.359 611.152H275.703V612.256H272.359V611.152ZM272.295 614.912H275.511V616.016H272.295V614.912ZM272.279 618.752H275.511V619.872H272.279V618.752ZM271.799 611.152H272.871V616.896C272.871 619.376 272.711 622.912 271.655 625.28C271.447 625.104 270.967 624.832 270.695 624.736C271.719 622.48 271.799 619.264 271.799 616.912V611.152ZM275.031 611.152H276.103V623.808C276.103 624.4 275.975 624.752 275.607 624.944C275.223 625.136 274.647 625.168 273.687 625.168C273.639 624.864 273.495 624.352 273.351 624.048C274.007 624.08 274.599 624.064 274.775 624.064C274.967 624.048 275.031 624 275.031 623.792V611.152Z" fill="#C0C0C0"/>
<path d="M378.172 613.456H391.98V614.624H378.172V613.456ZM382.46 617.696H391.564V618.848H382.46V617.696ZM380.812 623.664H392.268V624.816H380.812V623.664ZM386.06 618.208H387.276V624.32H386.06V618.208ZM383.004 610.576L384.252 610.736C383.388 615.712 381.916 621.04 378.348 624.32C378.172 624.048 377.788 623.616 377.548 623.376C380.892 620.368 382.3 615.2 383.004 610.576ZM397.916 610.576L398.972 610.848C398.236 613.552 397.084 616.384 395.74 618.24C395.644 618 395.324 617.408 395.132 617.12C396.316 615.488 397.308 613.024 397.916 610.576ZM396.924 614.592L397.9 613.632L397.932 613.648V625.232H396.924V614.592ZM402.364 622.416L403.1 621.936C403.852 622.752 404.78 623.856 405.18 624.544L404.428 625.136C404.012 624.4 403.116 623.248 402.364 622.416ZM399.372 611.584H404.828V621.536H403.804V612.496H400.348V621.584H399.372V611.584ZM408.428 610.704H409.452V623.888C409.452 624.528 409.308 624.848 408.908 625.024C408.524 625.2 407.884 625.232 406.812 625.232C406.78 624.96 406.62 624.496 406.476 624.192C407.26 624.208 407.932 624.208 408.14 624.208C408.348 624.192 408.428 624.128 408.428 623.888V610.704ZM406.092 612.096H407.052V621.68H406.092V612.096ZM401.612 613.584H402.54V619.024C402.54 621.184 402.14 623.728 399.516 625.296C399.388 625.088 399.068 624.72 398.876 624.576C401.324 623.104 401.612 620.96 401.612 619.024V613.584ZM419.82 615.744H426.396V616.944H419.82V615.744ZM413.116 623.328H427.484V624.528H413.116V623.328ZM419.132 610.8H420.396V623.968H419.132V610.8ZM436.412 613.088H445.116V614.208H436.412V613.088ZM436.668 616.608H443.74V617.712H436.668V616.608ZM440.044 610.56H441.244V617.296H440.044V610.56ZM438.332 617.408C439.468 620.736 441.884 623.248 445.42 624.256C445.132 624.496 444.812 624.976 444.62 625.28C440.988 624.096 438.556 621.424 437.26 617.728L438.332 617.408ZM443.484 616.608H443.708L443.932 616.56L444.684 616.88C443.42 621.376 440.188 624.032 436.54 625.264C436.412 624.96 436.124 624.48 435.868 624.224C439.276 623.216 442.412 620.672 443.484 616.832V616.608ZM432.028 611.152H435.372V612.256H432.028V611.152ZM431.964 614.912H435.18V616.016H431.964V614.912ZM431.948 618.752H435.18V619.872H431.948V618.752ZM431.468 611.152H432.54V616.896C432.54 619.376 432.38 622.912 431.324 625.28C431.116 625.104 430.636 624.832 430.364 624.736C431.388 622.48 431.468 619.264 431.468 616.912V611.152ZM434.7 611.152H435.772V623.808C435.772 624.4 435.644 624.752 435.276 624.944C434.892 625.136 434.316 625.168 433.356 625.168C433.308 624.864 433.164 624.352 433.02 624.048C433.676 624.08 434.268 624.064 434.444 624.064C434.636 624.048 434.7 624 434.7 623.792V611.152Z" fill="#C0C0C0"/>
<path d="M544.94 615.408H550.764V616.464H544.94V615.408ZM543.372 618.336H552.204V619.392H543.372V618.336ZM543.596 612.544H552.124V615.232H550.94V613.584H544.732V615.232H543.596V612.544ZM547.292 618.816H548.46V623.952C548.46 624.56 548.348 624.864 547.932 625.056C547.5 625.216 546.844 625.232 545.82 625.216C545.772 624.912 545.612 624.464 545.452 624.16C546.172 624.176 546.844 624.176 547.036 624.16C547.228 624.16 547.292 624.112 547.292 623.936V618.816ZM544.988 620.432L546.092 620.8C545.404 622.048 544.396 623.44 543.564 624.352C543.34 624.144 542.876 623.792 542.604 623.632C543.468 622.8 544.396 621.568 544.988 620.432ZM549.516 620.864L550.54 620.416C551.308 621.44 552.204 622.832 552.604 623.696L551.5 624.224C551.132 623.344 550.284 621.92 549.516 620.864ZM546.716 610.8L547.852 610.496C548.284 611.2 548.716 612.128 548.908 612.736L547.692 613.088C547.516 612.464 547.1 611.504 546.716 610.8ZM538.188 621.088C538.14 620.864 537.964 620.336 537.836 620.048C538.172 619.984 538.54 619.584 539.036 618.992C539.564 618.416 541.244 616.16 542.332 614L543.292 614.576C542.028 616.752 540.476 618.928 538.972 620.496V620.512C538.972 620.512 538.188 620.848 538.188 621.088ZM538.188 621.088L538.14 620.144L538.716 619.744L542.876 618.992C542.844 619.296 542.844 619.744 542.86 619.984C539.036 620.752 538.508 620.912 538.188 621.088ZM538.076 617.248C538.028 617.008 537.836 616.448 537.708 616.16C537.98 616.096 538.252 615.712 538.588 615.168C538.94 614.624 540.06 612.528 540.668 610.608L541.756 611.088C540.972 613.072 539.852 615.152 538.78 616.608V616.64C538.78 616.64 538.076 617.008 538.076 617.248ZM538.076 617.248L538.044 616.4L538.604 616.032L541.516 615.728C541.468 616.032 541.436 616.448 541.436 616.672C538.764 617.024 538.332 617.12 538.076 617.248ZM537.804 623.152C539.1 622.896 541.02 622.448 542.956 621.984L543.068 623.008C541.292 623.472 539.452 623.936 538.028 624.304L537.804 623.152ZM558.668 615.792H566.748V616.912H558.668V615.792ZM558.38 623.232H566.956V624.368H558.38V623.232ZM557.836 618.832H567.772V625.2H566.508V619.92H559.036V625.248H557.836V618.832ZM562.956 610.528L564.012 611.056C562.236 613.728 559.292 616.032 556.204 617.392C555.996 617.072 555.66 616.624 555.324 616.336C558.38 615.136 561.324 613.008 562.956 610.528ZM563.196 611.456C565.148 613.616 567.5 615.024 570.188 616.16C569.884 616.432 569.532 616.88 569.356 617.248C566.62 615.936 564.3 614.416 562.172 611.984L563.196 611.456ZM582.556 611.808H583.676V623.232H582.556V611.808ZM585.884 610.96H587.084V625.072H585.884V610.96ZM579.164 611.04H580.348V616.592C580.348 619.664 580.188 622.752 578.604 625.264C578.348 625.04 577.82 624.72 577.468 624.576C579.004 622.24 579.164 619.44 579.164 616.592V611.04ZM573.836 611.712L574.588 610.912C575.548 611.68 576.796 612.752 577.388 613.44L576.572 614.352C576.012 613.632 574.796 612.512 573.836 611.712ZM575.084 624.96L574.844 623.808L575.132 623.28L577.868 621.056C577.98 621.392 578.204 621.84 578.348 622.048C575.724 624.256 575.308 624.624 575.084 624.96ZM572.94 615.6H575.884V616.752H572.94V615.6ZM575.084 624.976C574.956 624.72 574.636 624.288 574.428 624.096C574.716 623.872 575.196 623.328 575.196 622.544V615.6H576.348V623.424C576.348 623.424 575.084 624.496 575.084 624.976ZM591.036 621.088C590.972 620.848 590.796 620.304 590.652 620.016C590.988 619.952 591.308 619.536 591.74 618.96C592.204 618.384 593.66 616.176 594.572 614.048L595.596 614.624C594.524 616.752 593.18 618.912 591.82 620.448V620.48C591.82 620.48 591.036 620.848 591.036 621.088ZM591.02 621.104L590.956 620.128L591.516 619.712L595.468 618.944C595.436 619.264 595.436 619.712 595.468 619.968C591.852 620.752 591.324 620.912 591.02 621.104ZM590.924 617.248C590.86 616.992 590.668 616.432 590.524 616.112C590.796 616.048 591.052 615.664 591.356 615.104C591.676 614.576 592.684 612.464 593.212 610.528L594.332 611.008C593.644 612.992 592.636 615.104 591.628 616.576V616.624C591.628 616.624 590.924 616.992 590.924 617.248ZM590.924 617.248L590.892 616.368L591.452 616.016L594.236 615.728C594.188 616.032 594.14 616.464 594.156 616.688C591.612 617.024 591.18 617.12 590.924 617.248ZM590.62 623.104C591.788 622.72 593.532 622.08 595.308 621.44L595.5 622.368C593.884 623.056 592.204 623.744 590.908 624.272L590.62 623.104ZM596.444 619.488V618.528L597.132 618.16H604.476V619.264H597.868C597.116 619.264 596.588 619.344 596.444 619.488ZM595.628 612.432H604.812V613.536H595.628V612.432ZM596.444 619.488C596.396 619.264 596.204 618.72 596.06 618.416C596.364 618.336 596.636 617.776 596.972 616.96C597.308 616.192 598.38 613.184 598.892 610.48L600.076 610.704C599.404 613.584 598.364 616.64 597.308 618.8V618.832C597.308 618.832 596.444 619.248 596.444 619.488ZM602.3 620.688L603.276 620.24C603.98 621.376 604.86 622.928 605.292 623.824L604.268 624.352C603.868 623.44 603.004 621.856 602.3 620.688ZM599.996 615.088H601.164V623.872C601.164 624.544 601.02 624.864 600.572 625.056C600.108 625.248 599.372 625.248 598.268 625.248C598.204 624.944 598.044 624.48 597.9 624.16C598.716 624.176 599.468 624.176 599.708 624.16C599.932 624.144 599.996 624.08 599.996 623.872V615.088ZM597.404 620.24L598.524 620.56C597.9 621.888 596.94 623.456 595.948 624.48C595.74 624.272 595.34 623.984 595.1 623.824C596.028 622.864 596.94 621.392 597.404 620.24ZM595.9 615.088H600.764V616.192H595.9V615.088Z" fill="#C0C0C0"/>
<rect x="191.658" y="475.814" width="120.773" height="120.773" rx="10" fill="#7564E6"/>
<rect x="352.074" y="475.814" width="119.851" height="120.773" rx="10" fill="white"/>
<rect x="511.569" y="475.814" width="120.773" height="120.773" rx="10" fill="white"/>
<mask id="mask2_665_142" style="mask-type:alpha" maskUnits="userSpaceOnUse" x="200" y="484" width="104" height="104">
<rect x="200.151" y="484.43" width="103.289" height="103.289" rx="10" fill="#D9D9D9"/>
</mask>
<g mask="url(#mask2_665_142)">
<path d="M187.291 502.75C179.009 501.12 175.246 511.66 172.958 519.127C168.998 532.032 164.582 572.802 165.06 571.694L176.436 575.354C176.436 575.354 185.574 555.251 187.801 546.176C190.034 537.101 200.873 505.422 187.291 502.75Z" fill="#E1A59B"/>
<path d="M253.163 502.261C259.433 496.61 268.072 503.721 273.87 508.95C283.891 517.991 308.613 550.708 307.637 550L299.754 558.982C299.754 558.982 281.593 546.423 275.022 539.784C268.45 533.14 242.884 511.523 253.163 502.261Z" fill="#E1A59B"/>
<path d="M251.693 574.876C251.484 588.922 254.781 594.217 256.152 598.88C257.715 604.186 260.568 611.642 260.568 611.642H225.879V483.788H236.411C236.411 483.788 243.635 499.277 257.677 500.517C278.34 502.338 264.27 523.1 263.469 540.333C263.409 541.611 251.786 568.216 251.693 574.876Z" fill="#E1A59B"/>
<path d="M200.067 574.876C200.275 588.922 196.978 594.217 195.607 598.88C194.044 604.186 191.191 611.642 191.191 611.642H225.88V483.788H215.348C215.348 483.788 208.124 499.277 194.082 500.517C173.419 502.338 186.551 535.406 188.29 540.333C191.235 548.7 199.973 568.216 200.067 574.876Z" fill="#E1A59B"/>
<path d="M273.251 529.585C273.251 529.585 274.403 527.785 280.322 525.316C285.648 523.094 289.844 526.869 289.844 526.869C289.844 526.869 278.665 511.77 268.435 504.429C264.497 501.603 258.677 497.433 253.159 502.262C247.981 506.793 254.036 519.001 258.611 525.327C263.186 531.653 269.823 534.791 269.823 534.791L273.251 529.585Z" fill="#231815"/>
<path d="M225.879 569.895V521.552C245.461 521.552 249.455 497.971 249.455 497.971L257.682 500.517C257.682 500.517 264.248 519.83 264.237 530.441C264.237 534.473 264.446 538.155 262.674 542.511C257.311 556.6 253.382 568.274 252.576 569.889H225.885" fill="#F8F2F2"/>
<path d="M225.88 569.895V521.552C206.298 521.552 202.304 497.971 202.304 497.971L194.077 500.517C194.077 500.517 187.511 519.83 187.522 530.441C187.522 534.473 187.313 538.155 189.085 542.511C194.74 556.398 198.827 568.057 199.183 569.889H225.874" fill="#F8F2F2"/>
<path d="M249.456 497.971L186.134 524.027C184.785 529.585 186.299 535.038 188.295 540.333C188.295 540.333 228.156 523.445 242.818 523.445C257.48 523.445 263.476 540.333 263.476 540.333C265.582 539.06 266.218 503.244 257.683 500.517C249.719 497.971 249.456 497.971 249.456 497.971Z" fill="#231815"/>
<path d="M297.896 557.188L305.779 548.206C305.779 548.206 316.645 553.962 323.589 562.521C330.533 571.08 337.143 585.328 337.143 585.328L331.976 590.283C331.976 590.283 323.814 585.142 311.851 573.999C306.234 568.77 297.902 557.188 297.902 557.188H297.896Z" fill="#E1A59B"/>
</g>
<mask id="mask3_665_142" style="mask-type:alpha" maskUnits="userSpaceOnUse" x="360" y="484" width="104" height="104">
<rect width="103.289" height="103.289" rx="10" transform="matrix(-1 0 0 1 463.538 484.43)" fill="#D9D9D9"/>
</mask>
<g mask="url(#mask3_665_142)">
<path d="M476.398 502.75C484.681 501.12 488.444 511.66 490.731 519.127C494.692 532.032 499.107 572.802 498.63 571.694L487.254 575.354C487.254 575.354 478.115 555.251 475.888 546.176C473.656 537.101 462.817 505.422 476.398 502.75Z" fill="#E1A59B"/>
<path d="M410.527 502.261C404.257 496.61 395.618 503.721 389.82 508.95C379.799 517.991 355.077 550.708 356.053 550L363.935 558.982C363.935 558.982 382.097 546.423 388.668 539.784C395.239 533.14 420.806 511.523 410.527 502.261Z" fill="#E1A59B"/>
<path d="M411.997 574.876C412.206 588.922 408.909 594.217 407.538 598.88C405.974 604.186 403.122 611.642 403.122 611.642H437.811V483.788H427.279C427.279 483.788 420.055 499.277 406.013 500.517C385.35 502.338 399.419 523.1 400.22 540.333C400.281 541.611 411.904 568.216 411.997 574.876Z" fill="#E1A59B"/>
<path d="M463.623 574.876C463.415 588.922 466.711 594.217 468.083 598.88C469.646 604.186 472.498 611.642 472.498 611.642H437.81V483.788H448.341C448.341 483.788 455.565 499.277 469.607 500.517C490.27 502.338 477.139 535.406 475.4 540.333C472.454 548.7 463.716 568.216 463.623 574.876Z" fill="#E1A59B"/>
<path d="M390.439 529.585C390.439 529.585 389.287 527.785 383.368 525.316C378.042 523.094 373.846 526.869 373.846 526.869C373.846 526.869 385.025 511.77 395.255 504.429C399.193 501.603 405.013 497.433 410.531 502.262C415.709 506.793 409.653 519.001 405.079 525.327C400.504 531.653 393.867 534.791 393.867 534.791L390.439 529.585Z" fill="#231815"/>
<path d="M437.811 569.895V521.552C418.228 521.552 414.235 497.971 414.235 497.971L406.007 500.517C406.007 500.517 399.441 519.83 399.452 530.441C399.452 534.473 399.244 538.155 401.016 542.511C406.379 556.6 410.308 568.274 411.114 569.889H437.805" fill="#F8F2F2"/>
<path d="M437.81 569.895V521.552C457.392 521.552 461.385 497.971 461.385 497.971L469.613 500.517C469.613 500.517 476.179 519.83 476.168 530.441C476.168 534.473 476.377 538.155 474.605 542.511C468.95 556.398 464.863 568.057 464.507 569.889H437.815" fill="#F8F2F2"/>
<path d="M414.234 497.971L477.556 524.027C478.905 529.585 477.391 535.038 475.394 540.333C475.394 540.333 435.533 523.445 420.871 523.445C406.209 523.445 400.214 540.333 400.214 540.333C398.108 539.06 397.471 503.244 406.006 500.517C413.971 497.971 414.234 497.971 414.234 497.971Z" fill="#231815"/>
<path d="M365.793 557.188L357.911 548.206C357.911 548.206 347.045 553.962 340.1 562.521C333.156 571.08 326.546 585.328 326.546 585.328L331.714 590.283C331.714 590.283 339.876 585.142 351.839 573.999C357.456 568.77 365.788 557.188 365.788 557.188H365.793Z" fill="#E1A59B"/>
</g>
<mask id="mask4_665_142" style="mask-type:alpha" maskUnits="userSpaceOnUse" x="520" y="484" width="104" height="104">
<rect x="520.347" y="484.43" width="103.289" height="103.289" rx="10" fill="#D9D9D9"/>
</mask>
<g mask="url(#mask4_665_142)">
<path d="M533.81 497.589C525.523 495.961 521.764 506.502 519.473 513.966C515.511 526.873 511.094 567.642 511.571 566.534L522.948 570.19C522.948 570.19 532.086 550.087 534.319 541.013C536.551 531.938 547.393 500.255 533.81 497.589Z" fill="#E1A59B"/>
<path d="M523.623 567.696L512.246 564.039C512.246 564.039 505.875 574.559 504.312 585.47C502.749 596.381 504.392 612.003 504.392 612.003L511.373 613.599C511.373 613.599 515.737 604.995 520.287 589.287C522.424 581.915 523.628 567.696 523.628 567.696H523.623Z" fill="#E1A59B"/>
<path d="M609.801 497.139C618.019 495.201 622.174 505.587 624.744 512.964C629.187 525.711 632.86 559.734 632.34 558.642L621.108 562.727C621.108 562.727 613.501 549.536 610.931 540.552C608.361 531.568 596.331 500.319 609.801 497.139Z" fill="#E1A59B"/>
<path d="M598.232 569.709C598.023 583.751 601.321 589.046 602.692 593.715C604.255 599.02 607.108 606.478 607.108 606.478H572.411V478.62H582.947C582.947 478.62 590.175 494.109 604.223 495.351C624.888 497.176 610.819 517.933 610.015 535.166C609.957 536.441 598.328 563.049 598.237 569.709H598.232Z" fill="#E1A59B"/>
<path d="M546.59 569.709C546.798 583.751 543.501 589.046 542.13 593.715C540.567 599.02 537.713 606.478 537.713 606.478H572.411V478.625H561.875C561.875 478.625 554.647 494.114 540.599 495.356C519.933 497.182 533.066 530.246 534.806 535.172C537.751 543.539 546.493 563.054 546.584 569.714L546.59 569.709Z" fill="#E1A59B"/>
<path d="M614.288 530.755C614.288 530.755 616.162 529.732 622.538 530.412C628.277 531.028 630.146 536.349 630.146 536.349C630.146 536.349 627.603 517.734 622.158 506.379C620.059 502.011 616.965 495.554 609.807 497.133C603.088 498.616 602.531 512.236 603.5 519.978C604.469 527.725 608.784 533.667 608.784 533.667L614.293 530.749L614.288 530.755Z" fill="#231815"/>
<path d="M572.411 564.724V516.385C591.995 516.385 595.989 492.807 595.989 492.807L604.217 495.351C604.217 495.351 610.781 514.661 610.776 525.273C610.776 529.309 610.985 532.987 609.207 537.345C603.554 551.233 599.463 562.888 599.11 564.719H572.411" fill="#F8F2F2"/>
<path d="M572.411 564.724V516.385C552.827 516.385 548.833 492.807 548.833 492.807L540.604 495.351C540.604 495.351 534.041 514.661 534.046 525.273C534.046 529.309 533.837 532.987 535.615 537.345C541.268 551.233 545.359 562.888 545.712 564.719H572.411" fill="#F8F2F2"/>
<path d="M595.989 492.808L532.649 518.864C531.299 524.421 532.815 529.877 534.806 535.166C534.806 535.166 574.675 518.281 589.339 518.281C604.003 518.281 610.005 535.166 610.005 535.166C612.114 533.898 617.666 499.96 604.212 495.351C596.299 492.642 595.983 492.808 595.983 492.808H595.989Z" fill="#231815"/>
<path d="M617.43 552.32L628.663 548.235C628.663 548.235 635.424 558.503 637.4 569.35C639.375 580.191 638.321 595.867 638.321 595.867L631.404 597.725C631.404 597.725 626.719 589.293 621.58 573.767C619.17 566.48 617.425 552.32 617.425 552.32H617.43Z" fill="#E1A59B"/>
</g>
</g>
<defs>
<filter id="filter0_d_665_142" x="1435" y="156" width="386" height="146" filterUnits="userSpaceOnUse" color-interpolation-filters="sRGB">
<feFlood flood-opacity="0" result="BackgroundImageFix"/>
<feColorMatrix in="SourceAlpha" type="matrix" values="0 0 0 0 0 0 0 0 0 0 0 0 0 0 0 0 0 0 127 0" result="hardAlpha"/>
<feOffset dy="4"/>
<feGaussianBlur stdDeviation="2"/>
<feComposite in2="hardAlpha" operator="out"/>
<feColorMatrix type="matrix" values="0 0 0 0 0.458824 0 0 0 0 0.392157 0 0 0 0 0.901961 0 0 0 0.1 0"/>
<feBlend mode="normal" in2="BackgroundImageFix" result="effect1_dropShadow_665_142"/>
<feBlend mode="normal" in="SourceGraphic" in2="effect1_dropShadow_665_142" result="shape"/>
</filter>
<radialGradient id="paint0_radial_665_142" cx="0" cy="0" r="1" gradientUnits="userSpaceOnUse" gradientTransform="translate(1220 540) rotate(90) scale(1214.98)">
<stop stop-color="#D9D9D9"/>
<stop offset="1" stop-color="#D9D9D9" stop-opacity="0"/>
</radialGradient>
<clipPath id="clip0_665_142">
<rect width="1920" height="1080" fill="white"/>
</clipPath>
</defs>
</svg>
