<svg width="1920" height="1080" viewBox="0 0 1920 1080" fill="none" xmlns="http://www.w3.org/2000/svg">
<g clip-path="url(#clip0_741_596)">
<rect width="1920" height="1080" fill="#F7F6FB"/>
<mask id="mask0_741_596" style="mask-type:alpha" maskUnits="userSpaceOnUse" x="573" y="-107" width="1294" height="1294">
<circle cx="1220" cy="540" r="647" fill="url(#paint0_radial_741_596)"/>
</mask>
<g mask="url(#mask0_741_596)">
<mask id="mask1_741_596" style="mask-type:alpha" maskUnits="userSpaceOnUse" x="-1502" y="-580" width="6738" height="2051">
<rect x="-1501.35" y="-579.903" width="6736.89" height="2050.89" fill="#E7E7E7"/>
</mask>
<g mask="url(#mask1_741_596)">
<path d="M654.016 -1385.17L654.016 3376.26" stroke="black" stroke-opacity="0.18" stroke-miterlimit="10"/>
<path d="M773.164 -1385.17L773.165 3376.26" stroke="black" stroke-opacity="0.18" stroke-miterlimit="10"/>
<path d="M892.398 -1385.17L892.398 3376.26" stroke="black" stroke-opacity="0.18" stroke-miterlimit="10"/>
<path d="M1011.63 -1385.17L1011.63 3376.26" stroke="black" stroke-opacity="0.18" stroke-miterlimit="10"/>
<path d="M1130.78 -1385.17L1130.78 3376.26" stroke="black" stroke-opacity="0.18" stroke-miterlimit="10"/>
<path d="M1250.01 -1385.17L1250.01 3376.26" stroke="black" stroke-opacity="0.18" stroke-miterlimit="10"/>
<path d="M1369.24 -1385.17L1369.24 3376.26" stroke="black" stroke-opacity="0.18" stroke-miterlimit="10"/>
<path d="M1488.39 -1385.17L1488.39 3376.26" stroke="black" stroke-opacity="0.18" stroke-miterlimit="10"/>
<path d="M1607.62 -1385.17L1607.62 3376.26" stroke="black" stroke-opacity="0.18" stroke-miterlimit="10"/>
<path d="M1726.86 -1385.17L1726.86 3376.26" stroke="black" stroke-opacity="0.18" stroke-miterlimit="10"/>
<path d="M1846.01 -1385.17L1846.01 3376.26" stroke="black" stroke-opacity="0.18" stroke-miterlimit="10"/>
<path d="M-1501.35 957.234L5235.54 957.234" stroke="black" stroke-opacity="0.18" stroke-miterlimit="10"/>
<path d="M-1501.35 829.256L5235.54 829.255" stroke="black" stroke-opacity="0.18" stroke-miterlimit="10"/>
<path d="M-1501.35 701.277L5235.54 701.277" stroke="black" stroke-opacity="0.18" stroke-miterlimit="10"/>
<path d="M-1501.35 573.299L5235.54 573.298" stroke="black" stroke-opacity="0.18" stroke-miterlimit="10"/>
<path d="M-1501.35 445.32L5235.54 445.32" stroke="black" stroke-opacity="0.18" stroke-miterlimit="10"/>
<path d="M-1501.35 317.342L5235.54 317.342" stroke="black" stroke-opacity="0.18" stroke-miterlimit="10"/>
<path d="M-1501.35 189.363L5235.54 189.363" stroke="black" stroke-opacity="0.18" stroke-miterlimit="10"/>
<path d="M-1501.35 61.3845L5235.54 61.3842" stroke="black" stroke-opacity="0.18" stroke-miterlimit="10"/>
</g>
</g>
<path d="M1350.93 586.178C1350.29 628.994 1360.34 645.134 1364.52 659.35C1369.29 675.523 1377.98 698.252 1377.98 698.252H1272.24V308.511H1304.34C1304.34 308.511 1326.37 355.726 1369.17 359.506C1432.16 365.058 1389.27 428.345 1386.83 480.878C1386.64 484.775 1351.21 565.874 1350.93 586.178Z" fill="url(#paint1_linear_741_596)"/>
<path d="M1379.18 362.155C1404.33 356.689 1416.43 388.579 1423.86 411.189C1436.69 450.282 1452.6 574.267 1451.08 570.917L1416.63 582.755C1416.63 582.755 1387.58 522.037 1380.24 494.525C1372.91 466.999 1337.97 371.105 1379.18 362.155Z" fill="url(#paint2_linear_741_596)"/>
<path d="M1390.99 464.855C1390.99 464.855 1396.76 461.836 1416.16 464.26C1433.61 466.44 1439 482.779 1439 482.779C1439 482.779 1432.27 425.907 1416.31 391C1410.17 377.563 1401.08 357.721 1379.17 362.147C1358.61 366.302 1356.16 407.77 1358.69 431.433C1361.22 455.096 1374.04 473.444 1374.04 473.444L1390.99 464.855Z" fill="#231815"/>
<path d="M1416.55 582.529L1451.01 570.446C1451.01 570.446 1468.92 595.03 1474.34 628.187C1479.77 661.345 1475.69 709.052 1475.69 709.052L1454.52 714.342C1454.52 714.342 1440.71 688.387 1425.91 640.795C1418.96 618.459 1416.55 582.529 1416.55 582.529Z" fill="url(#paint3_linear_741_596)"/>
<path d="M1454.82 714.433L1475.99 709.143C1475.99 709.143 1495.17 731.076 1496.13 754.396C1497.08 777.716 1491.96 794.727 1481.9 795.004C1471.84 795.281 1481.29 741.343 1464.35 743.776C1447.39 746.215 1446.03 771.772 1443.8 768.532C1441.57 765.291 1440.54 746.537 1444.42 734.266C1448.3 721.995 1454.83 714.404 1454.83 714.404L1454.82 714.433Z" fill="#E1A59B"/>
<rect x="1478.8" y="712.628" width="26.4031" height="6.76397" transform="rotate(169.025 1478.8 712.628)" fill="#0029FF"/>
<path d="M1160.5 362.561C1135.25 357.594 1123.78 389.722 1116.81 412.485C1104.73 451.822 1091.27 576.105 1092.73 572.726L1127.41 583.882C1127.41 583.882 1155.26 522.602 1162.05 494.939C1168.86 467.276 1201.9 370.706 1160.5 362.561Z" fill="url(#paint4_linear_741_596)"/>
<path d="M1127.44 583.497L1092.65 572.514C1092.65 572.514 1075.53 597.251 1070.76 630.517C1066 663.783 1071 711.399 1071 711.399L1092.26 716.266C1092.26 716.266 1105.57 690.041 1119.44 642.157C1125.94 619.679 1127.44 583.497 1127.44 583.497Z" fill="url(#paint5_linear_741_596)"/>
<path d="M1092.54 715.684L1071.28 710.817C1071.28 710.817 1052.51 733.128 1052.03 756.476C1051.54 779.807 1057 796.716 1067.06 796.8C1077.13 796.883 1066.61 743.129 1083.62 745.237C1100.6 747.344 1102.49 772.866 1104.65 769.588C1106.81 766.31 1107.48 747.528 1103.36 735.352C1099.25 723.16 1092.56 715.717 1092.56 715.717L1092.54 715.684Z" fill="url(#paint6_linear_741_596)"/>
<path d="M1193.55 586.178C1194.19 628.994 1184.14 645.134 1179.96 659.35C1175.19 675.523 1166.5 698.252 1166.5 698.252H1272.24V308.511H1240.14C1240.14 308.511 1218.12 355.726 1175.31 359.506C1112.32 365.058 1152.35 465.859 1157.65 480.878C1166.63 506.384 1193.27 565.874 1193.55 586.178Z" fill="url(#paint7_linear_741_596)"/>
<path d="M1272.24 570.992V423.629C1331.93 423.629 1344.11 351.745 1344.11 351.745L1369.19 359.505C1369.19 359.505 1389.2 418.377 1389.17 450.723C1389.17 463.016 1389.8 474.239 1384.4 487.518C1368.05 530.464 1356.08 566.051 1353.62 570.975H1272.26" fill="url(#paint8_linear_741_596)"/>
<path d="M1272.24 570.992V423.629C1212.55 423.629 1200.37 351.745 1200.37 351.745L1175.29 359.505C1175.29 359.505 1155.28 418.377 1155.31 450.723C1155.31 463.016 1154.68 474.239 1160.08 487.518C1177.32 529.849 1189.77 565.389 1190.86 570.975H1272.22" fill="url(#paint9_linear_741_596)"/>
<g filter="url(#filter0_d_741_596)">
<path d="M1344.11 351.745L1151.08 431.172C1146.97 448.114 1151.58 464.739 1157.67 480.878C1157.67 480.878 1279.18 429.399 1323.87 429.399C1368.57 429.399 1386.85 480.878 1386.85 480.878C1393.27 476.998 1395.21 367.818 1369.19 359.505C1344.91 351.745 1344.11 351.745 1344.11 351.745Z" fill="url(#paint10_linear_741_596)" shape-rendering="crispEdges"/>
</g>
<path d="M1304.38 264.575H1240.14V308.511H1304.38V264.575Z" fill="#F1E1E2"/>
<path d="M1206.24 680.039C1206.24 680.039 1149.01 730.966 1143.64 792.882C1138.27 854.797 1170.14 990.286 1170.14 990.286L1229.52 1001.66C1229.52 1001.66 1236.99 970.45 1245.94 886.658C1257.64 776.976 1297.81 681.711 1297.81 681.711L1206.23 680.022L1206.24 680.039Z" fill="url(#paint11_linear_741_596)"/>
<path d="M1334.56 680.039C1334.56 680.039 1391.79 730.966 1397.16 792.882C1402.53 854.797 1370.66 990.286 1370.66 990.286L1311.28 1001.66C1311.28 1001.66 1303.81 970.45 1294.86 886.658C1283.16 776.976 1243 681.711 1243 681.711L1334.58 680.022L1334.56 680.039Z" fill="url(#paint12_linear_741_596)"/>
<g filter="url(#filter1_d_741_596)">
<path d="M1177.12 668.432L1273.89 664.156L1367.37 668.432L1418.03 796.11C1418.03 796.11 1351.55 839.377 1272.24 839.377C1192.93 839.377 1131.43 792.932 1131.43 792.932L1177.12 668.432Z" fill="url(#paint13_linear_741_596)"/>
</g>
<path d="M1272.11 153.036C1219.77 153.036 1198.4 183.961 1192.77 232.396C1191.1 252.758 1192.77 270.395 1192.77 270.395L1272.11 277.403V153.036Z" fill="#F1E1E2"/>
<path d="M1271.81 153.036C1324.14 153.036 1351.15 183.024 1351.15 232.396C1351.15 264.592 1351.15 283.574 1351.15 283.574L1271.81 277.403V153.036Z" fill="#F1E1E2"/>
<path d="M1333.13 235.409C1329.9 231.287 1321.24 237.126 1317.31 240.56C1315.72 245.099 1312.53 255.427 1312.53 260.431C1312.53 266.687 1314 267.055 1318.78 268.895C1323.57 270.734 1337.18 240.56 1333.13 235.409Z" fill="#E1A59B"/>
<path d="M1210.97 235.409C1214.21 231.287 1222.87 237.126 1226.79 240.56C1228.39 245.099 1231.58 255.427 1231.58 260.431C1231.58 266.687 1230.11 267.055 1225.32 268.895C1220.54 270.734 1206.92 240.56 1210.97 235.409Z" fill="#E1A59B"/>
<path d="M1272.24 171.735C1242.95 171.735 1218.33 200.97 1219.87 240.223C1221.41 279.477 1247.68 308.511 1272.24 308.511C1296.8 308.511 1323.74 279.276 1323.74 240.123C1323.74 200.97 1303.84 171.735 1272.24 171.735Z" fill="url(#paint14_linear_741_596)"/>
<path d="M1205.81 214.856H1210.23V271.893L1205.81 271.525V214.856Z" fill="#FFF1F2"/>
<path d="M1332.4 224.424H1341.23V282.564L1332.4 282.196V224.424Z" fill="#FFF1F2"/>
<path d="M1217.01 264.575C1217.7 246.562 1217.01 215.654 1237.73 204.783C1258.45 193.912 1268.63 201.723 1281.2 187.456C1293.78 173.19 1299.65 156.348 1299.65 156.348C1299.65 156.348 1250.37 142.7 1218.4 170.514C1186.43 198.327 1217 264.575 1217 264.575H1217.01Z" fill="#F8F2F2"/>
<path d="M1342.12 260.494C1328.49 235.306 1285.97 210.52 1288.86 186.168C1291.75 161.817 1299.65 156.348 1299.65 156.348C1299.65 156.348 1333.94 162.727 1345.65 196.458C1358.16 232.519 1342.13 260.494 1342.13 260.494H1342.12Z" fill="#F8F2F2"/>
<path d="M1170.14 990.286C1170.14 990.286 1162.22 1078.06 1163.44 1115.25C1164.66 1152.45 1184.57 1269.11 1184.57 1269.11H1217.81C1217.81 1269.11 1232.24 1129.34 1232.43 1092.04C1232.61 1054.74 1229.52 1001.66 1229.52 1001.66L1170.14 990.286Z" fill="url(#paint15_linear_741_596)"/>
<path d="M1370.73 990.286C1370.73 990.286 1378.65 1078.06 1377.43 1115.25C1376.21 1152.45 1356.3 1269.11 1356.3 1269.11H1323.06C1323.06 1269.11 1308.63 1129.34 1308.44 1092.04C1308.24 1053.52 1311.35 1001.66 1311.35 1001.66L1370.73 990.286Z" fill="url(#paint16_linear_741_596)"/>
<rect x="1219.8" y="260.486" width="3.67977" height="39.7415" fill="#FF9898"/>
<rect x="1322.09" y="260.486" width="3.67977" height="24.2865" fill="#FF9898"/>
<path d="M1216.28 186.559C1222.17 169.798 1238.79 165.572 1247.94 164.003C1222.79 168.57 1214.35 197.676 1213.27 211.659C1212.87 209.242 1211.41 200.407 1216.28 186.559Z" fill="white"/>
<path d="M1329.84 187.084C1326.48 177.53 1317 175.122 1311.79 174.227C1326.13 176.83 1330.94 193.421 1331.55 201.39C1331.78 200.013 1332.61 194.977 1329.84 187.084Z" fill="white"/>
<rect x="1069.96" y="707.873" width="26.4031" height="6.76397" transform="rotate(8.76329 1069.96 707.873)" fill="#E6FF4F"/>
<circle cx="1272.05" cy="679.979" r="5.88721" fill="#231815"/>
<rect x="102" y="183" width="620" height="833" rx="20" fill="white"/>
<path d="M160.272 231.436L164.232 232.408C162.9 236.224 160.632 239.896 158.184 242.236C157.5 241.516 155.952 240.148 155.052 239.536C157.32 237.592 159.228 234.532 160.272 231.436ZM160.164 241.624L164.088 242.74C162.828 245.512 160.776 248.356 158.832 250.156C158.148 249.436 156.564 248.212 155.664 247.6C157.5 246.124 159.228 243.856 160.164 241.624ZM160.884 234.352H175.248V237.988H159.444L160.884 234.352ZM165.528 238.852H169.668V248.32C169.668 250.156 169.38 251.164 168.048 251.776C166.824 252.352 165.168 252.388 162.972 252.388C162.792 251.272 162.18 249.688 161.64 248.68C163.008 248.716 164.52 248.716 164.952 248.716C165.384 248.68 165.528 248.572 165.528 248.212V238.852ZM170.46 243.208L173.916 241.588C175.644 243.676 177.444 246.448 178.272 248.32L174.636 250.264C173.88 248.356 172.08 245.368 170.46 243.208ZM174.132 234.352H174.744L175.428 234.244L178.452 234.892C177.624 237.196 176.508 239.788 175.644 241.444L171.972 240.688C172.692 239.212 173.628 236.8 174.132 234.856V234.352ZM153.252 231.256L157.068 232.552C154.764 237.124 151.02 241.732 147.456 244.612C146.988 243.748 145.656 241.948 144.864 241.12C148.14 238.78 151.344 235.036 153.252 231.256ZM150.048 238.96L154.08 234.892L154.188 234.928V252.568H150.048V238.96ZM153.072 254.08H157.428V259.408C157.428 260.524 157.788 260.668 159.912 260.668C160.884 260.668 164.916 260.668 166.176 260.668C167.94 260.668 168.228 260.2 168.444 256.744C169.344 257.428 171.216 258.076 172.368 258.292C171.864 263.368 170.604 264.592 166.5 264.592C165.42 264.592 160.56 264.592 159.516 264.592C154.368 264.592 153.072 263.404 153.072 259.516V254.08ZM158.832 252.928L162.108 251.056C163.944 252.784 166.068 255.232 166.968 256.996L163.368 259.084C162.612 257.356 160.596 254.764 158.832 252.928ZM170.856 254.692L174.672 253.18C176.292 255.808 177.984 259.192 178.56 261.532L174.456 263.188C173.988 260.92 172.44 257.356 170.856 254.692ZM148.644 253.972L152.496 255.556C151.632 258.112 150.408 261.532 149.256 263.764L145.188 261.856C146.52 259.732 147.852 256.564 148.644 253.972ZM188.316 244.972H196.632V248.932H188.316V244.972ZM194.976 244.972H199.188C199.188 244.972 199.152 246.052 199.152 246.556C199.008 254.188 198.828 257.392 198 258.508C197.28 259.408 196.56 259.732 195.516 259.912C194.544 260.056 192.996 260.056 191.304 260.02C191.232 258.76 190.764 257.068 190.116 255.988C191.412 256.132 192.636 256.132 193.212 256.132C193.716 256.132 194.04 256.06 194.328 255.7C194.76 255.124 194.904 252.604 194.976 245.62V244.972ZM205.812 233.704L208.404 231.076C210.384 232.12 213.048 233.776 214.344 234.964L211.572 237.88C210.384 236.62 207.828 234.856 205.812 233.704ZM210.06 242.956L214.416 244C211.392 253.396 206.1 260.704 198.972 265.096C198.324 264.196 196.74 262.396 195.84 261.532C202.752 257.824 207.576 251.308 210.06 242.956ZM188.568 236.836H216.324V241.084H188.568V236.836ZM185.688 236.836H190.224V247.42C190.224 252.82 189.612 260.812 186.336 265.672C185.616 264.808 183.672 263.224 182.664 262.72C185.436 258.4 185.688 252.1 185.688 247.384V236.836ZM200.304 231.472H204.84C204.588 246.16 207.9 260.596 211.536 260.596C212.364 260.596 212.796 258.76 213.012 254.224C213.984 255.232 215.532 256.24 216.684 256.672C216 263.368 214.56 264.988 211.176 264.988C203.328 264.988 200.412 247.888 200.304 231.472ZM221.04 235.324H234.612V239.392H221.04V235.324ZM235.152 239.104H251.28V243.244H235.152V239.104ZM225.72 236.98H229.968V255.088H225.72V236.98ZM249.264 239.104H253.512C253.512 239.104 253.512 240.508 253.476 241.048C253.08 255.7 252.684 261.028 251.388 262.756C250.452 264.052 249.552 264.448 248.184 264.664C246.96 264.88 244.98 264.844 243 264.772C242.928 263.548 242.424 261.712 241.668 260.524C243.576 260.704 245.304 260.704 246.132 260.704C246.816 260.704 247.176 260.56 247.572 260.092C248.544 258.976 248.94 253.648 249.264 239.968V239.104ZM220.536 254.62C224.172 253.864 229.788 252.424 234.972 251.056L235.548 255.16C230.724 256.564 225.54 258.04 221.544 259.12L220.536 254.62ZM240.228 232.012H244.62C244.548 247.024 244.476 258.868 233.712 265.312C233.1 264.196 231.732 262.576 230.652 261.784C240.588 256.204 240.156 245.944 240.228 232.012ZM265.896 241.912H284.58V245.872H265.896V241.912ZM259.272 248.536H291.528V252.568H259.272V248.536ZM268.236 251.488H272.664C272.304 259.12 270.972 263.296 260.856 265.24C260.532 264.16 259.452 262.468 258.624 261.568C267.3 260.164 267.948 257.464 268.236 251.488ZM277.452 250.912H281.844V259.516C281.844 260.668 282.024 260.812 283.284 260.812C283.86 260.812 286.092 260.812 286.812 260.812C287.928 260.812 288.144 260.2 288.288 256.42C289.188 257.104 291.024 257.788 292.176 258.076C291.708 263.332 290.592 264.736 287.208 264.736C286.344 264.736 283.5 264.736 282.672 264.736C278.46 264.736 277.452 263.44 277.452 259.516V250.912ZM259.92 235.144H290.736V244.144H286.236V239.284H264.24V244.144H259.92V235.144ZM271.908 232.3L276.336 231.04C277.272 232.624 278.244 234.784 278.604 236.224L273.888 237.628C273.6 236.26 272.772 233.992 271.908 232.3ZM301.716 244.972H310.032V248.932H301.716V244.972ZM308.376 244.972H312.588C312.588 244.972 312.552 246.052 312.552 246.556C312.408 254.188 312.228 257.392 311.4 258.508C310.68 259.408 309.96 259.732 308.916 259.912C307.944 260.056 306.396 260.056 304.704 260.02C304.632 258.76 304.164 257.068 303.516 255.988C304.812 256.132 306.036 256.132 306.612 256.132C307.116 256.132 307.44 256.06 307.728 255.7C308.16 255.124 308.304 252.604 308.376 245.62V244.972ZM319.212 233.704L321.804 231.076C323.784 232.12 326.448 233.776 327.744 234.964L324.972 237.88C323.784 236.62 321.228 234.856 319.212 233.704ZM323.46 242.956L327.816 244C324.792 253.396 319.5 260.704 312.372 265.096C311.724 264.196 310.14 262.396 309.24 261.532C316.152 257.824 320.976 251.308 323.46 242.956ZM301.968 236.836H329.724V241.084H301.968V236.836ZM299.088 236.836H303.624V247.42C303.624 252.82 303.012 260.812 299.736 265.672C299.016 264.808 297.072 263.224 296.064 262.72C298.836 258.4 299.088 252.1 299.088 247.384V236.836ZM313.704 231.472H318.24C317.988 246.16 321.3 260.596 324.936 260.596C325.764 260.596 326.196 258.76 326.412 254.224C327.384 255.232 328.932 256.24 330.084 256.672C329.4 263.368 327.96 264.988 324.576 264.988C316.728 264.988 313.812 247.888 313.704 231.472ZM348.876 244.144H353.448V260.308C353.448 262.756 352.872 263.944 351.072 264.592C349.272 265.24 346.68 265.312 343.224 265.276C342.972 264.016 342.18 262.108 341.496 260.92C344.052 261.028 347.004 261.028 347.832 260.992C348.624 260.992 348.876 260.812 348.876 260.2V244.144ZM336.348 233.956H361.512V238.204H336.348V233.956ZM360.216 233.956H361.44L362.412 233.704L365.832 236.26C362.16 240.22 356.76 244.612 351.756 247.24C351.108 246.304 349.74 244.864 348.876 244.144C353.196 241.84 358.164 237.736 360.216 235V233.956ZM372.888 238.42H404.748V242.812H372.888V238.42ZM378.9 254.764H398.52V259.156H378.9V254.764ZM386.46 231.436H391.068V265.24H386.46V231.436ZM382.824 240.004L386.784 241.156C384.3 248.824 380.124 255.736 374.832 259.876C374.076 258.796 372.636 257.212 371.628 256.348C376.56 253 380.736 246.484 382.824 240.004ZM394.596 240.112C396.684 246.376 400.824 252.604 405.792 255.916C404.676 256.78 403.128 258.508 402.336 259.732C397.152 255.664 393.12 248.752 390.672 241.228L394.596 240.112ZM424.296 231.436L428.976 232.264C427.608 238.78 425.196 245.008 422.316 248.896C421.416 248.212 419.22 246.988 418.068 246.484C421.056 243.064 423.216 237.304 424.296 231.436ZM425.088 237.052H439.596V241.336H423L425.088 237.052ZM438.228 237.052H438.84L439.704 236.8L442.872 238.636C441.936 242.488 440.388 246.412 439.092 249.148C438.192 248.644 436.428 247.78 435.42 247.384C436.428 245.044 437.76 241.048 438.228 238.024V237.052ZM410.04 237.016L412.632 233.848C415.08 235.144 418.392 237.196 420.012 238.708L417.24 242.272C415.764 240.724 412.524 238.456 410.04 237.016ZM409.608 259.048C411.624 256.348 414.468 251.92 416.772 247.744L420.192 250.624C418.176 254.476 415.836 258.472 413.64 262L409.608 259.048ZM432.468 245.296C433.908 252.82 437.076 258.688 443.736 261.136C442.764 261.964 441.432 263.8 440.856 264.988C433.584 261.784 430.488 255.124 428.724 245.872L432.468 245.296ZM428.364 242.452H433.008V244.792C433.008 250.516 431.82 259.84 420.66 265.564C419.976 264.484 418.392 262.9 417.276 262.108C427.392 257.212 428.364 249.4 428.364 244.684V242.452ZM468.612 234.424H472.608V260.38H468.612V234.424ZM475.812 232.3H480.132V264.808H475.812V232.3ZM461.196 232.552H465.48V245.116C465.48 252.028 465.12 259.372 461.592 265.168C460.584 264.376 458.64 263.224 457.344 262.756C460.836 257.572 461.196 251.344 461.196 245.08V232.552ZM449.028 234.676L451.692 231.796C453.852 233.38 456.912 235.684 458.352 237.232L455.508 240.472C454.176 238.888 451.224 236.404 449.028 234.676ZM452.16 264.988L451.08 260.92L451.8 259.552L458.424 253.792C458.82 254.98 459.576 256.636 460.116 257.428C453.888 262.972 452.736 264.088 452.16 264.988ZM447.516 242.524H454.068V246.664H447.516V242.524ZM452.16 265.024C451.764 264.124 450.648 262.612 449.964 262C450.756 261.316 451.728 259.984 451.728 258.04V242.524H455.868V260.344C455.868 260.344 452.16 263.476 452.16 265.024ZM486.648 255.916C486.432 255.124 485.82 253.252 485.352 252.244C486.216 252.028 486.936 251.2 487.908 249.94C488.952 248.644 492.084 243.82 493.992 239.104L497.52 241.192C495.288 245.728 492.264 250.444 489.24 253.828V253.936C489.24 253.936 486.648 255.196 486.648 255.916ZM486.612 255.916L486.324 252.532L488.052 251.236L496.836 249.58C496.728 250.696 496.692 252.316 496.8 253.18C488.88 254.944 487.476 255.412 486.612 255.916ZM486.36 247.132C486.144 246.304 485.46 244.324 484.956 243.244C485.676 243.028 486.252 242.236 486.9 241.048C487.548 239.896 489.564 235.288 490.5 231.076L494.496 232.84C493.128 237.052 490.824 241.732 488.592 244.936V245.08C488.592 245.08 486.36 246.376 486.36 247.132ZM486.36 247.132L486.252 244.216L487.98 243.064L494.1 242.632C493.92 243.64 493.704 245.152 493.704 245.98C488.232 246.556 487.08 246.808 486.36 247.132ZM485.388 259.3C488.016 258.472 492.048 256.96 496.08 255.484L496.8 258.688C493.2 260.416 489.42 262.144 486.36 263.548L485.388 259.3ZM499.14 252.856V249.544L501.192 248.392H517.32V252.28H502.56C501.012 252.28 499.464 252.496 499.14 252.856ZM497.52 235.108H517.824V239.032H497.52V235.108ZM499.14 252.856C498.96 252.1 498.312 250.228 497.844 249.184C498.672 248.932 499.212 247.816 499.968 245.98C500.688 244.252 502.884 237.412 503.82 231.22L508.032 231.796C506.628 238.564 504.252 245.62 502.02 250.588V250.66C502.02 250.66 499.14 252.1 499.14 252.856ZM511.776 255.34L515.16 253.756C516.528 256.204 518.292 259.516 519.156 261.532L515.556 263.368C514.8 261.352 513.108 257.896 511.776 255.34ZM506.448 241.588H510.624V260.704C510.624 262.72 510.228 263.764 508.968 264.412C507.672 265.06 505.872 265.096 503.388 265.096C503.208 263.98 502.704 262.324 502.2 261.244C503.64 261.28 505.296 261.28 505.8 261.28C506.268 261.244 506.448 261.1 506.448 260.668V241.588ZM500.544 253.684L504.468 254.836C502.992 257.896 500.868 261.424 498.636 263.656C497.916 262.936 496.512 261.892 495.648 261.352C497.664 259.336 499.608 256.132 500.544 253.684ZM498.096 241.588H508.968V245.512H498.096V241.588ZM529.128 252.748L528.192 240.436L528.012 235.072H533.952L533.772 240.436L532.836 252.748H529.128ZM531 262.36C529.128 262.36 527.796 261.028 527.796 259.156C527.796 257.284 529.164 255.988 531 255.988C532.8 255.988 534.168 257.284 534.168 259.156C534.168 261.028 532.8 262.36 531 262.36ZM146.052 296.316H178.02V300.024H146.052V296.316ZM172.584 312.948H176.832V323.424C176.832 325.368 176.292 326.232 174.78 326.736C173.304 327.24 171.216 327.24 168.336 327.24C168.12 326.268 167.472 324.936 166.932 324.036C168.768 324.144 171.18 324.108 171.756 324.108C172.368 324.072 172.584 323.928 172.584 323.388V312.948ZM164.088 317.628L166.752 315.864C168.228 317.628 170.316 320.076 171.288 321.552L168.516 323.604C167.616 322.056 165.6 319.5 164.088 317.628ZM155.484 302.04L157.14 300.132C160.992 301.68 166.464 304.056 169.308 305.604L167.544 307.836C164.844 306.288 159.444 303.768 155.484 302.04ZM147.42 312.948H173.952V316.584H151.632V327.168H147.42V312.948ZM149.832 300.924H153.936V307.836H170.244V300.924H174.564V311.112H149.832V300.924ZM166.428 299.952L169.02 301.284C165.6 303.696 160.704 306.252 156.78 307.872C156.348 307.296 155.34 306.144 154.692 305.604C158.724 304.272 163.404 302.076 166.428 299.952ZM154.728 323.964C154.512 323.136 153.828 321.048 153.324 319.932C154.152 319.716 154.8 319.032 155.664 317.916C156.564 316.836 159.264 312.516 160.812 308.412L164.664 310.68C162.72 314.568 159.876 318.816 157.068 321.768V321.912C157.068 321.912 154.728 323.208 154.728 323.964ZM154.728 323.964L154.584 321.12L156.384 319.968L167.904 318.816C167.94 319.788 168.156 321.156 168.372 321.912C157.32 323.208 155.736 323.46 154.728 323.964ZM158.58 294.192L162.432 293.076C163.152 294.408 163.98 296.244 164.376 297.36L160.308 298.692C159.984 297.504 159.228 295.596 158.58 294.192ZM190.476 306.252H211.392V309.276H190.476V306.252ZM191.988 301.86H213.408V313.956H191.556V311.04H209.34V304.74H191.988V301.86ZM200.16 299.448H204.552V323.1C204.552 325.26 204.048 326.16 202.608 326.736C201.096 327.276 199.044 327.312 196.02 327.312C195.804 326.268 195.264 324.756 194.688 323.784C196.488 323.892 198.72 323.892 199.296 323.856C199.944 323.82 200.16 323.64 200.16 323.064V299.448ZM190.62 315.972L192.888 313.596C194.508 314.496 196.884 315.9 198.108 316.8L195.696 319.428C194.616 318.492 192.312 316.98 190.62 315.972ZM211.896 313.884L215.1 316.44C212.832 317.88 210.24 319.356 208.224 320.256L205.812 318.132C207.72 317.052 210.384 315.216 211.896 313.884ZM204.3 313.992C206.496 318.096 210.924 321.12 216.756 322.308C215.892 323.136 214.776 324.72 214.236 325.728C208.152 324.036 203.796 320.184 201.348 314.748L204.3 313.992ZM189.036 321.552C191.952 320.58 196.524 318.816 200.808 317.124L201.528 320.076C197.784 321.84 193.788 323.676 190.62 325.08L189.036 321.552ZM187.776 296.244H216.216V299.988H187.776V296.244ZM185.724 296.244H189.828V306.72C189.828 312.588 189.288 321.48 186.048 327.096C185.292 326.376 183.492 325.188 182.52 324.756C185.508 319.608 185.724 312.048 185.724 306.72V296.244ZM198.36 294.12L202.68 293.04C203.544 294.408 204.48 296.28 204.948 297.468L200.52 298.8C200.124 297.54 199.152 295.56 198.36 294.12ZM211.32 305.928H216.612V309.6H211.32V305.928ZM231.048 308.556V310.068H245.808V308.556H231.048ZM231.048 304.452V305.928H245.808V304.452H231.048ZM226.692 301.608H250.344V312.912H226.692V301.608ZM228.42 293.436L232.308 294.624C230.364 298.728 227.052 302.724 223.704 305.244C223.128 304.416 221.76 302.724 220.932 301.968C223.956 299.988 226.872 296.82 228.42 293.436ZM229.356 296.532H252.792V300.024H227.592L229.356 296.532ZM231.48 311.832L235.152 313.164C232.74 316.404 228.852 319.464 225.504 321.336C224.82 320.616 223.38 319.248 222.48 318.6C225.936 317.052 229.464 314.496 231.48 311.832ZM230.76 314.424H246.996V317.556H227.772L230.76 314.424ZM245.88 314.424H246.708L247.392 314.244L250.056 315.9C244.908 323.352 233.568 326.232 222.012 327.24C221.796 326.16 221.076 324.432 220.464 323.46C231.3 322.848 241.956 320.436 245.88 314.928V314.424ZM231.12 316.332C235.332 320.832 244.08 322.812 254.664 323.172C253.8 324.072 252.828 325.8 252.324 326.88C241.632 326.16 233.028 323.532 228.06 317.448L231.12 316.332ZM267.48 298.872C271.044 310.968 278.892 319.608 292.572 322.812C291.6 323.712 290.268 325.656 289.656 326.808C275.184 323.028 267.66 313.848 263.268 300.024L267.48 298.872ZM260.928 295.452H285.732V299.736H260.928V295.452ZM284.508 295.452H285.3L286.02 295.236L289.044 296.604C285.156 313.74 274.716 322.812 261.216 326.736C260.784 325.62 259.452 323.568 258.48 322.668C271.62 319.248 281.232 311.616 284.508 296.352V295.452ZM312.012 303.516H329.688V307.512H312.012V303.516ZM319.356 305.316H323.64V320.796H319.356V305.316ZM305.172 306.288V320.976H300.96V310.572H296.856V306.288H305.172ZM309.6 295.56H313.992V303.48C313.992 308.664 313.416 316.296 310.14 321.084C309.384 320.328 307.44 318.996 306.432 318.492C309.348 314.136 309.6 307.944 309.6 303.48V295.56ZM325.8 293.508L329.328 296.712C324.18 298.368 316.944 299.016 310.752 299.16C310.608 298.152 310.068 296.496 309.6 295.56C315.432 295.344 322.02 294.696 325.8 293.508ZM302.94 318.744C304.2 318.744 305.136 319.752 307.224 320.868C309.636 322.236 312.984 322.452 317.016 322.452C320.832 322.452 326.7 322.164 330.3 321.624C329.832 322.776 329.112 324.936 329.076 326.124C326.52 326.304 320.544 326.52 316.836 326.52C312.264 326.52 309.204 326.088 306.54 324.648C304.884 323.784 303.696 322.632 302.868 322.632C301.788 322.632 300.24 325.008 298.908 327.132L296.064 322.992C298.476 320.436 301.104 318.744 302.94 318.744ZM297.36 296.172L300.672 294.048C302.58 295.92 305.064 298.584 306.216 300.348L302.652 302.796C301.644 301.032 299.268 298.188 297.36 296.172ZM348.876 306.144H353.448V322.308C353.448 324.756 352.872 325.944 351.072 326.592C349.272 327.24 346.68 327.312 343.224 327.276C342.972 326.016 342.18 324.108 341.496 322.92C344.052 323.028 347.004 323.028 347.832 322.992C348.624 322.992 348.876 322.812 348.876 322.2V306.144ZM336.348 295.956H361.512V300.204H336.348V295.956ZM360.216 295.956H361.44L362.412 295.704L365.832 298.26C362.16 302.22 356.76 306.612 351.756 309.24C351.108 308.304 349.74 306.864 348.876 306.144C353.196 303.84 358.164 299.736 360.216 297V295.956ZM372.168 307.62H405.504V312.336H372.168V307.62ZM418.176 308.916L422.352 310.356C420.3 313.596 417.024 316.908 414.18 318.996C413.46 318.132 411.876 316.512 410.94 315.756C413.676 314.136 416.556 311.544 418.176 308.916ZM436.68 309.204L440.892 311.148C435.492 321.084 426.024 325.188 412.38 327.204C411.984 325.944 411.084 324.216 410.184 323.1C423.072 321.552 432.18 317.988 436.68 309.204ZM410.4 303.804H442.728V307.908H410.4V303.804ZM428.184 296.316H440.172V300.348H428.184V296.316ZM425.124 293.436H429.768V306.18H425.124V293.436ZM415.332 295.776H419.724V305.82H415.332V295.776ZM424.584 306.864H429.192V318.456H424.584V306.864ZM453.348 328.968L452.196 326.088C455.22 325.116 456.876 323.352 456.876 321.3L456.624 317.736L458.604 320.976C458.028 321.516 457.272 321.768 456.48 321.768C454.68 321.768 453.024 320.616 453.024 318.528C453.024 316.512 454.644 315.288 456.588 315.288C459.108 315.288 460.476 317.232 460.476 320.256C460.476 324.324 457.812 327.636 453.348 328.968ZM486.18 302.472H518.472V306.9H486.18V302.472ZM496.404 320.328L500.004 317.844C502.2 319.752 505.044 322.488 506.34 324.36L502.488 327.168C501.336 325.296 498.6 322.38 496.404 320.328ZM505.152 304.524C507.348 312.876 511.956 319.968 519.444 323.208C518.364 324.144 516.924 325.98 516.204 327.24C508.14 323.208 503.676 315.504 500.976 305.496L505.152 304.524ZM499.752 293.436H504.468C504.324 304.524 504.288 319.824 488.34 327.276C487.692 326.088 486.36 324.504 485.1 323.568C500.328 317.052 499.608 303.264 499.752 293.436ZM523.872 300.888H534.744V304.884H523.872V300.888ZM527.616 293.436H531.396V327.24H527.616V293.436ZM527.364 303.624L529.776 304.416C528.948 309.996 527.148 316.98 524.808 320.652C524.448 319.464 523.512 317.772 522.9 316.692C524.916 313.596 526.68 308.052 527.364 303.624ZM531.504 304.632C532.188 305.532 534.816 309.636 535.392 310.572L533.196 313.668C532.476 311.688 530.604 307.872 529.74 306.324L531.504 304.632ZM535.788 295.776H555.372V299.124H535.788V295.776ZM535.032 305.388H556.128V308.844H535.032V305.388ZM536.436 318.42H553.968V321.984H536.436V318.42ZM539.64 312.696H550.872V316.08H539.64V312.696ZM536.76 300.636H554.4V303.804H536.76V300.636ZM543.564 309.888H547.776V327.204H543.564V309.888ZM551.34 307.116C552.564 309.996 554.976 313.02 557.46 314.604C556.596 315.288 555.372 316.584 554.724 317.484C552.132 315.396 549.684 311.616 548.316 308.052L551.34 307.116ZM543.924 293.4L548.1 294.048C546.408 303.3 543.204 312.588 535.572 317.88C535.14 316.836 534.132 315.18 533.484 314.28C540.072 309.852 542.808 301.356 543.924 293.4ZM575.676 306.144H580.248V322.308C580.248 324.756 579.672 325.944 577.872 326.592C576.072 327.24 573.48 327.312 570.024 327.276C569.772 326.016 568.98 324.108 568.296 322.92C570.852 323.028 573.804 323.028 574.632 322.992C575.424 322.992 575.676 322.812 575.676 322.2V306.144ZM563.148 295.956H588.312V300.204H563.148V295.956ZM587.016 295.956H588.24L589.212 295.704L592.632 298.26C588.96 302.22 583.56 306.612 578.556 309.24C577.908 308.304 576.54 306.864 575.676 306.144C579.996 303.84 584.964 299.736 587.016 297V295.956ZM604.728 314.748L603.792 302.436L603.612 297.072H609.552L609.372 302.436L608.436 314.748H604.728ZM606.6 324.36C604.728 324.36 603.396 323.028 603.396 321.156C603.396 319.284 604.764 317.988 606.6 317.988C608.4 317.988 609.768 319.284 609.768 321.156C609.768 323.028 608.4 324.36 606.6 324.36Z" fill="#231815"/>
<rect x="237" y="886" width="351" height="85" rx="20" fill="#FFA248"/>
<path d="M346.792 926.36V940.652H342.472V930.464H338.44V926.36H346.792ZM338.872 916.568L342.328 914.3C343.984 915.992 346.432 918.44 347.62 919.988L343.912 922.58C342.832 921.032 340.528 918.44 338.872 916.568ZM353.2 922.076H366.412V925.892H353.2V922.076ZM350.572 915.812H354.856V923.876C354.856 928.916 354.244 936.116 350.572 940.652C349.816 939.896 347.908 938.672 346.864 938.24C350.248 934.136 350.572 928.16 350.572 923.804V915.812ZM365.872 922.076H366.664L367.42 921.932L370.084 922.796C368.032 932.48 362.776 938.204 355.36 941.156C354.892 940.112 353.812 938.492 352.948 937.628C359.428 935.468 364.288 930.14 365.872 922.76V922.076ZM367.924 913.724L371.524 917.144C365.908 918.728 358.276 919.448 351.76 919.592C351.616 918.548 351.04 916.784 350.572 915.812C356.8 915.56 363.784 914.876 367.924 913.724ZM354.604 929.528L357.592 927.044C361.516 930.356 367.456 935.144 370.372 938.096L367.06 941.12C364.396 938.06 358.672 933.092 354.604 929.528ZM344.344 938.852C345.676 938.852 346.72 939.932 348.952 941.012C351.472 942.272 354.928 942.488 358.96 942.488C362.776 942.488 368.464 942.164 372.064 941.624C371.56 942.812 370.84 944.972 370.768 946.232C368.392 946.412 362.524 946.628 358.816 946.628C354.244 946.628 351.04 946.16 348.232 944.828C346.396 943.928 345.1 942.812 344.236 942.812C343.228 942.812 341.788 945.26 340.636 947.204L337.648 942.992C340.06 940.4 342.616 938.852 344.344 938.852ZM389.344 927.08V933.308H395.716V927.08H389.344ZM385.276 923.3H400.036V937.052H385.276V923.3ZM377.356 914.66H408.244V947.24H403.564V919.052H381.82V947.24H377.356V914.66ZM379.876 941.264H406.228V945.296H379.876V941.264ZM421.348 930.428H439.78V933.74H421.348V930.428ZM421.348 936.08H439.78V939.356H421.348V936.08ZM421.348 941.804H439.816V945.548H421.348V941.804ZM414.328 918.26H446.98V922.256H414.328V918.26ZM417.856 924.488H443.128V947.24H438.628V928.232H422.176V947.24H417.856V924.488ZM428.368 920.636L433.84 920.78C433.012 923.084 431.86 925.244 431.032 926.792L426.82 926.288C427.468 924.632 428.08 922.328 428.368 920.636ZM436.792 913.328L441.76 914.408C440.356 916.496 438.772 918.476 437.548 919.808L433.696 918.728C434.812 917.216 436.072 914.984 436.792 913.328ZM419.944 914.876L423.796 913.184C425.164 914.444 426.604 916.208 427.36 917.432L423.328 919.52C422.716 918.26 421.24 916.28 419.944 914.876ZM452.776 915.128H484.312V919.124H452.776V915.128ZM465.664 917.108L470.632 917.756C469.696 920.096 468.508 922.4 467.644 923.984L463.9 923.228C464.584 921.464 465.34 918.944 465.664 917.108ZM466.24 927.836H470.74V934.388C470.74 939.572 467.896 944.468 454.504 947.276C454 946.376 452.776 944.684 451.804 943.82C464.224 941.516 466.24 937.808 466.24 934.28V927.836ZM469.66 940.616L472.108 937.664C476.104 939.248 481.864 941.984 484.708 943.892L482.044 947.312C479.416 945.332 473.8 942.416 469.66 940.616ZM455.728 922.4H481.612V939.032H476.968V926.36H460.156V939.14H455.728V922.4Z" fill="white"/>
<g filter="url(#filter2_d_741_596)">
<path d="M1445 294L1490 249H1547.5L1445 294Z" fill="white"/>
<rect x="1439" y="156" width="378" height="93" rx="10" fill="white"/>
</g>
<path d="M1485.8 207.016L1488.3 205.528C1490.46 207.232 1493.41 209.704 1494.85 211.408L1492.14 213.112C1490.86 211.432 1488.01 208.816 1485.8 207.016ZM1479.7 205.624L1482.78 206.8C1480.86 209.152 1478.05 211.648 1475.48 213.208C1474.88 212.608 1473.78 211.696 1473.1 211.216C1475.6 209.824 1478.36 207.496 1479.7 205.624ZM1478.5 195.136V201.184H1489.45V195.136H1478.5ZM1475.53 192.376H1492.54V203.92H1475.53V192.376ZM1498.26 203.44H1520.14V205.936H1498.26V203.44ZM1498.64 191.464H1519.64V193.96H1498.64V191.464ZM1513.14 204.496L1515.92 205.216C1513.5 210.832 1508.53 212.464 1499.72 213.184C1499.5 212.368 1499.07 211.36 1498.62 210.736C1506.63 210.376 1511.19 209.056 1513.14 204.496ZM1501.33 208.552L1503.27 206.56C1509.22 207.736 1515.66 209.488 1519.54 210.856L1517.24 213.112C1513.64 211.672 1507.59 209.872 1501.33 208.552ZM1504.95 192.448H1507.66V200.656H1504.95V192.448ZM1510.4 192.448H1513.11V200.656H1510.4V192.448ZM1502.43 197.584V199.84H1515.99V197.584H1502.43ZM1499.74 195.328H1518.87V202.096H1499.74V195.328ZM1501.33 208.552C1502.94 206.752 1504.9 204.016 1506.03 201.688L1509.01 202.384C1507.88 204.592 1506.06 207.112 1504.78 208.576L1501.33 208.552ZM1523.79 210.112H1545.1V212.608H1523.79V210.112ZM1526.05 205.288H1542.68V207.688H1526.05V205.288ZM1532.86 203.776H1535.79V211.456H1532.86V203.776ZM1533.37 191.56H1542.44V194.032H1533.37V191.56ZM1536.08 193.744C1537.62 197.464 1540.78 200.104 1545.56 201.136C1544.94 201.736 1544.12 202.888 1543.71 203.656C1538.72 202.216 1535.62 199.048 1533.8 194.32L1536.08 193.744ZM1541.53 191.56H1542.06L1542.54 191.488L1544.29 192.064C1542.87 198.304 1539.18 201.808 1533.97 203.56C1533.68 202.84 1533.01 201.688 1532.46 201.088C1537.04 199.864 1540.42 196.72 1541.53 191.992V191.56ZM1524.58 192.232H1527.18V202.336H1524.58V192.232ZM1529.34 191.32H1531.93V203.128H1529.34V191.32ZM1557.27 193.36H1569.82V195.952H1557.27V193.36ZM1556.46 202.576H1570.69V205.192H1556.46V202.576ZM1556.24 198.064H1570.88V200.68H1556.24V198.064ZM1562.19 190.72H1564.93V199.408H1562.19V190.72ZM1565.31 200.224H1568.05V210.136C1568.05 211.576 1567.78 212.296 1566.85 212.704C1565.96 213.136 1564.69 213.16 1562.94 213.16C1562.84 212.368 1562.48 211.216 1562.14 210.448C1563.22 210.52 1564.47 210.52 1564.83 210.496C1565.22 210.496 1565.31 210.4 1565.31 210.088V200.224ZM1557.78 206.56L1560.06 205.288C1561.06 206.512 1562.26 208.216 1562.74 209.368L1560.3 210.808C1559.89 209.656 1558.78 207.856 1557.78 206.56ZM1548.08 202.792C1550.05 202.36 1552.95 201.592 1555.74 200.824L1556.1 203.416C1553.58 204.184 1550.86 204.952 1548.73 205.576L1548.08 202.792ZM1548.46 195.184H1555.88V197.824H1548.46V195.184ZM1551.18 190.648H1553.84V209.968C1553.84 211.288 1553.6 212.032 1552.86 212.488C1552.14 212.92 1551.08 213.04 1549.54 213.016C1549.47 212.296 1549.14 211.12 1548.8 210.328C1549.66 210.376 1550.5 210.376 1550.79 210.376C1551.08 210.376 1551.18 210.28 1551.18 209.944V190.648ZM1585.9 191.416L1588.54 190.504C1589.26 191.68 1590.1 193.216 1590.42 194.272L1587.61 195.28C1587.34 194.272 1586.6 192.64 1585.9 191.416ZM1578.82 190.72L1581.61 191.608C1580.05 195.688 1577.53 200.08 1574.89 202.816C1574.62 202.096 1573.81 200.464 1573.3 199.744C1575.51 197.56 1577.6 194.152 1578.82 190.72ZM1576.4 197.344L1579.28 194.44L1579.3 194.464V213.136H1576.4V197.344ZM1581.1 195.136H1595.79V197.872H1581.1V195.136ZM1581.9 202.12H1595.12V204.856H1581.9V202.12ZM1580.58 209.656H1596.15V212.392H1580.58V209.656ZM1586.98 196.096H1589.91V211.408H1586.98V196.096ZM1602.63 214.312L1601.86 212.392C1603.88 211.744 1604.98 210.568 1604.98 209.2L1604.82 206.824L1606.14 208.984C1605.75 209.344 1605.25 209.512 1604.72 209.512C1603.52 209.512 1602.42 208.744 1602.42 207.352C1602.42 206.008 1603.5 205.192 1604.79 205.192C1606.47 205.192 1607.38 206.488 1607.38 208.504C1607.38 211.216 1605.61 213.424 1602.63 214.312ZM1626.39 191.464H1631.29V194.056H1626.39V191.464ZM1626.22 196.936H1630.69V199.552H1626.22V196.936ZM1626.22 202.528H1630.71V205.192H1626.22V202.528ZM1625.02 191.464H1627.59V200.176C1627.59 204.016 1627.38 209.608 1625.94 213.16C1625.46 212.752 1624.26 212.104 1623.61 211.888C1624.93 208.576 1625.02 203.728 1625.02 200.2V191.464ZM1629.8 191.464H1632.44V209.968C1632.44 211.192 1632.25 212.008 1631.53 212.464C1630.81 212.944 1629.87 213.016 1628.46 213.016C1628.38 212.272 1628.07 211 1627.71 210.28C1628.46 210.304 1629.2 210.304 1629.44 210.304C1629.7 210.28 1629.8 210.184 1629.8 209.896V191.464ZM1634.62 191.872L1637.31 192.352C1636.74 195.904 1635.68 199.456 1634.36 201.736C1633.86 201.328 1632.63 200.608 1631.98 200.296C1633.3 198.28 1634.14 195.04 1634.62 191.872ZM1638.37 190.936H1641.18V211.6H1638.37V190.936ZM1634 202.672H1645.5V205.336H1634V202.672ZM1633.02 209.848H1646.46V212.584H1633.02V209.848ZM1635.49 195.76H1645.86V198.472H1634.41L1635.49 195.76ZM1649.43 197.752H1660.95V200.416H1649.43V197.752ZM1662.1 193.528H1664.91V207.016H1662.1V193.528ZM1654.02 193H1656.85V213.136H1654.02V193ZM1667.79 191.08H1670.65V209.632C1670.65 211.336 1670.31 212.128 1669.33 212.608C1668.32 213.064 1666.74 213.16 1664.53 213.16C1664.38 212.32 1663.93 211 1663.52 210.184C1665.1 210.232 1666.64 210.232 1667.14 210.232C1667.6 210.232 1667.79 210.088 1667.79 209.632V191.08ZM1658.84 190.72L1660.9 192.928C1657.86 194.128 1653.63 194.944 1650.01 195.448C1649.89 194.8 1649.48 193.792 1649.14 193.192C1652.65 192.664 1656.51 191.776 1658.84 190.72ZM1653.99 199.024L1655.94 199.864C1654.74 203.464 1652.62 207.76 1650.37 210.16C1650.08 209.296 1649.36 208.096 1648.88 207.328C1650.94 205.336 1653.03 201.832 1653.99 199.024ZM1656.42 201.448C1657.35 202.048 1660.33 204.544 1661.02 205.168L1659.39 207.64C1658.34 206.344 1656.1 204.016 1654.93 202.936L1656.42 201.448ZM1678.21 199.336V201.352H1682.24V199.336H1678.21ZM1675.74 197.104H1684.88V203.584H1675.74V197.104ZM1674.7 193.36H1685.72V195.88H1674.7V193.36ZM1685.98 196.744H1696.74V199.312H1685.98V196.744ZM1690.71 200.536H1693.18V209.68C1693.18 210.088 1693.21 210.352 1693.28 210.448C1693.38 210.52 1693.5 210.568 1693.64 210.568C1693.78 210.568 1694.07 210.568 1694.26 210.568C1694.41 210.568 1694.58 210.544 1694.67 210.472C1694.79 210.424 1694.86 210.208 1694.91 209.776C1694.96 209.368 1694.98 208.336 1694.98 207.112C1695.51 207.592 1696.5 208.072 1697.22 208.312C1697.17 209.464 1697.05 210.736 1696.88 211.288C1696.69 211.864 1696.4 212.224 1695.97 212.416C1695.58 212.656 1694.98 212.704 1694.53 212.704C1694.1 212.704 1693.4 212.704 1693.02 212.704C1692.44 212.704 1691.74 212.536 1691.34 212.152C1690.9 211.744 1690.71 211.24 1690.71 209.56V200.536ZM1689.08 190.672H1691.79C1691.72 198.592 1691.55 207.856 1686.01 213.232C1685.58 212.608 1684.74 211.864 1683.99 211.432C1689.25 206.608 1689.03 198.016 1689.08 190.672ZM1679.19 202.912H1681.74V210.4C1681.74 211.528 1681.57 212.2 1680.82 212.608C1680.08 212.968 1679.14 213.016 1677.85 213.016C1677.75 212.296 1677.39 211.288 1677.06 210.64C1677.8 210.664 1678.59 210.664 1678.86 210.64C1679.12 210.64 1679.19 210.568 1679.19 210.328V202.912ZM1676.31 204.256L1678.64 204.76C1678.11 207.136 1677.22 209.632 1676.22 211.216C1675.78 210.832 1674.8 210.136 1674.27 209.848C1675.23 208.456 1675.9 206.32 1676.31 204.256ZM1682.1 204.88L1684.09 203.968C1684.86 205.312 1685.6 207.064 1685.86 208.24L1683.75 209.248C1683.54 208.048 1682.84 206.224 1682.1 204.88ZM1691.91 192.544L1693.78 191.464C1694.74 192.544 1695.87 194.104 1696.33 195.136L1694.36 196.36C1693.93 195.328 1692.87 193.72 1691.91 192.544ZM1678.35 191.152L1680.99 190.576C1681.5 191.584 1682.02 192.928 1682.24 193.792L1679.46 194.44C1679.29 193.576 1678.81 192.184 1678.35 191.152ZM1700.12 193.96H1721.53V196.72H1700.12V193.96ZM1707.94 201.736H1720.52V204.4H1707.94V201.736ZM1707.01 209.896H1721.43V212.56H1707.01V209.896ZM1712.84 197.752H1715.74V211.312H1712.84V197.752ZM1707.68 190.6L1710.68 191.32C1708.9 197.104 1705.88 202.936 1700.74 206.44C1700.46 205.624 1699.78 204.352 1699.35 203.656C1703.7 200.824 1706.43 195.448 1707.68 190.6ZM1702.88 200.656H1705.78V213.112H1702.88V200.656ZM1725.08 194.176H1746.92V196.792H1725.08V194.176ZM1727.91 202.36H1734.15V204.472H1727.91V202.36ZM1727.91 206.032H1734.15V208.168H1727.91V206.032ZM1737.97 198.688H1740.63V208.528H1737.97V198.688ZM1733.14 198.448H1735.93V210.328C1735.93 211.552 1735.69 212.224 1734.87 212.632C1734.08 213.064 1732.98 213.088 1731.49 213.088C1731.34 212.368 1730.94 211.312 1730.58 210.64C1731.46 210.688 1732.45 210.688 1732.74 210.664C1733.05 210.664 1733.14 210.568 1733.14 210.28V198.448ZM1742.79 198.04H1745.62V210.016C1745.62 211.408 1745.36 212.152 1744.4 212.584C1743.49 213.016 1742.19 213.112 1740.42 213.088C1740.27 212.32 1739.82 211.096 1739.41 210.352C1740.63 210.424 1741.88 210.424 1742.29 210.4C1742.67 210.4 1742.79 210.304 1742.79 209.968V198.04ZM1728.39 191.56L1731.13 190.6C1731.99 191.536 1732.95 192.808 1733.36 193.72L1730.46 194.752C1730.12 193.888 1729.23 192.52 1728.39 191.56ZM1740.7 190.552L1743.85 191.488C1742.86 193.024 1741.81 194.56 1740.97 195.616L1738.38 194.728C1739.19 193.6 1740.18 191.848 1740.7 190.552ZM1726.4 198.448H1733.96V200.848H1729.11V213.016H1726.4V198.448ZM1750.45 194.488H1771.98V197.272H1750.45V194.488ZM1758.37 200.2H1767.58V202.984H1758.37V200.2ZM1766.84 200.2H1769.84C1769.84 200.2 1769.82 201.064 1769.74 201.424C1769.31 208 1768.83 210.688 1767.82 211.72C1767.1 212.536 1766.34 212.776 1765.21 212.872C1764.27 212.968 1762.69 212.968 1761.08 212.896C1761.03 212.032 1760.6 210.832 1760.02 210.064C1761.7 210.184 1763.38 210.208 1764.1 210.208C1764.61 210.208 1764.94 210.16 1765.28 209.92C1766 209.272 1766.48 206.536 1766.84 200.656V200.2ZM1756.57 196.264H1759.78C1759.47 202.552 1758.87 209.416 1752.13 213.256C1751.7 212.488 1750.81 211.48 1750.04 210.904C1756.21 207.616 1756.33 201.64 1756.57 196.264ZM1759.16 191.368L1761.99 190.312C1762.66 191.392 1763.38 192.832 1763.74 193.768L1760.79 195.04C1760.5 194.08 1759.76 192.52 1759.16 191.368ZM1779.15 204.832L1778.53 196.624L1778.41 193.048H1782.37L1782.25 196.624L1781.62 204.832H1779.15ZM1780.4 211.24C1779.15 211.24 1778.26 210.352 1778.26 209.104C1778.26 207.856 1779.18 206.992 1780.4 206.992C1781.6 206.992 1782.51 207.856 1782.51 209.104C1782.51 210.352 1781.6 211.24 1780.4 211.24Z" fill="#231815"/>
<path d="M170.864 604.04H189.704V605.72H170.864V604.04ZM169.736 604.04H171.584V611.696C171.584 615.536 171.296 621.104 169.424 624.872C169.088 624.56 168.272 624.032 167.816 623.864C169.592 620.288 169.736 615.344 169.736 611.696V604.04ZM173.096 610.976H187.448V612.68H173.096V610.976ZM186.68 610.976H188.48C188.48 610.976 188.48 611.6 188.456 611.84C188.048 619.784 187.664 622.688 186.776 623.672C186.272 624.272 185.744 624.464 184.904 624.536C184.112 624.584 182.672 624.56 181.232 624.488C181.184 623.936 180.968 623.192 180.632 622.688C182.168 622.832 183.632 622.832 184.184 622.832C184.688 622.856 184.952 622.784 185.216 622.52C185.936 621.848 186.32 618.92 186.68 611.312V610.976ZM178.832 607.016H180.704C180.488 614.816 180.032 621.392 173.264 624.8C173.048 624.392 172.496 623.816 172.064 623.504C178.472 620.408 178.664 614.264 178.832 607.016ZM203.288 602.936H205.136V613.016C205.136 618.008 204.08 622.592 194.288 624.92C194.072 624.512 193.592 623.744 193.208 623.336C202.688 621.32 203.288 617.36 203.288 613.016V602.936ZM196.904 608.384V612.872H211.568V608.384H196.904ZM195.128 606.632H213.416V614.6H195.128V606.632ZM197.864 615.392C200.816 621.392 206.096 622.64 215.336 623.048C214.976 623.48 214.616 624.248 214.496 624.872C205.064 624.32 199.352 622.688 196.256 615.992L197.864 615.392ZM232.784 604.712H234.464V621.848H232.784V604.712ZM237.776 603.44H239.576V624.608H237.776V603.44ZM227.696 603.56H229.472V611.888C229.472 616.496 229.232 621.128 226.856 624.896C226.472 624.56 225.68 624.08 225.152 623.864C227.456 620.36 227.696 616.16 227.696 611.888V603.56ZM219.704 604.568L220.832 603.368C222.272 604.52 224.144 606.128 225.032 607.16L223.808 608.528C222.968 607.448 221.144 605.768 219.704 604.568ZM221.576 624.44L221.216 622.712L221.648 621.92L225.752 618.584C225.92 619.088 226.256 619.76 226.472 620.072C222.536 623.384 221.912 623.936 221.576 624.44ZM218.36 610.4H222.776V612.128H218.36V610.4ZM221.576 624.464C221.384 624.08 220.904 623.432 220.592 623.144C221.024 622.808 221.744 621.992 221.744 620.816V610.4H223.472V622.136C223.472 622.136 221.576 623.744 221.576 624.464ZM244.304 618.632C244.208 618.272 243.944 617.456 243.728 617.024C244.232 616.928 244.712 616.304 245.36 615.44C246.056 614.576 248.24 611.264 249.608 608.072L251.144 608.936C249.536 612.128 247.52 615.368 245.48 617.672V617.72C245.48 617.72 244.304 618.272 244.304 618.632ZM244.28 618.656L244.184 617.192L245.024 616.568L250.952 615.416C250.904 615.896 250.904 616.568 250.952 616.952C245.528 618.128 244.736 618.368 244.28 618.656ZM244.136 612.872C244.04 612.488 243.752 611.648 243.536 611.168C243.944 611.072 244.328 610.496 244.784 609.656C245.264 608.864 246.776 605.696 247.568 602.792L249.248 603.512C248.216 606.488 246.704 609.656 245.192 611.864V611.936C245.192 611.936 244.136 612.488 244.136 612.872ZM244.136 612.872L244.088 611.552L244.928 611.024L249.104 610.592C249.032 611.048 248.96 611.696 248.984 612.032C245.168 612.536 244.52 612.68 244.136 612.872ZM243.68 621.656C245.432 621.08 248.048 620.12 250.712 619.16L251 620.552C248.576 621.584 246.056 622.616 244.112 623.408L243.68 621.656ZM252.416 616.232V614.792L253.448 614.24H264.464V615.896H254.552C253.424 615.896 252.632 616.016 252.416 616.232ZM251.192 605.648H264.968V607.304H251.192V605.648ZM252.416 616.232C252.344 615.896 252.056 615.08 251.84 614.624C252.296 614.504 252.704 613.664 253.208 612.44C253.712 611.288 255.32 606.776 256.088 602.72L257.864 603.056C256.856 607.376 255.296 611.96 253.712 615.2V615.248C253.712 615.248 252.416 615.872 252.416 616.232ZM261.2 618.032L262.664 617.36C263.72 619.064 265.04 621.392 265.688 622.736L264.152 623.528C263.552 622.16 262.256 619.784 261.2 618.032ZM257.744 609.632H259.496V622.808C259.496 623.816 259.28 624.296 258.608 624.584C257.912 624.872 256.808 624.872 255.152 624.872C255.056 624.416 254.816 623.72 254.6 623.24C255.824 623.264 256.952 623.264 257.312 623.24C257.648 623.216 257.744 623.12 257.744 622.808V609.632ZM253.856 617.36L255.536 617.84C254.6 619.832 253.16 622.184 251.672 623.72C251.36 623.408 250.76 622.976 250.4 622.736C251.792 621.296 253.16 619.088 253.856 617.36ZM251.6 609.632H258.896V611.288H251.6V609.632ZM269.48 615.248H278.672V616.784H269.48V615.248ZM268.976 607.328H280.544V608.816H268.976V607.328ZM278.408 603.32L279.944 603.968C279.224 605.072 278.432 606.272 277.784 607.064L276.608 606.512C277.208 605.648 278 604.256 278.408 603.32ZM273.944 602.84H275.624V613.328H273.944V602.84ZM269.888 603.992L271.208 603.464C271.88 604.4 272.552 605.696 272.768 606.536L271.4 607.16C271.184 606.296 270.536 604.976 269.888 603.992ZM273.992 607.928L275.216 608.648C274.04 610.664 271.784 612.824 269.696 613.952C269.504 613.52 269.072 612.92 268.736 612.56C270.728 611.696 272.912 609.776 273.992 607.928ZM275.384 608.456C276.224 608.912 279.176 610.784 279.872 611.264L278.864 612.584C278.024 611.792 275.528 609.896 274.472 609.248L275.384 608.456ZM282.464 607.496H290.528V609.176H282.464V607.496ZM282.872 603.056L284.528 603.296C283.832 607.904 282.608 612.128 280.688 614.936C280.424 614.648 279.728 614.072 279.344 613.832C281.192 611.288 282.272 607.28 282.872 603.056ZM287.312 608.456L288.992 608.624C287.864 616.784 285.44 621.896 279.608 624.992C279.44 624.632 278.936 623.888 278.624 623.552C284.144 620.864 286.376 616.016 287.312 608.456ZM283.328 609.008C284.408 615.44 286.76 620.984 291.104 623.312C290.696 623.648 290.168 624.272 289.904 624.728C285.392 622.016 283.04 616.28 281.84 609.272L283.328 609.008ZM270.416 619.328L271.544 618.272C274.064 619.208 277.136 620.816 278.816 621.968L277.688 623.168C276.08 621.968 272.96 620.312 270.416 619.328ZM278.072 615.248H278.384L278.696 615.2L279.656 615.584C278.168 620.792 274.208 623.48 269.624 624.728C269.456 624.32 269.096 623.672 268.784 623.336C273.032 622.376 276.8 619.904 278.072 615.512V615.248ZM270.416 619.328C271.472 617.864 272.696 615.56 273.392 613.712L274.976 614.024C274.232 615.968 273.008 618.248 272.072 619.664L270.416 619.328ZM303.32 603.896H315.152V610.112H303.368V608.552H313.424V605.48H303.32V603.896ZM302.48 603.896H304.232V611.168C304.232 615.2 303.872 621.056 301.232 624.92C300.92 624.608 300.176 624.08 299.744 623.912C302.24 620.216 302.48 614.984 302.48 611.168V603.896ZM303.44 612.752H315.968V614.336H303.44V612.752ZM305.36 622.472H314.24V623.96H305.36V622.472ZM308.888 609.92H310.616V617.984H308.888V609.92ZM304.592 617.312H315.224V624.848H313.568V618.848H306.2V624.944H304.592V617.312ZM293.696 615.608C295.568 615.08 298.424 614.216 301.184 613.328L301.424 614.984C298.88 615.824 296.216 616.688 294.152 617.36L293.696 615.608ZM293.984 607.688H301.4V609.368H293.984V607.688ZM297.008 602.864H298.664V622.688C298.664 623.672 298.448 624.152 297.848 624.44C297.296 624.728 296.36 624.776 294.848 624.776C294.776 624.344 294.56 623.6 294.32 623.096C295.376 623.12 296.288 623.12 296.576 623.12C296.864 623.12 297.008 623.024 297.008 622.664V602.864Z" fill="#4D4D4D"/>
<path d="M168.536 374.904H189.488V376.728H168.536V374.904ZM172.424 385.608H185.528V387.432H172.424V385.608ZM178.016 369.864H179.912V391.92H178.016V369.864ZM176.288 375.504L177.92 376.008C176.096 381.024 172.832 385.608 169.208 388.128C168.896 387.672 168.32 387.024 167.888 386.664C171.392 384.504 174.632 380.04 176.288 375.504ZM181.592 375.576C183.224 380.088 186.488 384.432 190.16 386.496C189.68 386.856 189.056 387.552 188.744 388.056C185.024 385.656 181.784 381.048 179.984 376.056L181.592 375.576ZM203.072 369.864L204.992 370.2C204.104 374.304 202.664 378.24 200.864 380.784C200.48 380.52 199.592 379.992 199.112 379.776C200.96 377.424 202.328 373.68 203.072 369.864ZM202.856 373.944H213.152V375.72H202.064L202.856 373.944ZM212.6 373.944H212.864L213.224 373.824L214.544 374.544C213.944 376.92 212.864 379.44 212.024 381.096C211.64 380.88 210.92 380.52 210.512 380.352C211.256 378.864 212.24 376.296 212.6 374.376V373.944ZM193.568 372.792L194.648 371.496C196.28 372.36 198.32 373.704 199.352 374.664L198.2 376.152C197.216 375.144 195.2 373.728 193.568 372.792ZM193.184 388.248C194.6 386.52 196.616 383.544 198.176 380.928L199.568 382.104C198.152 384.576 196.352 387.36 194.84 389.496L193.184 388.248ZM207.536 379.248C208.544 384.504 210.848 388.584 215.264 390.192C214.856 390.528 214.304 391.272 214.04 391.776C209.408 389.808 207.128 385.464 205.976 379.512L207.536 379.248ZM205.856 376.872H207.752V378.408C207.752 382.296 207.08 388.104 199.328 392.04C199.04 391.608 198.392 390.96 197.936 390.624C205.304 387.024 205.856 381.816 205.856 378.36V376.872ZM232.784 371.712H234.464V388.848H232.784V371.712ZM237.776 370.44H239.576V391.608H237.776V370.44ZM227.696 370.56H229.472V378.888C229.472 383.496 229.232 388.128 226.856 391.896C226.472 391.56 225.68 391.08 225.152 390.864C227.456 387.36 227.696 383.16 227.696 378.888V370.56ZM219.704 371.568L220.832 370.368C222.272 371.52 224.144 373.128 225.032 374.16L223.808 375.528C222.968 374.448 221.144 372.768 219.704 371.568ZM221.576 391.44L221.216 389.712L221.648 388.92L225.752 385.584C225.92 386.088 226.256 386.76 226.472 387.072C222.536 390.384 221.912 390.936 221.576 391.44ZM218.36 377.4H222.776V379.128H218.36V377.4ZM221.576 391.464C221.384 391.08 220.904 390.432 220.592 390.144C221.024 389.808 221.744 388.992 221.744 387.816V377.4H223.472V389.136C223.472 389.136 221.576 390.744 221.576 391.464ZM244.304 385.632C244.208 385.272 243.944 384.456 243.728 384.024C244.232 383.928 244.712 383.304 245.36 382.44C246.056 381.576 248.24 378.264 249.608 375.072L251.144 375.936C249.536 379.128 247.52 382.368 245.48 384.672V384.72C245.48 384.72 244.304 385.272 244.304 385.632ZM244.28 385.656L244.184 384.192L245.024 383.568L250.952 382.416C250.904 382.896 250.904 383.568 250.952 383.952C245.528 385.128 244.736 385.368 244.28 385.656ZM244.136 379.872C244.04 379.488 243.752 378.648 243.536 378.168C243.944 378.072 244.328 377.496 244.784 376.656C245.264 375.864 246.776 372.696 247.568 369.792L249.248 370.512C248.216 373.488 246.704 376.656 245.192 378.864V378.936C245.192 378.936 244.136 379.488 244.136 379.872ZM244.136 379.872L244.088 378.552L244.928 378.024L249.104 377.592C249.032 378.048 248.96 378.696 248.984 379.032C245.168 379.536 244.52 379.68 244.136 379.872ZM243.68 388.656C245.432 388.08 248.048 387.12 250.712 386.16L251 387.552C248.576 388.584 246.056 389.616 244.112 390.408L243.68 388.656ZM252.416 383.232V381.792L253.448 381.24H264.464V382.896H254.552C253.424 382.896 252.632 383.016 252.416 383.232ZM251.192 372.648H264.968V374.304H251.192V372.648ZM252.416 383.232C252.344 382.896 252.056 382.08 251.84 381.624C252.296 381.504 252.704 380.664 253.208 379.44C253.712 378.288 255.32 373.776 256.088 369.72L257.864 370.056C256.856 374.376 255.296 378.96 253.712 382.2V382.248C253.712 382.248 252.416 382.872 252.416 383.232ZM261.2 385.032L262.664 384.36C263.72 386.064 265.04 388.392 265.688 389.736L264.152 390.528C263.552 389.16 262.256 386.784 261.2 385.032ZM257.744 376.632H259.496V389.808C259.496 390.816 259.28 391.296 258.608 391.584C257.912 391.872 256.808 391.872 255.152 391.872C255.056 391.416 254.816 390.72 254.6 390.24C255.824 390.264 256.952 390.264 257.312 390.24C257.648 390.216 257.744 390.12 257.744 389.808V376.632ZM253.856 384.36L255.536 384.84C254.6 386.832 253.16 389.184 251.672 390.72C251.36 390.408 250.76 389.976 250.4 389.736C251.792 388.296 253.16 386.088 253.856 384.36ZM251.6 376.632H258.896V378.288H251.6V376.632Z" fill="#4D4D4D"/>
<line x1="148" y1="601" x2="148" y2="625" stroke="#4D4D4D" stroke-width="2"/>
<line x1="148" y1="368" x2="148" y2="392" stroke="#4D4D4D" stroke-width="2"/>
<rect x="164" y="652" width="496" height="192.777" rx="20" fill="#F7F6FB"/>
<rect x="191.109" y="678.105" width="121.49" height="120.486" rx="10" fill="white"/>
<rect x="351.757" y="678.105" width="120.486" height="120.486" rx="10" fill="white"/>
<rect x="511" y="678.105" width="121.49" height="120.486" rx="10" fill="white"/>
<path d="M545.08 828.24C543.893 828.24 542.853 827.92 541.96 827.28C541.067 826.64 540.367 825.74 539.86 824.58C539.367 823.42 539.12 822.073 539.12 820.54C539.12 818.993 539.367 817.647 539.86 816.5C540.353 815.353 541.047 814.46 541.94 813.82C542.833 813.18 543.873 812.86 545.06 812.86C546.273 812.86 547.32 813.18 548.2 813.82C549.093 814.46 549.793 815.36 550.3 816.52C550.807 817.667 551.06 819.007 551.06 820.54C551.06 822.073 550.807 823.42 550.3 824.58C549.807 825.727 549.113 826.627 548.22 827.28C547.327 827.92 546.28 828.24 545.08 828.24ZM545.1 825.76C545.78 825.76 546.36 825.553 546.84 825.14C547.32 824.713 547.687 824.113 547.94 823.34C548.207 822.553 548.34 821.62 548.34 820.54C548.34 819.46 548.207 818.533 547.94 817.76C547.687 816.973 547.313 816.373 546.82 815.96C546.34 815.547 545.753 815.34 545.06 815.34C544.393 815.34 543.82 815.547 543.34 815.96C542.86 816.373 542.487 816.973 542.22 817.76C541.967 818.533 541.84 819.46 541.84 820.54C541.84 821.607 541.967 822.533 542.22 823.32C542.487 824.093 542.86 824.693 543.34 825.12C543.833 825.547 544.42 825.76 545.1 825.76ZM561.72 828V824.72H554.88V822.44L561.56 813.1H564.4V822.44H566.58V824.72H564.4V828H561.72ZM556.88 823.42L556.4 822.44H561.72V815.24L562.42 815.46L556.88 823.42ZM569.566 830.4L576.206 813.9H579.066L572.426 830.4H569.566ZM584.823 828V815.42H581.943V813.1H587.543V828H584.823ZM598.51 828.24C597.323 828.24 596.283 827.92 595.39 827.28C594.496 826.64 593.796 825.74 593.29 824.58C592.796 823.42 592.55 822.073 592.55 820.54C592.55 818.993 592.796 817.647 593.29 816.5C593.783 815.353 594.476 814.46 595.37 813.82C596.263 813.18 597.303 812.86 598.49 812.86C599.703 812.86 600.75 813.18 601.63 813.82C602.523 814.46 603.223 815.36 603.73 816.52C604.236 817.667 604.49 819.007 604.49 820.54C604.49 822.073 604.236 823.42 603.73 824.58C603.236 825.727 602.543 826.627 601.65 827.28C600.756 827.92 599.71 828.24 598.51 828.24ZM598.53 825.76C599.21 825.76 599.79 825.553 600.27 825.14C600.75 824.713 601.116 824.113 601.37 823.34C601.636 822.553 601.77 821.62 601.77 820.54C601.77 819.46 601.636 818.533 601.37 817.76C601.116 816.973 600.743 816.373 600.25 815.96C599.77 815.547 599.183 815.34 598.49 815.34C597.823 815.34 597.25 815.547 596.77 815.96C596.29 816.373 595.916 816.973 595.65 817.76C595.396 818.533 595.27 819.46 595.27 820.54C595.27 821.607 595.396 822.533 595.65 823.32C595.916 824.093 596.29 824.693 596.77 825.12C597.263 825.547 597.85 825.76 598.53 825.76Z" fill="#C0C0C0"/>
<path d="M385.08 828.24C383.893 828.24 382.853 827.92 381.96 827.28C381.067 826.64 380.367 825.74 379.86 824.58C379.367 823.42 379.12 822.073 379.12 820.54C379.12 818.993 379.367 817.647 379.86 816.5C380.353 815.353 381.047 814.46 381.94 813.82C382.833 813.18 383.873 812.86 385.06 812.86C386.273 812.86 387.32 813.18 388.2 813.82C389.093 814.46 389.793 815.36 390.3 816.52C390.807 817.667 391.06 819.007 391.06 820.54C391.06 822.073 390.807 823.42 390.3 824.58C389.807 825.727 389.113 826.627 388.22 827.28C387.327 827.92 386.28 828.24 385.08 828.24ZM385.1 825.76C385.78 825.76 386.36 825.553 386.84 825.14C387.32 824.713 387.687 824.113 387.94 823.34C388.207 822.553 388.34 821.62 388.34 820.54C388.34 819.46 388.207 818.533 387.94 817.76C387.687 816.973 387.313 816.373 386.82 815.96C386.34 815.547 385.753 815.34 385.06 815.34C384.393 815.34 383.82 815.547 383.34 815.96C382.86 816.373 382.487 816.973 382.22 817.76C381.967 818.533 381.84 819.46 381.84 820.54C381.84 821.607 381.967 822.533 382.22 823.32C382.487 824.093 382.86 824.693 383.34 825.12C383.833 825.547 384.42 825.76 385.1 825.76ZM401.72 828V824.72H394.88V822.44L401.56 813.1H404.4V822.44H406.58V824.72H404.4V828H401.72ZM396.88 823.42L396.4 822.44H401.72V815.24L402.42 815.46L396.88 823.42ZM409.566 830.4L416.206 813.9H419.066L412.426 830.4H409.566ZM424.823 828V815.42H421.943V813.1H427.543V828H424.823ZM437.37 828.24C436.583 828.24 435.83 828.093 435.11 827.8C434.403 827.507 433.79 827.093 433.27 826.56C432.763 826.013 432.416 825.367 432.23 824.62L434.59 823.78C434.816 824.46 435.183 824.967 435.69 825.3C436.196 825.62 436.756 825.78 437.37 825.78C437.876 825.78 438.323 825.673 438.71 825.46C439.11 825.233 439.416 824.927 439.63 824.54C439.843 824.14 439.95 823.68 439.95 823.16C439.95 822.64 439.836 822.187 439.61 821.8C439.396 821.413 439.096 821.113 438.71 820.9C438.323 820.673 437.876 820.56 437.37 820.56C436.85 820.56 436.376 820.673 435.95 820.9C435.536 821.127 435.236 821.453 435.05 821.88L432.83 821.38L434.01 813.1H442.13V815.4H435.09L436.11 814.22L435.27 820.46L434.49 819.82C434.863 819.273 435.316 818.873 435.85 818.62C436.396 818.367 437.056 818.24 437.83 818.24C438.816 818.24 439.67 818.453 440.39 818.88C441.123 819.307 441.69 819.887 442.09 820.62C442.49 821.353 442.69 822.2 442.69 823.16C442.69 824.12 442.456 824.987 441.99 825.76C441.523 826.533 440.89 827.14 440.09 827.58C439.29 828.02 438.383 828.24 437.37 828.24Z" fill="#C0C0C0"/>
<path d="M225.08 828.24C223.893 828.24 222.853 827.92 221.96 827.28C221.067 826.64 220.367 825.74 219.86 824.58C219.367 823.42 219.12 822.073 219.12 820.54C219.12 818.993 219.367 817.647 219.86 816.5C220.353 815.353 221.047 814.46 221.94 813.82C222.833 813.18 223.873 812.86 225.06 812.86C226.273 812.86 227.32 813.18 228.2 813.82C229.093 814.46 229.793 815.36 230.3 816.52C230.807 817.667 231.06 819.007 231.06 820.54C231.06 822.073 230.807 823.42 230.3 824.58C229.807 825.727 229.113 826.627 228.22 827.28C227.327 827.92 226.28 828.24 225.08 828.24ZM225.1 825.76C225.78 825.76 226.36 825.553 226.84 825.14C227.32 824.713 227.687 824.113 227.94 823.34C228.207 822.553 228.34 821.62 228.34 820.54C228.34 819.46 228.207 818.533 227.94 817.76C227.687 816.973 227.313 816.373 226.82 815.96C226.34 815.547 225.753 815.34 225.06 815.34C224.393 815.34 223.82 815.547 223.34 815.96C222.86 816.373 222.487 816.973 222.22 817.76C221.967 818.533 221.84 819.46 221.84 820.54C221.84 821.607 221.967 822.533 222.22 823.32C222.487 824.093 222.86 824.693 223.34 825.12C223.833 825.547 224.42 825.76 225.1 825.76ZM241.72 828V824.72H234.88V822.44L241.56 813.1H244.4V822.44H246.58V824.72H244.4V828H241.72ZM236.88 823.42L236.4 822.44H241.72V815.24L242.42 815.46L236.88 823.42ZM249.566 830.4L256.206 813.9H259.066L252.426 830.4H249.566ZM264.823 828V815.42H261.943V813.1H267.543V828H264.823ZM272.87 828L279.07 815.4H272.05V813.1H281.93V815.4L275.87 828H272.87Z" fill="#C0C0C0"/>
<rect x="242" y="414" width="340" height="153" rx="20" fill="#F7F6FB"/>
<path d="M532.228 735V712.356H527.044V708.18H537.124V735H532.228ZM545.776 735V731.292L553.048 723.696C554.488 722.184 555.592 720.984 556.36 720.096C557.152 719.184 557.704 718.404 558.016 717.756C558.328 717.108 558.484 716.448 558.484 715.776C558.484 714.648 558.124 713.76 557.404 713.112C556.708 712.464 555.808 712.14 554.704 712.14C553.552 712.14 552.556 712.476 551.716 713.148C550.876 713.796 550.264 714.756 549.88 716.028L545.596 714.696C545.884 713.28 546.472 712.056 547.36 711.024C548.248 709.968 549.328 709.164 550.6 708.612C551.896 708.036 553.264 707.748 554.704 707.748C556.432 707.748 557.944 708.06 559.24 708.684C560.56 709.308 561.58 710.184 562.3 711.312C563.044 712.44 563.416 713.76 563.416 715.272C563.416 716.232 563.236 717.18 562.876 718.116C562.516 719.052 561.976 720.012 561.256 720.996C560.536 721.956 559.6 723.036 558.448 724.236L552.148 730.86H563.776V735H545.776Z" fill="#4D4D4D"/>
<path d="M569.976 735V726.296H571.944V728.312L571.72 727.976C571.88 727.347 572.2 726.877 572.68 726.568C573.16 726.259 573.725 726.104 574.376 726.104C575.091 726.104 575.72 726.291 576.264 726.664C576.808 727.037 577.16 727.528 577.32 728.136L576.728 728.184C576.995 727.491 577.395 726.973 577.928 726.632C578.461 726.28 579.075 726.104 579.768 726.104C580.387 726.104 580.936 726.243 581.416 726.52C581.907 726.797 582.291 727.187 582.568 727.688C582.845 728.179 582.984 728.749 582.984 729.4V735H580.888V729.896C580.888 729.512 580.819 729.181 580.68 728.904C580.541 728.627 580.349 728.413 580.104 728.264C579.859 728.104 579.56 728.024 579.208 728.024C578.877 728.024 578.584 728.104 578.328 728.264C578.072 728.413 577.875 728.627 577.736 728.904C577.597 729.181 577.528 729.512 577.528 729.896V735H575.432V729.896C575.432 729.512 575.363 729.181 575.224 728.904C575.085 728.627 574.888 728.413 574.632 728.264C574.387 728.104 574.093 728.024 573.752 728.024C573.421 728.024 573.128 728.104 572.872 728.264C572.616 728.413 572.419 728.627 572.28 728.904C572.141 729.181 572.072 729.512 572.072 729.896V735H569.976ZM586.357 735V726.296H588.453V735H586.357ZM586.357 725.32V723.08H588.453V725.32H586.357ZM591.989 735V726.296H593.957V728.008L593.797 727.704C593.999 727.181 594.33 726.787 594.789 726.52C595.258 726.243 595.802 726.104 596.421 726.104C597.061 726.104 597.626 726.243 598.117 726.52C598.618 726.797 599.007 727.187 599.285 727.688C599.562 728.179 599.701 728.749 599.701 729.4V735H597.605V729.896C597.605 729.512 597.53 729.181 597.381 728.904C597.231 728.627 597.023 728.413 596.757 728.264C596.501 728.104 596.197 728.024 595.845 728.024C595.503 728.024 595.199 728.104 594.933 728.264C594.666 728.413 594.458 728.627 594.309 728.904C594.159 729.181 594.085 729.512 594.085 729.896V735H591.989Z" fill="#4D4D4D"/>
<path d="M614.36 770.24C613.2 770.24 612.187 769.967 611.32 769.42C610.467 768.86 609.88 768.107 609.56 767.16L611.52 766.22C611.8 766.833 612.187 767.313 612.68 767.66C613.187 768.007 613.747 768.18 614.36 768.18C614.84 768.18 615.22 768.073 615.5 767.86C615.78 767.647 615.92 767.367 615.92 767.02C615.92 766.807 615.86 766.633 615.74 766.5C615.633 766.353 615.48 766.233 615.28 766.14C615.093 766.033 614.887 765.947 614.66 765.88L612.88 765.38C611.96 765.113 611.26 764.707 610.78 764.16C610.313 763.613 610.08 762.967 610.08 762.22C610.08 761.553 610.247 760.973 610.58 760.48C610.927 759.973 611.4 759.58 612 759.3C612.613 759.02 613.313 758.88 614.1 758.88C615.127 758.88 616.033 759.127 616.82 759.62C617.607 760.113 618.167 760.807 618.5 761.7L616.5 762.64C616.313 762.147 616 761.753 615.56 761.46C615.12 761.167 614.627 761.02 614.08 761.02C613.64 761.02 613.293 761.12 613.04 761.32C612.787 761.52 612.66 761.78 612.66 762.1C612.66 762.3 612.713 762.473 612.82 762.62C612.927 762.767 613.073 762.887 613.26 762.98C613.46 763.073 613.687 763.16 613.94 763.24L615.68 763.76C616.573 764.027 617.26 764.427 617.74 764.96C618.233 765.493 618.48 766.147 618.48 766.92C618.48 767.573 618.307 768.153 617.96 768.66C617.613 769.153 617.133 769.54 616.52 769.82C615.907 770.1 615.187 770.24 614.36 770.24Z" fill="#4D4D4D"/>
<path d="M556.087 770V766.292L563.359 758.696C564.799 757.184 565.903 755.984 566.671 755.096C567.463 754.184 568.015 753.404 568.327 752.756C568.639 752.108 568.795 751.448 568.795 750.776C568.795 749.648 568.435 748.76 567.715 748.112C567.019 747.464 566.119 747.14 565.015 747.14C563.863 747.14 562.867 747.476 562.027 748.148C561.187 748.796 560.575 749.756 560.191 751.028L555.907 749.696C556.195 748.28 556.783 747.056 557.671 746.024C558.559 744.968 559.639 744.164 560.911 743.612C562.207 743.036 563.575 742.748 565.015 742.748C566.743 742.748 568.255 743.06 569.551 743.684C570.871 744.308 571.891 745.184 572.611 746.312C573.355 747.44 573.727 748.76 573.727 750.272C573.727 751.232 573.547 752.18 573.187 753.116C572.827 754.052 572.287 755.012 571.567 755.996C570.847 756.956 569.911 758.036 568.759 759.236L562.459 765.86H574.087V770H556.087ZM592.256 770.432C590.12 770.432 588.248 769.856 586.64 768.704C585.032 767.552 583.772 765.932 582.86 763.844C581.972 761.756 581.528 759.332 581.528 756.572C581.528 753.788 581.972 751.364 582.86 749.3C583.748 747.236 584.996 745.628 586.604 744.476C588.212 743.324 590.084 742.748 592.22 742.748C594.404 742.748 596.288 743.324 597.872 744.476C599.48 745.628 600.74 747.248 601.652 749.336C602.564 751.4 603.02 753.812 603.02 756.572C603.02 759.332 602.564 761.756 601.652 763.844C600.764 765.908 599.516 767.528 597.908 768.704C596.3 769.856 594.416 770.432 592.256 770.432ZM592.292 765.968C593.516 765.968 594.56 765.596 595.424 764.852C596.288 764.084 596.948 763.004 597.404 761.612C597.884 760.196 598.124 758.516 598.124 756.572C598.124 754.628 597.884 752.96 597.404 751.568C596.948 750.152 596.276 749.072 595.388 748.328C594.524 747.584 593.468 747.212 592.22 747.212C591.02 747.212 589.988 747.584 589.124 748.328C588.26 749.072 587.588 750.152 587.108 751.568C586.652 752.96 586.424 754.628 586.424 756.572C586.424 758.492 586.652 760.16 587.108 761.576C587.588 762.968 588.26 764.048 589.124 764.816C590.012 765.584 591.068 765.968 592.292 765.968Z" fill="#4D4D4D"/>
<line x1="552.354" y1="756.354" x2="540.354" y2="768.354" stroke="#4C4C4C"/>
<path d="M371.228 735V712.356H366.044V708.18H376.124V735H371.228ZM385.712 735L396.872 712.32H384.236V708.18H402.02V712.32L391.112 735H385.712Z" fill="#4D4D4D"/>
<path d="M408.976 735V726.296H410.944V728.312L410.72 727.976C410.88 727.347 411.2 726.877 411.68 726.568C412.16 726.259 412.725 726.104 413.376 726.104C414.091 726.104 414.72 726.291 415.264 726.664C415.808 727.037 416.16 727.528 416.32 728.136L415.728 728.184C415.995 727.491 416.395 726.973 416.928 726.632C417.461 726.28 418.075 726.104 418.768 726.104C419.387 726.104 419.936 726.243 420.416 726.52C420.907 726.797 421.291 727.187 421.568 727.688C421.845 728.179 421.984 728.749 421.984 729.4V735H419.888V729.896C419.888 729.512 419.819 729.181 419.68 728.904C419.541 728.627 419.349 728.413 419.104 728.264C418.859 728.104 418.56 728.024 418.208 728.024C417.877 728.024 417.584 728.104 417.328 728.264C417.072 728.413 416.875 728.627 416.736 728.904C416.597 729.181 416.528 729.512 416.528 729.896V735H414.432V729.896C414.432 729.512 414.363 729.181 414.224 728.904C414.085 728.627 413.888 728.413 413.632 728.264C413.387 728.104 413.093 728.024 412.752 728.024C412.421 728.024 412.128 728.104 411.872 728.264C411.616 728.413 411.419 728.627 411.28 728.904C411.141 729.181 411.072 729.512 411.072 729.896V735H408.976ZM425.357 735V726.296H427.453V735H425.357ZM425.357 725.32V723.08H427.453V725.32H425.357ZM430.989 735V726.296H432.957V728.008L432.797 727.704C432.999 727.181 433.33 726.787 433.789 726.52C434.258 726.243 434.802 726.104 435.421 726.104C436.061 726.104 436.626 726.243 437.117 726.52C437.618 726.797 438.007 727.187 438.285 727.688C438.562 728.179 438.701 728.749 438.701 729.4V735H436.605V729.896C436.605 729.512 436.53 729.181 436.381 728.904C436.231 728.627 436.023 728.413 435.757 728.264C435.501 728.104 435.197 728.024 434.845 728.024C434.503 728.024 434.199 728.104 433.933 728.264C433.666 728.413 433.458 728.627 433.309 728.904C433.159 729.181 433.085 729.512 433.085 729.896V735H430.989Z" fill="#4D4D4D"/>
<path d="M453.36 770.24C452.2 770.24 451.187 769.967 450.32 769.42C449.467 768.86 448.88 768.107 448.56 767.16L450.52 766.22C450.8 766.833 451.187 767.313 451.68 767.66C452.187 768.007 452.747 768.18 453.36 768.18C453.84 768.18 454.22 768.073 454.5 767.86C454.78 767.647 454.92 767.367 454.92 767.02C454.92 766.807 454.86 766.633 454.74 766.5C454.633 766.353 454.48 766.233 454.28 766.14C454.093 766.033 453.887 765.947 453.66 765.88L451.88 765.38C450.96 765.113 450.26 764.707 449.78 764.16C449.313 763.613 449.08 762.967 449.08 762.22C449.08 761.553 449.247 760.973 449.58 760.48C449.927 759.973 450.4 759.58 451 759.3C451.613 759.02 452.313 758.88 453.1 758.88C454.127 758.88 455.033 759.127 455.82 759.62C456.607 760.113 457.167 760.807 457.5 761.7L455.5 762.64C455.313 762.147 455 761.753 454.56 761.46C454.12 761.167 453.627 761.02 453.08 761.02C452.64 761.02 452.293 761.12 452.04 761.32C451.787 761.52 451.66 761.78 451.66 762.1C451.66 762.3 451.713 762.473 451.82 762.62C451.927 762.767 452.073 762.887 452.26 762.98C452.46 763.073 452.687 763.16 452.94 763.24L454.68 763.76C455.573 764.027 456.26 764.427 456.74 764.96C457.233 765.493 457.48 766.147 457.48 766.92C457.48 767.573 457.307 768.153 456.96 768.66C456.613 769.153 456.133 769.54 455.52 769.82C454.907 770.1 454.187 770.24 453.36 770.24Z" fill="#4D4D4D"/>
<path d="M410.628 770V747.356H405.444V743.18H415.524V770H410.628ZM424.176 770V766.292L431.448 758.696C432.888 757.184 433.992 755.984 434.76 755.096C435.552 754.184 436.104 753.404 436.416 752.756C436.728 752.108 436.884 751.448 436.884 750.776C436.884 749.648 436.524 748.76 435.804 748.112C435.108 747.464 434.208 747.14 433.104 747.14C431.952 747.14 430.956 747.476 430.116 748.148C429.276 748.796 428.664 749.756 428.28 751.028L423.996 749.696C424.284 748.28 424.872 747.056 425.76 746.024C426.648 744.968 427.728 744.164 429 743.612C430.296 743.036 431.664 742.748 433.104 742.748C434.832 742.748 436.344 743.06 437.64 743.684C438.96 744.308 439.98 745.184 440.7 746.312C441.444 747.44 441.816 748.76 441.816 750.272C441.816 751.232 441.636 752.18 441.276 753.116C440.916 754.052 440.376 755.012 439.656 755.996C438.936 756.956 438 758.036 436.848 759.236L430.548 765.86H442.176V770H424.176Z" fill="#4D4D4D"/>
<line x1="391.354" y1="756.354" x2="379.354" y2="768.354" stroke="#4C4C4C"/>
<path d="M211.228 735V712.356H206.044V708.18H216.124V735H211.228ZM233.812 735.432C232.396 735.432 231.04 735.168 229.744 734.64C228.472 734.112 227.368 733.368 226.432 732.408C225.52 731.424 224.896 730.26 224.56 728.916L228.808 727.404C229.216 728.628 229.876 729.54 230.788 730.14C231.7 730.716 232.708 731.004 233.812 731.004C234.724 731.004 235.528 730.812 236.224 730.428C236.944 730.02 237.496 729.468 237.88 728.772C238.264 728.052 238.456 727.224 238.456 726.288C238.456 725.352 238.252 724.536 237.844 723.84C237.46 723.144 236.92 722.604 236.224 722.22C235.528 721.812 234.724 721.608 233.812 721.608C232.876 721.608 232.024 721.812 231.256 722.22C230.512 722.628 229.972 723.216 229.636 723.984L225.64 723.084L227.764 708.18H242.38V712.32H229.708L231.544 710.196L230.032 721.428L228.628 720.276C229.3 719.292 230.116 718.572 231.076 718.116C232.06 717.66 233.248 717.432 234.64 717.432C236.416 717.432 237.952 717.816 239.248 718.584C240.568 719.352 241.588 720.396 242.308 721.716C243.028 723.036 243.388 724.56 243.388 726.288C243.388 728.016 242.968 729.576 242.128 730.968C241.288 732.36 240.148 733.452 238.708 734.244C237.268 735.036 235.636 735.432 233.812 735.432Z" fill="#4D4D4D"/>
<path d="M248.976 735V726.296H250.944V728.312L250.72 727.976C250.88 727.347 251.2 726.877 251.68 726.568C252.16 726.259 252.725 726.104 253.376 726.104C254.091 726.104 254.72 726.291 255.264 726.664C255.808 727.037 256.16 727.528 256.32 728.136L255.728 728.184C255.995 727.491 256.395 726.973 256.928 726.632C257.461 726.28 258.075 726.104 258.768 726.104C259.387 726.104 259.936 726.243 260.416 726.52C260.907 726.797 261.291 727.187 261.568 727.688C261.845 728.179 261.984 728.749 261.984 729.4V735H259.888V729.896C259.888 729.512 259.819 729.181 259.68 728.904C259.541 728.627 259.349 728.413 259.104 728.264C258.859 728.104 258.56 728.024 258.208 728.024C257.877 728.024 257.584 728.104 257.328 728.264C257.072 728.413 256.875 728.627 256.736 728.904C256.597 729.181 256.528 729.512 256.528 729.896V735H254.432V729.896C254.432 729.512 254.363 729.181 254.224 728.904C254.085 728.627 253.888 728.413 253.632 728.264C253.387 728.104 253.093 728.024 252.752 728.024C252.421 728.024 252.128 728.104 251.872 728.264C251.616 728.413 251.419 728.627 251.28 728.904C251.141 729.181 251.072 729.512 251.072 729.896V735H248.976ZM265.357 735V726.296H267.453V735H265.357ZM265.357 725.32V723.08H267.453V725.32H265.357ZM270.989 735V726.296H272.957V728.008L272.797 727.704C272.999 727.181 273.33 726.787 273.789 726.52C274.258 726.243 274.802 726.104 275.421 726.104C276.061 726.104 276.626 726.243 277.117 726.52C277.618 726.797 278.007 727.187 278.285 727.688C278.562 728.179 278.701 728.749 278.701 729.4V735H276.605V729.896C276.605 729.512 276.53 729.181 276.381 728.904C276.231 728.627 276.023 728.413 275.757 728.264C275.501 728.104 275.197 728.024 274.845 728.024C274.503 728.024 274.199 728.104 273.933 728.264C273.666 728.413 273.458 728.627 273.309 728.904C273.159 729.181 273.085 729.512 273.085 729.896V735H270.989Z" fill="#4D4D4D"/>
<path d="M293.36 770.24C292.2 770.24 291.187 769.967 290.32 769.42C289.467 768.86 288.88 768.107 288.56 767.16L290.52 766.22C290.8 766.833 291.187 767.313 291.68 767.66C292.187 768.007 292.747 768.18 293.36 768.18C293.84 768.18 294.22 768.073 294.5 767.86C294.78 767.647 294.92 767.367 294.92 767.02C294.92 766.807 294.86 766.633 294.74 766.5C294.633 766.353 294.48 766.233 294.28 766.14C294.093 766.033 293.887 765.947 293.66 765.88L291.88 765.38C290.96 765.113 290.26 764.707 289.78 764.16C289.313 763.613 289.08 762.967 289.08 762.22C289.08 761.553 289.247 760.973 289.58 760.48C289.927 759.973 290.4 759.58 291 759.3C291.613 759.02 292.313 758.88 293.1 758.88C294.127 758.88 295.033 759.127 295.82 759.62C296.607 760.113 297.167 760.807 297.5 761.7L295.5 762.64C295.313 762.147 295 761.753 294.56 761.46C294.12 761.167 293.627 761.02 293.08 761.02C292.64 761.02 292.293 761.12 292.04 761.32C291.787 761.52 291.66 761.78 291.66 762.1C291.66 762.3 291.713 762.473 291.82 762.62C291.927 762.767 292.073 762.887 292.26 762.98C292.46 763.073 292.687 763.16 292.94 763.24L294.68 763.76C295.573 764.027 296.26 764.427 296.74 764.96C297.233 765.493 297.48 766.147 297.48 766.92C297.48 767.573 297.307 768.153 296.96 768.66C296.613 769.153 296.133 769.54 295.52 769.82C294.907 770.1 294.187 770.24 293.36 770.24Z" fill="#4D4D4D"/>
<path d="M247.284 770.432C245.82 770.432 244.428 770.168 243.108 769.64C241.812 769.088 240.696 768.32 239.76 767.336C238.848 766.328 238.224 765.14 237.888 763.772L242.172 762.26C242.604 763.484 243.264 764.42 244.152 765.068C245.04 765.692 246.084 766.004 247.284 766.004C248.244 766.004 249.072 765.824 249.768 765.464C250.488 765.104 251.052 764.588 251.46 763.916C251.868 763.22 252.072 762.404 252.072 761.468C252.072 760.532 251.868 759.74 251.46 759.092C251.076 758.42 250.524 757.904 249.804 757.544C249.084 757.184 248.232 757.004 247.248 757.004C246.792 757.004 246.312 757.052 245.808 757.148C245.328 757.244 244.896 757.388 244.512 757.58L243.396 755.24L250.344 747.32H239.4V743.18H255.852V747.032L248.868 755.204L248.94 753.368C250.548 753.392 251.952 753.74 253.152 754.412C254.352 755.084 255.288 756.008 255.96 757.184C256.632 758.36 256.968 759.74 256.968 761.324C256.968 763.052 256.548 764.612 255.708 766.004C254.868 767.372 253.716 768.452 252.252 769.244C250.788 770.036 249.132 770.432 247.284 770.432ZM273.216 770.432C271.392 770.432 269.772 770.048 268.356 769.28C266.964 768.488 265.872 767.432 265.08 766.112C264.288 764.768 263.892 763.244 263.892 761.54C263.892 760.676 263.976 759.812 264.144 758.948C264.336 758.084 264.672 757.16 265.152 756.176C265.656 755.192 266.376 754.1 267.312 752.9L274.8 743.18H280.632L271.524 754.88L270.732 754.016C271.068 753.752 271.416 753.548 271.776 753.404C272.136 753.236 272.496 753.116 272.856 753.044C273.24 752.972 273.636 752.936 274.044 752.936C275.676 752.936 277.128 753.308 278.4 754.052C279.672 754.796 280.668 755.816 281.388 757.112C282.132 758.384 282.504 759.824 282.504 761.432C282.504 763.16 282.108 764.708 281.316 766.076C280.524 767.42 279.42 768.488 278.004 769.28C276.612 770.048 275.016 770.432 273.216 770.432ZM273.216 766.004C274.032 766.004 274.764 765.824 275.412 765.464C276.084 765.08 276.612 764.54 276.996 763.844C277.404 763.148 277.608 762.368 277.608 761.504C277.608 760.592 277.404 759.812 276.996 759.164C276.612 758.492 276.096 757.964 275.448 757.58C274.8 757.196 274.056 757.004 273.216 757.004C272.4 757.004 271.656 757.196 270.984 757.58C270.312 757.964 269.772 758.492 269.364 759.164C268.98 759.812 268.788 760.592 268.788 761.504C268.788 762.368 268.98 763.148 269.364 763.844C269.772 764.54 270.312 765.08 270.984 765.464C271.656 765.824 272.4 766.004 273.216 766.004Z" fill="#4D4D4D"/>
<line x1="231.354" y1="756.354" x2="219.354" y2="768.354" stroke="#4C4C4C"/>
<rect x="264" y="438" width="98" height="84" rx="10" fill="#7564E6"/>
<path d="M298.46 539.08L310.86 537.52L311.08 538.94L298.68 540.5L298.46 539.08ZM306.28 533.34L307.38 532.62C308.58 533.58 310 534.94 310.68 535.86L309.52 536.66C308.88 535.76 307.46 534.34 306.28 533.34ZM298.24 532.42L299.66 532.88C298.16 536.38 295.78 539.82 293.28 542.06C293.12 541.7 292.68 540.94 292.4 540.6C294.72 538.66 296.92 535.58 298.24 532.42ZM295.98 537.74L297.5 536.24V536.26V550.58H295.98V537.74ZM302.94 532.5H304.46C304.74 541.48 306.12 548.54 309.14 548.82C309.7 548.86 310.04 547.68 310.24 545.34C310.54 545.64 311.2 546.02 311.48 546.14C311.06 549.62 310.24 550.64 309.2 550.6C304.7 550.28 303.38 542.72 302.94 532.5ZM324.68 532.14H326.2V536.22H324.68V532.14ZM319.28 535.8H331.74V539.66H330.24V537.1H320.72V539.66H319.28V535.8ZM320.2 533.2L321.46 532.62C322.2 533.4 323.04 534.46 323.42 535.18L322.08 535.88C321.74 535.16 320.92 534.02 320.2 533.2ZM329.5 532.56L331.02 533.1C330.32 534.06 329.5 535.06 328.86 535.74L327.66 535.24C328.28 534.52 329.08 533.36 329.5 532.56ZM320.98 539.32H330.16V540.72H320.98V539.32ZM318.7 542.6H332.14V544.02H318.7V542.6ZM327.18 545.38L328.46 544.74C329.78 546.28 331.32 548.38 332 549.74L330.66 550.5C330 549.14 328.5 546.96 327.18 545.38ZM319.88 550.04C319.8 549.72 319.54 548.92 319.36 548.5C319.74 548.42 320.12 548.04 320.58 547.5C321.1 546.94 322.68 544.88 323.7 542.86L325.16 543.72C323.96 545.72 322.42 547.76 320.92 549.2V549.24C320.92 549.24 319.88 549.72 319.88 550.04ZM319.88 550.04L319.84 548.88L320.78 548.36L330.1 547.52C330 547.92 329.96 548.52 329.94 548.84C321.4 549.68 320.48 549.8 319.88 550.04ZM317.6 532.32L319 532.7C317.94 536.12 316.24 539.64 314.36 541.96C314.22 541.58 313.8 540.76 313.54 540.38C315.22 538.4 316.7 535.36 317.6 532.32ZM316.02 537.22L317.44 535.8L317.48 535.84V550.6H316.02V537.22Z" fill="#C0C0C0"/>
<rect x="404" y="438" width="155" height="84" rx="10" fill="#7564E6"/>
<path d="M463.34 533.88H468.88V546.9H463.34V545.54H467.48V535.24H463.34V533.88ZM463.42 539.62H468V540.96H463.42V539.62ZM462.62 533.88H464.04V548.5H462.62V533.88ZM469.78 536.22H480.22V537.7H469.78V536.22ZM476.28 532.32H477.8V548.34C477.8 549.44 477.5 549.9 476.78 550.14C476.06 550.38 474.8 550.42 472.78 550.4C472.7 549.98 472.46 549.3 472.24 548.88C473.8 548.92 475.26 548.92 475.7 548.9C476.12 548.88 476.28 548.76 476.28 548.34V532.32ZM470.46 539.96L471.7 539.32C472.78 540.84 474.16 542.88 474.84 544.08L473.52 544.86C472.88 543.64 471.54 541.5 470.46 539.96ZM486.76 550.48C486.66 550.12 486.36 549.48 486.14 549.16C486.48 549 486.96 548.7 486.96 547.92V532.32H488.52V549.14C488.52 549.14 486.76 549.94 486.76 550.48ZM486.76 550.48L486.64 549.12L487.44 548.52L493.34 547.06C493.34 547.5 493.4 548.14 493.48 548.46C487.98 549.94 487.24 550.18 486.76 550.48ZM483.1 540.04H500.88V541.54H483.1V540.04ZM492.88 540.72C494.28 544.56 497.18 547.44 501.34 548.62C500.96 548.94 500.5 549.58 500.28 550.02C495.96 548.6 493.08 545.46 491.5 541.08L492.88 540.72ZM497.38 532.64L498.88 533.28C496.9 535.6 493.86 537.68 491.14 539C490.88 538.68 490.28 538.06 489.9 537.78C492.7 536.64 495.62 534.72 497.38 532.64Z" fill="#C0C0C0"/>
</g>
<defs>
<filter id="filter0_d_741_596" x="1149.52" y="347.745" width="249.428" height="137.133" filterUnits="userSpaceOnUse" color-interpolation-filters="sRGB">
<feFlood flood-opacity="0" result="BackgroundImageFix"/>
<feColorMatrix in="SourceAlpha" type="matrix" values="0 0 0 0 0 0 0 0 0 0 0 0 0 0 0 0 0 0 127 0" result="hardAlpha"/>
<feOffset dx="4"/>
<feGaussianBlur stdDeviation="2"/>
<feComposite in2="hardAlpha" operator="out"/>
<feColorMatrix type="matrix" values="0 0 0 0 1 0 0 0 0 1 0 0 0 0 1 0 0 0 0.04 0"/>
<feBlend mode="normal" in2="BackgroundImageFix" result="effect1_dropShadow_741_596"/>
<feBlend mode="normal" in="SourceGraphic" in2="effect1_dropShadow_741_596" result="shape"/>
</filter>
<filter id="filter1_d_741_596" x="1126.43" y="663.156" width="296.595" height="185.221" filterUnits="userSpaceOnUse" color-interpolation-filters="sRGB">
<feFlood flood-opacity="0" result="BackgroundImageFix"/>
<feColorMatrix in="SourceAlpha" type="matrix" values="0 0 0 0 0 0 0 0 0 0 0 0 0 0 0 0 0 0 127 0" result="hardAlpha"/>
<feOffset dy="4"/>
<feGaussianBlur stdDeviation="2.5"/>
<feComposite in2="hardAlpha" operator="out"/>
<feColorMatrix type="matrix" values="0 0 0 0 0 0 0 0 0 0 0 0 0 0 0 0 0 0 0.25 0"/>
<feBlend mode="normal" in2="BackgroundImageFix" result="effect1_dropShadow_741_596"/>
<feBlend mode="normal" in="SourceGraphic" in2="effect1_dropShadow_741_596" result="shape"/>
</filter>
<filter id="filter2_d_741_596" x="1435" y="156" width="386" height="146" filterUnits="userSpaceOnUse" color-interpolation-filters="sRGB">
<feFlood flood-opacity="0" result="BackgroundImageFix"/>
<feColorMatrix in="SourceAlpha" type="matrix" values="0 0 0 0 0 0 0 0 0 0 0 0 0 0 0 0 0 0 127 0" result="hardAlpha"/>
<feOffset dy="4"/>
<feGaussianBlur stdDeviation="2"/>
<feComposite in2="hardAlpha" operator="out"/>
<feColorMatrix type="matrix" values="0 0 0 0 0.458824 0 0 0 0 0.392157 0 0 0 0 0.901961 0 0 0 0.1 0"/>
<feBlend mode="normal" in2="BackgroundImageFix" result="effect1_dropShadow_741_596"/>
<feBlend mode="normal" in="SourceGraphic" in2="effect1_dropShadow_741_596" result="shape"/>
</filter>
<radialGradient id="paint0_radial_741_596" cx="0" cy="0" r="1" gradientUnits="userSpaceOnUse" gradientTransform="translate(1220 540) rotate(90) scale(1214.98)">
<stop stop-color="#D9D9D9"/>
<stop offset="1" stop-color="#D9D9D9" stop-opacity="0"/>
</radialGradient>
<linearGradient id="paint1_linear_741_596" x1="1375.08" y1="698.378" x2="1272.05" y2="698.378" gradientUnits="userSpaceOnUse">
<stop stop-color="#E1A59B" stop-opacity="0.49"/>
<stop offset="1" stop-color="#E1A59B"/>
</linearGradient>
<linearGradient id="paint2_linear_741_596" x1="1373.09" y1="469.504" x2="1433.12" y2="451.269" gradientUnits="userSpaceOnUse">
<stop stop-color="#E1A59B"/>
<stop offset="0.927083" stop-color="#E1A59B" stop-opacity="0.65"/>
</linearGradient>
<linearGradient id="paint3_linear_741_596" x1="1426.12" y1="626.577" x2="1472.45" y2="620.432" gradientUnits="userSpaceOnUse">
<stop stop-color="#E1A59B"/>
<stop offset="1" stop-color="#E1A59B" stop-opacity="0.61"/>
</linearGradient>
<linearGradient id="paint4_linear_741_596" x1="1092.48" y1="566.202" x2="1144.73" y2="577.242" gradientUnits="userSpaceOnUse">
<stop stop-color="#E1A59B" stop-opacity="0.79"/>
<stop offset="0.484375" stop-color="#E1A59B"/>
<stop offset="1" stop-color="#E1A59B"/>
</linearGradient>
<linearGradient id="paint5_linear_741_596" x1="1068.61" y1="704.809" x2="1103.36" y2="712.361" gradientUnits="userSpaceOnUse">
<stop stop-color="#E1A59B" stop-opacity="0.79"/>
<stop offset="0.854167" stop-color="#E1A59B"/>
<stop offset="1" stop-color="#E1A59B"/>
</linearGradient>
<linearGradient id="paint6_linear_741_596" x1="1051.91" y1="789.947" x2="1082.1" y2="800.071" gradientUnits="userSpaceOnUse">
<stop stop-color="#E1A59B" stop-opacity="0.79"/>
<stop offset="0.385417" stop-color="#E1A59B"/>
<stop offset="1" stop-color="#E1A59B"/>
</linearGradient>
<linearGradient id="paint7_linear_741_596" x1="1166.44" y1="392.221" x2="1143.63" y2="391.117" gradientUnits="userSpaceOnUse">
<stop stop-color="#E1A59B"/>
<stop offset="1" stop-color="#E1A59B" stop-opacity="0.32"/>
</linearGradient>
<linearGradient id="paint8_linear_741_596" x1="1330.72" y1="351.745" x2="1330.72" y2="570.992" gradientUnits="userSpaceOnUse">
<stop stop-color="#F8F2F2"/>
<stop offset="1" stop-color="#F1E1E2"/>
</linearGradient>
<linearGradient id="paint9_linear_741_596" x1="1213.76" y1="351.745" x2="1213.76" y2="570.992" gradientUnits="userSpaceOnUse">
<stop stop-color="#F8F2F2"/>
<stop offset="1" stop-color="#F1E1E2"/>
</linearGradient>
<linearGradient id="paint10_linear_741_596" x1="1363.68" y1="480.536" x2="1156.14" y2="480.536" gradientUnits="userSpaceOnUse">
<stop stop-color="#231815"/>
<stop offset="1" stop-color="#231815" stop-opacity="0.81"/>
</linearGradient>
<linearGradient id="paint11_linear_741_596" x1="1125.23" y1="968.841" x2="1232.23" y2="984.257" gradientUnits="userSpaceOnUse">
<stop stop-color="#E1A59B"/>
<stop offset="0.186694" stop-color="#E1A59B" stop-opacity="0.79"/>
<stop offset="1" stop-color="#E1A59B"/>
</linearGradient>
<linearGradient id="paint12_linear_741_596" x1="1308.85" y1="951.178" x2="1400.5" y2="964.712" gradientUnits="userSpaceOnUse">
<stop stop-color="#E1A59B"/>
<stop offset="0.52436" stop-color="#E1A59B" stop-opacity="0.79"/>
<stop offset="1" stop-color="#E1A59B"/>
</linearGradient>
<linearGradient id="paint13_linear_741_596" x1="1274.73" y1="668.432" x2="1274.73" y2="839.377" gradientUnits="userSpaceOnUse">
<stop stop-color="#F8F2F2"/>
<stop offset="1" stop-color="#F1E1E2"/>
</linearGradient>
<linearGradient id="paint14_linear_741_596" x1="1271.77" y1="171.735" x2="1271.77" y2="308.511" gradientUnits="userSpaceOnUse">
<stop offset="0.390625" stop-color="#ECBEB7"/>
<stop offset="1" stop-color="#E1A59B"/>
</linearGradient>
<linearGradient id="paint15_linear_741_596" x1="1163.13" y1="1246.89" x2="1231.18" y2="1241.21" gradientUnits="userSpaceOnUse">
<stop stop-color="#E1A59B"/>
<stop offset="0.52436" stop-color="#E1A59B" stop-opacity="0.79"/>
<stop offset="1" stop-color="#E1A59B"/>
</linearGradient>
<linearGradient id="paint16_linear_741_596" x1="1308.25" y1="1246.89" x2="1374.95" y2="1251.79" gradientUnits="userSpaceOnUse">
<stop stop-color="#E1A59B"/>
<stop offset="0.614583" stop-color="#E1A59B" stop-opacity="0.79"/>
<stop offset="1" stop-color="#E1A59B"/>
</linearGradient>
<clipPath id="clip0_741_596">
<rect width="1920" height="1080" fill="white"/>
</clipPath>
</defs>
</svg>
