<svg width="674" height="631" viewBox="0 0 674 631" fill="none" xmlns="http://www.w3.org/2000/svg">
<g opacity="0.8" filter="url(#filter0_bd_651_1198)">
<rect x="36" y="39" width="604" height="572" rx="20" fill="#E2DEFF"/>
</g>
<g opacity="0.9" filter="url(#filter1_bd_651_1198)">
<rect x="20" y="20" width="634" height="572" rx="20" fill="white"/>
</g>
<path d="M256.584 243.04V247.456H313.544V243.04H256.584ZM260.68 230.048V234.528H309.256V230.048H260.68ZM272.712 244.896C269.064 251.424 262.216 256.8 254.728 260.064C255.816 260.896 257.608 262.752 258.312 263.648C265.8 259.808 273.096 253.728 277.384 246.24L272.712 244.896ZM296.52 245.024L292.552 246.368C296.84 253.408 304.392 259.936 311.88 263.136C312.584 261.92 313.992 260.192 315.016 259.296C307.848 256.736 300.296 250.976 296.52 245.024ZM272.2 222.112V245.792H276.936V222.112H272.2ZM292.744 222.112V245.792H297.48V222.112H292.744ZM278.664 253.152V275.552C278.664 276.32 278.472 276.512 277.512 276.576C276.552 276.64 273.544 276.64 270.024 276.512C270.664 277.856 271.304 279.712 271.496 281.056C275.976 281.056 278.984 280.992 280.84 280.288C282.76 279.52 283.272 278.176 283.272 275.552V253.152H278.664ZM269.256 258.592C267.464 263.072 264.392 268.448 260.616 271.776L264.648 274.144C268.424 270.56 271.24 264.992 273.288 260.32L269.256 258.592ZM286.728 260.192C288.712 264.544 290.376 270.176 290.824 273.952L295.048 272.928C294.472 269.152 292.744 263.584 290.696 259.296L286.728 260.192ZM295.048 258.656C298.888 263.392 302.984 270.048 304.648 274.4L308.808 272.48C307.016 268.064 302.92 261.728 298.888 256.992L295.048 258.656ZM334.6 275.616V279.136H369.992V275.616H334.6ZM331.656 265.696V281.184H336.392V269.216H368.136V281.12H373.064V265.696H331.656ZM325.256 226.784V230.496H379.336V226.784H325.256ZM329.8 234.848V238.432H375.048V234.848H329.8ZM323.272 258.272V262.112H381.064V258.272H323.272ZM349.576 222.176V236.384H354.44V222.176H349.576ZM337.352 254.112C338.504 255.84 339.656 258.336 339.976 260L344.584 258.592C344.072 256.992 342.984 254.624 341.704 252.896L337.352 254.112ZM362.12 252.576C361.544 254.432 360.2 257.12 359.112 258.912L363.208 260C364.36 258.4 365.896 256.096 367.24 253.664L362.12 252.576ZM337.352 245.024H366.92V250.144H337.352V245.024ZM332.808 241.696V253.408H371.72V241.696H332.808ZM401.288 260.576H405.448L406.728 235.744L406.92 228.128H399.816L400.008 235.744L401.288 260.576ZM403.4 276.32C405.64 276.32 407.496 274.72 407.496 272.16C407.496 269.6 405.64 267.872 403.4 267.872C401.096 267.872 399.24 269.6 399.24 272.16C399.24 274.72 401.096 276.32 403.4 276.32Z" fill="#231815"/>
<path d="M171.04 521.74V522.98H188.98V521.74H171.04ZM171.14 508.76V510H188.86V508.76H171.14ZM172.52 518.82V520.02H187.7V518.82H172.52ZM179.16 506.74V522.34H180.66V506.74H179.16ZM186.12 505.32C182.96 505.9 177.3 506.26 172.64 506.38C172.78 506.7 172.96 507.22 172.96 507.58C177.64 507.48 183.34 507.14 186.92 506.48L186.12 505.32ZM174.62 514.8H185.44V516.34H174.62V514.8ZM174.62 512.28H185.44V513.8H174.62V512.28ZM173.16 511.2V517.42H186.96V511.2H173.16ZM196.76 513.18H206.06V514.54H196.76V513.18ZM196.76 510.82H206.06V512.16H196.76V510.82ZM195.26 509.74V515.62H207.62V509.74H195.26ZM196.34 505.2C195.4 507.18 193.66 509.04 191.96 510.2C192.24 510.48 192.72 511.1 192.9 511.4C194.74 510 196.6 507.86 197.7 505.62L196.34 505.2ZM195.96 507.14L195.32 508.4H209.04V507.14H195.96ZM197.8 515.2C196.68 516.9 194.76 518.48 192.84 519.46C193.18 519.7 193.7 520.2 193.92 520.44C195.78 519.34 197.84 517.58 199.1 515.66L197.8 515.2ZM196.96 516.9L195.98 518.06H206.28V516.9H196.96ZM205.86 516.9V517.1C203.52 520.32 197.36 521.84 191.66 522.26C191.88 522.62 192.16 523.22 192.24 523.62C198.18 523.02 204.58 521.38 207.36 517.46L206.42 516.84L206.16 516.9H205.86ZM196.98 517.64L195.84 518.1C198.5 521.38 203.6 522.98 209.4 523.46C209.58 523.08 209.92 522.46 210.24 522.14C204.44 521.78 199.34 520.38 196.98 517.64ZM221.16 505.2V513.1H222.78V505.2H221.16ZM214.4 506.64C215.46 508.04 216.56 509.98 217 511.28L218.42 510.64C217.96 509.38 216.88 507.48 215.76 506.08L214.4 506.64ZM228.02 505.92C227.42 507.44 226.32 509.58 225.44 510.9L226.74 511.42C227.64 510.12 228.78 508.16 229.62 506.46L228.02 505.92ZM214.68 512.28V513.78H227.78V523.62H229.36V512.28H214.68ZM215.36 516.68V518.14H228.38V516.68H215.36ZM214.3 521.26V522.74H228.58V521.26H214.3ZM234.06 508.36V509.76H251.94V508.36H234.06ZM236.12 514.8V515.98H241.72V514.8H236.12ZM236.12 518V519.18H241.72V518H236.12ZM245.06 511.72V519.94H246.48V511.72H245.06ZM241.18 511.54V521.86C241.18 522.12 241.1 522.2 240.82 522.22C240.54 522.24 239.62 522.24 238.62 522.2C238.82 522.58 239.04 523.14 239.12 523.52C240.48 523.52 241.36 523.52 241.9 523.28C242.46 523.04 242.64 522.64 242.64 521.88V511.54H241.18ZM249.12 511.12V521.74C249.12 522.02 249.02 522.1 248.7 522.12C248.36 522.14 247.28 522.14 246.06 522.1C246.28 522.5 246.52 523.14 246.6 523.54C248.16 523.54 249.16 523.5 249.78 523.28C250.4 523.04 250.6 522.62 250.6 521.74V511.12H249.12ZM237.16 505.7C237.92 506.56 238.74 507.78 239.06 508.54L240.54 508C240.16 507.22 239.32 506.04 238.54 505.18L237.16 505.7ZM247.44 505.12C246.94 506.2 246.04 507.74 245.32 508.7L246.64 509.2C247.38 508.26 248.28 506.88 249.04 505.64L247.44 505.12ZM235.32 511.54V523.5H236.74V512.84H241.66V511.54H235.32ZM264.14 509.82V511.26H272.16V509.82H264.14ZM271.42 509.82V510.16C271.2 518.12 270.92 521 270.38 521.64C270.16 521.88 269.94 521.94 269.6 521.92C269.16 521.92 268.12 521.92 266.98 521.82C267.26 522.24 267.42 522.86 267.46 523.3C268.52 523.36 269.6 523.38 270.22 523.32C270.88 523.24 271.28 523.08 271.68 522.54C272.38 521.66 272.62 518.84 272.88 510.58C272.88 510.38 272.9 509.82 272.9 509.82H271.42ZM267.04 505.56C267.02 512.1 267 518.98 263.16 522.5C263.54 522.74 264.06 523.24 264.32 523.58C268.38 519.74 268.48 512.52 268.52 505.56H267.04ZM255.78 506.84V508.2H263.52V506.84H255.78ZM255.06 511.62V512.98H263.88V511.62H255.06ZM260.96 515.06C261.7 516.88 262.56 519.32 262.9 520.74L264.22 520.28C263.86 518.9 262.96 516.5 262.18 514.72L260.96 515.06ZM255.78 521.14C256.26 520.86 257.02 520.64 263.18 519.26C263.12 518.94 263.02 518.36 262.98 517.96L256.42 519.34L255.66 519.88L255.78 521.14ZM255.78 521.14C255.78 520.82 256.82 520.3 256.82 520.3V520.28C257.84 518.22 258.86 515.28 259.48 512.6L258.02 512.14C257.54 514.74 256.52 517.62 256.22 518.34C255.88 519.12 255.62 519.64 255.3 519.74C255.46 520.12 255.7 520.82 255.78 521.14ZM284.74 508.56L284.04 510H294.22V508.56H284.74ZM287.24 512.9V514.28H293.76V512.9H287.24ZM287.22 517.3V518.72H294.04V517.3H287.22ZM286.48 509.02V523.6H288.02V509.02H286.48ZM285.5 505.44C284.52 508.38 282.9 511.3 281.08 513.16C281.42 513.4 282.02 513.94 282.24 514.2C284.08 512.14 285.82 509 286.96 505.82L285.5 505.44ZM280.7 505.28C279.56 508.32 277.7 511.32 275.7 513.26C275.98 513.62 276.44 514.42 276.58 514.78C278.76 512.54 280.82 509.12 282.14 505.74L280.7 505.28ZM278.56 510.44V523.58H280.08V508.96L280.04 508.94L278.56 510.44Z" fill="#BCBCBC"/>
<path d="M370.78 508.84V510.28H382.48V508.84H370.78ZM373.6 505.64V512.62C373.6 514.94 373.34 517.62 370.94 519.46C371.26 519.66 371.84 520.24 372.04 520.52C374.68 518.52 375.08 515.24 375.08 512.64V505.64H373.6ZM370.64 513.88V515.3H382.86V513.88H370.64ZM369.22 512.44H364.98V513.86H367.76V520.18H369.22V512.44ZM368.46 519.44C367.46 519.44 366.12 520.5 364.76 521.96L365.76 523.32C366.78 521.96 367.76 520.78 368.44 520.78C368.9 520.78 369.52 521.44 370.36 521.98C371.76 522.84 373.44 523.08 375.92 523.08C377.82 523.08 381.4 522.96 382.82 522.86C382.86 522.44 383.1 521.72 383.26 521.3C381.32 521.52 378.32 521.68 375.96 521.68C373.68 521.68 372 521.54 370.7 520.74C369.6 520.04 369.14 519.44 368.46 519.44ZM365.6 506.46C366.72 507.46 368.06 508.9 368.66 509.82L369.82 508.88C369.16 507.98 367.8 506.6 366.68 505.62L365.6 506.46ZM378.4 505.62V520.42H379.88V505.62H378.4ZM393.7 506.42V507.86H403.52V506.42H393.7ZM399.54 512.38V521.66C399.54 522 399.42 522.08 399.02 522.1C398.66 522.12 397.32 522.12 395.9 522.08C396.12 522.52 396.32 523.14 396.38 523.56C398.34 523.56 399.48 523.54 400.16 523.32C400.84 523.08 401.06 522.62 401.06 521.68V512.38H399.54ZM392.82 511.94V513.36H404.1V511.94H392.82ZM388.82 513.48V523.66H390.32V512.26L390.14 512.18L388.82 513.48ZM391.14 509.48C389.76 511.78 387.56 514.1 385.48 515.58C385.8 515.86 386.32 516.52 386.54 516.82C388.64 515.14 391 512.56 392.56 510.02L391.14 509.48ZM390.32 505.2C389.3 506.64 387.36 508.44 385.7 509.56C385.96 509.86 386.36 510.44 386.58 510.76C388.36 509.48 390.42 507.54 391.76 505.78L390.32 505.2ZM407.1 506.68V508.2H424.9V506.68H407.1ZM414.8 507.88V523.58H416.38V507.88H414.8ZM415.68 512.62C418.1 513.86 421.22 515.76 422.76 517L423.82 515.64C422.22 514.44 419.06 512.62 416.66 511.46L415.68 512.62ZM437.12 505.18C435.1 508.52 431.46 511.44 427.68 513.08C428.1 513.46 428.56 514.02 428.8 514.46C432.62 512.62 436.28 509.48 438.44 505.82L437.12 505.18ZM437.54 506.3L436.24 506.96C439.16 510.66 442.02 512.76 445.28 514.5C445.5 514.02 445.96 513.44 446.38 513.12C443.16 511.58 440.22 509.58 437.54 506.3ZM436.2 511.1V523.58H437.76V511.1H436.2ZM458.14 509.82V511.26H466.16V509.82H458.14ZM465.42 509.82V510.16C465.2 518.12 464.92 521 464.38 521.64C464.16 521.88 463.94 521.94 463.6 521.92C463.16 521.92 462.12 521.92 460.98 521.82C461.26 522.24 461.42 522.86 461.46 523.3C462.52 523.36 463.6 523.38 464.22 523.32C464.88 523.24 465.28 523.08 465.68 522.54C466.38 521.66 466.62 518.84 466.88 510.58C466.88 510.38 466.9 509.82 466.9 509.82H465.42ZM461.04 505.56C461.02 512.1 461 518.98 457.16 522.5C457.54 522.74 458.06 523.24 458.32 523.58C462.38 519.74 462.48 512.52 462.52 505.56H461.04ZM449.78 506.84V508.2H457.52V506.84H449.78ZM449.06 511.62V512.98H457.88V511.62H449.06ZM454.96 515.06C455.7 516.88 456.56 519.32 456.9 520.74L458.22 520.28C457.86 518.9 456.96 516.5 456.18 514.72L454.96 515.06ZM449.78 521.14C450.26 520.86 451.02 520.64 457.18 519.26C457.12 518.94 457.02 518.36 456.98 517.96L450.42 519.34L449.66 519.88L449.78 521.14ZM449.78 521.14C449.78 520.82 450.82 520.3 450.82 520.3V520.28C451.84 518.22 452.86 515.28 453.48 512.6L452.02 512.14C451.54 514.74 450.52 517.62 450.22 518.34C449.88 519.12 449.62 519.64 449.3 519.74C449.46 520.12 449.7 520.82 449.78 521.14ZM478.74 508.56L478.04 510H488.22V508.56H478.74ZM481.24 512.9V514.28H487.76V512.9H481.24ZM481.22 517.3V518.72H488.04V517.3H481.22ZM480.48 509.02V523.6H482.02V509.02H480.48ZM479.5 505.44C478.52 508.38 476.9 511.3 475.08 513.16C475.42 513.4 476.02 513.94 476.24 514.2C478.08 512.14 479.82 509 480.96 505.82L479.5 505.44ZM474.7 505.28C473.56 508.32 471.7 511.32 469.7 513.26C469.98 513.62 470.44 514.42 470.58 514.78C472.76 512.54 474.82 509.12 476.14 505.74L474.7 505.28ZM472.56 510.44V523.58H474.08V508.96L474.04 508.94L472.56 510.44Z" fill="#BCBCBC"/>
<rect x="181" y="381" width="105" height="105" rx="20" fill="#FFA248"/>
<rect x="375" y="381" width="105" height="105" rx="20" fill="#7564E6"/>
<path d="M251.033 415.678C254.529 419.174 256.91 423.629 257.875 428.478C258.84 433.328 258.345 438.354 256.452 442.923C254.56 447.491 251.356 451.395 247.245 454.142C243.133 456.889 238.3 458.355 233.355 458.355C228.411 458.355 223.577 456.889 219.466 454.142C215.355 451.395 212.151 447.491 210.258 442.923C208.366 438.354 207.871 433.328 208.836 428.478C209.8 423.629 212.181 419.174 215.678 415.678" stroke="white" stroke-width="4" stroke-linecap="round"/>
<path d="M244.5 422.211C246.704 424.415 248.205 427.223 248.813 430.281C249.422 433.338 249.109 436.507 247.917 439.387C246.724 442.267 244.703 444.728 242.112 446.46C239.52 448.192 236.473 449.116 233.355 449.116C230.238 449.116 227.191 448.192 224.599 446.46C222.007 444.728 219.987 442.267 218.794 439.387C217.601 436.507 217.289 433.338 217.897 430.281C218.505 427.223 220.006 424.415 222.211 422.211" stroke="white" stroke-width="4" stroke-linecap="round"/>
<path d="M243.706 407.357L254.581 412.913L248.162 418.727L243.706 407.357Z" fill="white"/>
<path d="M450.5 438.33L431 449.588C427.667 451.513 423.5 449.107 423.5 445.258L423.5 422.742C423.5 418.893 427.667 416.487 431 418.412L450.5 429.67C453.833 431.594 453.833 436.406 450.5 438.33Z" stroke="white" stroke-width="4"/>
<path d="M437.5 427.938C442.167 430.632 442.167 437.368 437.5 440.062L418 451.321C413.333 454.015 407.5 450.647 407.5 445.258L407.5 422.742C407.5 417.353 413.333 413.985 418 416.679L437.5 427.938Z" fill="white"/>
<line x1="131" y1="127.5" x2="246" y2="127.5" stroke="black"/>
<line x1="428" y1="127.5" x2="543" y2="127.5" stroke="black"/>
<circle cx="337" cy="128" r="64.5" fill="white" stroke="black"/>
<path d="M336.752 190.836C337.002 190.954 337.3 190.848 337.419 190.599C337.537 190.349 337.431 190.051 337.182 189.933L336.752 190.836ZM303.236 112.779C303.9 121.058 304.741 136.973 309.165 152.592C313.585 168.2 321.617 183.638 336.752 190.836L337.182 189.933C322.44 182.922 314.521 167.834 310.127 152.319C305.736 136.815 304.9 121.011 304.233 112.699L303.236 112.779Z" fill="black"/>
<path d="M303.735 112.739C302.909 99.4189 318.786 78.7636 335.524 67.5978C352.807 56.0687 360.356 106.591 358.463 114.457C356.408 123.001 331.302 130.769 318.806 133.019C309.076 134.771 305.252 137.185 303.736 112.739H303.735Z" stroke="black" stroke-miterlimit="10"/>
<path d="M303.823 112.782C303.801 105.958 306.002 101.22 309.488 98.2056C315.371 93.1185 321.606 90.3593 329.361 88.6974C342.719 85.8324 351.002 90.5576 361.25 100.568C366.19 105.393 370.903 116.712 366.843 123.354C359.554 135.273 309.585 143.053 306.061 129.423C304.448 123.184 303.842 118.48 303.823 112.784V112.782Z" stroke="black" stroke-miterlimit="10"/>
<path d="M307.051 137.384C306.898 134.03 308.356 131.265 310.924 129.1C313.719 126.745 316.061 125.415 320.054 124.733C328.194 123.343 337.377 126.01 339.034 132.579C341.485 142.292 337.632 156.308 335.522 160.594C333.758 164.18 325.534 181.378 318.802 173.738C315.424 169.903 307.635 150.17 307.051 137.384Z" stroke="black" stroke-miterlimit="10"/>
<path d="M307.86 134.7C312.74 126.569 327.623 121.845 338.585 125.806C347.293 128.952 353.652 152.129 350.944 154.391C342.154 161.734 318.386 163.313 314.981 160.225C307.885 153.791 305.629 138.418 307.86 134.7Z" stroke="black" stroke-miterlimit="10"/>
<defs>
<filter id="filter0_bd_651_1198" x="-14" y="-11" width="704" height="672" filterUnits="userSpaceOnUse" color-interpolation-filters="sRGB">
<feFlood flood-opacity="0" result="BackgroundImageFix"/>
<feGaussianBlur in="BackgroundImageFix" stdDeviation="25"/>
<feComposite in2="SourceAlpha" operator="in" result="effect1_backgroundBlur_651_1198"/>
<feColorMatrix in="SourceAlpha" type="matrix" values="0 0 0 0 0 0 0 0 0 0 0 0 0 0 0 0 0 0 127 0" result="hardAlpha"/>
<feOffset/>
<feGaussianBlur stdDeviation="10"/>
<feComposite in2="hardAlpha" operator="out"/>
<feColorMatrix type="matrix" values="0 0 0 0 1 0 0 0 0 1 0 0 0 0 1 0 0 0 0.25 0"/>
<feBlend mode="normal" in2="effect1_backgroundBlur_651_1198" result="effect2_dropShadow_651_1198"/>
<feBlend mode="normal" in="SourceGraphic" in2="effect2_dropShadow_651_1198" result="shape"/>
</filter>
<filter id="filter1_bd_651_1198" x="-30" y="-30" width="734" height="672" filterUnits="userSpaceOnUse" color-interpolation-filters="sRGB">
<feFlood flood-opacity="0" result="BackgroundImageFix"/>
<feGaussianBlur in="BackgroundImageFix" stdDeviation="25"/>
<feComposite in2="SourceAlpha" operator="in" result="effect1_backgroundBlur_651_1198"/>
<feColorMatrix in="SourceAlpha" type="matrix" values="0 0 0 0 0 0 0 0 0 0 0 0 0 0 0 0 0 0 127 0" result="hardAlpha"/>
<feOffset/>
<feGaussianBlur stdDeviation="10"/>
<feComposite in2="hardAlpha" operator="out"/>
<feColorMatrix type="matrix" values="0 0 0 0 0 0 0 0 0 0 0 0 0 0 0 0 0 0 0.25 0"/>
<feBlend mode="normal" in2="effect1_backgroundBlur_651_1198" result="effect2_dropShadow_651_1198"/>
<feBlend mode="normal" in="SourceGraphic" in2="effect2_dropShadow_651_1198" result="shape"/>
</filter>
</defs>
</svg>
