<svg width="449" height="771" viewBox="0 0 449 771" fill="none" xmlns="http://www.w3.org/2000/svg">
<rect x="337" y="698" width="14" height="4" fill="#D9D9D9"/>
<rect x="346" y="693" width="14" height="4" transform="rotate(90 346 693)" fill="#D9D9D9"/>
<g filter="url(#filter0_bd_801_2)">
<rect x="65" y="61" width="319" height="641" rx="20" fill="white"/>
<rect x="63.5" y="59.5" width="322" height="644" rx="21.5" stroke="white" stroke-width="3"/>
</g>
<rect x="127" y="640" width="195" height="39" rx="19.5" fill="#FFA248" fill-opacity="0.47"/>
<rect x="211" y="650" width="28" height="6" rx="3" fill="white"/>
<rect x="211" y="663.125" width="28" height="6" rx="3" fill="white"/>
<rect x="81" y="375" width="288" height="112" rx="20" fill="#F7F6FB"/>
<rect x="81" y="207" width="288" height="113" rx="20" fill="#F7F6FB"/>
<path d="M264.832 596.792H279.184V597.784H264.832V596.792ZM264.912 586.408H279.088V587.4H264.912V586.408ZM266.016 594.456H278.16V595.416H266.016V594.456ZM271.328 584.792H272.528V597.272H271.328V584.792ZM276.896 583.656L277.536 584.584C274.672 585.112 270.112 585.384 266.368 585.464C266.368 585.176 266.224 584.76 266.112 584.504C269.84 584.408 274.368 584.12 276.896 583.656ZM267.696 591.24V592.472H276.352V591.24H267.696ZM267.696 589.224V590.44H276.352V589.224H267.696ZM266.528 588.36H277.568V593.336H266.528V588.36ZM290.16 588.968H296.128V590.088H290.16V588.968ZM281.776 585.24H288.832V586.264H281.776V585.24ZM281.6 591.592H288.912V592.632H281.6V591.592ZM281.52 588.904H289.088V589.928H281.52V588.904ZM293.2 589.448H294.368V598.216H293.2V589.448ZM282.816 586.584L283.792 586.36C284.112 587.064 284.4 588.008 284.464 588.616L283.44 588.888C283.376 588.28 283.136 587.32 282.816 586.584ZM286.832 586.344L287.936 586.584C287.6 587.528 287.2 588.616 286.864 589.32L285.872 589.08C286.208 588.344 286.608 587.144 286.832 586.344ZM294.64 583.848L295.616 584.744C294.08 585.304 291.888 585.752 290.016 586.024C289.968 585.768 289.792 585.368 289.632 585.112C291.424 584.808 293.504 584.344 294.64 583.848ZM284.224 583.784L285.296 583.512C285.68 584.152 286.112 585.032 286.288 585.576L285.168 585.912C284.992 585.352 284.592 584.456 284.224 583.784ZM284.816 589.512H285.904V596.728C285.904 597.288 285.792 597.576 285.44 597.752C285.072 597.928 284.512 597.944 283.744 597.944C283.696 597.656 283.552 597.224 283.392 596.92C283.952 596.936 284.432 596.936 284.608 596.936C284.768 596.936 284.816 596.888 284.816 596.728V589.512ZM289.632 585.112H290.752V590.616C290.752 592.904 290.56 596.056 289.088 598.136C288.896 597.912 288.416 597.544 288.16 597.4C289.504 595.48 289.632 592.728 289.632 590.616V585.112ZM286.544 593.592L287.376 593.16C287.904 593.96 288.464 595 288.72 595.688L287.856 596.184C287.6 595.496 287.04 594.392 286.544 593.592ZM282.96 593.24L283.936 593.496C283.552 594.6 282.928 595.768 282.288 596.52C282.096 596.36 281.696 596.056 281.456 595.928C282.096 595.224 282.624 594.232 282.96 593.24ZM303.984 585.928H312.784V587.048H303.984V585.928ZM306.128 587.464L307.2 587.944C306.48 589.224 305.408 590.584 304.32 591.528C304.128 591.304 303.744 590.984 303.488 590.792C304.528 589.944 305.568 588.584 306.128 587.464ZM309.088 588.008L309.936 587.352C310.976 588.36 312.208 589.752 312.752 590.696L311.856 591.432C311.344 590.472 310.144 589.016 309.088 588.008ZM306.304 590.344C307.44 593.528 309.792 596.072 313.04 597.128C312.768 597.368 312.4 597.848 312.224 598.184C308.864 596.936 306.544 594.2 305.264 590.616L306.304 590.344ZM306.768 583.912L307.792 583.48C308.336 584.072 308.88 584.872 309.136 585.432L308.064 585.944C307.824 585.384 307.296 584.52 306.768 583.912ZM298.592 586.952H303.584V588.088H298.592V586.952ZM300.688 583.56H301.792V598.264H300.688V583.56ZM300.56 587.624L301.296 587.896C300.816 590.488 299.792 593.704 298.704 595.336C298.576 595 298.288 594.488 298.064 594.184C299.104 592.744 300.128 589.928 300.56 587.624ZM301.76 588.68C302.096 589.16 303.408 591.352 303.696 591.88L302.96 592.792C302.624 591.928 301.584 589.88 301.184 589.176L301.76 588.68ZM309.76 590.264L310.928 590.552C309.872 594.184 307.648 596.728 304.144 598.296C303.984 598.04 303.616 597.608 303.376 597.4C306.704 595.944 308.88 593.56 309.76 590.264ZM321.024 589.624H329.008V590.68H321.024V589.624ZM321.04 592.824H328.992V593.88H321.04V592.824ZM321.024 596.056H329.648V597.144H321.024V596.056ZM321.52 583.704L322.624 583.976C321.696 586.664 320.256 589.256 318.64 590.92C318.464 590.712 318.032 590.28 317.776 590.072C319.36 588.568 320.704 586.168 321.52 583.704ZM321.344 586.424H329.328V587.48H321.344V598.28H320.224V587.368L321.104 586.424H321.344ZM324.736 587.016H325.904V596.664H324.736V587.016ZM324.096 584.136L325.12 583.672C325.616 584.376 326.144 585.304 326.4 585.928L325.312 586.472C325.088 585.832 324.56 584.856 324.096 584.136ZM315.152 584.76L316.208 584.264C317.024 585.368 318.016 586.872 318.448 587.8L317.312 588.392C316.912 587.448 315.968 585.896 315.152 584.76ZM315.168 596.968C315.872 595.656 316.88 593.48 317.616 591.576L318.672 592.168C318.016 593.96 317.12 596.024 316.384 597.528L315.168 596.968Z" fill="#BCBCBC"/>
<path d="M160.04 118.232H174.776V120.968H160.04V118.232ZM160.04 123.752H174.824V126.44H160.04V123.752ZM159.992 129.416H174.92V132.128H159.992V129.416ZM158.384 118.232H161.24V126.872C161.24 130.688 160.76 136.088 157.808 139.304C157.352 138.752 156.176 137.792 155.552 137.432C158.168 134.528 158.384 130.232 158.384 126.848V118.232ZM173.768 118.232H176.624V135.776C176.624 137.312 176.288 138.08 175.328 138.536C174.32 138.992 172.88 139.04 170.696 139.016C170.576 138.248 170.144 137 169.76 136.256C171.128 136.352 172.712 136.328 173.144 136.328C173.6 136.304 173.768 136.16 173.768 135.752V118.232ZM165.776 119.312H168.704V138.872H165.776V119.312ZM184.856 120.224H187.88V125.696C187.88 129.68 187.376 135.632 184.544 139.352C184.016 138.824 182.72 137.912 182 137.6C184.616 134.168 184.856 129.2 184.856 125.696V120.224ZM191.456 117.2L194.312 116.48C194.84 117.536 195.416 118.904 195.704 119.816L192.728 120.68C192.488 119.744 191.912 118.28 191.456 117.2ZM186.752 120.224H202.184V130.64H199.232V122.912H186.752V120.224ZM186.8 126.704H200.72V129.368H186.8V126.704ZM209.744 137V134.144H213.584V122.912H210.344V120.728C212.144 120.392 213.344 119.936 214.496 119.24H217.112V134.144H220.448V137H209.744Z" fill="#4D4D4D"/>
<path d="M106.968 300.164H117.456V301.04H106.968V300.164ZM109.956 307.424H115.992V308.3H109.956V307.424ZM109.416 303.368H116.592V308.924H115.644V304.244H110.304V308.984H109.416V303.368ZM111.132 297.92L112.08 298.1C111.3 301.376 109.92 304.652 107.172 306.596C107.04 306.392 106.764 306.068 106.572 305.888C109.188 304.1 110.496 300.956 111.132 297.92ZM121.812 297.932L122.604 298.136C122.052 300.164 121.188 302.288 120.18 303.68C120.108 303.5 119.868 303.056 119.724 302.84C120.612 301.616 121.356 299.768 121.812 297.932ZM121.068 300.944L121.8 300.224L121.824 300.236V308.924H121.068V300.944ZM125.148 306.812L125.7 306.452C126.264 307.064 126.96 307.892 127.26 308.408L126.696 308.852C126.384 308.3 125.712 307.436 125.148 306.812ZM122.904 298.688H126.996V306.152H126.228V299.372H123.636V306.188H122.904V298.688ZM129.696 298.028H130.464V307.916C130.464 308.396 130.356 308.636 130.056 308.768C129.768 308.9 129.288 308.924 128.484 308.924C128.46 308.72 128.34 308.372 128.232 308.144C128.82 308.156 129.324 308.156 129.48 308.156C129.636 308.144 129.696 308.096 129.696 307.916V298.028ZM127.944 299.072H128.664V306.26H127.944V299.072ZM124.584 300.188H125.28V304.268C125.28 305.888 124.98 307.796 123.012 308.972C122.916 308.816 122.676 308.54 122.532 308.432C124.368 307.328 124.584 305.72 124.584 304.268V300.188ZM138.24 301.808H143.172V302.708H138.24V301.808ZM133.212 307.496H143.988V308.396H133.212V307.496ZM137.724 298.1H138.672V307.976H137.724V298.1ZM150.684 299.816H157.212V300.656H150.684V299.816ZM150.876 302.456H156.18V303.284H150.876V302.456ZM153.408 297.92H154.308V302.972H153.408V297.92ZM152.124 303.056C152.976 305.552 154.788 307.436 157.44 308.192C157.224 308.372 156.984 308.732 156.84 308.96C154.116 308.072 152.292 306.068 151.32 303.296L152.124 303.056ZM155.988 302.456H156.156L156.324 302.42L156.888 302.66C155.94 306.032 153.516 308.024 150.78 308.948C150.684 308.72 150.468 308.36 150.276 308.168C152.832 307.412 155.184 305.504 155.988 302.624V302.456ZM147.396 298.364H149.904V299.192H147.396V298.364ZM147.348 301.184H149.76V302.012H147.348V301.184ZM147.336 304.064H149.76V304.904H147.336V304.064ZM146.976 298.364H147.78V302.672C147.78 304.532 147.66 307.184 146.868 308.96C146.712 308.828 146.352 308.624 146.148 308.552C146.916 306.86 146.976 304.448 146.976 302.684V298.364ZM149.4 298.364H150.204V307.856C150.204 308.3 150.108 308.564 149.832 308.708C149.544 308.852 149.112 308.876 148.392 308.876C148.356 308.648 148.248 308.264 148.14 308.036C148.632 308.06 149.076 308.048 149.208 308.048C149.352 308.036 149.4 308 149.4 307.844V298.364Z" fill="#C0C0C0"/>
<path d="M200.004 300.092H210.36V300.968H200.004V300.092ZM203.22 303.272H210.048V304.136H203.22V303.272ZM201.984 307.748H210.576V308.612H201.984V307.748ZM205.92 303.656H206.832V308.24H205.92V303.656ZM203.628 297.932L204.564 298.052C203.916 301.784 202.812 305.78 200.136 308.24C200.004 308.036 199.716 307.712 199.536 307.532C202.044 305.276 203.1 301.4 203.628 297.932ZM214.812 297.932L215.604 298.136C215.052 300.164 214.188 302.288 213.18 303.68C213.108 303.5 212.868 303.056 212.724 302.84C213.612 301.616 214.356 299.768 214.812 297.932ZM214.068 300.944L214.8 300.224L214.824 300.236V308.924H214.068V300.944ZM218.148 306.812L218.7 306.452C219.264 307.064 219.96 307.892 220.26 308.408L219.696 308.852C219.384 308.3 218.712 307.436 218.148 306.812ZM215.904 298.688H219.996V306.152H219.228V299.372H216.636V306.188H215.904V298.688ZM222.696 298.028H223.464V307.916C223.464 308.396 223.356 308.636 223.056 308.768C222.768 308.9 222.288 308.924 221.484 308.924C221.46 308.72 221.34 308.372 221.232 308.144C221.82 308.156 222.324 308.156 222.48 308.156C222.636 308.144 222.696 308.096 222.696 307.916V298.028ZM220.944 299.072H221.664V306.26H220.944V299.072ZM217.584 300.188H218.28V304.268C218.28 305.888 217.98 307.796 216.012 308.972C215.916 308.816 215.676 308.54 215.532 308.432C217.368 307.328 217.584 305.72 217.584 304.268V300.188ZM231.24 301.808H236.172V302.708H231.24V301.808ZM226.212 307.496H236.988V308.396H226.212V307.496ZM230.724 298.1H231.672V307.976H230.724V298.1ZM243.684 299.816H250.212V300.656H243.684V299.816ZM243.876 302.456H249.18V303.284H243.876V302.456ZM246.408 297.92H247.308V302.972H246.408V297.92ZM245.124 303.056C245.976 305.552 247.788 307.436 250.44 308.192C250.224 308.372 249.984 308.732 249.84 308.96C247.116 308.072 245.292 306.068 244.32 303.296L245.124 303.056ZM248.988 302.456H249.156L249.324 302.42L249.888 302.66C248.94 306.032 246.516 308.024 243.78 308.948C243.684 308.72 243.468 308.36 243.276 308.168C245.832 307.412 248.184 305.504 248.988 302.624V302.456ZM240.396 298.364H242.904V299.192H240.396V298.364ZM240.348 301.184H242.76V302.012H240.348V301.184ZM240.336 304.064H242.76V304.904H240.336V304.064ZM239.976 298.364H240.78V302.672C240.78 304.532 240.66 307.184 239.868 308.96C239.712 308.828 239.352 308.624 239.148 308.552C239.916 306.86 239.976 304.448 239.976 302.684V298.364ZM242.4 298.364H243.204V307.856C243.204 308.3 243.108 308.564 242.832 308.708C242.544 308.852 242.112 308.876 241.392 308.876C241.356 308.648 241.248 308.264 241.14 308.036C241.632 308.06 242.076 308.048 242.208 308.048C242.352 308.036 242.4 308 242.4 307.844V298.364Z" fill="#C0C0C0"/>
<path d="M298.08 301.556H302.448V302.348H298.08V301.556ZM296.904 303.752H303.528V304.544H296.904V303.752ZM297.072 299.408H303.468V301.424H302.58V300.188H297.924V301.424H297.072V299.408ZM299.844 304.112H300.72V307.964C300.72 308.42 300.636 308.648 300.324 308.792C300 308.912 299.508 308.924 298.74 308.912C298.704 308.684 298.584 308.348 298.464 308.12C299.004 308.132 299.508 308.132 299.652 308.12C299.796 308.12 299.844 308.084 299.844 307.952V304.112ZM298.116 305.324L298.944 305.6C298.428 306.536 297.672 307.58 297.048 308.264C296.88 308.108 296.532 307.844 296.328 307.724C296.976 307.1 297.672 306.176 298.116 305.324ZM301.512 305.648L302.28 305.312C302.856 306.08 303.528 307.124 303.828 307.772L303 308.168C302.724 307.508 302.088 306.44 301.512 305.648ZM299.412 298.1L300.264 297.872C300.588 298.4 300.912 299.096 301.056 299.552L300.144 299.816C300.012 299.348 299.7 298.628 299.412 298.1ZM293.016 305.816C292.98 305.648 292.848 305.252 292.752 305.036C293.004 304.988 293.28 304.688 293.652 304.244C294.048 303.812 295.308 302.12 296.124 300.5L296.844 300.932C295.896 302.564 294.732 304.196 293.604 305.372V305.384C293.604 305.384 293.016 305.636 293.016 305.816ZM293.016 305.816L292.98 305.108L293.412 304.808L296.532 304.244C296.508 304.472 296.508 304.808 296.52 304.988C293.652 305.564 293.256 305.684 293.016 305.816ZM292.932 302.936C292.896 302.756 292.752 302.336 292.656 302.12C292.86 302.072 293.064 301.784 293.316 301.376C293.58 300.968 294.42 299.396 294.876 297.956L295.692 298.316C295.104 299.804 294.264 301.364 293.46 302.456V302.48C293.46 302.48 292.932 302.756 292.932 302.936ZM292.932 302.936L292.908 302.3L293.328 302.024L295.512 301.796C295.476 302.024 295.452 302.336 295.452 302.504C293.448 302.768 293.124 302.84 292.932 302.936ZM292.728 307.364C293.7 307.172 295.14 306.836 296.592 306.488L296.676 307.256C295.344 307.604 293.964 307.952 292.896 308.228L292.728 307.364ZM308.376 301.844H314.436V302.684H308.376V301.844ZM308.16 307.424H314.592V308.276H308.16V307.424ZM307.752 304.124H315.204V308.9H314.256V304.94H308.652V308.936H307.752V304.124ZM311.592 297.896L312.384 298.292C311.052 300.296 308.844 302.024 306.528 303.044C306.372 302.804 306.12 302.468 305.868 302.252C308.16 301.352 310.368 299.756 311.592 297.896ZM311.772 298.592C313.236 300.212 315 301.268 317.016 302.12C316.788 302.324 316.524 302.66 316.392 302.936C314.34 301.952 312.6 300.812 311.004 298.988L311.772 298.592ZM326.292 298.856H327.132V307.424H326.292V298.856ZM328.788 298.22H329.688V308.804H328.788V298.22ZM323.748 298.28H324.636V302.444C324.636 304.748 324.516 307.064 323.328 308.948C323.136 308.78 322.74 308.54 322.476 308.432C323.628 306.68 323.748 304.58 323.748 302.444V298.28ZM319.752 298.784L320.316 298.184C321.036 298.76 321.972 299.564 322.416 300.08L321.804 300.764C321.384 300.224 320.472 299.384 319.752 298.784ZM320.688 308.72L320.508 307.856L320.724 307.46L322.776 305.792C322.86 306.044 323.028 306.38 323.136 306.536C321.168 308.192 320.856 308.468 320.688 308.72ZM319.08 301.7H321.288V302.564H319.08V301.7ZM320.688 308.732C320.592 308.54 320.352 308.216 320.196 308.072C320.412 307.904 320.772 307.496 320.772 306.908V301.7H321.636V307.568C321.636 307.568 320.688 308.372 320.688 308.732ZM332.652 305.816C332.604 305.636 332.472 305.228 332.364 305.012C332.616 304.964 332.856 304.652 333.18 304.22C333.528 303.788 334.62 302.132 335.304 300.536L336.072 300.968C335.268 302.564 334.26 304.184 333.24 305.336V305.36C333.24 305.36 332.652 305.636 332.652 305.816ZM332.64 305.828L332.592 305.096L333.012 304.784L335.976 304.208C335.952 304.448 335.952 304.784 335.976 304.976C333.264 305.564 332.868 305.684 332.64 305.828ZM332.568 302.936C332.52 302.744 332.376 302.324 332.268 302.084C332.472 302.036 332.664 301.748 332.892 301.328C333.132 300.932 333.888 299.348 334.284 297.896L335.124 298.256C334.608 299.744 333.852 301.328 333.096 302.432V302.468C333.096 302.468 332.568 302.744 332.568 302.936ZM332.568 302.936L332.544 302.276L332.964 302.012L335.052 301.796C335.016 302.024 334.98 302.348 334.992 302.516C333.084 302.768 332.76 302.84 332.568 302.936ZM332.34 307.328C333.216 307.04 334.524 306.56 335.856 306.08L336 306.776C334.788 307.292 333.528 307.808 332.556 308.204L332.34 307.328ZM336.708 304.616V303.896L337.224 303.62H342.732V304.448H337.776C337.212 304.448 336.816 304.508 336.708 304.616ZM336.096 299.324H342.984V300.152H336.096V299.324ZM336.708 304.616C336.672 304.448 336.528 304.04 336.42 303.812C336.648 303.752 336.852 303.332 337.104 302.72C337.356 302.144 338.16 299.888 338.544 297.86L339.432 298.028C338.928 300.188 338.148 302.48 337.356 304.1V304.124C337.356 304.124 336.708 304.436 336.708 304.616ZM341.1 305.516L341.832 305.18C342.36 306.032 343.02 307.196 343.344 307.868L342.576 308.264C342.276 307.58 341.628 306.392 341.1 305.516ZM339.372 301.316H340.248V307.904C340.248 308.408 340.14 308.648 339.804 308.792C339.456 308.936 338.904 308.936 338.076 308.936C338.028 308.708 337.908 308.36 337.8 308.12C338.412 308.132 338.976 308.132 339.156 308.12C339.324 308.108 339.372 308.06 339.372 307.904V301.316ZM337.428 305.18L338.268 305.42C337.8 306.416 337.08 307.592 336.336 308.36C336.18 308.204 335.88 307.988 335.7 307.868C336.396 307.148 337.08 306.044 337.428 305.18ZM336.3 301.316H339.948V302.144H336.3V301.316Z" fill="#C0C0C0"/>
<path d="M127.984 589V592.68H131.872V589H127.984ZM126.848 587.928H133.072V593.736H126.848V587.928ZM123.312 584.216H136.688V598.264H135.408V585.432H124.544V598.264H123.312V584.216ZM124 596.28H136.144V597.416H124V596.28ZM140.336 591.928H147.84V592.984H140.336V591.928ZM143.488 590.2H144.624V596.392H143.488V590.2ZM139.792 596.344C141.808 596.024 144.992 595.448 148 594.872L148.064 595.928C145.216 596.488 142.16 597.08 140.064 597.48L139.792 596.344ZM139.92 584.616H148.16V585.688H139.92V584.616ZM144.864 586.728L145.728 586.2C146.624 587.288 147.696 588.744 148.16 589.656L147.248 590.264C146.784 589.336 145.744 587.832 144.864 586.728ZM149.056 584.952H150.176V594.648H149.056V584.952ZM152.224 583.832H153.392V596.408C153.392 597.16 153.2 597.528 152.736 597.72C152.224 597.912 151.376 597.944 150.208 597.944C150.16 597.624 149.952 597.08 149.776 596.744C150.704 596.776 151.584 596.776 151.872 596.776C152.144 596.76 152.224 596.68 152.224 596.408V583.832ZM140.688 589.976C140.624 589.72 140.448 589.16 140.304 588.856C140.544 588.808 140.784 588.52 141.072 588.136C141.36 587.752 142.272 586.296 142.8 584.888L143.968 585.352C143.28 586.808 142.32 588.312 141.44 589.336V589.352C141.44 589.352 140.688 589.72 140.688 589.976ZM140.688 589.976L140.672 589.112L141.312 588.728L146.688 588.28C146.816 588.584 147.056 588.968 147.2 589.208C141.728 589.736 141.088 589.8 140.688 589.976ZM157.232 586.76H169.952V587.944H157.232V586.76ZM157.968 591.464H169.28V592.632H157.968V591.464ZM156.496 596.568H170.752V597.752H156.496V596.568ZM162.944 587.704H164.24V597.176H162.944V587.704ZM161.568 584.296L162.544 583.624C163.584 584.36 164.88 585.448 165.504 586.216L164.464 586.968C163.888 586.216 162.624 585.08 161.568 584.296ZM173.568 584.44H187.36V585.56H173.568V584.44ZM179.728 585.016L181.104 585.224C180.688 586.2 180.192 587.272 179.776 587.992L178.72 587.768C179.072 587.016 179.52 585.832 179.728 585.016ZM179.808 589.608H181.056V592.536C181.056 594.728 180.144 596.952 173.92 598.28C173.792 598.04 173.456 597.56 173.2 597.32C179.136 596.12 179.808 594.216 179.808 592.504V589.608ZM181.12 595.256L181.808 594.44C183.632 595.224 186.064 596.504 187.296 597.384L186.544 598.328C185.376 597.432 182.976 596.104 181.12 595.256ZM175.136 587.496H185.824V594.936H184.544V588.6H176.352V594.952H175.136V587.496Z" fill="#BCBCBC"/>
<circle cx="112" cy="115" r="31" fill="#EEEDF3"/>
<path d="M111.626 135.585C111.876 135.703 112.174 135.597 112.293 135.348C112.411 135.099 112.305 134.8 112.056 134.682L111.626 135.585ZM100.629 110.141C100.842 112.799 101.115 117.968 102.552 123.042C103.986 128.106 106.614 133.201 111.626 135.585L112.056 134.682C107.436 132.485 104.922 127.739 103.514 122.769C102.11 117.81 101.842 112.753 101.626 110.062L100.629 110.141Z" fill="url(#paint0_linear_801_2)"/>
<path d="M101.128 110.102C100.862 105.807 105.98 99.1485 111.376 95.5488C116.948 91.832 119.381 108.119 118.771 110.656C118.109 113.41 110.015 115.914 105.986 116.64C102.85 117.204 101.617 117.983 101.128 110.102H101.128Z" fill="#E66464" fill-opacity="0.4"/>
<path d="M101.156 110.116C101.149 107.915 101.859 106.388 102.983 105.416C104.879 103.776 106.889 102.887 109.389 102.351C113.696 101.427 116.366 102.951 119.67 106.178C121.262 107.733 122.782 111.383 121.473 113.524C119.123 117.366 103.014 119.874 101.878 115.48C101.358 113.469 101.162 111.952 101.156 110.116V110.116Z" fill="#E66464" fill-opacity="0.4"/>
<path d="M102.197 118.047C102.147 116.965 102.617 116.074 103.445 115.376C104.347 114.617 105.102 114.188 106.389 113.968C109.013 113.52 111.973 114.38 112.508 116.498C113.298 119.629 112.056 124.147 111.376 125.529C110.807 126.685 108.155 132.23 105.985 129.767C104.896 128.53 102.385 122.169 102.197 118.047Z" fill="#484FFF" fill-opacity="0.4"/>
<path d="M102.457 117.182C104.031 114.56 108.829 113.037 112.363 114.314C115.17 115.328 117.22 122.8 116.347 123.53C113.513 125.897 105.851 126.406 104.753 125.411C102.465 123.336 101.738 118.38 102.457 117.182Z" fill="#484FFF" fill-opacity="0.4"/>
<rect x="128" y="520" width="51" height="51" rx="10" fill="#FFA248"/>
<rect width="27.9469" height="6" rx="3" transform="matrix(0.701187 0.712977 -0.703378 0.710816 145.5 533.2)" fill="white"/>
<rect width="27.4286" height="6" rx="3" transform="matrix(-0.702284 0.711897 -0.702284 -0.711897 165.2 537.591)" fill="white"/>
<rect x="272" y="520" width="51" height="51" rx="10" fill="#FFA248"/>
<path d="M305.533 539.665C306.953 541.084 307.919 542.893 308.311 544.862C308.703 546.831 308.502 548.872 307.733 550.727C306.965 552.582 305.664 554.167 303.995 555.283C302.326 556.398 300.363 556.993 298.355 556.993C296.348 556.993 294.385 556.398 292.716 555.283C291.047 554.167 289.746 552.582 288.977 550.727C288.209 548.872 288.008 546.831 288.4 544.862C288.791 542.893 289.758 541.084 291.178 539.665" stroke="white" stroke-width="6" stroke-linecap="round"/>
<path d="M299.051 533.925C298.899 533.18 299.601 532.544 300.327 532.769L307.371 534.956C308.111 535.185 308.32 536.132 307.746 536.652L302.183 541.691C301.609 542.21 300.688 541.909 300.532 541.15L299.051 533.925Z" fill="white"/>
<path d="M107.864 185.736H122.12V186.856H107.864V185.736ZM108.312 177.448H121.736V178.552H108.312V177.448ZM111.576 180.168H118.44V181.192H111.576V180.168ZM111.576 182.936H118.44V183.976H111.576V182.936ZM110.808 175.592H111.992V186.232H110.808V175.592ZM117.96 175.592H119.176V186.232H117.96V175.592ZM116.168 187.976L116.984 187.208C118.888 187.88 120.92 188.76 122.168 189.432L121.08 190.216C119.944 189.544 118.04 188.664 116.168 187.976ZM112.776 187.112L113.832 187.88C112.408 188.76 110.232 189.688 108.504 190.248C108.328 190.008 107.96 189.592 107.704 189.336C109.432 188.84 111.64 187.896 112.776 187.112ZM133.704 175.592H134.84V186.712H133.704V175.592ZM128.136 182.184L137.752 178.456L138.216 179.496L128.584 183.24L128.136 182.184ZM130.152 177.16H131.336V187.864C131.336 188.776 131.56 188.984 132.696 188.984C133.24 188.984 136.104 188.984 136.808 188.984C137.784 188.984 137.96 188.536 138.088 186.648C138.376 186.856 138.856 187.064 139.208 187.144C139 189.352 138.616 190.072 136.84 190.072C136.376 190.072 133.08 190.072 132.648 190.072C130.712 190.072 130.152 189.624 130.152 187.848V177.16ZM137.352 178.728H137.208L137.496 178.488L137.704 178.296L138.536 178.648L138.488 178.84C138.472 181.752 138.44 184.056 138.28 184.744C138.152 185.48 137.816 185.784 137.32 185.912C136.888 186.024 136.184 186.04 135.704 186.024C135.672 185.688 135.544 185.192 135.4 184.92C135.848 184.936 136.424 184.936 136.632 184.936C136.904 184.936 137.08 184.872 137.192 184.456C137.32 183.944 137.352 181.848 137.352 178.728ZM128.056 175.624L129.16 175.976C128.12 178.664 126.472 181.384 124.76 183.176C124.632 182.904 124.296 182.28 124.088 182.008C125.672 180.456 127.16 178.056 128.056 175.624ZM126.36 179.752L127.512 178.584L127.528 178.6V190.264H126.36V179.752ZM150.856 176.808H151.976V188.232H150.856V176.808ZM154.184 175.96H155.384V190.072H154.184V175.96ZM147.464 176.04H148.648V181.592C148.648 184.664 148.488 187.752 146.904 190.264C146.648 190.04 146.12 189.72 145.768 189.576C147.304 187.24 147.464 184.44 147.464 181.592V176.04ZM142.136 176.712L142.888 175.912C143.848 176.68 145.096 177.752 145.688 178.44L144.872 179.352C144.312 178.632 143.096 177.512 142.136 176.712ZM143.384 189.96L143.144 188.808L143.432 188.28L146.168 186.056C146.28 186.392 146.504 186.84 146.648 187.048C144.024 189.256 143.608 189.624 143.384 189.96ZM141.24 180.6H144.184V181.752H141.24V180.6ZM143.384 189.976C143.256 189.72 142.936 189.288 142.728 189.096C143.016 188.872 143.496 188.328 143.496 187.544V180.6H144.648V188.424C144.648 188.424 143.384 189.496 143.384 189.976ZM158.536 186.088C158.472 185.848 158.296 185.304 158.152 185.016C158.488 184.952 158.808 184.536 159.24 183.96C159.704 183.384 161.16 181.176 162.072 179.048L163.096 179.624C162.024 181.752 160.68 183.912 159.32 185.448V185.48C159.32 185.48 158.536 185.848 158.536 186.088ZM158.52 186.104L158.456 185.128L159.016 184.712L162.968 183.944C162.936 184.264 162.936 184.712 162.968 184.968C159.352 185.752 158.824 185.912 158.52 186.104ZM158.424 182.248C158.36 181.992 158.168 181.432 158.024 181.112C158.296 181.048 158.552 180.664 158.856 180.104C159.176 179.576 160.184 177.464 160.712 175.528L161.832 176.008C161.144 177.992 160.136 180.104 159.128 181.576V181.624C159.128 181.624 158.424 181.992 158.424 182.248ZM158.424 182.248L158.392 181.368L158.952 181.016L161.736 180.728C161.688 181.032 161.64 181.464 161.656 181.688C159.112 182.024 158.68 182.12 158.424 182.248ZM158.12 188.104C159.288 187.72 161.032 187.08 162.808 186.44L163 187.368C161.384 188.056 159.704 188.744 158.408 189.272L158.12 188.104ZM163.944 184.488V183.528L164.632 183.16H171.976V184.264H165.368C164.616 184.264 164.088 184.344 163.944 184.488ZM163.128 177.432H172.312V178.536H163.128V177.432ZM163.944 184.488C163.896 184.264 163.704 183.72 163.56 183.416C163.864 183.336 164.136 182.776 164.472 181.96C164.808 181.192 165.88 178.184 166.392 175.48L167.576 175.704C166.904 178.584 165.864 181.64 164.808 183.8V183.832C164.808 183.832 163.944 184.248 163.944 184.488ZM169.8 185.688L170.776 185.24C171.48 186.376 172.36 187.928 172.792 188.824L171.768 189.352C171.368 188.44 170.504 186.856 169.8 185.688ZM167.496 180.088H168.664V188.872C168.664 189.544 168.52 189.864 168.072 190.056C167.608 190.248 166.872 190.248 165.768 190.248C165.704 189.944 165.544 189.48 165.4 189.16C166.216 189.176 166.968 189.176 167.208 189.16C167.432 189.144 167.496 189.08 167.496 188.872V180.088ZM164.904 185.24L166.024 185.56C165.4 186.888 164.44 188.456 163.448 189.48C163.24 189.272 162.84 188.984 162.6 188.824C163.528 187.864 164.44 186.392 164.904 185.24ZM163.4 180.088H168.264V181.192H163.4V180.088Z" fill="#4D4D4D"/>
<line x1="93.5" y1="175" x2="93.5" y2="191" stroke="#4D4D4D" stroke-width="3"/>
<path d="M109.576 344.36H122.136V345.48H109.576V344.36ZM108.824 344.36H110.056V349.464C110.056 352.024 109.864 355.736 108.616 358.248C108.392 358.04 107.848 357.688 107.544 357.576C108.728 355.192 108.824 351.896 108.824 349.464V344.36ZM111.064 348.984H120.632V350.12H111.064V348.984ZM120.12 348.984H121.32C121.32 348.984 121.32 349.4 121.304 349.56C121.032 354.856 120.776 356.792 120.184 357.448C119.848 357.848 119.496 357.976 118.936 358.024C118.408 358.056 117.448 358.04 116.488 357.992C116.456 357.624 116.312 357.128 116.088 356.792C117.112 356.888 118.088 356.888 118.456 356.888C118.792 356.904 118.968 356.856 119.144 356.68C119.624 356.232 119.88 354.28 120.12 349.208V348.984ZM114.888 346.344H116.136C115.992 351.544 115.688 355.928 111.176 358.2C111.032 357.928 110.664 357.544 110.376 357.336C114.648 355.272 114.776 351.176 114.888 346.344ZM131.192 343.624H132.424V350.344C132.424 353.672 131.72 356.728 125.192 358.28C125.048 358.008 124.728 357.496 124.472 357.224C130.792 355.88 131.192 353.24 131.192 350.344V343.624ZM126.936 347.256V350.248H136.712V347.256H126.936ZM125.752 346.088H137.944V351.4H125.752V346.088ZM127.576 351.928C129.544 355.928 133.064 356.76 139.224 357.032C138.984 357.32 138.744 357.832 138.664 358.248C132.376 357.88 128.568 356.792 126.504 352.328L127.576 351.928ZM150.856 344.808H151.976V356.232H150.856V344.808ZM154.184 343.96H155.384V358.072H154.184V343.96ZM147.464 344.04H148.648V349.592C148.648 352.664 148.488 355.752 146.904 358.264C146.648 358.04 146.12 357.72 145.768 357.576C147.304 355.24 147.464 352.44 147.464 349.592V344.04ZM142.136 344.712L142.888 343.912C143.848 344.68 145.096 345.752 145.688 346.44L144.872 347.352C144.312 346.632 143.096 345.512 142.136 344.712ZM143.384 357.96L143.144 356.808L143.432 356.28L146.168 354.056C146.28 354.392 146.504 354.84 146.648 355.048C144.024 357.256 143.608 357.624 143.384 357.96ZM141.24 348.6H144.184V349.752H141.24V348.6ZM143.384 357.976C143.256 357.72 142.936 357.288 142.728 357.096C143.016 356.872 143.496 356.328 143.496 355.544V348.6H144.648V356.424C144.648 356.424 143.384 357.496 143.384 357.976ZM158.536 354.088C158.472 353.848 158.296 353.304 158.152 353.016C158.488 352.952 158.808 352.536 159.24 351.96C159.704 351.384 161.16 349.176 162.072 347.048L163.096 347.624C162.024 349.752 160.68 351.912 159.32 353.448V353.48C159.32 353.48 158.536 353.848 158.536 354.088ZM158.52 354.104L158.456 353.128L159.016 352.712L162.968 351.944C162.936 352.264 162.936 352.712 162.968 352.968C159.352 353.752 158.824 353.912 158.52 354.104ZM158.424 350.248C158.36 349.992 158.168 349.432 158.024 349.112C158.296 349.048 158.552 348.664 158.856 348.104C159.176 347.576 160.184 345.464 160.712 343.528L161.832 344.008C161.144 345.992 160.136 348.104 159.128 349.576V349.624C159.128 349.624 158.424 349.992 158.424 350.248ZM158.424 350.248L158.392 349.368L158.952 349.016L161.736 348.728C161.688 349.032 161.64 349.464 161.656 349.688C159.112 350.024 158.68 350.12 158.424 350.248ZM158.12 356.104C159.288 355.72 161.032 355.08 162.808 354.44L163 355.368C161.384 356.056 159.704 356.744 158.408 357.272L158.12 356.104ZM163.944 352.488V351.528L164.632 351.16H171.976V352.264H165.368C164.616 352.264 164.088 352.344 163.944 352.488ZM163.128 345.432H172.312V346.536H163.128V345.432ZM163.944 352.488C163.896 352.264 163.704 351.72 163.56 351.416C163.864 351.336 164.136 350.776 164.472 349.96C164.808 349.192 165.88 346.184 166.392 343.48L167.576 343.704C166.904 346.584 165.864 349.64 164.808 351.8V351.832C164.808 351.832 163.944 352.248 163.944 352.488ZM169.8 353.688L170.776 353.24C171.48 354.376 172.36 355.928 172.792 356.824L171.768 357.352C171.368 356.44 170.504 354.856 169.8 353.688ZM167.496 348.088H168.664V356.872C168.664 357.544 168.52 357.864 168.072 358.056C167.608 358.248 166.872 358.248 165.768 358.248C165.704 357.944 165.544 357.48 165.4 357.16C166.216 357.176 166.968 357.176 167.208 357.16C167.432 357.144 167.496 357.08 167.496 356.872V348.088ZM164.904 353.24L166.024 353.56C165.4 354.888 164.44 356.456 163.448 357.48C163.24 357.272 162.84 356.984 162.6 356.824C163.528 355.864 164.44 354.392 164.904 353.24ZM163.4 348.088H168.264V349.192H163.4V348.088ZM175.32 351.832H181.448V352.856H175.32V351.832ZM174.984 346.552H182.696V347.544H174.984V346.552ZM181.272 343.88L182.296 344.312C181.816 345.048 181.288 345.848 180.856 346.376L180.072 346.008C180.472 345.432 181 344.504 181.272 343.88ZM178.296 343.56H179.416V350.552H178.296V343.56ZM175.592 344.328L176.472 343.976C176.92 344.6 177.368 345.464 177.512 346.024L176.6 346.44C176.456 345.864 176.024 344.984 175.592 344.328ZM178.328 346.952L179.144 347.432C178.36 348.776 176.856 350.216 175.464 350.968C175.336 350.68 175.048 350.28 174.824 350.04C176.152 349.464 177.608 348.184 178.328 346.952ZM179.256 347.304C179.816 347.608 181.784 348.856 182.248 349.176L181.576 350.056C181.016 349.528 179.352 348.264 178.648 347.832L179.256 347.304ZM183.976 346.664H189.352V347.784H183.976V346.664ZM184.248 343.704L185.352 343.864C184.888 346.936 184.072 349.752 182.792 351.624C182.616 351.432 182.152 351.048 181.896 350.888C183.128 349.192 183.848 346.52 184.248 343.704ZM187.208 347.304L188.328 347.416C187.576 352.856 185.96 356.264 182.072 358.328C181.96 358.088 181.624 357.592 181.416 357.368C185.096 355.576 186.584 352.344 187.208 347.304ZM184.552 347.672C185.272 351.96 186.84 355.656 189.736 357.208C189.464 357.432 189.112 357.848 188.936 358.152C185.928 356.344 184.36 352.52 183.56 347.848L184.552 347.672ZM175.944 354.552L176.696 353.848C178.376 354.472 180.424 355.544 181.544 356.312L180.792 357.112C179.72 356.312 177.64 355.208 175.944 354.552ZM181.048 351.832H181.256L181.464 351.8L182.104 352.056C181.112 355.528 178.472 357.32 175.416 358.152C175.304 357.88 175.064 357.448 174.856 357.224C177.688 356.584 180.2 354.936 181.048 352.008V351.832ZM175.944 354.552C176.648 353.576 177.464 352.04 177.928 350.808L178.984 351.016C178.488 352.312 177.672 353.832 177.048 354.776L175.944 354.552ZM197.88 344.264H205.768V348.408H197.912V347.368H204.616V345.32H197.88V344.264ZM197.32 344.264H198.488V349.112C198.488 351.8 198.248 355.704 196.488 358.28C196.28 358.072 195.784 357.72 195.496 357.608C197.16 355.144 197.32 351.656 197.32 349.112V344.264ZM197.96 350.168H206.312V351.224H197.96V350.168ZM199.24 356.648H205.16V357.64H199.24V356.648ZM201.592 348.28H202.744V353.656H201.592V348.28ZM198.728 353.208H205.816V358.232H204.712V354.232H199.8V358.296H198.728V353.208ZM191.464 352.072C192.712 351.72 194.616 351.144 196.456 350.552L196.616 351.656C194.92 352.216 193.144 352.792 191.768 353.24L191.464 352.072ZM191.656 346.792H196.6V347.912H191.656V346.792ZM193.672 343.576H194.776V356.792C194.776 357.448 194.632 357.768 194.232 357.96C193.864 358.152 193.24 358.184 192.232 358.184C192.184 357.896 192.04 357.4 191.88 357.064C192.584 357.08 193.192 357.08 193.384 357.08C193.576 357.08 193.672 357.016 193.672 356.776V343.576Z" fill="#4D4D4D"/>
<line x1="93.5" y1="343" x2="93.5" y2="359" stroke="#4D4D4D" stroke-width="3"/>
<rect x="97" y="222" width="70" height="70" rx="10" fill="white"/>
<rect x="97" y="390" width="70" height="70" rx="10" fill="white"/>
<rect x="190" y="222" width="70" height="70" rx="10" fill="white"/>
<rect x="190" y="390" width="70" height="70" rx="10" fill="white"/>
<rect x="283" y="222" width="70" height="70" rx="10" fill="white"/>
<rect x="283" y="390" width="70" height="70" rx="10" fill="white"/>
<mask id="mask0_801_2" style="mask-type:alpha" maskUnits="userSpaceOnUse" x="102" y="227" width="60" height="60">
<rect x="102" y="227" width="60" height="60" rx="10" fill="#D9D9D9"/>
</mask>
<g mask="url(#mask0_801_2)">
<path d="M94.5296 237.642C89.7182 236.695 87.5324 242.818 86.2037 247.156C83.9032 254.652 81.3382 278.335 81.6154 277.691L88.2238 279.817C88.2238 279.817 93.5323 268.14 94.8259 262.868C96.1227 257.597 102.419 239.194 94.5296 237.642Z" fill="#E1A59B"/>
<path d="M132.794 237.358C136.436 234.076 141.455 238.206 144.823 241.244C150.644 246.496 165.005 265.501 164.438 265.09L159.859 270.307C159.859 270.307 149.309 263.012 145.492 259.155C141.675 255.296 126.823 242.738 132.794 237.358Z" fill="#E1A59B"/>
<path d="M131.94 279.54C131.819 287.699 133.734 290.775 134.531 293.484C135.439 296.565 137.096 300.897 137.096 300.897H116.945V226.627H123.063C123.063 226.627 127.259 235.625 135.416 236.345C147.419 237.403 139.246 249.463 138.781 259.474C138.746 260.216 131.994 275.671 131.94 279.54Z" fill="#E1A59B"/>
<path d="M101.951 279.54C102.072 287.699 100.157 290.775 99.3607 293.484C98.4526 296.565 96.7957 300.897 96.7957 300.897H116.946V226.627H110.828C110.828 226.627 106.632 235.625 98.4749 236.345C86.472 237.403 94.1001 256.612 95.1102 259.474C96.8212 264.334 101.897 275.671 101.951 279.54Z" fill="#E1A59B"/>
<path d="M144.463 253.23C144.463 253.23 145.133 252.185 148.571 250.751C151.665 249.46 154.102 251.653 154.102 251.653C154.102 251.653 147.608 242.882 141.666 238.617C139.378 236.976 135.997 234.554 132.792 237.358C129.784 239.991 133.302 247.082 135.959 250.757C138.617 254.432 142.472 256.255 142.472 256.255L144.463 253.23Z" fill="#231815"/>
<path d="M116.945 276.646V248.564C128.321 248.564 130.64 234.866 130.64 234.866L135.42 236.345C135.42 236.345 139.234 247.564 139.227 253.728C139.227 256.07 139.348 258.209 138.319 260.739C135.204 268.923 132.922 275.704 132.453 276.643H116.949" fill="#F8F2F2"/>
<path d="M116.946 276.646V248.564C105.57 248.564 103.251 234.866 103.251 234.866L98.4712 236.345C98.4712 236.345 94.6572 247.564 94.6636 253.728C94.6636 256.07 94.5425 258.209 95.5717 260.739C98.8568 268.806 101.231 275.578 101.438 276.643H116.942" fill="#F8F2F2"/>
<path d="M130.641 234.866L93.8576 250.002C93.0737 253.23 93.9531 256.398 95.113 259.474C95.113 259.474 118.268 249.664 126.785 249.664C135.302 249.664 138.785 259.474 138.785 259.474C140.008 258.734 140.378 237.929 135.42 236.345C130.794 234.866 130.641 234.866 130.641 234.866Z" fill="#231815"/>
<path d="M158.78 269.265L163.359 264.047C163.359 264.047 169.671 267.391 173.705 272.363C177.738 277.334 181.578 285.611 181.578 285.611L178.576 288.489C178.576 288.489 173.835 285.503 166.886 279.03C163.623 275.993 158.783 269.265 158.783 269.265H158.78Z" fill="#E1A59B"/>
</g>
<mask id="mask1_801_2" style="mask-type:alpha" maskUnits="userSpaceOnUse" x="195" y="227" width="60" height="60">
<rect width="60" height="60" rx="10" transform="matrix(-1 0 0 1 255 227)" fill="#D9D9D9"/>
</mask>
<g mask="url(#mask1_801_2)">
<path d="M262.47 237.642C267.282 236.695 269.468 242.818 270.796 247.156C273.097 254.652 275.662 278.335 275.385 277.691L268.776 279.817C268.776 279.817 263.468 268.14 262.174 262.868C260.877 257.597 254.581 239.194 262.47 237.642Z" fill="#E1A59B"/>
<path d="M224.206 237.358C220.564 234.076 215.545 238.206 212.177 241.244C206.356 246.496 191.995 265.501 192.562 265.09L197.141 270.307C197.141 270.307 207.691 263.012 211.508 259.155C215.325 255.296 230.177 242.738 224.206 237.358Z" fill="#E1A59B"/>
<path d="M225.06 279.54C225.181 287.699 223.266 290.775 222.469 293.484C221.561 296.565 219.904 300.897 219.904 300.897H240.055V226.627H233.937C233.937 226.627 229.741 235.625 221.584 236.345C209.581 237.403 217.754 249.463 218.219 259.474C218.254 260.216 225.006 275.671 225.06 279.54Z" fill="#E1A59B"/>
<path d="M255.049 279.54C254.928 287.699 256.843 290.775 257.639 293.484C258.547 296.565 260.204 300.897 260.204 300.897H240.054V226.627H246.172C246.172 226.627 250.368 235.625 258.525 236.345C270.528 237.403 262.9 256.612 261.89 259.474C260.179 264.334 255.103 275.671 255.049 279.54Z" fill="#E1A59B"/>
<path d="M212.537 253.23C212.537 253.23 211.867 252.185 208.429 250.751C205.335 249.46 202.898 251.653 202.898 251.653C202.898 251.653 209.392 242.882 215.334 238.617C217.622 236.976 221.003 234.554 224.208 237.358C227.216 239.991 223.698 247.082 221.041 250.757C218.383 254.432 214.528 256.255 214.528 256.255L212.537 253.23Z" fill="#231815"/>
<path d="M240.055 276.646V248.564C228.679 248.564 226.36 234.866 226.36 234.866L221.58 236.345C221.58 236.345 217.766 247.564 217.773 253.728C217.773 256.07 217.652 258.209 218.681 260.739C221.796 268.923 224.078 275.704 224.547 276.643H240.051" fill="#F8F2F2"/>
<path d="M240.054 276.646V248.564C251.43 248.564 253.749 234.866 253.749 234.866L258.529 236.345C258.529 236.345 262.343 247.564 262.336 253.728C262.336 256.07 262.458 258.209 261.428 260.739C258.143 268.806 255.769 275.578 255.562 276.643H240.058" fill="#F8F2F2"/>
<path d="M226.359 234.866L263.142 250.002C263.926 253.23 263.047 256.398 261.887 259.474C261.887 259.474 238.732 249.664 230.215 249.664C221.698 249.664 218.215 259.474 218.215 259.474C216.992 258.734 216.622 237.929 221.58 236.345C226.206 234.866 226.359 234.866 226.359 234.866Z" fill="#231815"/>
<path d="M198.22 269.265L193.641 264.047C193.641 264.047 187.329 267.391 183.295 272.363C179.262 277.334 175.422 285.611 175.422 285.611L178.424 288.489C178.424 288.489 183.165 285.503 190.114 279.03C193.377 275.993 198.217 269.265 198.217 269.265H198.22Z" fill="#E1A59B"/>
</g>
<mask id="mask2_801_2" style="mask-type:alpha" maskUnits="userSpaceOnUse" x="288" y="227" width="60" height="60">
<rect x="288" y="227" width="60" height="60" rx="10" fill="#D9D9D9"/>
</mask>
<g mask="url(#mask2_801_2)">
<path d="M295.821 234.644C291.006 233.699 288.823 239.822 287.492 244.157C285.191 251.655 282.625 275.338 282.902 274.694L289.511 276.818C289.511 276.818 294.819 265.14 296.116 259.869C297.413 254.597 303.711 236.193 295.821 234.644Z" fill="#E1A59B"/>
<path d="M289.902 275.369L283.294 273.245C283.294 273.245 279.593 279.356 278.685 285.694C277.777 292.032 278.731 301.107 278.731 301.107L282.787 302.033C282.787 302.033 285.321 297.036 287.965 287.911C289.206 283.629 289.906 275.369 289.906 275.369H289.902Z" fill="#E1A59B"/>
<path d="M339.963 234.383C344.737 233.257 347.15 239.29 348.643 243.576C351.224 250.98 353.358 270.744 353.056 270.11L346.531 272.483C346.531 272.483 342.112 264.82 340.619 259.601C339.126 254.383 332.138 236.23 339.963 234.383Z" fill="#E1A59B"/>
<path d="M333.242 276.538C333.121 284.695 335.037 287.771 335.833 290.483C336.741 293.565 338.399 297.897 338.399 297.897H318.243V223.625H324.364C324.364 223.625 328.562 232.622 336.722 233.344C348.727 234.404 340.554 246.462 340.087 256.473C340.053 257.213 333.298 272.669 333.246 276.538H333.242Z" fill="#E1A59B"/>
<path d="M303.244 276.538C303.365 284.695 301.45 287.771 300.653 290.483C299.745 293.565 298.088 297.897 298.088 297.897H318.243V223.628H312.123C312.123 223.628 307.924 232.626 299.764 233.347C287.76 234.408 295.388 253.615 296.399 256.476C298.109 261.337 303.188 272.672 303.241 276.541L303.244 276.538Z" fill="#E1A59B"/>
<path d="M342.569 253.91C342.569 253.91 343.658 253.316 347.362 253.711C350.696 254.069 351.781 257.16 351.781 257.16C351.781 257.16 350.304 246.347 347.141 239.75C345.922 237.213 344.124 233.462 339.966 234.38C336.063 235.241 335.74 243.153 336.303 247.65C336.866 252.15 339.372 255.602 339.372 255.602L342.573 253.907L342.569 253.91Z" fill="#231815"/>
<path d="M318.243 273.643V245.563C329.619 245.563 331.939 231.867 331.939 231.867L336.719 233.344C336.719 233.344 340.532 244.562 340.529 250.725C340.529 253.07 340.65 255.207 339.618 257.738C336.334 265.806 333.958 272.576 333.752 273.64H318.243" fill="#F8F2F2"/>
<path d="M318.243 273.643V245.563C306.867 245.563 304.547 231.867 304.547 231.867L299.767 233.344C299.767 233.344 295.954 244.562 295.958 250.725C295.958 253.07 295.836 255.207 296.869 257.738C300.153 265.806 302.529 272.576 302.734 273.64H318.243" fill="#F8F2F2"/>
<path d="M331.94 231.867L295.146 247.003C294.362 250.231 295.242 253.4 296.399 256.473C296.399 256.473 319.559 246.664 328.077 246.664C336.595 246.664 340.082 256.473 340.082 256.473C341.307 255.736 344.532 236.022 336.717 233.344C332.12 231.77 331.937 231.867 331.937 231.867H331.94Z" fill="#231815"/>
<path d="M344.395 266.437L350.919 264.064C350.919 264.064 354.847 270.029 355.995 276.33C357.142 282.627 356.53 291.733 356.53 291.733L352.512 292.812C352.512 292.812 349.79 287.914 346.805 278.895C345.405 274.663 344.392 266.437 344.392 266.437H344.395Z" fill="#E1A59B"/>
</g>
<path d="M108.152 421V405.904H104.696V403.12H111.416V421H108.152ZM123.208 421.288C122.264 421.288 121.36 421.112 120.496 420.76C119.648 420.408 118.912 419.912 118.288 419.272C117.68 418.616 117.264 417.84 117.04 416.944L119.872 415.936C120.144 416.752 120.584 417.36 121.192 417.76C121.8 418.144 122.472 418.336 123.208 418.336C123.816 418.336 124.352 418.208 124.816 417.952C125.296 417.68 125.664 417.312 125.92 416.848C126.176 416.368 126.304 415.816 126.304 415.192C126.304 414.568 126.168 414.024 125.896 413.56C125.64 413.096 125.28 412.736 124.816 412.48C124.352 412.208 123.816 412.072 123.208 412.072C122.584 412.072 122.016 412.208 121.504 412.48C121.008 412.752 120.648 413.144 120.424 413.656L117.76 413.056L119.176 403.12H128.92V405.88H120.472L121.696 404.464L120.688 411.952L119.752 411.184C120.2 410.528 120.744 410.048 121.384 409.744C122.04 409.44 122.832 409.288 123.76 409.288C124.944 409.288 125.968 409.544 126.832 410.056C127.712 410.568 128.392 411.264 128.872 412.144C129.352 413.024 129.592 414.04 129.592 415.192C129.592 416.344 129.312 417.384 128.752 418.312C128.192 419.24 127.432 419.968 126.472 420.496C125.512 421.024 124.424 421.288 123.208 421.288Z" fill="#4D4D4D"/>
<path d="M135.732 421V414.472H137.208V415.984L137.04 415.732C137.16 415.26 137.4 414.908 137.76 414.676C138.12 414.444 138.544 414.328 139.032 414.328C139.568 414.328 140.04 414.468 140.448 414.748C140.856 415.028 141.12 415.396 141.24 415.852L140.796 415.888C140.996 415.368 141.296 414.98 141.696 414.724C142.096 414.46 142.556 414.328 143.076 414.328C143.54 414.328 143.952 414.432 144.312 414.64C144.68 414.848 144.968 415.14 145.176 415.516C145.384 415.884 145.488 416.312 145.488 416.8V421H143.916V417.172C143.916 416.884 143.864 416.636 143.76 416.428C143.656 416.22 143.512 416.06 143.328 415.948C143.144 415.828 142.92 415.768 142.656 415.768C142.408 415.768 142.188 415.828 141.996 415.948C141.804 416.06 141.656 416.22 141.552 416.428C141.448 416.636 141.396 416.884 141.396 417.172V421H139.824V417.172C139.824 416.884 139.772 416.636 139.668 416.428C139.564 416.22 139.416 416.06 139.224 415.948C139.04 415.828 138.82 415.768 138.564 415.768C138.316 415.768 138.096 415.828 137.904 415.948C137.712 416.06 137.564 416.22 137.46 416.428C137.356 416.636 137.304 416.884 137.304 417.172V421H135.732ZM148.018 421V414.472H149.59V421H148.018ZM148.018 413.74V412.06H149.59V413.74H148.018ZM152.241 421V414.472H153.717V415.756L153.597 415.528C153.749 415.136 153.997 414.84 154.341 414.64C154.693 414.432 155.101 414.328 155.565 414.328C156.045 414.328 156.469 414.432 156.837 414.64C157.213 414.848 157.505 415.14 157.713 415.516C157.921 415.884 158.025 416.312 158.025 416.8V421H156.453V417.172C156.453 416.884 156.397 416.636 156.285 416.428C156.173 416.22 156.017 416.06 155.817 415.948C155.625 415.828 155.397 415.768 155.133 415.768C154.877 415.768 154.649 415.828 154.449 415.948C154.249 416.06 154.093 416.22 153.981 416.428C153.869 416.636 153.813 416.884 153.813 417.172V421H152.241Z" fill="#4D4D4D"/>
<path d="M117.248 477.144C116.536 477.144 115.912 476.952 115.376 476.568C114.84 476.184 114.42 475.644 114.116 474.948C113.82 474.252 113.672 473.444 113.672 472.524C113.672 471.596 113.82 470.788 114.116 470.1C114.412 469.412 114.828 468.876 115.364 468.492C115.9 468.108 116.524 467.916 117.236 467.916C117.964 467.916 118.592 468.108 119.12 468.492C119.656 468.876 120.076 469.416 120.38 470.112C120.684 470.8 120.836 471.604 120.836 472.524C120.836 473.444 120.684 474.252 120.38 474.948C120.084 475.636 119.668 476.176 119.132 476.568C118.596 476.952 117.968 477.144 117.248 477.144ZM117.26 475.656C117.668 475.656 118.016 475.532 118.304 475.284C118.592 475.028 118.812 474.668 118.964 474.204C119.124 473.732 119.204 473.172 119.204 472.524C119.204 471.876 119.124 471.32 118.964 470.856C118.812 470.384 118.588 470.024 118.292 469.776C118.004 469.528 117.652 469.404 117.236 469.404C116.836 469.404 116.492 469.528 116.204 469.776C115.916 470.024 115.692 470.384 115.532 470.856C115.38 471.32 115.304 471.876 115.304 472.524C115.304 473.164 115.38 473.72 115.532 474.192C115.692 474.656 115.916 475.016 116.204 475.272C116.5 475.528 116.852 475.656 117.26 475.656ZM127.232 477V475.032H123.128V473.664L127.136 468.06H128.84V473.664H130.148V475.032H128.84V477H127.232ZM124.328 474.252L124.04 473.664H127.232V469.344L127.652 469.476L124.328 474.252ZM131.94 478.44L135.924 468.54H137.64L133.656 478.44H131.94ZM141.094 477V469.452H139.366V468.06H142.726V477H141.094ZM145.922 477L149.642 469.44H145.43V468.06H151.358V469.44L147.722 477H145.922Z" fill="#C0C0C0"/>
<path d="M211.248 477.144C210.536 477.144 209.912 476.952 209.376 476.568C208.84 476.184 208.42 475.644 208.116 474.948C207.82 474.252 207.672 473.444 207.672 472.524C207.672 471.596 207.82 470.788 208.116 470.1C208.412 469.412 208.828 468.876 209.364 468.492C209.9 468.108 210.524 467.916 211.236 467.916C211.964 467.916 212.592 468.108 213.12 468.492C213.656 468.876 214.076 469.416 214.38 470.112C214.684 470.8 214.836 471.604 214.836 472.524C214.836 473.444 214.684 474.252 214.38 474.948C214.084 475.636 213.668 476.176 213.132 476.568C212.596 476.952 211.968 477.144 211.248 477.144ZM211.26 475.656C211.668 475.656 212.016 475.532 212.304 475.284C212.592 475.028 212.812 474.668 212.964 474.204C213.124 473.732 213.204 473.172 213.204 472.524C213.204 471.876 213.124 471.32 212.964 470.856C212.812 470.384 212.588 470.024 212.292 469.776C212.004 469.528 211.652 469.404 211.236 469.404C210.836 469.404 210.492 469.528 210.204 469.776C209.916 470.024 209.692 470.384 209.532 470.856C209.38 471.32 209.304 471.876 209.304 472.524C209.304 473.164 209.38 473.72 209.532 474.192C209.692 474.656 209.916 475.016 210.204 475.272C210.5 475.528 210.852 475.656 211.26 475.656ZM221.232 477V475.032H217.128V473.664L221.136 468.06H222.84V473.664H224.148V475.032H222.84V477H221.232ZM218.328 474.252L218.04 473.664H221.232V469.344L221.652 469.476L218.328 474.252ZM225.94 478.44L229.924 468.54H231.64L227.656 478.44H225.94ZM235.094 477V469.452H233.366V468.06H236.726V477H235.094ZM242.622 477.144C242.15 477.144 241.698 477.056 241.266 476.88C240.842 476.704 240.474 476.456 240.162 476.136C239.858 475.808 239.65 475.42 239.538 474.972L240.954 474.468C241.09 474.876 241.31 475.18 241.614 475.38C241.918 475.572 242.254 475.668 242.622 475.668C242.926 475.668 243.194 475.604 243.426 475.476C243.666 475.34 243.85 475.156 243.978 474.924C244.106 474.684 244.17 474.408 244.17 474.096C244.17 473.784 244.102 473.512 243.966 473.28C243.838 473.048 243.658 472.868 243.426 472.74C243.194 472.604 242.926 472.536 242.622 472.536C242.31 472.536 242.026 472.604 241.77 472.74C241.522 472.876 241.342 473.072 241.23 473.328L239.898 473.028L240.606 468.06H245.478V469.44H241.254L241.866 468.732L241.362 472.476L240.894 472.092C241.118 471.764 241.39 471.524 241.71 471.372C242.038 471.22 242.434 471.144 242.898 471.144C243.49 471.144 244.002 471.272 244.434 471.528C244.874 471.784 245.214 472.132 245.454 472.572C245.694 473.012 245.814 473.52 245.814 474.096C245.814 474.672 245.674 475.192 245.394 475.656C245.114 476.12 244.734 476.484 244.254 476.748C243.774 477.012 243.23 477.144 242.622 477.144Z" fill="#C0C0C0"/>
<path d="M302.248 477.144C301.536 477.144 300.912 476.952 300.376 476.568C299.84 476.184 299.42 475.644 299.116 474.948C298.82 474.252 298.672 473.444 298.672 472.524C298.672 471.596 298.82 470.788 299.116 470.1C299.412 469.412 299.828 468.876 300.364 468.492C300.9 468.108 301.524 467.916 302.236 467.916C302.964 467.916 303.592 468.108 304.12 468.492C304.656 468.876 305.076 469.416 305.38 470.112C305.684 470.8 305.836 471.604 305.836 472.524C305.836 473.444 305.684 474.252 305.38 474.948C305.084 475.636 304.668 476.176 304.132 476.568C303.596 476.952 302.968 477.144 302.248 477.144ZM302.26 475.656C302.668 475.656 303.016 475.532 303.304 475.284C303.592 475.028 303.812 474.668 303.964 474.204C304.124 473.732 304.204 473.172 304.204 472.524C304.204 471.876 304.124 471.32 303.964 470.856C303.812 470.384 303.588 470.024 303.292 469.776C303.004 469.528 302.652 469.404 302.236 469.404C301.836 469.404 301.492 469.528 301.204 469.776C300.916 470.024 300.692 470.384 300.532 470.856C300.38 471.32 300.304 471.876 300.304 472.524C300.304 473.164 300.38 473.72 300.532 474.192C300.692 474.656 300.916 475.016 301.204 475.272C301.5 475.528 301.852 475.656 302.26 475.656ZM312.232 477V475.032H308.128V473.664L312.136 468.06H313.84V473.664H315.148V475.032H313.84V477H312.232ZM309.328 474.252L309.04 473.664H312.232V469.344L312.652 469.476L309.328 474.252ZM316.94 478.44L320.924 468.54H322.64L318.656 478.44H316.94ZM326.094 477V469.452H324.366V468.06H327.726V477H326.094ZM334.306 477.144C333.594 477.144 332.97 476.952 332.434 476.568C331.898 476.184 331.478 475.644 331.174 474.948C330.878 474.252 330.73 473.444 330.73 472.524C330.73 471.596 330.878 470.788 331.174 470.1C331.47 469.412 331.886 468.876 332.422 468.492C332.958 468.108 333.582 467.916 334.294 467.916C335.022 467.916 335.65 468.108 336.178 468.492C336.714 468.876 337.134 469.416 337.438 470.112C337.742 470.8 337.894 471.604 337.894 472.524C337.894 473.444 337.742 474.252 337.438 474.948C337.142 475.636 336.726 476.176 336.19 476.568C335.654 476.952 335.026 477.144 334.306 477.144ZM334.318 475.656C334.726 475.656 335.074 475.532 335.362 475.284C335.65 475.028 335.87 474.668 336.022 474.204C336.182 473.732 336.262 473.172 336.262 472.524C336.262 471.876 336.182 471.32 336.022 470.856C335.87 470.384 335.646 470.024 335.35 469.776C335.062 469.528 334.71 469.404 334.294 469.404C333.894 469.404 333.55 469.528 333.262 469.776C332.974 470.024 332.75 470.384 332.59 470.856C332.438 471.32 332.362 471.876 332.362 472.524C332.362 473.164 332.438 473.72 332.59 474.192C332.75 474.656 332.974 475.016 333.262 475.272C333.558 475.528 333.91 475.656 334.318 475.656Z" fill="#C0C0C0"/>
<path d="M159.216 449.144C158.52 449.144 157.912 448.98 157.392 448.652C156.88 448.316 156.528 447.864 156.336 447.296L157.512 446.732C157.68 447.1 157.912 447.388 158.208 447.596C158.512 447.804 158.848 447.908 159.216 447.908C159.504 447.908 159.732 447.844 159.9 447.716C160.068 447.588 160.152 447.42 160.152 447.212C160.152 447.084 160.116 446.98 160.044 446.9C159.98 446.812 159.888 446.74 159.768 446.684C159.656 446.62 159.532 446.568 159.396 446.528L158.328 446.228C157.776 446.068 157.356 445.824 157.068 445.496C156.788 445.168 156.648 444.78 156.648 444.332C156.648 443.932 156.748 443.584 156.948 443.288C157.156 442.984 157.44 442.748 157.8 442.58C158.168 442.412 158.588 442.328 159.06 442.328C159.676 442.328 160.22 442.476 160.692 442.772C161.164 443.068 161.5 443.484 161.7 444.02L160.5 444.584C160.388 444.288 160.2 444.052 159.936 443.876C159.672 443.7 159.376 443.612 159.048 443.612C158.784 443.612 158.576 443.672 158.424 443.792C158.272 443.912 158.196 444.068 158.196 444.26C158.196 444.38 158.228 444.484 158.292 444.572C158.356 444.66 158.444 444.732 158.556 444.788C158.676 444.844 158.812 444.896 158.964 444.944L160.008 445.256C160.544 445.416 160.956 445.656 161.244 445.976C161.54 446.296 161.688 446.688 161.688 447.152C161.688 447.544 161.584 447.892 161.376 448.196C161.168 448.492 160.88 448.724 160.512 448.892C160.144 449.06 159.712 449.144 159.216 449.144Z" fill="#4D4D4D"/>
<path d="M127.032 449.288C126.056 449.288 125.128 449.112 124.248 448.76C123.384 448.392 122.64 447.88 122.016 447.224C121.408 446.552 120.992 445.76 120.768 444.848L123.624 443.84C123.912 444.656 124.352 445.28 124.944 445.712C125.536 446.128 126.232 446.336 127.032 446.336C127.672 446.336 128.224 446.216 128.688 445.976C129.168 445.736 129.544 445.392 129.816 444.944C130.088 444.48 130.224 443.936 130.224 443.312C130.224 442.688 130.088 442.16 129.816 441.728C129.56 441.28 129.192 440.936 128.712 440.696C128.232 440.456 127.664 440.336 127.008 440.336C126.704 440.336 126.384 440.368 126.048 440.432C125.728 440.496 125.44 440.592 125.184 440.72L124.44 439.16L129.072 433.88H121.776V431.12H132.744V433.688L128.088 439.136L128.136 437.912C129.208 437.928 130.144 438.16 130.944 438.608C131.744 439.056 132.368 439.672 132.816 440.456C133.264 441.24 133.488 442.16 133.488 443.216C133.488 444.368 133.208 445.408 132.648 446.336C132.088 447.248 131.32 447.968 130.344 448.496C129.368 449.024 128.264 449.288 127.032 449.288ZM144.32 449.288C143.104 449.288 142.024 449.032 141.08 448.52C140.152 447.992 139.424 447.288 138.896 446.408C138.368 445.512 138.104 444.496 138.104 443.36C138.104 442.784 138.16 442.208 138.272 441.632C138.4 441.056 138.624 440.44 138.944 439.784C139.28 439.128 139.76 438.4 140.384 437.6L145.376 431.12H149.264L143.192 438.92L142.664 438.344C142.888 438.168 143.12 438.032 143.36 437.936C143.6 437.824 143.84 437.744 144.08 437.696C144.336 437.648 144.6 437.624 144.872 437.624C145.96 437.624 146.928 437.872 147.776 438.368C148.624 438.864 149.288 439.544 149.768 440.408C150.264 441.256 150.512 442.216 150.512 443.288C150.512 444.44 150.248 445.472 149.72 446.384C149.192 447.28 148.456 447.992 147.512 448.52C146.584 449.032 145.52 449.288 144.32 449.288ZM144.32 446.336C144.864 446.336 145.352 446.216 145.784 445.976C146.232 445.72 146.584 445.36 146.84 444.896C147.112 444.432 147.248 443.912 147.248 443.336C147.248 442.728 147.112 442.208 146.84 441.776C146.584 441.328 146.24 440.976 145.808 440.72C145.376 440.464 144.88 440.336 144.32 440.336C143.776 440.336 143.28 440.464 142.832 440.72C142.384 440.976 142.024 441.328 141.752 441.776C141.496 442.208 141.368 442.728 141.368 443.336C141.368 443.912 141.496 444.432 141.752 444.896C142.024 445.36 142.384 445.72 142.832 445.976C143.28 446.216 143.776 446.336 144.32 446.336Z" fill="#4D4D4D"/>
<path d="M199.152 421V405.904H195.696V403.12H202.416V421H199.152ZM208.808 421L216.248 405.88H207.824V403.12H219.68V405.88L212.408 421H208.808Z" fill="#4D4D4D"/>
<path d="M292.152 421V405.904H288.696V403.12H295.416V421H292.152ZM301.184 421V418.528L306.032 413.464C306.992 412.456 307.728 411.656 308.24 411.064C308.768 410.456 309.136 409.936 309.344 409.504C309.552 409.072 309.656 408.632 309.656 408.184C309.656 407.432 309.416 406.84 308.936 406.408C308.472 405.976 307.872 405.76 307.136 405.76C306.368 405.76 305.704 405.984 305.144 406.432C304.584 406.864 304.176 407.504 303.92 408.352L301.064 407.464C301.256 406.52 301.648 405.704 302.24 405.016C302.832 404.312 303.552 403.776 304.4 403.408C305.264 403.024 306.176 402.832 307.136 402.832C308.288 402.832 309.296 403.04 310.16 403.456C311.04 403.872 311.72 404.456 312.2 405.208C312.696 405.96 312.944 406.84 312.944 407.848C312.944 408.488 312.824 409.12 312.584 409.744C312.344 410.368 311.984 411.008 311.504 411.664C311.024 412.304 310.4 413.024 309.632 413.824L305.432 418.24H313.184V421H301.184Z" fill="#4D4D4D"/>
<path d="M226.732 421V414.472H228.208V415.984L228.04 415.732C228.16 415.26 228.4 414.908 228.76 414.676C229.12 414.444 229.544 414.328 230.032 414.328C230.568 414.328 231.04 414.468 231.448 414.748C231.856 415.028 232.12 415.396 232.24 415.852L231.796 415.888C231.996 415.368 232.296 414.98 232.696 414.724C233.096 414.46 233.556 414.328 234.076 414.328C234.54 414.328 234.952 414.432 235.312 414.64C235.68 414.848 235.968 415.14 236.176 415.516C236.384 415.884 236.488 416.312 236.488 416.8V421H234.916V417.172C234.916 416.884 234.864 416.636 234.76 416.428C234.656 416.22 234.512 416.06 234.328 415.948C234.144 415.828 233.92 415.768 233.656 415.768C233.408 415.768 233.188 415.828 232.996 415.948C232.804 416.06 232.656 416.22 232.552 416.428C232.448 416.636 232.396 416.884 232.396 417.172V421H230.824V417.172C230.824 416.884 230.772 416.636 230.668 416.428C230.564 416.22 230.416 416.06 230.224 415.948C230.04 415.828 229.82 415.768 229.564 415.768C229.316 415.768 229.096 415.828 228.904 415.948C228.712 416.06 228.564 416.22 228.46 416.428C228.356 416.636 228.304 416.884 228.304 417.172V421H226.732ZM239.018 421V414.472H240.59V421H239.018ZM239.018 413.74V412.06H240.59V413.74H239.018ZM243.241 421V414.472H244.717V415.756L244.597 415.528C244.749 415.136 244.997 414.84 245.341 414.64C245.693 414.432 246.101 414.328 246.565 414.328C247.045 414.328 247.469 414.432 247.837 414.64C248.213 414.848 248.505 415.14 248.713 415.516C248.921 415.884 249.025 416.312 249.025 416.8V421H247.453V417.172C247.453 416.884 247.397 416.636 247.285 416.428C247.173 416.22 247.017 416.06 246.817 415.948C246.625 415.828 246.397 415.768 246.133 415.768C245.877 415.768 245.649 415.828 245.449 415.948C245.249 416.06 245.093 416.22 244.981 416.428C244.869 416.636 244.813 416.884 244.813 417.172V421H243.241Z" fill="#4D4D4D"/>
<path d="M319.732 421V414.472H321.208V415.984L321.04 415.732C321.16 415.26 321.4 414.908 321.76 414.676C322.12 414.444 322.544 414.328 323.032 414.328C323.568 414.328 324.04 414.468 324.448 414.748C324.856 415.028 325.12 415.396 325.24 415.852L324.796 415.888C324.996 415.368 325.296 414.98 325.696 414.724C326.096 414.46 326.556 414.328 327.076 414.328C327.54 414.328 327.952 414.432 328.312 414.64C328.68 414.848 328.968 415.14 329.176 415.516C329.384 415.884 329.488 416.312 329.488 416.8V421H327.916V417.172C327.916 416.884 327.864 416.636 327.76 416.428C327.656 416.22 327.512 416.06 327.328 415.948C327.144 415.828 326.92 415.768 326.656 415.768C326.408 415.768 326.188 415.828 325.996 415.948C325.804 416.06 325.656 416.22 325.552 416.428C325.448 416.636 325.396 416.884 325.396 417.172V421H323.824V417.172C323.824 416.884 323.772 416.636 323.668 416.428C323.564 416.22 323.416 416.06 323.224 415.948C323.04 415.828 322.82 415.768 322.564 415.768C322.316 415.768 322.096 415.828 321.904 415.948C321.712 416.06 321.564 416.22 321.46 416.428C321.356 416.636 321.304 416.884 321.304 417.172V421H319.732ZM332.018 421V414.472H333.59V421H332.018ZM332.018 413.74V412.06H333.59V413.74H332.018ZM336.241 421V414.472H337.717V415.756L337.597 415.528C337.749 415.136 337.997 414.84 338.341 414.64C338.693 414.432 339.101 414.328 339.565 414.328C340.045 414.328 340.469 414.432 340.837 414.64C341.213 414.848 341.505 415.14 341.713 415.516C341.921 415.884 342.025 416.312 342.025 416.8V421H340.453V417.172C340.453 416.884 340.397 416.636 340.285 416.428C340.173 416.22 340.017 416.06 339.817 415.948C339.625 415.828 339.397 415.768 339.133 415.768C338.877 415.768 338.649 415.828 338.449 415.948C338.249 416.06 338.093 416.22 337.981 416.428C337.869 416.636 337.813 416.884 337.813 417.172V421H336.241Z" fill="#4D4D4D"/>
<path d="M250.216 449.144C249.52 449.144 248.912 448.98 248.392 448.652C247.88 448.316 247.528 447.864 247.336 447.296L248.512 446.732C248.68 447.1 248.912 447.388 249.208 447.596C249.512 447.804 249.848 447.908 250.216 447.908C250.504 447.908 250.732 447.844 250.9 447.716C251.068 447.588 251.152 447.42 251.152 447.212C251.152 447.084 251.116 446.98 251.044 446.9C250.98 446.812 250.888 446.74 250.768 446.684C250.656 446.62 250.532 446.568 250.396 446.528L249.328 446.228C248.776 446.068 248.356 445.824 248.068 445.496C247.788 445.168 247.648 444.78 247.648 444.332C247.648 443.932 247.748 443.584 247.948 443.288C248.156 442.984 248.44 442.748 248.8 442.58C249.168 442.412 249.588 442.328 250.06 442.328C250.676 442.328 251.22 442.476 251.692 442.772C252.164 443.068 252.5 443.484 252.7 444.02L251.5 444.584C251.388 444.288 251.2 444.052 250.936 443.876C250.672 443.7 250.376 443.612 250.048 443.612C249.784 443.612 249.576 443.672 249.424 443.792C249.272 443.912 249.196 444.068 249.196 444.26C249.196 444.38 249.228 444.484 249.292 444.572C249.356 444.66 249.444 444.732 249.556 444.788C249.676 444.844 249.812 444.896 249.964 444.944L251.008 445.256C251.544 445.416 251.956 445.656 252.244 445.976C252.54 446.296 252.688 446.688 252.688 447.152C252.688 447.544 252.584 447.892 252.376 448.196C252.168 448.492 251.88 448.724 251.512 448.892C251.144 449.06 250.712 449.144 250.216 449.144Z" fill="#4D4D4D"/>
<path d="M343.216 449.144C342.52 449.144 341.912 448.98 341.392 448.652C340.88 448.316 340.528 447.864 340.336 447.296L341.512 446.732C341.68 447.1 341.912 447.388 342.208 447.596C342.512 447.804 342.848 447.908 343.216 447.908C343.504 447.908 343.732 447.844 343.9 447.716C344.068 447.588 344.152 447.42 344.152 447.212C344.152 447.084 344.116 446.98 344.044 446.9C343.98 446.812 343.888 446.74 343.768 446.684C343.656 446.62 343.532 446.568 343.396 446.528L342.328 446.228C341.776 446.068 341.356 445.824 341.068 445.496C340.788 445.168 340.648 444.78 340.648 444.332C340.648 443.932 340.748 443.584 340.948 443.288C341.156 442.984 341.44 442.748 341.8 442.58C342.168 442.412 342.588 442.328 343.06 442.328C343.676 442.328 344.22 442.476 344.692 442.772C345.164 443.068 345.5 443.484 345.7 444.02L344.5 444.584C344.388 444.288 344.2 444.052 343.936 443.876C343.672 443.7 343.376 443.612 343.048 443.612C342.784 443.612 342.576 443.672 342.424 443.792C342.272 443.912 342.196 444.068 342.196 444.26C342.196 444.38 342.228 444.484 342.292 444.572C342.356 444.66 342.444 444.732 342.556 444.788C342.676 444.844 342.812 444.896 342.964 444.944L344.008 445.256C344.544 445.416 344.956 445.656 345.244 445.976C345.54 446.296 345.688 446.688 345.688 447.152C345.688 447.544 345.584 447.892 345.376 448.196C345.168 448.492 344.88 448.724 344.512 448.892C344.144 449.06 343.712 449.144 343.216 449.144Z" fill="#4D4D4D"/>
<path d="M220.752 449V433.904H217.296V431.12H224.016V449H220.752ZM229.784 449V446.528L234.632 441.464C235.592 440.456 236.328 439.656 236.84 439.064C237.368 438.456 237.736 437.936 237.944 437.504C238.152 437.072 238.256 436.632 238.256 436.184C238.256 435.432 238.016 434.84 237.536 434.408C237.072 433.976 236.472 433.76 235.736 433.76C234.968 433.76 234.304 433.984 233.744 434.432C233.184 434.864 232.776 435.504 232.52 436.352L229.664 435.464C229.856 434.52 230.248 433.704 230.84 433.016C231.432 432.312 232.152 431.776 233 431.408C233.864 431.024 234.776 430.832 235.736 430.832C236.888 430.832 237.896 431.04 238.76 431.456C239.64 431.872 240.32 432.456 240.8 433.208C241.296 433.96 241.544 434.84 241.544 435.848C241.544 436.488 241.424 437.12 241.184 437.744C240.944 438.368 240.584 439.008 240.104 439.664C239.624 440.304 239 441.024 238.232 441.824L234.032 446.24H241.784V449H229.784Z" fill="#4D4D4D"/>
<path d="M303.391 449V446.528L308.239 441.464C309.199 440.456 309.935 439.656 310.447 439.064C310.975 438.456 311.343 437.936 311.551 437.504C311.759 437.072 311.863 436.632 311.863 436.184C311.863 435.432 311.623 434.84 311.143 434.408C310.679 433.976 310.079 433.76 309.343 433.76C308.575 433.76 307.911 433.984 307.351 434.432C306.791 434.864 306.383 435.504 306.127 436.352L303.271 435.464C303.463 434.52 303.855 433.704 304.447 433.016C305.039 432.312 305.759 431.776 306.607 431.408C307.471 431.024 308.383 430.832 309.343 430.832C310.495 430.832 311.503 431.04 312.367 431.456C313.247 431.872 313.927 432.456 314.407 433.208C314.903 433.96 315.151 434.84 315.151 435.848C315.151 436.488 315.031 437.12 314.791 437.744C314.551 438.368 314.191 439.008 313.711 439.664C313.231 440.304 312.607 441.024 311.839 441.824L307.639 446.24H315.391V449H303.391ZM327.504 449.288C326.08 449.288 324.832 448.904 323.76 448.136C322.688 447.368 321.848 446.288 321.24 444.896C320.648 443.504 320.352 441.888 320.352 440.048C320.352 438.192 320.648 436.576 321.24 435.2C321.832 433.824 322.664 432.752 323.736 431.984C324.808 431.216 326.056 430.832 327.48 430.832C328.936 430.832 330.192 431.216 331.248 431.984C332.32 432.752 333.16 433.832 333.768 435.224C334.376 436.6 334.68 438.208 334.68 440.048C334.68 441.888 334.376 443.504 333.768 444.896C333.176 446.272 332.344 447.352 331.272 448.136C330.2 448.904 328.944 449.288 327.504 449.288ZM327.528 446.312C328.344 446.312 329.04 446.064 329.616 445.568C330.192 445.056 330.632 444.336 330.936 443.408C331.256 442.464 331.416 441.344 331.416 440.048C331.416 438.752 331.256 437.64 330.936 436.712C330.632 435.768 330.184 435.048 329.592 434.552C329.016 434.056 328.312 433.808 327.48 433.808C326.68 433.808 325.992 434.056 325.416 434.552C324.84 435.048 324.392 435.768 324.072 436.712C323.768 437.64 323.616 438.752 323.616 440.048C323.616 441.328 323.768 442.44 324.072 443.384C324.392 444.312 324.84 445.032 325.416 445.544C326.008 446.056 326.712 446.312 327.528 446.312Z" fill="#4D4D4D"/>
<line x1="118.354" y1="436.354" x2="106.354" y2="448.354" stroke="#4C4C4C"/>
<line x1="210.354" y1="436.354" x2="198.354" y2="448.354" stroke="#4C4C4C"/>
<line x1="301.354" y1="436.354" x2="289.354" y2="448.354" stroke="#4C4C4C"/>
<defs>
<filter id="filter0_bd_801_2" x="0" y="0" width="449" height="771" filterUnits="userSpaceOnUse" color-interpolation-filters="sRGB">
<feFlood flood-opacity="0" result="BackgroundImageFix"/>
<feGaussianBlur in="BackgroundImageFix" stdDeviation="10"/>
<feComposite in2="SourceAlpha" operator="in" result="effect1_backgroundBlur_801_2"/>
<feColorMatrix in="SourceAlpha" type="matrix" values="0 0 0 0 0 0 0 0 0 0 0 0 0 0 0 0 0 0 127 0" result="hardAlpha"/>
<feOffset dy="4"/>
<feGaussianBlur stdDeviation="31"/>
<feComposite in2="hardAlpha" operator="out"/>
<feColorMatrix type="matrix" values="0 0 0 0 0.57339 0 0 0 0 0.541806 0 0 0 0 0.783333 0 0 0 0.25 0"/>
<feBlend mode="normal" in2="effect1_backgroundBlur_801_2" result="effect2_dropShadow_801_2"/>
<feBlend mode="normal" in="SourceGraphic" in2="effect2_dropShadow_801_2" result="shape"/>
</filter>
<linearGradient id="paint0_linear_801_2" x1="106.484" y1="110.29" x2="106.484" y2="135.133" gradientUnits="userSpaceOnUse">
<stop stop-color="#7564E6" stop-opacity="0"/>
<stop offset="0.421875" stop-color="#7564E6"/>
<stop offset="1" stop-color="#7564E6" stop-opacity="0"/>
</linearGradient>
</defs>
</svg>
